<?xml version="1.0" encoding="UTF-8" standalone="no"?><svg width="1188.067" height="1200" xmlns="http://www.w3.org/2000/svg" stroke-linejoin="round" stroke-linecap="round" fill-rule="evenodd" fill="none"><rect x="0" y="0" width="1188.067" height="1200" fill="#CCCAC2"/><style><![CDATA[@import url("https://fonts.googleapis.com/css2?family=IM+Fell+Great+Primer&display=swap");]]></style><defs/><g><path d=" M 0,0"/><g transform="translate(401.658 656.863) scale(8.693 8.693)"><path d=" M 0,0"/><g><path d=" M 0,0"/><g><path d=" M 0,0"/></g><g><path d=" M 0,0"/></g></g><g><path d=" M 0,0"/><path d=" M -1.334,-3.275 L -0.858,-2.126 L -1.334,-0.977 L -2.483,-0.501 L -3.632,-0.977 L -4.108,-2.126 L -3.632,-3.275 L -2.483,-3.751 L -1.334,-3.275" fill="#130F26"/></g><g><path d=" M 0,0"/><path d=" M -10.054,-4.043 L -16.238,-4.705 L -14.998,-16.277 L -8.814,-15.614 L -9.23,-11.735 L -12.364,-12.071 L -12.771,-8.274 L -9.637,-7.938 L -10.054,-4.043" fill="#130F26"/></g><g><path d=" M 0,0"/><path d=" M 17.902,2.141 L 21.975,7.551 L 7.132,18.727 L 0.943,10.508 L 5.204,7.3 L 7.319,10.109 L 17.902,2.141" fill="#130F26"/></g><g><path d=" M 0,0"/><path d=" M 18.511,-9.347 L 18.511,-8.747 L 17.905,-8.088 L 15.029,-8.341 L 15.029,-8.941 L 17.905,-8.688 L 18.511,-9.347" fill="#130F26" stroke="#130F26" stroke-width="0.061"/><path d=" M 13.244,-11.636 L 13.244,-11.036 L 10.143,-14.492 L 10.143,-15.092 L 13.244,-11.636" fill="#130F26" stroke="#130F26" stroke-width="0.061"/><path d=" M 17.072,-13.084 L 17.072,-12.484 L 15.33,-11.753 L 15.007,-8.089 L 12.999,-8.266 L 12.999,-8.866 L 15.007,-8.689 L 15.33,-12.353 L 17.072,-13.084" fill="#130F26" stroke="#130F26" stroke-width="0.061"/><path d=" M 13.244,-11.636 L 13.244,-11.036 L 13.022,-8.523 L 12.044,-8.609 L 10.275,-10.17 L 7.745,-10.234 L 6.956,-9.605 L 5.768,-10.566 L 5.768,-11.166 L 6.956,-10.205 L 7.745,-10.834 L 10.275,-10.77 L 12.044,-9.209 L 13.022,-9.123 L 13.244,-11.636" fill="#130F26" stroke="#130F26" stroke-width="0.061"/><path d=" M 5.814,-11.207 L 5.814,-10.607 L 1.747,-13.898 L 1.747,-14.498 L 5.814,-11.207" fill="#130F26" stroke="#130F26" stroke-width="0.061"/><path d=" M 10.739,-15.627 L 10.739,-15.027 L 5.814,-10.607 L 5.814,-11.207 L 10.739,-15.627" fill="#130F26" stroke="#130F26" stroke-width="0.061"/><path d=" M 5.672,-19.558 L 5.672,-18.958 L 1.426,-13.484 L -0.35,-14.921 L -0.35,-15.521 L 1.426,-14.084 L 5.672,-19.558" fill="#130F26" stroke="#130F26" stroke-width="0.061"/><path d=" M 14.124,-18.664 L 14.124,-18.064 L 10.739,-15.027 L 3.298,-20.799 L 3.298,-21.399 L 10.739,-15.627 L 14.124,-18.664" fill="#130F26" stroke="#130F26" stroke-width="0.061"/><path d=" M 17.905,-8.688 L 15.029,-8.941 L 15.33,-12.353 L 16.961,-13.038 L 18.511,-9.347 L 17.905,-8.688" fill="#9B989C" stroke="#130F26" stroke-width="0.061"/><path d=" M 15.007,-8.689 L 12.999,-8.866 L 13.244,-11.636 L 10.143,-15.092 L 14.26,-18.786 L 15.43,-16.997 L 17.072,-13.084 L 15.33,-12.353 L 15.007,-8.689" fill="#9B989C" stroke="#130F26" stroke-width="0.061"/><path d=" M 6.956,-10.205 L 5.768,-11.166 L 10.143,-15.092 L 13.244,-11.636 L 13.022,-9.123 L 12.044,-9.209 L 10.275,-10.77 L 7.745,-10.834 L 6.956,-10.205" fill="#99969A" stroke="#130F26" stroke-width="0.061"/><path d=" M 10.739,-15.627 L 5.814,-11.207 L 1.747,-14.498 L 5.672,-19.558 L 10.739,-15.627" fill="#99969A" stroke="#130F26" stroke-width="0.061"/><path d=" M 1.426,-14.084 L -0.35,-15.521 L 2.804,-21.782 L 5.672,-19.558 L 1.426,-14.084" fill="#9A979B" stroke="#130F26" stroke-width="0.061"/><path d=" M 8.543,-27.197 L 14.124,-18.664 L 10.739,-15.627 L 3.298,-21.399 L 6.151,-27.062 L 7.032,-26.706 L 8.543,-27.197" fill="#A29FA3" stroke="#130F26" stroke-width="0.061"/></g><g><path d=" M 0,0"/><path d=" M -6.964,8.972 L -6.964,9.572 L -7.261,10.641 L -7.261,10.041 L -6.964,8.972" fill="#130F26" stroke="#130F26" stroke-width="0.061"/><path d=" M -6.981,10.657 L -6.981,11.257 L -13.258,12.294 L -13.258,11.694 L -6.981,10.657" fill="#130F26" stroke="#130F26" stroke-width="0.061"/><path d=" M -8.47,19.104 L -8.47,19.704 L -14.055,19.328 L -14.055,18.728 L -8.47,19.104" fill="#130F26" stroke="#130F26" stroke-width="0.061"/><path d=" M -2.71,16.448 L -2.71,17.048 L -7.725,19.755 L -8.47,19.704 L -8.85,11.565 L -8.85,10.965 L -8.47,19.104 L -7.725,19.155 L -2.71,16.448" fill="#130F26" stroke="#130F26" stroke-width="0.061"/><path d=" M -7.11,10.678 L -7.11,11.278 L -7.149,11.419 L -7.149,10.819 L -7.11,10.678" fill="#130F26" stroke="#130F26" stroke-width="0.061"/><path d=" M -7.565,23.578 L -7.565,24.178 L -12.288,27.214 L -12.486,26.951 L -13.673,26.677 L -13.673,26.077 L -12.486,26.351 L -12.288,26.614 L -7.565,23.578" fill="#130F26" stroke="#130F26" stroke-width="0.061"/><path d=" M -1.22,19.499 L -1.22,20.099 L -7.565,24.178 L -8.9,19.675 L -8.9,19.075 L -7.565,23.578 L -1.22,19.499" fill="#130F26" stroke="#130F26" stroke-width="0.061"/><path d=" M -3.249,30.525 L -3.249,31.125 L -3.513,34.821 L -3.648,34.812 L -3.896,34.991 L -8.786,31.823 L -8.786,31.223 L -3.896,34.391 L -3.648,34.212 L -3.513,34.221 L -3.249,30.525" fill="#130F26" stroke="#130F26" stroke-width="0.061"/><path d=" M -5.109,27.632 L -5.109,28.232 L -8.154,31.206 L -11.285,29.177 L -11.285,28.577 L -8.154,30.606 L -5.109,27.632" fill="#130F26" stroke="#130F26" stroke-width="0.061"/><path d=" M -11.244,27.793 L -11.244,28.393 L -12.182,27.146 L -12.182,26.546 L -11.244,27.793" fill="#130F26" stroke="#130F26" stroke-width="0.061"/><path d=" M 0.309,35.78 L 0.309,36.38 L -1.124,34.992 L -1.552,34.962 L -1.552,34.362 L -1.124,34.392 L 0.309,35.78" fill="#130F26" stroke="#130F26" stroke-width="0.061"/><path d=" M -1.381,31.976 L -1.381,32.576 L -2.596,30.685 L -2.596,30.085 L -1.381,31.976" fill="#130F26" stroke="#130F26" stroke-width="0.061"/><path d=" M 4.586,28.389 L 4.586,28.989 L 4.164,36.594 L 0.309,36.38 L 0.309,35.78 L 4.164,35.994 L 4.586,28.389" fill="#130F26" stroke="#130F26" stroke-width="0.061"/><path d=" M 10.064,35.534 L 10.064,36.134 L 9.775,36.535 L 4.185,36.225 L 4.185,35.625 L 9.775,35.935 L 10.064,35.534" fill="#130F26" stroke="#130F26" stroke-width="0.061"/><path d=" M 2.5,28.034 L 2.5,28.634 L -0.273,31.647 L -5.803,23.045 L -5.803,22.445 L -0.273,31.047 L 2.5,28.034" fill="#130F26" stroke="#130F26" stroke-width="0.061"/><path d=" M 0.61,23.186 L 0.61,23.786 L 0.214,24.405 L 0.214,23.805 L 0.61,23.186" fill="#130F26" stroke="#130F26" stroke-width="0.061"/><path d=" M -12.762,4.343 L -6.964,8.972 L -7.261,10.041 L -6.981,10.657 L -13.258,11.694 L -12.762,4.343" fill="#928F93" stroke="#130F26" stroke-width="0.061"/><path d=" M -8.47,19.104 L -14.055,18.728 L -13.584,11.748 L -8.85,10.965 L -8.47,19.104" fill="#ACA9AD" stroke="#130F26" stroke-width="0.061"/><path d=" M -3.95,14.15 L -2.71,16.448 L -7.725,19.155 L -8.47,19.104 L -8.85,10.965 L -7.11,10.678 L -7.149,10.819 L -6.1,13.123 L -3.95,14.15" fill="#8E8C8F" stroke="#130F26" stroke-width="0.061"/><path d=" M -13.673,26.077 L -13.181,18.786 L -8.9,19.075 L -7.565,23.578 L -12.288,26.614 L -12.486,26.351 L -13.673,26.077" fill="#969397" stroke="#130F26" stroke-width="0.061"/><path d=" M -7.725,19.155 L -2.831,16.514 L -1.22,19.499 L -7.565,23.578 L -8.9,19.075 L -7.725,19.155" fill="#B2AFB3" stroke="#130F26" stroke-width="0.061"/><path d=" M -5.109,27.632 L -3.249,30.525 L -3.513,34.221 L -3.648,34.212 L -3.896,34.391 L -8.786,31.223 L -5.109,27.632" fill="#8C898D" stroke="#130F26" stroke-width="0.061"/><path d=" M -11.244,27.793 L -12.182,26.546 L -7.671,23.646 L -5.109,27.632 L -8.154,30.606 L -11.285,28.577 L -11.244,27.793" fill="#939094" stroke="#130F26" stroke-width="0.061"/><path d=" M 4.164,35.994 L 0.309,35.78 L -1.124,34.392 L -1.552,34.362 L -1.381,31.976 L -2.596,30.085 L -1.39,29.309 L -0.273,31.047 L 2.669,27.85 L 3.184,28.324 L 4.586,28.389 L 4.164,35.994" fill="#9F9CA0" stroke="#130F26" stroke-width="0.061"/><path d=" M 5.712,28.44 L 5.748,28.413 L 10.064,35.534 L 9.775,35.935 L 4.185,35.625 L 4.586,28.389 L 5.712,28.44" fill="#949195" stroke="#130F26" stroke-width="0.061"/><path d=" M 2.4,28.029 L 2.5,28.034 L -0.273,31.047 L -5.803,22.445 L -1.339,19.575 L 0.61,23.186 L 0.214,23.805 L 0.538,26.315 L 2.4,28.029" fill="#989599" stroke="#130F26" stroke-width="0.061"/></g><g><path d=" M 0,0"/><path d=" M -4.5,-26.258 L -4.5,-25.658 L -6.676,-23.009 L -9.854,-25.62 L -9.854,-26.22 L -6.676,-23.609 L -4.5,-26.258" fill="#130F26" stroke="#130F26" stroke-width="0.061"/><path d=" M -4.5,-26.258 L -4.5,-25.658 L -4.54,-27.489 L -4.54,-28.089 L -4.5,-26.258" fill="#130F26" stroke="#130F26" stroke-width="0.061"/><path d=" M -1.246,-24.586 L -1.246,-23.986 L -3.917,-20.734 L -6.68,-23.004 L -6.68,-23.604 L -3.917,-21.334 L -1.246,-24.586" fill="#130F26" stroke="#130F26" stroke-width="0.061"/><path d=" M -1.211,-24.628 L -1.211,-24.028 L -1.246,-23.986 L -2.884,-25.332 L -2.953,-28.49 L -2.953,-29.09 L -2.884,-25.932 L -1.246,-24.586 L -1.211,-24.628" fill="#130F26" stroke="#130F26" stroke-width="0.061"/><path d=" M 1.849,-22.553 L 1.849,-21.953 L 0.711,-19.694 L -2.857,-22.024 L -2.857,-22.624 L 0.711,-20.294 L 1.849,-22.553" fill="#130F26" stroke="#130F26" stroke-width="0.061"/><path d=" M 0.456,-20.46 L 0.456,-19.86 L -0.453,-18.056 L -3.835,-20.834 L -3.835,-21.434 L -0.453,-18.656 L 0.456,-20.46" fill="#130F26" stroke="#130F26" stroke-width="0.061"/><path d=" M 1.424,-23.092 L 1.424,-22.492 L 0.324,-23.047 L 0.211,-28.228 L 0.211,-28.828 L 0.324,-23.647 L 1.424,-23.092" fill="#130F26" stroke="#130F26" stroke-width="0.061"/><path d=" M 4.006,-28.218 L 4.006,-27.618 L 1.424,-22.492 L 1.424,-23.092 L 4.006,-28.218" fill="#130F26" stroke="#130F26" stroke-width="0.061"/><path d=" M -6.647,-26.948 L -4.53,-27.658 L -4.5,-26.258 L -6.676,-23.609 L -9.854,-26.22 L -7.824,-27.41 L -6.647,-26.948" fill="#969397" stroke="#130F26" stroke-width="0.061"/><path d=" M -3.917,-21.334 L -6.68,-23.604 L -4.5,-26.258 L -4.54,-28.089 L -4.091,-28.823 L -2.948,-28.848 L -2.884,-25.932 L -1.246,-24.586 L -3.917,-21.334" fill="#A09DA1" stroke="#130F26" stroke-width="0.061"/><path d=" M -2.953,-29.09 L -1.31,-29.126 L -1.211,-24.628 L -1.246,-24.586 L -2.884,-25.932 L -2.953,-29.09" fill="#A5A2A6" stroke="#130F26" stroke-width="0.061"/><path d=" M -2.857,-22.624 L -1.252,-24.578 L 1.849,-22.553 L 0.711,-20.294 L -2.857,-22.624" fill="#A09DA1" stroke="#130F26" stroke-width="0.061"/><path d=" M -0.453,-18.656 L -3.835,-21.434 L -2.857,-22.624 L 0.456,-20.46 L -0.453,-18.656" fill="#99969A" stroke="#130F26" stroke-width="0.061"/><path d=" M 4.006,-28.218 L 1.424,-23.092 L 0.324,-23.647 L 0.211,-28.828 L 3.371,-28.897 L 3.657,-28.359 L 4.006,-28.218" fill="#A4A1A5" stroke="#130F26" stroke-width="0.061"/><path d=" M -2.256,-15.848 L -2.256,-15.248 L -5.435,-16.024 L -5.435,-16.624 L -2.256,-15.848" fill="#130F26" stroke="#130F26" stroke-width="0.061"/><path d=" M -1.642,-17.067 L -1.642,-16.467 L -2.256,-15.248 L -2.256,-15.848 L -1.642,-17.067" fill="#130F26" stroke="#130F26" stroke-width="0.061"/><path d=" M -5.435,-16.624 L -5.435,-16.024 L -10.001,-17.139 L -10.001,-17.739 L -5.435,-16.624" fill="#130F26" stroke="#130F26" stroke-width="0.061"/><path d=" M -4.757,-17.942 L -4.757,-17.342 L -5.435,-16.024 L -5.435,-16.624 L -4.757,-17.942" fill="#130F26" stroke="#130F26" stroke-width="0.061"/><path d=" M -4.154,-19.113 L -4.154,-18.513 L -4.757,-17.342 L -8.82,-19.433 L -8.82,-20.033 L -4.757,-17.942 L -4.154,-19.113" fill="#130F26" stroke="#130F26" stroke-width="0.061"/><path d=" M -7.853,-21.911 L -7.853,-21.311 L -10.001,-17.139 L -12.526,-17.756 L -12.526,-18.356 L -10.001,-17.739 L -7.853,-21.911" fill="#130F26" stroke="#130F26" stroke-width="0.061"/><path d=" M -9.58,-24.106 L -9.58,-23.506 L -11.455,-19.846 L -15.205,-23.569 L -15.205,-24.169 L -11.455,-20.446 L -9.58,-24.106" fill="#130F26" stroke="#130F26" stroke-width="0.061"/><path d=" M -16.536,-22.049 L -16.536,-21.449 L -16.586,-21.932 L -16.586,-22.532 L -16.536,-22.049" fill="#130F26" stroke="#130F26" stroke-width="0.061"/><path d=" M -11.455,-20.446 L -11.455,-19.846 L -12.526,-17.756 L -13.981,-18.111 L -13.981,-18.711 L -12.526,-18.356 L -11.455,-20.446" fill="#130F26" stroke="#130F26" stroke-width="0.061"/><path d=" M -13.651,-20.061 L -13.651,-19.461 L -16.552,-21.425 L -16.552,-22.025 L -13.651,-20.061" fill="#130F26" stroke="#130F26" stroke-width="0.061"/><path d=" M -13.651,-20.061 L -13.651,-19.461 L -13.981,-18.111 L -15.956,-18.593 L -16.106,-17.198 L -19.537,-18.356 L -19.537,-18.956 L -16.106,-17.798 L -15.956,-19.193 L -13.981,-18.711 L -13.651,-20.061" fill="#130F26" stroke="#130F26" stroke-width="0.061"/><path d=" M -16.106,-17.798 L -16.106,-17.198 L -16.416,-14.304 L -21.361,-15.972 L -21.361,-16.572 L -16.416,-14.904 L -16.106,-17.798" fill="#130F26" stroke="#130F26" stroke-width="0.061"/><path d=" M -19.299,-12.609 L -19.299,-12.009 L -19.774,-10.211 L -23.475,-10.93 L -23.909,-11.897 L -23.909,-12.497 L -23.475,-11.53 L -19.774,-10.811 L -19.299,-12.609" fill="#130F26" stroke="#130F26" stroke-width="0.061"/><path d=" M -18.506,-15.609 L -18.506,-15.009 L -19.299,-12.009 L -22.871,-13.474 L -22.871,-14.074 L -19.299,-12.609 L -18.506,-15.609" fill="#130F26" stroke="#130F26" stroke-width="0.061"/><path d=" M -16.894,-10.442 L -16.894,-9.842 L -19.726,-10.393 L -19.726,-10.993 L -16.894,-10.442" fill="#130F26" stroke="#130F26" stroke-width="0.061"/><path d=" M -16.416,-14.904 L -16.416,-14.304 L -16.894,-9.842 L -16.894,-10.442 L -16.416,-14.904" fill="#130F26" stroke="#130F26" stroke-width="0.061"/><path d=" M -1.642,-17.067 L -2.256,-15.848 L -5.435,-16.624 L -4.148,-19.125 L -1.642,-17.067" fill="#9D9A9E" stroke="#130F26" stroke-width="0.061"/><path d=" M -4.757,-17.942 L -5.435,-16.624 L -10.001,-17.739 L -8.82,-20.033 L -4.757,-17.942" fill="#ADA9AE" stroke="#130F26" stroke-width="0.061"/><path d=" M -7.766,-22.081 L -4.154,-19.113 L -4.757,-17.942 L -8.82,-20.033 L -7.766,-22.081" fill="#918E92" stroke="#130F26" stroke-width="0.061"/><path d=" M -9.86,-23.559 L -7.853,-21.911 L -10.001,-17.739 L -12.526,-18.356 L -9.86,-23.559" fill="#99969A" stroke="#130F26" stroke-width="0.061"/><path d=" M -15.205,-24.169 L -11.968,-26.067 L -9.58,-24.106 L -11.455,-20.446 L -15.205,-24.169" fill="#A4A1A6" stroke="#130F26" stroke-width="0.061"/><path d=" M -13.651,-20.061 L -16.552,-22.025 L -16.536,-22.049 L -16.586,-22.532 L -14.681,-23.649 L -11.455,-20.446 L -12.526,-18.356 L -13.981,-18.711 L -13.651,-20.061" fill="#A6A3A7" stroke="#130F26" stroke-width="0.061"/><path d=" M -17.357,-20.268 L -16.288,-21.846 L -13.651,-20.061 L -13.981,-18.711 L -15.956,-19.193 L -16.106,-17.798 L -19.537,-18.956 L -19.058,-19.783 L -17.357,-20.268" fill="#989599" stroke="#130F26" stroke-width="0.061"/><path d=" M -16.416,-14.904 L -21.361,-16.572 L -19.908,-19.081 L -16.106,-17.798 L -16.416,-14.904" fill="#A9A6AB" stroke="#130F26" stroke-width="0.061"/><path d=" M -23.909,-12.497 L -22.972,-14.115 L -19.299,-12.609 L -19.774,-10.811 L -23.475,-11.53 L -23.909,-12.497" fill="#A6A2A7" stroke="#130F26" stroke-width="0.061"/><path d=" M -22.871,-14.074 L -21.415,-16.59 L -18.506,-15.609 L -19.299,-12.609 L -22.871,-14.074" fill="#949195" stroke="#130F26" stroke-width="0.061"/><path d=" M -16.416,-14.904 L -16.894,-10.442 L -19.726,-10.993 L -18.506,-15.609 L -16.416,-14.904" fill="#9C999D" stroke="#130F26" stroke-width="0.061"/><path d=" M -15.056,15.746 L -15.056,16.346 L -15.33,20.408 L -17.555,20.928 L -17.927,16.152 L -17.927,15.552 L -17.555,20.328 L -15.33,19.808 L -15.056,15.746" fill="#130F26" stroke="#130F26" stroke-width="0.061"/><path d=" M -18.061,14.745 L -18.061,15.345 L -18.115,16.14 L -18.115,15.54 L -18.061,14.745" fill="#130F26" stroke="#130F26" stroke-width="0.061"/><path d=" M -17.555,20.328 L -17.555,20.928 L -18.018,21.036 L -20.015,18.22 L -20.015,17.62 L -18.018,20.436 L -17.555,20.328" fill="#130F26" stroke="#130F26" stroke-width="0.061"/><path d=" M -19.899,15.427 L -19.899,16.027 L -20.707,14.954 L -20.707,14.354 L -19.899,15.427" fill="#130F26" stroke="#130F26" stroke-width="0.061"/><path d=" M -17.769,10.423 L -17.769,11.023 L -18.061,15.345 L -20.986,14.913 L -20.986,14.313 L -18.061,14.745 L -17.769,10.423" fill="#130F26" stroke="#130F26" stroke-width="0.061"/><path d=" M -17.38,4.645 L -17.38,5.245 L -17.769,11.023 L -20.329,10.644 L -20.329,10.044 L -17.769,10.423 L -17.38,4.645" fill="#130F26" stroke="#130F26" stroke-width="0.061"/><path d=" M -15.895,15.689 L -15.895,16.289 L -18.115,16.14 L -18.115,15.54 L -15.895,15.689" fill="#130F26" stroke="#130F26" stroke-width="0.061"/><path d=" M -15.533,10.329 L -15.533,10.929 L -15.895,16.289 L -15.895,15.689 L -15.533,10.329" fill="#130F26" stroke="#130F26" stroke-width="0.061"/><path d=" M -14.695,10.386 L -14.695,10.986 L -17.753,10.779 L -17.753,10.179 L -14.695,10.386" fill="#130F26" stroke="#130F26" stroke-width="0.061"/><path d=" M -14.49,7.351 L -14.49,7.951 L -14.695,10.986 L -14.695,10.386 L -14.49,7.351" fill="#130F26" stroke="#130F26" stroke-width="0.061"/><path d=" M -14.286,4.324 L -14.286,4.924 L -14.49,7.951 L -17.548,7.744 L -17.548,7.144 L -14.49,7.351 L -14.286,4.324" fill="#130F26" stroke="#130F26" stroke-width="0.061"/><path d=" M -17.927,15.552 L -15.056,15.746 L -15.33,19.808 L -17.555,20.328 L -17.927,15.552" fill="#979498" stroke="#130F26" stroke-width="0.061"/><path d=" M -19.899,15.427 L -20.707,14.354 L -18.061,14.745 L -18.115,15.54 L -17.927,15.552 L -17.555,20.328 L -18.018,20.436 L -20.015,17.62 L -19.899,15.427" fill="#9E9A9F" stroke="#130F26" stroke-width="0.061"/><path d=" M -18.061,14.745 L -20.986,14.313 L -20.01,10.092 L -17.769,10.423 L -18.061,14.745" fill="#8C898D" stroke="#130F26" stroke-width="0.061"/><path d=" M -19.054,4.532 L -17.38,4.645 L -17.769,10.423 L -20.329,10.044 L -19.054,4.532" fill="#89878A" stroke="#130F26" stroke-width="0.061"/><path d=" M -15.533,10.329 L -15.895,15.689 L -18.115,15.54 L -17.753,10.179 L -15.533,10.329" fill="#A29EA3" stroke="#130F26" stroke-width="0.061"/><path d=" M -14.49,7.351 L -14.695,10.386 L -17.753,10.179 L -17.548,7.144 L -14.49,7.351" fill="#A6A3A7" stroke="#130F26" stroke-width="0.061"/><path d=" M -17.548,7.144 L -17.344,4.118 L -14.286,4.324 L -14.49,7.351 L -17.548,7.144" fill="#89868A" stroke="#130F26" stroke-width="0.061"/><path d=" M -17.878,-1.263 L -17.878,-0.663 L -18.156,1.924 L -22.355,1.702 L -22.355,1.102 L -18.156,1.324 L -17.878,-1.263" fill="#130F26" stroke="#130F26" stroke-width="0.061"/><path d=" M -22.053,-1.71 L -22.053,-1.11 L -22.355,1.702 L -25.226,1.551 L -25.278,1.529 L -25.278,0.929 L -25.226,0.951 L -22.355,1.102 L -22.053,-1.71" fill="#130F26" stroke="#130F26" stroke-width="0.061"/><path d=" M -23.003,-6.168 L -23.003,-5.568 L -23.465,-1.262 L -25.471,-1.477 L -25.471,-2.077 L -23.465,-1.862 L -23.003,-6.168" fill="#130F26" stroke="#130F26" stroke-width="0.061"/><path d=" M -20.48,-8.476 L -20.48,-7.876 L -20.753,-5.327 L -25.611,-5.847 L -25.611,-6.447 L -20.753,-5.927 L -20.48,-8.476" fill="#130F26" stroke="#130F26" stroke-width="0.061"/><path d=" M -17.813,-4.506 L -17.813,-3.906 L -20.871,-4.234 L -20.871,-4.834 L -17.813,-4.506" fill="#130F26" stroke="#130F26" stroke-width="0.061"/><path d=" M -17.467,-7.742 L -17.467,-7.142 L -17.813,-3.906 L -17.813,-4.506 L -17.467,-7.742" fill="#130F26" stroke="#130F26" stroke-width="0.061"/><path d=" M -18.349,-1.313 L -18.349,-0.713 L -21.215,-1.02 L -21.215,-1.62 L -18.349,-1.313" fill="#130F26" stroke="#130F26" stroke-width="0.061"/><path d=" M -18.005,-4.527 L -18.005,-3.927 L -18.349,-0.713 L -18.349,-1.313 L -18.005,-4.527" fill="#130F26" stroke="#130F26" stroke-width="0.061"/><path d=" M -22.739,14.165 L -22.739,14.765 L -22.763,14.76 L -24.365,9.984 L -24.365,9.384 L -22.763,14.16 L -22.739,14.165" fill="#130F26" stroke="#130F26" stroke-width="0.061"/><path d=" M -21.617,9.314 L -21.617,9.914 L -22.739,14.765 L -22.739,14.165 L -21.617,9.314" fill="#130F26" stroke="#130F26" stroke-width="0.061"/><path d=" M -20.895,6.194 L -20.895,6.794 L -21.617,9.914 L -23.926,9.973 L -25.287,5.918 L -25.287,5.318 L -23.926,9.373 L -21.617,9.314 L -20.895,6.194" fill="#130F26" stroke="#130F26" stroke-width="0.061"/><path d=" M -24.839,3.319 L -24.839,3.919 L -26.002,1.671 L -26.207,1.586 L -26.207,0.986 L -26.002,1.071 L -24.839,3.319" fill="#130F26" stroke="#130F26" stroke-width="0.061"/><path d=" M -23.602,1.037 L -23.602,1.637 L -24.217,6.026 L -25.257,5.785 L -25.257,5.185 L -24.217,5.426 L -23.602,1.037" fill="#130F26" stroke="#130F26" stroke-width="0.061"/><path d=" M -22.053,-1.71 L -17.878,-1.263 L -18.156,1.324 L -22.355,1.102 L -22.053,-1.71" fill="#99969A" stroke="#130F26" stroke-width="0.061"/><path d=" M -25.278,0.929 L -25.121,-2.039 L -22.053,-1.71 L -22.355,1.102 L -25.226,0.951 L -25.278,0.929" fill="#9A979B" stroke="#130F26" stroke-width="0.061"/><path d=" M -25.471,-2.077 L -25.243,-6.408 L -23.003,-6.168 L -23.465,-1.862 L -25.471,-2.077" fill="#9A979B" stroke="#130F26" stroke-width="0.061"/><path d=" M -24.2,-9.199 L -20.48,-8.476 L -20.753,-5.927 L -25.611,-6.447 L -25.572,-7.198 L -24.574,-7.876 L -24.2,-9.199" fill="#8D8A8E" stroke="#130F26" stroke-width="0.061"/><path d=" M -17.467,-7.742 L -17.813,-4.506 L -20.871,-4.834 L -20.496,-8.331 L -17.467,-7.742" fill="#908D91" stroke="#130F26" stroke-width="0.061"/><path d=" M -18.005,-4.527 L -18.349,-1.313 L -21.215,-1.62 L -20.871,-4.834 L -18.005,-4.527" fill="#8B888C" stroke="#130F26" stroke-width="0.061"/><path d=" M -21.617,9.314 L -22.739,14.165 L -22.763,14.16 L -24.365,9.384 L -21.617,9.314" fill="#99969A" stroke="#130F26" stroke-width="0.061"/><path d=" M -23.926,9.373 L -25.287,5.318 L -25.257,5.185 L -20.895,6.194 L -21.617,9.314 L -23.926,9.373" fill="#9C989D" stroke="#130F26" stroke-width="0.061"/><path d=" M -24.217,5.426 L -25.257,5.185 L -24.839,3.319 L -26.002,1.071 L -26.207,0.986 L -26.202,0.899 L -23.602,1.037 L -24.217,5.426" fill="#8B888C" stroke="#130F26" stroke-width="0.061"/></g><g><path d=" M 0,0"/></g><g><path d=" M 0,0"/></g><g><path d=" M 0,0"/><path d=" M 24.32,-7.418 L 24.32,-6.818 L 24.317,-6.886 L 23.775,-7.49 L 23.775,-8.09 L 24.317,-7.486 L 24.32,-7.418" fill="#130F26" stroke="#130F26" stroke-width="0.061"/><path d=" M 31.354,-4.977 L 31.354,-4.377 L 25.026,-1.31 L 24.298,-3.184 L 24.298,-3.784 L 25.026,-1.91 L 31.354,-4.977" fill="#130F26" stroke="#130F26" stroke-width="0.061"/><path d=" M 24.811,-4.438 L 24.811,-3.838 L 24.725,-6.367 L 24.32,-6.818 L 24.32,-7.418 L 24.725,-6.967 L 24.811,-4.438" fill="#130F26" stroke="#130F26" stroke-width="0.061"/><path d=" M 33.236,-1.872 L 33.236,-1.272 L 26.338,2.071 L 25.026,-1.31 L 25.026,-1.91 L 26.338,1.471 L 33.236,-1.872" fill="#130F26" stroke="#130F26" stroke-width="0.061"/><path d=" M 30.281,7.442 L 30.281,8.042 L 29.829,7.354 L 29.829,6.754 L 30.281,7.442" fill="#130F26" stroke="#130F26" stroke-width="0.061"/><path d=" M 29.849,6.585 L 29.849,7.185 L 29.569,6.757 L 29.569,6.157 L 29.849,6.585" fill="#130F26" stroke="#130F26" stroke-width="0.061"/><path d=" M 34.025,2.891 L 34.025,3.491 L 32.611,8.943 L 30.227,8.495 L 30.227,7.895 L 32.611,8.343 L 34.025,2.891" fill="#130F26" stroke="#130F26" stroke-width="0.061"/><path d=" M 33.741,3.099 L 33.741,3.699 L 32.172,4.849 L 29.563,0.508 L 29.563,-0.092 L 32.172,4.249 L 33.741,3.099" fill="#130F26" stroke="#130F26" stroke-width="0.061"/><path d=" M 33.383,-1.307 L 33.383,-0.707 L 33.272,-0.579 L 33.237,1.952 L 33.237,1.352 L 33.272,-1.179 L 33.383,-1.307" fill="#130F26" stroke="#130F26" stroke-width="0.061"/><path d=" M 33.963,2.243 L 33.963,2.843 L 33.741,3.699 L 33.741,3.099 L 33.963,2.243" fill="#130F26" stroke="#130F26" stroke-width="0.061"/><path d=" M 32.172,4.249 L 32.172,4.849 L 29.631,6.712 L 28.618,5.166 L 27.42,4.806 L 26.355,2.063 L 26.355,1.463 L 27.42,4.206 L 28.618,4.566 L 29.631,6.112 L 32.172,4.249" fill="#130F26" stroke="#130F26" stroke-width="0.061"/><path d=" M 24.446,-16.214 L 24.446,-15.614 L 23.967,-15.188 L 23.635,-12.917 L 18.909,-12.214 L 17.83,-14.785 L 17.83,-15.385 L 18.909,-12.814 L 23.635,-13.517 L 23.967,-15.788 L 24.446,-16.214" fill="#130F26" stroke="#130F26" stroke-width="0.061"/><path d=" M 25.036,-9.032 L 25.036,-8.432 L 23.74,-7.463 L 23.033,-8.25 L 20.528,-8.605 L 20.446,-8.554 L 18.909,-12.214 L 18.909,-12.814 L 20.446,-9.154 L 20.528,-9.205 L 23.033,-8.85 L 23.74,-8.063 L 25.036,-9.032" fill="#130F26" stroke="#130F26" stroke-width="0.061"/><path d=" M 23.635,-13.517 L 23.635,-12.917 L 23.373,-11.127 L 23.373,-11.727 L 23.635,-13.517" fill="#130F26" stroke="#130F26" stroke-width="0.061"/><path d=" M 17.963,-23.386 L 17.963,-22.786 L 14.489,-20.514 L 10.572,-26.504 L 10.572,-27.104 L 14.489,-21.114 L 17.963,-23.386" fill="#130F26" stroke="#130F26" stroke-width="0.061"/><path d=" M 17.564,-24.053 L 17.564,-23.453 L 17.559,-23.418 L 17.559,-24.018 L 17.564,-24.053" fill="#130F26" stroke="#130F26" stroke-width="0.061"/><path d=" M 23.084,-18.231 L 23.084,-17.631 L 19.633,-15.762 L 16.992,-20.637 L 15.183,-19.454 L 14.489,-20.514 L 14.489,-21.114 L 15.183,-20.054 L 16.992,-21.237 L 19.633,-16.362 L 23.084,-18.231" fill="#130F26" stroke="#130F26" stroke-width="0.061"/><path d=" M 19.633,-16.362 L 19.633,-15.762 L 18.03,-14.893 L 17.651,-15.795 L 15.235,-19.489 L 15.235,-20.089 L 17.651,-16.395 L 18.03,-15.493 L 19.633,-16.362" fill="#130F26" stroke="#130F26" stroke-width="0.061"/><path d=" M 24.725,-6.967 L 24.32,-7.418 L 24.317,-7.486 L 23.775,-8.09 L 24.976,-8.987 L 25.121,-8.753 L 25.231,-8.716 L 25.528,-8.234 L 29.424,-6.944 L 30.046,-7.191 L 31.354,-4.977 L 25.026,-1.91 L 24.298,-3.784 L 24.811,-4.438 L 24.725,-6.967" fill="#8B888C" stroke="#130F26" stroke-width="0.061"/><path d=" M 31.392,-4.995 L 33.236,-1.872 L 26.338,1.471 L 25.026,-1.91 L 31.392,-4.995" fill="#ABA8AD" stroke="#130F26" stroke-width="0.061"/><path d=" M 32.611,8.343 L 30.227,7.895 L 30.281,7.442 L 29.829,6.754 L 29.849,6.585 L 29.569,6.157 L 34.025,2.891 L 32.611,8.343" fill="#99969A" stroke="#130F26" stroke-width="0.061"/><path d=" M 33.963,2.243 L 33.741,3.099 L 32.172,4.249 L 29.563,-0.092 L 33.091,-1.801 L 33.383,-1.307 L 33.272,-1.179 L 33.237,1.352 L 33.963,2.243" fill="#848285" stroke="#130F26" stroke-width="0.061"/><path d=" M 27.42,4.206 L 26.355,1.463 L 29.563,-0.092 L 32.172,4.249 L 29.631,6.112 L 28.618,4.566 L 27.42,4.206" fill="#989599" stroke="#130F26" stroke-width="0.061"/><path d=" M 18.909,-12.814 L 17.83,-15.385 L 23.084,-18.231 L 24.446,-16.214 L 23.967,-15.788 L 23.635,-13.517 L 18.909,-12.814" fill="#99969A" stroke="#130F26" stroke-width="0.061"/><path d=" M 23.635,-13.517 L 23.373,-11.727 L 25.036,-9.032 L 23.74,-8.063 L 23.033,-8.85 L 20.528,-9.205 L 20.446,-9.154 L 18.909,-12.814 L 23.635,-13.517" fill="#A09DA1" stroke="#130F26" stroke-width="0.061"/><path d=" M 17.559,-24.018 L 17.963,-23.386 L 14.489,-21.114 L 10.572,-27.104 L 17.564,-24.053 L 17.559,-24.018" fill="#989599" stroke="#130F26" stroke-width="0.061"/><path d=" M 17.988,-23.403 L 18.57,-22.493 L 20.647,-21.842 L 23.084,-18.231 L 19.633,-16.362 L 16.992,-21.237 L 15.183,-20.054 L 14.489,-21.114 L 17.988,-23.403" fill="#A09DA1" stroke="#130F26" stroke-width="0.061"/><path d=" M 17.651,-16.395 L 15.235,-20.089 L 16.992,-21.237 L 19.633,-16.362 L 18.03,-15.493 L 17.651,-16.395" fill="#989599" stroke="#130F26" stroke-width="0.061"/><path d=" M 28.378,21.426 L 26.644,25.515 L 17.58,18.433 L 23.243,14.17 L 26.674,16.85 L 26.964,20.024 L 28.378,21.426" fill="#130F26"/><path d=" M 22.41,23.13 L 22.41,23.73 L 17.967,27.672 L 13.939,21.174 L 13.939,20.574 L 17.967,27.072 L 22.41,23.13" fill="#130F26" stroke="#130F26" stroke-width="0.061"/><path d=" M 26.812,26.57 L 26.812,27.17 L 26.175,28.671 L 25.529,28.721 L 23.723,30.494 L 23.634,31.413 L 21.085,32.701 L 17.967,27.672 L 17.967,27.072 L 21.085,32.101 L 23.634,30.813 L 23.723,29.894 L 25.529,28.121 L 26.175,28.071 L 26.812,26.57" fill="#130F26" stroke="#130F26" stroke-width="0.061"/><path d=" M 20.795,31.634 L 20.795,32.234 L 16.557,34.376 L 13.69,29.752 L 13.69,29.152 L 16.557,33.776 L 20.795,31.634" fill="#130F26" stroke="#130F26" stroke-width="0.061"/><path d=" M 14.397,35.482 L 14.397,36.082 L 13.326,35.555 L 11.65,35.968 L 9.468,32.37 L 9.468,31.77 L 11.65,35.368 L 13.326,34.955 L 14.397,35.482" fill="#130F26" stroke="#130F26" stroke-width="0.061"/><path d=" M 16.847,34.244 L 16.847,34.844 L 14.397,36.082 L 14.397,35.482 L 16.847,34.244" fill="#130F26" stroke="#130F26" stroke-width="0.061"/><path d=" M 14.685,28.536 L 14.685,29.136 L 10.14,31.953 L 7.923,28.298 L 7.923,27.698 L 10.14,31.353 L 14.685,28.536" fill="#130F26" stroke="#130F26" stroke-width="0.061"/><path d=" M 9.153,25.934 L 9.153,26.534 L 9.073,25.643 L 9.073,25.043 L 9.153,25.934" fill="#130F26" stroke="#130F26" stroke-width="0.061"/><path d=" M 17.711,26.66 L 17.711,27.26 L 14.685,29.136 L 11.671,24.273 L 11.671,23.673 L 14.685,28.536 L 17.711,26.66" fill="#130F26" stroke="#130F26" stroke-width="0.061"/><path d=" M 17.967,27.072 L 13.939,20.574 L 16.587,18.581 L 22.41,23.13 L 17.967,27.072" fill="#A09DA1" stroke="#130F26" stroke-width="0.061"/><path d=" M 22.41,23.13 L 26.812,26.57 L 26.175,28.071 L 25.529,28.121 L 23.723,29.894 L 23.634,30.813 L 21.085,32.101 L 17.967,27.072 L 22.41,23.13" fill="#A4A1A5" stroke="#130F26" stroke-width="0.061"/><path d=" M 17.711,26.66 L 20.795,31.634 L 16.557,33.776 L 13.69,29.152 L 17.711,26.66" fill="#ADAAAE" stroke="#130F26" stroke-width="0.061"/><path d=" M 16.847,34.244 L 14.397,35.482 L 13.326,34.955 L 11.65,35.368 L 9.468,31.77 L 13.69,29.152 L 16.847,34.244" fill="#939194" stroke="#130F26" stroke-width="0.061"/><path d=" M 9.073,25.043 L 11.423,23.273 L 14.685,28.536 L 10.14,31.353 L 7.923,27.698 L 9.153,25.934 L 9.073,25.043" fill="#A09CA1" stroke="#130F26" stroke-width="0.061"/><path d=" M 11.671,23.673 L 14.527,21.522 L 17.711,26.66 L 14.685,28.536 L 11.671,23.673" fill="#8E8B8F" stroke="#130F26" stroke-width="0.061"/></g><g><path d=" M 0,0"/></g><g><path d=" M 0,0"/></g><g><path d=" M 0,0"/></g><g><path d=" M 0,0"/><path d=" M -51.87,2.733 L -51.514,6.872 M -50.835,-0.211 L -50.242,6.687 M -49.8,-3.155 L -48.97,6.503 M -48.766,-6.099 L -47.698,6.319 M -47.562,-7.074 L -46.427,6.134 M -46.316,-7.555 L -45.155,5.95 M -45.037,-7.665 L -43.883,5.765 M -43.759,-7.775 L -42.611,5.581 M -42.481,-7.884 L -41.339,5.396 M -41.203,-7.994 L -40.068,5.212 M -39.925,-8.104 L -38.796,5.028 M -38.646,-8.214 L -37.524,4.843 M -37.368,-8.324 L -36.252,4.659 M -36.09,-8.434 L -34.98,4.474 M -34.812,-8.544 L -33.709,4.29 M -33.533,-8.653 L -32.523,3.109 M -32.19,-8.009 L -31.861,-4.177 M -52.135,6.962 L -52.991,5.922 L -48.746,-6.157 L -47.019,-7.494 L -32.911,-8.707 L -31.685,-7.52 L -32.229,2.787 L -33.584,4.272 L -52.135,6.962" stroke="#A5A2A2" stroke-width="0.061" stroke-linejoin="round" stroke-linecap="butt"/></g><g><path d=" M 0,0"/><path d=" M -4.912,-34.862 L -2.703,-34.447 M -5.47,-36.277 L 3.543,-34.584 M -5.232,-37.542 L 8.314,-34.998 M -4.994,-38.807 L 8.692,-36.236 M -4.757,-40.072 L 8.863,-37.514 M -4.519,-41.337 L 9.033,-38.792 M -4.281,-42.602 L 9.204,-40.069 M -4.044,-43.868 L 9.375,-41.347 M -3.806,-45.133 L 9.546,-42.625 M -3.568,-46.398 L 9.717,-43.902 M -3.331,-47.663 L 9.888,-45.18 M -3.093,-48.928 L 10.059,-46.458 M -2.194,-50.069 L 9.283,-47.913 M 8.616,-35.667 L 8.102,-34.527 L 6.46,-34.648 L -4.526,-34.408 L -5.586,-35.657 L -2.977,-49.548 L -1.465,-50.554 L 8.999,-48.316 L 10.098,-46.756 L 8.616,-35.667" stroke="#A5A2A2" stroke-width="0.061" stroke-linejoin="round" stroke-linecap="butt"/></g><g><path d=" M 0,0"/><path d=" M -56.885,-28.516 L -60.188,-22.375 M -55.311,-28.8 L -59.602,-20.823 M -54.208,-28.207 L -58.692,-19.871 M -53.106,-27.614 L -57.783,-18.919 M -52.003,-27.021 L -56.874,-17.967 M -50.901,-26.428 L -55.964,-17.016 M -49.799,-25.835 L -55.055,-16.064 M -48.696,-25.242 L -54.146,-15.112 M -47.594,-24.649 L -53.236,-14.16 M -46.492,-24.056 L -52.327,-13.208 M -45.389,-23.463 L -51.418,-12.256 M -44.287,-22.87 L -50.508,-11.305 M -43.184,-22.277 L -49.599,-10.353 M -42.082,-21.684 L -48.432,-9.879 M -40.98,-21.091 L -47.224,-9.484 M -39.877,-20.498 L -45.733,-9.612 M -38.775,-19.905 L -44.243,-9.74 M -37.673,-19.312 L -42.753,-9.868 M -36.57,-18.719 L -41.262,-9.997 M -35.468,-18.126 L -39.772,-10.125 M -34.366,-17.533 L -38.282,-10.253 M -33.263,-16.94 L -36.792,-10.381 M -32.161,-16.347 L -35.301,-10.509 M -31.058,-15.754 L -33.811,-10.637 M -30.286,-14.548 L -31.996,-11.369 M -28.229,-17.585 L -24.234,-25.013 M -29.781,-17.337 L -24.814,-26.569 M -30.88,-17.929 L -25.712,-27.536 M -31.98,-18.52 L -26.609,-28.503 M -33.079,-19.112 L -27.507,-29.47 M -34.178,-19.703 L -28.404,-30.437 M -35.278,-20.295 L -29.301,-31.405 M -36.377,-20.886 L -30.199,-32.372 M -37.477,-21.478 L -31.096,-33.339 M -38.576,-22.069 L -31.994,-34.306 M -39.676,-22.66 L -32.891,-35.273 M -40.775,-23.252 L -33.788,-36.24 M -41.875,-23.843 L -34.686,-37.207 M -42.974,-24.435 L -35.583,-38.174 M -44.074,-25.026 L -36.481,-39.141 M -45.173,-25.618 L -37.579,-39.735 M -46.273,-26.209 L -38.686,-40.312 M -47.372,-26.801 L -40.005,-40.497 M -48.472,-27.392 L -41.324,-40.679 M -49.571,-27.984 L -42.644,-40.862 M -50.671,-28.575 L -43.963,-41.044 M -51.77,-29.167 L -45.283,-41.226 M -52.87,-29.758 L -46.602,-41.409 M -53.969,-30.35 L -47.922,-41.591 M -54.734,-31.562 L -49.776,-40.78 M -30.55,-15.48 L -30.056,-13.739 L -31.098,-11.939 L -33.045,-10.703 L -47.357,-9.473 L -49.55,-10.301 L -60.068,-21.311 L -60.301,-23.368 L -57.307,-28.399 L -55.497,-28.901 L -30.55,-15.48 M -54.474,-30.621 L -54.954,-32.354 L -50.005,-40.67 L -48.052,-41.609 L -38.693,-40.315 L -36.521,-39.185 L -24.352,-26.071 L -24.12,-23.993 L -27.751,-17.721 L -29.547,-17.212 L -54.474,-30.621" stroke="#A5A2A2" stroke-width="0.061" stroke-linejoin="round" stroke-linecap="butt"/><path d=" M -51.39,-27.051 L -51.39,-26.691 L -52.065,-25.437 L -54.986,-27.009 L -55.547,-25.966 L -56.733,-26.604 L -56.733,-26.964 L -55.547,-26.326 L -54.986,-27.369 L -52.065,-25.797 L -51.39,-27.051" fill="#130F26" stroke="#130F26" stroke-width="0.061"/><path d=" M -56.733,-26.964 L -55.497,-29.261 L -51.39,-27.051 L -52.065,-25.797 L -54.986,-27.369 L -55.547,-26.326 L -56.733,-26.964" fill="#9A979B" stroke="#130F26" stroke-width="0.061"/></g><g><path d=" M 0,0"/></g><g><path d=" M 0,0"/><path d=" M -23.686,-28.294 L -22.195,-27.331 M -27.051,-31.92 L -20.231,-27.52 M -30.416,-35.546 L -19.049,-28.213 M -33.781,-39.173 L -17.867,-28.906 M -34.864,-41.327 L -16.685,-29.598 M -34.696,-42.674 L -15.503,-30.291 M -34.033,-43.701 L -14.321,-30.984 M -33.37,-44.729 L -13.139,-31.677 M -32.707,-45.756 L -11.958,-32.37 M -32.044,-46.784 L -10.776,-33.063 M -31.381,-47.812 L -9.594,-33.755 M -30.718,-48.839 L -8.542,-34.532 M -29.476,-49.494 L -7.676,-35.429 M -8.756,-39.234 L -6.207,-43.186 M -9.831,-39.927 L -5.581,-46.514 M -10.906,-40.621 L -4.956,-49.843 M -11.981,-41.314 L -4.331,-53.171 M -13.055,-42.007 L -3.706,-56.499 M -14.13,-42.701 L -3.866,-58.61 M -15.205,-43.394 L -4.639,-59.771 M -16.28,-44.088 L -5.799,-60.333 M -17.354,-44.781 L -6.958,-60.895 M -18.429,-45.474 L -8.118,-61.457 M -19.504,-46.168 L -9.277,-62.019 M -20.579,-46.861 L -10.437,-62.581 M -21.653,-47.554 L -11.596,-63.143 M -22.728,-48.248 L -12.756,-63.705 M -23.803,-48.941 L -13.915,-64.267 M -24.878,-49.635 L -15.075,-64.829 M -25.952,-50.328 L -16.234,-65.391 M -27.027,-51.021 L -17.394,-65.953 M -27.744,-52.27 L -18.909,-65.963 M -8.636,-36.776 L -7.661,-35.445 L -8.9,-34.162 L -20.882,-27.138 L -22.888,-27.434 L -34.769,-40.237 L -34.948,-42.282 L -30.428,-49.288 L -28.631,-49.676 L -8.636,-36.776 M -27.547,-51.357 L -27.934,-53.154 L -19.838,-65.703 L -17.963,-66.228 L -4.39,-59.651 L -3.461,-57.806 L -6.904,-39.472 L -8.237,-38.899 L -27.547,-51.357" stroke="#A5A2A2" stroke-width="0.061" stroke-linejoin="round" stroke-linecap="butt"/></g><g><path d=" M 0,0"/><path d=" M 45.055,12.271 L 45.055,12.871 L 43.718,14.196 L 41.431,12.137 L 41.431,11.537 L 43.718,13.596 L 45.055,12.271" fill="#130F26" stroke="#130F26" stroke-width="0.061"/><path d=" M 43.718,13.596 L 43.718,14.196 L 41.876,16.023 L 39.583,13.959 L 39.583,13.359 L 41.876,15.423 L 43.718,13.596" fill="#130F26" stroke="#130F26" stroke-width="0.061"/><path d=" M 52.063,5.742 L 52.063,6.342 L 49.211,9.169 L 46.079,6.009 L 46.079,5.409 L 49.211,8.569 L 52.063,5.742" fill="#130F26" stroke="#130F26" stroke-width="0.061"/><path d=" M 38.588,22.565 L 38.588,23.165 L 34.643,24.446 L 34.181,23.021 L 34.181,22.421 L 34.643,23.846 L 38.588,22.565" fill="#130F26" stroke="#130F26" stroke-width="0.061"/><path d=" M 40.403,20.55 L 40.403,21.15 L 38.588,23.165 L 38.588,22.565 L 40.403,20.55" fill="#130F26" stroke="#130F26" stroke-width="0.061"/><path d=" M 40.189,18.136 L 40.189,18.736 L 39.859,16.39 L 39.859,15.79 L 40.189,18.136" fill="#130F26" stroke="#130F26" stroke-width="0.061"/><path d=" M 43.612,16.987 L 43.612,17.587 L 40.403,21.15 L 39.232,20.266 L 39.232,19.666 L 40.403,20.55 L 43.612,16.987" fill="#130F26" stroke="#130F26" stroke-width="0.061"/><path d=" M 41.319,14.922 L 41.319,15.522 L 39.368,16.682 L 39.096,14.742 L 38.908,14.573 L 38.908,13.973 L 39.096,14.142 L 39.368,16.082 L 41.319,14.922" fill="#130F26" stroke="#130F26" stroke-width="0.061"/><path d=" M 37.801,31.589 L 37.801,32.189 L 36.598,34.85 L 34.235,33.782 L 34.235,33.182 L 36.598,34.25 L 37.801,31.589" fill="#130F26" stroke="#130F26" stroke-width="0.061"/><path d=" M 40.064,32.611 L 40.064,33.211 L 38.526,36.613 L 36.263,35.59 L 36.263,34.99 L 38.526,36.013 L 40.064,32.611" fill="#130F26" stroke="#130F26" stroke-width="0.061"/><path d=" M 35.537,26.599 L 35.537,27.199 L 32.13,26.873 L 32.13,26.273 L 35.537,26.599" fill="#130F26" stroke="#130F26" stroke-width="0.061"/><path d=" M 35.261,30.913 L 35.261,31.513 L 34.244,33.762 L 31.474,32.51 L 31.474,31.91 L 34.244,33.162 L 35.261,30.913" fill="#130F26" stroke="#130F26" stroke-width="0.061"/><path d=" M 31.52,31.84 L 31.52,32.44 L 31.242,29.925 L 31.038,29.73 L 31.038,29.13 L 31.242,29.325 L 31.52,31.84" fill="#130F26" stroke="#130F26" stroke-width="0.061"/><path d=" M 36.237,28.753 L 36.237,29.353 L 35.261,31.513 L 30.545,29.381 L 30.545,28.781 L 35.261,30.913 L 36.237,28.753" fill="#130F26" stroke="#130F26" stroke-width="0.061"/><path d=" M 41.431,11.537 L 42.689,10.14 L 45.055,12.271 L 43.718,13.596 L 41.431,11.537" fill="#A6A3A7" stroke="#130F26" stroke-width="0.061"/><path d=" M 41.876,15.423 L 39.583,13.359 L 41.317,11.434 L 43.718,13.596 L 41.876,15.423" fill="#9F9CA0" stroke="#130F26" stroke-width="0.061"/><path d=" M 46.079,5.409 L 48.322,3.116 L 49.161,2.39 L 52.063,5.742 L 49.211,8.569 L 46.079,5.409" fill="#A29FA3" stroke="#130F26" stroke-width="0.061"/><path d=" M 40.403,20.55 L 38.588,22.565 L 34.643,23.846 L 34.181,22.421 L 36.991,21.508 L 38.491,19.107 L 40.403,20.55" fill="#9D9A9E" stroke="#130F26" stroke-width="0.061"/><path d=" M 40.403,20.55 L 39.232,19.666 L 40.189,18.136 L 39.859,15.79 L 41.319,14.922 L 43.612,16.987 L 40.403,20.55" fill="#8C8A8D" stroke="#130F26" stroke-width="0.061"/><path d=" M 38.908,13.973 L 39.516,13.298 L 41.319,14.922 L 39.368,16.082 L 39.096,14.142 L 38.908,13.973" fill="#908D91" stroke="#130F26" stroke-width="0.061"/><path d=" M 36.598,34.25 L 34.235,33.182 L 35.438,30.521 L 37.801,31.589 L 36.598,34.25" fill="#8A888B" stroke="#130F26" stroke-width="0.061"/><path d=" M 37.801,31.589 L 40.064,32.611 L 38.526,36.013 L 36.263,34.99 L 37.801,31.589" fill="#A6A3A7" stroke="#130F26" stroke-width="0.061"/><path d=" M 33.692,22.589 L 34.183,22.429 L 35.537,26.599 L 32.13,26.273 L 33.692,22.589" fill="#A5A2A6" stroke="#130F26" stroke-width="0.061"/><path d=" M 31.038,29.13 L 31.083,29.024 L 35.261,30.913 L 34.244,33.162 L 31.474,31.91 L 31.52,31.84 L 31.242,29.325 L 31.038,29.13" fill="#9E9B9F" stroke="#130F26" stroke-width="0.061"/><path d=" M 30.545,28.781 L 31.629,26.225 L 35.537,26.599 L 36.237,28.753 L 35.261,30.913 L 30.545,28.781" fill="#8B898C" stroke="#130F26" stroke-width="0.061"/><path d=" M 32.405,-23.755 L 32.405,-23.155 L 29.545,-21.007 L 26.501,-25.06 L 26.501,-25.66 L 29.545,-21.607 L 32.405,-23.755" fill="#130F26" stroke="#130F26" stroke-width="0.061"/><path d=" M 24.349,-24.044 L 24.349,-23.444 L 24.233,-23.615 L 24.233,-24.215 L 24.349,-24.044" fill="#130F26" stroke="#130F26" stroke-width="0.061"/><path d=" M 24.372,-24.404 L 24.372,-23.804 L 24.201,-26.33 L 22.631,-27.963 L 22.631,-28.563 L 24.201,-26.93 L 24.372,-24.404" fill="#130F26" stroke="#130F26" stroke-width="0.061"/><path d=" M 28.29,-27.004 L 28.29,-26.404 L 24.349,-23.444 L 24.349,-24.044 L 28.29,-27.004" fill="#130F26" stroke="#130F26" stroke-width="0.061"/><path d=" M 29.361,-27.808 L 32.405,-23.755 L 29.545,-21.607 L 26.501,-25.66 L 29.361,-27.808" fill="#939194" stroke="#130F26" stroke-width="0.061"/><path d=" M 28.29,-27.004 L 24.349,-24.044 L 24.233,-24.215 L 24.372,-24.404 L 24.201,-26.93 L 22.631,-28.563 L 23.47,-30.803 L 28.29,-27.004" fill="#928F93" stroke="#130F26" stroke-width="0.061"/><path d=" M 51.865,-1.501 L 51.865,-0.901 L 51.597,-0.706 L 47.499,2.841 L 47.069,3.281 L 45.009,0.817 L 45.009,0.217 L 47.069,2.681 L 47.499,2.241 L 51.597,-1.306 L 51.865,-1.501" fill="#130F26" stroke="#130F26" stroke-width="0.061"/><path d=" M 42.727,-2.513 L 42.727,-1.913 L 42.594,1.175 L 41.379,1.658 L 41.379,1.058 L 42.594,0.575 L 42.727,-2.513" fill="#130F26" stroke="#130F26" stroke-width="0.061"/><path d=" M 41.577,0.758 L 41.577,1.358 L 41.286,-1.156 L 39.448,-2.895 L 38.658,-2.942 L 38.658,-3.542 L 39.448,-3.495 L 41.286,-1.756 L 41.577,0.758" fill="#130F26" stroke="#130F26" stroke-width="0.061"/><path d=" M 38.209,-3.224 L 38.209,-2.624 L 36.669,-5.231 L 36.669,-5.831 L 38.209,-3.224" fill="#130F26" stroke="#130F26" stroke-width="0.061"/><path d=" M 40.676,-4.968 L 40.676,-4.368 L 38.209,-2.624 L 38.209,-3.224 L 40.676,-4.968" fill="#130F26" stroke="#130F26" stroke-width="0.061"/><path d=" M 38.734,-7.291 L 38.734,-6.691 L 36.653,-5.219 L 35.275,-7.553 L 35.275,-8.153 L 36.653,-5.819 L 38.734,-7.291" fill="#130F26" stroke="#130F26" stroke-width="0.061"/><path d=" M 40.874,8.912 L 40.874,9.512 L 37.73,13.003 L 36.908,12.262 L 36.908,11.662 L 37.73,12.403 L 40.874,8.912" fill="#130F26" stroke="#130F26" stroke-width="0.061"/><path d=" M 42.763,6.487 L 42.763,7.087 L 40.677,9.403 L 38.048,7.939 L 38.048,7.339 L 40.677,8.803 L 42.763,6.487" fill="#130F26" stroke="#130F26" stroke-width="0.061"/><path d=" M 42.743,6.477 L 42.743,7.077 L 38.768,5.074 L 38.768,4.474 L 42.743,6.477" fill="#130F26" stroke="#130F26" stroke-width="0.061"/><path d=" M 44.483,4.583 L 44.483,5.183 L 44.057,5.618 L 42.743,7.077 L 42.743,6.477 L 44.057,5.018 L 44.483,4.583" fill="#130F26" stroke="#130F26" stroke-width="0.061"/><path d=" M 45.523,0.832 L 45.523,1.432 L 43.009,3.979 L 41.017,2.352 L 41.017,1.752 L 43.009,3.379 L 45.523,0.832" fill="#130F26" stroke="#130F26" stroke-width="0.061"/><path d=" M 41.017,1.751 L 41.017,2.351 L 40.97,1.941 L 40.97,1.341 L 41.017,1.751" fill="#130F26" stroke="#130F26" stroke-width="0.061"/><path d=" M 47.069,2.681 L 47.069,3.281 L 44.886,5.512 L 43.009,3.979 L 43.009,3.379 L 44.886,4.912 L 47.069,2.681" fill="#130F26" stroke="#130F26" stroke-width="0.061"/><path d=" M 38.506,-10.282 L 38.506,-9.682 L 35.435,-7.658 L 34.731,-8.851 L 34.731,-9.451 L 35.435,-8.258 L 38.506,-10.282" fill="#130F26" stroke="#130F26" stroke-width="0.061"/><path d=" M 36.059,-13.528 L 36.059,-12.928 L 35.419,-14.367 L 35.419,-14.967 L 36.059,-13.528" fill="#130F26" stroke="#130F26" stroke-width="0.061"/><path d=" M 37.02,-17.505 L 37.02,-16.905 L 34.836,-15.708 L 34.672,-16.074 L 34.254,-16.278 L 32.048,-19.698 L 32.048,-20.298 L 34.254,-16.878 L 34.672,-16.674 L 34.836,-16.308 L 37.02,-17.505" fill="#130F26" stroke="#130F26" stroke-width="0.061"/><path d=" M 49.891,-3.863 L 51.865,-1.501 L 51.597,-1.306 L 47.499,2.241 L 47.069,2.681 L 45.009,0.217 L 49.891,-3.863" fill="#8D8B8E" stroke="#130F26" stroke-width="0.061"/><path d=" M 39.448,-3.495 L 38.658,-3.542 L 40.676,-4.968 L 42.727,-2.513 L 42.594,0.575 L 41.379,1.058 L 41.577,0.758 L 41.286,-1.756 L 39.448,-3.495" fill="#99969A" stroke="#130F26" stroke-width="0.061"/><path d=" M 40.676,-4.968 L 38.209,-3.224 L 36.669,-5.831 L 38.734,-7.291 L 40.676,-4.968" fill="#969397" stroke="#130F26" stroke-width="0.061"/><path d=" M 36.653,-5.819 L 35.275,-8.153 L 37.041,-9.317 L 38.734,-7.291 L 36.653,-5.819" fill="#A29FA3" stroke="#130F26" stroke-width="0.061"/><path d=" M 36.908,11.662 L 38.031,7.33 L 40.874,8.912 L 37.73,12.403 L 36.908,11.662" fill="#99969A" stroke="#130F26" stroke-width="0.061"/><path d=" M 38.048,7.339 L 38.788,4.484 L 42.763,6.487 L 40.677,8.803 L 38.048,7.339" fill="#8C898D" stroke="#130F26" stroke-width="0.061"/><path d=" M 44.057,5.018 L 42.743,6.477 L 38.768,4.474 L 38.868,4.09 L 39.624,3.864 L 41.017,1.752 L 44.483,4.583 L 44.057,5.018" fill="#A09DA1" stroke="#130F26" stroke-width="0.061"/><path d=" M 41.017,1.751 L 40.97,1.341 L 41.076,1.179 L 44.63,-0.236 L 45.523,0.832 L 43.009,3.379 L 41.017,1.752 L 41.017,1.751" fill="#8C898D" stroke="#130F26" stroke-width="0.061"/><path d=" M 45.523,0.832 L 47.069,2.681 L 44.886,4.912 L 43.009,3.379 L 45.523,0.832" fill="#A09DA1" stroke="#130F26" stroke-width="0.061"/><path d=" M 36.059,-13.528 L 35.419,-14.967 L 38.506,-10.282 L 35.435,-8.258 L 34.731,-9.451 L 34.927,-9.583 L 36.059,-13.528" fill="#908D91" stroke="#130F26" stroke-width="0.061"/><path d=" M 32.048,-20.298 L 34.183,-21.901 L 37.02,-17.505 L 34.836,-16.308 L 34.672,-16.674 L 34.254,-16.878 L 32.048,-20.298" fill="#89878A" stroke="#130F26" stroke-width="0.061"/></g><g><path d=" M 0,0"/></g><g><path d=" M 0,0"/></g><g><path d=" M 0,0"/><path d=" M -68.482,-1.992 L -54.726,2.842 M -68.678,-3.421 L -53.679,1.85 M -68.253,-4.631 L -53.254,0.64 M -67.827,-5.842 L -52.829,-0.571 M -67.402,-7.052 L -52.403,-1.781 M -66.977,-8.263 L -51.978,-2.992 M -66.551,-9.473 L -51.553,-4.202 M -66.126,-10.683 L -51.127,-5.412 M -65.7,-11.894 L -50.702,-6.623 M -65.275,-13.104 L -50.879,-8.045 M -64.85,-14.315 L -51.753,-9.712 M -64.424,-15.525 L -53.709,-11.759 M -63.999,-16.735 L -55.665,-13.807 M -63.574,-17.946 L -57.62,-15.854 M -63.148,-19.156 L -59.576,-17.901 M -62.941,-19.745 L -61.612,-20.032 L -51.089,-9.017 L -50.622,-6.85 L -53.886,2.439 L -55.544,3.235 L -68.09,-1.174 L -68.885,-2.832 L -62.941,-19.745" stroke="#A5A2A2" stroke-width="0.061" stroke-linejoin="round" stroke-linecap="butt"/></g><g><path d=" M 0,0"/><path d=" M -26.952,-59.538 L -21.417,-67.956 M -28.388,-59.686 L -21.816,-69.681 M -29.459,-60.39 L -22.602,-70.819 M -30.53,-61.095 L -23.388,-71.956 M -31.6,-61.799 L -24.175,-73.093 M -32.671,-62.503 L -24.961,-74.23 M -33.742,-63.207 L -25.747,-75.367 M -34.813,-63.911 L -26.533,-76.504 M -35.884,-64.615 L -27.514,-77.345 M -36.955,-65.319 L -28.621,-77.994 M -38.026,-66.023 L -29.987,-78.25 M -39.097,-66.728 L -31.43,-78.388 M -40.168,-67.432 L -32.873,-78.527 M -41.239,-68.136 L -34.316,-78.665 M -42.31,-68.84 L -35.758,-78.804 M -43.381,-69.544 L -37.201,-78.942 M -44.451,-70.248 L -38.644,-79.081 M -45.522,-70.952 L -40.087,-79.219 M -46.593,-71.657 L -41.53,-79.358 M -47.664,-72.361 L -42.972,-79.496 M -48.735,-73.065 L -44.415,-79.635 M -49.806,-73.769 L -45.858,-79.773 M -50.877,-74.473 L -47.301,-79.912 M -51.948,-75.177 L -48.744,-80.05 M -53.019,-75.881 L -50.187,-80.189 M -54.09,-76.585 L -51.629,-80.327 M -54.766,-77.89 L -53.515,-79.792 M -44.93,-67.406 L -56.786,-75.201 M -45.078,-65.976 L -58.131,-74.558 M -45.779,-64.909 L -58.924,-73.552 M -46.48,-63.843 L -59.718,-72.547 M -47.181,-62.777 L -60.512,-71.541 M -47.883,-61.71 L -61.306,-70.536 M -48.584,-60.644 L -61.714,-69.277 M -49.285,-59.577 L -61.747,-67.772 M -49.986,-58.511 L -60.531,-65.445 M -50.687,-57.445 L -59.315,-63.118 M -51.388,-56.378 L -58.099,-60.791 M -52.089,-55.312 L -56.883,-58.464 M -52.79,-54.246 L -55.666,-56.137 M -49.799,-44.929 L -47.758,-43.588 M -51.018,-47.242 L -44.848,-43.185 M -52.178,-49.515 L -41.939,-42.783 M -52.104,-50.978 L -39.029,-42.381 M -51.719,-52.235 L -37.498,-42.885 M -51.025,-53.29 L -36.421,-43.688 M -50.332,-54.345 L -35.737,-44.749 M -49.638,-55.4 L -35.052,-45.81 M -48.944,-56.455 L -34.368,-46.871 M -48.251,-57.51 L -33.683,-47.932 M -47.557,-58.565 L -32.999,-48.993 M -46.864,-59.62 L -32.315,-50.054 M -46.17,-60.675 L -31.63,-51.114 M -45.476,-61.729 L -30.946,-52.175 M -44.783,-62.784 L -30.261,-53.236 M -44.089,-63.839 L -29.577,-54.297 M -43.396,-64.894 L -28.892,-55.358 M -42.143,-65.582 L -28.767,-56.786 M -54.61,-76.927 L -54.891,-78.662 L -54.244,-79.481 L -52.145,-80.377 L -28.875,-78.143 L -26.841,-76.95 L -21.436,-69.131 L -21.401,-66.97 L -26.077,-59.722 L -27.868,-59.344 L -54.61,-76.927 M -53.128,-53.732 L -54.444,-53.798 L -61.839,-67.946 L -61.635,-70.118 L -57.746,-75.046 L -55.854,-75.352 L -45.113,-68.289 L -44.741,-66.489 L -53.128,-53.732 M -43.069,-65.39 L -41.269,-65.762 L -28.952,-57.664 L -28.57,-55.857 L -36.704,-43.249 L -38.697,-42.335 L -47.925,-43.611 L -49.815,-44.941 L -52.18,-49.466 L -52.068,-51.704 L -43.069,-65.39" stroke="#A5A2A2" stroke-width="0.061" stroke-linejoin="round" stroke-linecap="butt"/><path d=" M -54.444,-54.158 L -54.444,-53.798 L -55.613,-56.034 L -55.613,-56.394 L -54.444,-54.158" fill="#130F26" stroke="#130F26" stroke-width="0.061"/><path d=" M -54.41,-57.022 L -54.41,-56.662 L -55.252,-58.272 L -55.252,-58.632 L -54.41,-57.022" fill="#130F26" stroke="#130F26" stroke-width="0.061"/><path d=" M -52.079,-55.395 L -52.079,-55.035 L -54.444,-53.798 L -54.444,-54.158 L -52.079,-55.395" fill="#130F26" stroke="#130F26" stroke-width="0.061"/><path d=" M -47.926,-54.646 L -47.926,-54.286 L -50.361,-50.582 L -52.068,-51.704 L -52.068,-52.064 L -50.361,-50.942 L -47.926,-54.646" fill="#130F26" stroke="#130F26" stroke-width="0.061"/><path d=" M -52.079,-55.395 L -54.444,-54.158 L -55.613,-56.394 L -54.41,-57.022 L -55.252,-58.632 L -54.088,-59.24 L -52.079,-55.395" fill="#ACA8AD" stroke="#130F26" stroke-width="0.061"/><path d=" M -50.361,-50.942 L -52.068,-52.064 L -49.633,-55.768 L -47.926,-54.646 L -50.361,-50.942" fill="#8D8A8E" stroke="#130F26" stroke-width="0.061"/></g><g><path d=" M 0,0"/></g><g><path d=" M 0,0"/><path d=" M -75.458,-21.43 L -73.087,-21.355 M -76.24,-22.702 L -66.663,-22.399 M -76.2,-23.948 L -63.06,-23.533 M -76.161,-25.194 L -61.811,-24.741 M -76.121,-26.44 L -61.083,-25.965 M -76.082,-27.687 L -60.354,-27.189 M -76.043,-28.933 L -59.626,-28.414 M -76.003,-30.179 L -58.897,-29.638 M -75.964,-31.425 L -58.168,-30.863 M -75.925,-32.671 L -57.44,-32.087 M -75.885,-33.917 L -56.711,-33.311 M -75.846,-35.164 L -55.983,-34.536 M -75.806,-36.41 L -55.254,-35.76 M -75.767,-37.656 L -54.525,-36.985 M -75.728,-38.902 L -53.797,-38.209 M -75.688,-40.148 L -53.068,-39.433 M -75.649,-41.395 L -52.34,-40.658 M -74.933,-42.619 L -52.198,-41.901 M -53.718,-44.574 L -53.613,-47.89 M -54.964,-44.613 L -54.79,-50.141 M -56.211,-44.652 L -55.966,-52.392 M -57.457,-44.692 L -57.142,-54.643 M -58.703,-44.731 L -58.319,-56.893 M -59.949,-44.77 L -59.495,-59.144 M -61.195,-44.81 L -60.671,-61.395 M -62.442,-44.849 L -61.847,-63.645 M -63.688,-44.889 L -63.024,-65.896 M -64.934,-44.928 L -64.228,-67.277 M -66.18,-44.967 L -65.456,-67.889 M -67.426,-45.007 L -66.71,-67.684 M -68.673,-45.046 L -67.964,-67.477 M -69.919,-45.086 L -69.218,-67.269 M -71.165,-45.125 L -70.472,-67.061 M -72.411,-45.164 L -71.726,-66.853 M -73.657,-45.204 L -72.98,-66.645 M -74.882,-45.919 L -74.255,-65.773 M -52.546,-42.535 L -51.911,-41.377 L -62.17,-24.139 L -64.118,-22.813 L -75.016,-21.041 L -76.258,-22.132 L -75.631,-41.964 L -74.29,-43.223 L -52.546,-42.535 M -74.227,-45.222 L -75.486,-46.562 L -74.902,-65.034 L -73.578,-66.546 L -65.46,-67.892 L -63.576,-66.952 L -52.451,-45.667 L -53.148,-44.556 L -74.227,-45.222" stroke="#A5A2A2" stroke-width="0.061" stroke-linejoin="round" stroke-linecap="butt"/></g><g><path d=" M 0,0"/><path d=" M -4.313,-76.681 L -20.901,-84.72 M -4.271,-75.247 L -22.239,-83.954 M -4.826,-74.102 L -22.989,-82.904 M -5.381,-72.957 L -23.738,-81.853 M -5.935,-71.812 L -24.487,-80.802 M -6.49,-70.667 L -25.048,-79.661 M -7.045,-69.522 L -25.059,-78.252 M -7.6,-68.377 L -23.967,-76.309 M -8.155,-67.232 L -22.496,-74.182 M -8.71,-66.087 L -21.026,-72.056 M -9.862,-65.232 L -19.549,-69.926 M -4.608,-77.531 L -4.006,-75.794 L -8.975,-65.54 L -10.712,-64.937 L -17.651,-68.3 L -19.56,-69.936 L -25.061,-77.892 L -25.046,-80.019 L -21.87,-84.472 L -19.945,-84.964 L -4.608,-77.531" stroke="#A5A2A2" stroke-width="0.061" stroke-linejoin="round" stroke-linecap="butt"/></g><g><path d=" M 0,0"/><path d=" M 17.449,-86.963 L 15.957,-85.258 M 18.42,-86.114 L 15.934,-83.272 M 19.392,-85.264 L 15.911,-81.285 M 20.363,-84.415 L 15.888,-79.299 M 21.334,-83.565 L 15.865,-77.312 M 22.305,-82.716 L 15.841,-75.326 M 23.277,-81.866 L 15.818,-73.339 M 24.248,-81.017 L 15.795,-71.353 M 25.219,-80.167 L 15.772,-69.366 M 26.19,-79.318 L 16.084,-67.763 M 27.162,-78.468 L 16.775,-66.593 M 28.133,-77.619 L 17.863,-65.877 M 29.104,-76.769 L 19.029,-65.251 M 30.075,-75.92 L 20.196,-64.625 M 30.615,-74.578 L 21.783,-64.479 M 30.554,-75.502 L 30.676,-73.667 L 22.802,-64.665 L 20.801,-64.301 L 16.89,-66.399 L 15.76,-68.313 L 15.977,-86.938 L 16.971,-87.382 L 30.554,-75.502" stroke="#A5A2A2" stroke-width="0.061" stroke-linejoin="round" stroke-linecap="butt"/></g><g><path d=" M 0,0"/></g><g><path d=" M 0,0"/><path d=" M -78.292,-40.931 L -78.019,-49.563 M -79.566,-40.297 L -79.25,-50.276 M -80.818,-40.337 L -80.503,-50.315 M -82.071,-40.376 L -81.756,-50.355 M -83.324,-40.416 L -83.008,-50.394 M -84.577,-40.456 L -84.261,-50.434 M -85.829,-40.495 L -85.514,-50.474 M -87.082,-40.535 L -86.767,-50.513 M -88.335,-40.574 L -88.019,-50.553 M -89.587,-40.614 L -89.272,-50.592 M -90.84,-40.654 L -90.525,-50.632 M -92.093,-40.693 L -91.778,-50.671 M -93.346,-40.733 L -93.03,-50.711 M -94.598,-40.772 L -94.283,-50.751 M -95.83,-41.485 L -95.557,-50.117 M -78.67,-50.257 L -77.412,-48.917 L -77.645,-41.537 L -78.986,-40.279 L -95.178,-40.791 L -96.436,-42.131 L -96.203,-49.511 L -94.863,-50.769 L -78.67,-50.257" stroke="#A5A2A2" stroke-width="0.061" stroke-linejoin="round" stroke-linecap="butt"/></g><g><path d=" M 0,0"/><path d=" M -28.394,-82.027 L -26.219,-81.819 M -28.272,-83.297 L -25.364,-83.018 M -28.15,-84.566 L -24.509,-84.216 M -28.028,-85.835 L -23.654,-85.415 M -27.906,-87.104 L -22.799,-86.614 M -27.785,-88.374 L -21.944,-87.813 M -27.663,-89.643 L -21.089,-89.012 M -27.541,-90.912 L -20.234,-90.21 M -27.419,-92.181 L -19.379,-91.409 M -27.297,-93.45 L -18.524,-92.608 M -27.175,-94.72 L -17.669,-93.807 M -27.054,-95.989 L -16.814,-95.006 M -26.932,-97.258 L -15.959,-96.205 M -26.81,-98.527 L -15.104,-97.403 M -26.688,-99.796 L -14.249,-98.602 M -26.566,-101.066 L -13.394,-99.801 M -25.785,-102.271 L -13.1,-101.054 M -29.095,-102.589 L -36.861,-103.335 M -28.557,-101.257 L -37.838,-102.148 M -28.679,-99.987 L -38.165,-100.898 M -28.801,-98.718 L -38.491,-99.648 M -28.923,-97.449 L -38.818,-98.399 M -29.044,-96.18 L -39.144,-97.149 M -29.166,-94.911 L -39.471,-95.9 M -29.288,-93.641 L -39.797,-94.65 M -29.41,-92.372 L -40.124,-93.401 M -29.532,-91.103 L -40.45,-92.151 M -29.654,-89.834 L -40.776,-90.902 M -29.775,-88.565 L -41.103,-89.652 M -29.897,-87.295 L -41.429,-88.402 M -30.019,-86.026 L -41.756,-87.153 M -30.141,-84.757 L -42.082,-85.903 M -30.263,-83.488 L -42.409,-84.654 M -30.385,-82.219 L -42.735,-83.404 M -31.166,-81.013 L -42.411,-82.092 M -26.508,-101.675 L -25.089,-102.845 L -13.405,-101.724 L -12.866,-100.541 L -26.747,-81.079 L -28.039,-80.072 L -28.452,-81.418 L -26.508,-101.675 M -37.677,-102.764 L -36.055,-103.898 L -29.668,-103.285 L -28.499,-101.866 L -30.443,-81.609 L -31.861,-80.439 L -41.931,-81.406 L -42.896,-82.788 L -37.677,-102.764" stroke="#A5A2A2" stroke-width="0.061" stroke-linejoin="round" stroke-linecap="butt"/></g><g><path d=" M 0,0"/><path d=" M -71.402,-69.526 L -65.138,-70.107 M -72.229,-70.731 L -63.027,-71.583 M -72.346,-72 L -61.937,-72.964 M -72.464,-73.27 L -60.846,-74.346 M -72.581,-74.54 L -59.755,-75.728 M -72.699,-75.81 L -58.664,-77.11 M -72.817,-77.08 L -57.573,-78.491 M -72.934,-78.349 L -56.483,-79.873 M -73.052,-79.619 L -55.628,-81.233 M -73.169,-80.889 L -55.274,-82.546 M -73.287,-82.159 L -55.221,-83.832 M -73.405,-83.429 L -55.401,-85.096 M -73.522,-84.698 L -55.58,-86.36 M -73.64,-85.968 L -55.76,-87.624 M -73.757,-87.238 L -55.94,-88.888 M -73.215,-88.569 L -56.779,-90.091 M -73.814,-87.848 L -72.639,-89.263 L -57.504,-90.664 L -56.027,-89.497 L -55.119,-83.119 L -55.742,-80.812 L -63.367,-71.153 L -65.455,-69.92 L -70.77,-69.039 L -72.172,-70.12 L -73.814,-87.848" stroke="#A5A2A2" stroke-width="0.061" stroke-linejoin="round" stroke-linecap="butt"/></g><g><path d=" M 0,0"/><path d=" M -27.74,-10.155 L -20.24,-23.11 M -20.24,-23.11 L -7.565,-30.54 M -7.565,-30.54 L 7.007,-30.859 M 7.007,-30.859 L 20.817,-24.832 M 20.817,-24.832 L 27.627,-14.745 M 30.723,-9.844 L 37.418,1.494 M 37.418,1.494 L 34.026,14.572 M 32.166,20.049 L 27.061,32.089 M 27.061,32.089 L 12.928,39.234 M 12.928,39.234 L -2.634,38.37 M -2.634,38.37 L -15.383,30.111 M -15.383,30.111 L -23.924,18.06 M -23.924,18.06 L -28.508,4.394 M -28.508,4.394 L -27.74,-10.155" stroke="#130F26" stroke-width="1.9"/><path d=" M -3.572,10.353 L 0.386,4.092 M 3.894,-0.498 L 8.997,-6.07 M 8.997,-6.07 L 21.293,-4.985 M 21.293,-4.985 L 26.679,8.891 M 26.679,8.891 L 4.608,25.509 M 4.608,25.509 L -3.572,10.353" stroke="#130F26" stroke-width="1.9"/><g transform="translate(-27.74 -10.155)"><path d=" M 0,0"/><path d=" M 1.9,0 Q 1.9,0.787 1.344,1.344 Q 0.787,1.9 0,1.9 L 0,1.9 Q -0.787,1.9 -1.344,1.344 Q -1.9,0.787 -1.9,0 L -1.9,0 Q -1.9,-0.787 -1.344,-1.344 Q -0.787,-1.9 0,-1.9 L 0,-1.9 Q 0.787,-1.9 1.344,-1.344 Q 1.9,-0.787 1.9,0 L 1.9,0" fill="#130F26"/></g><g transform="translate(-20.24 -23.11)"><path d=" M 0,0"/><path d=" M 1.9,0 Q 1.9,0.787 1.344,1.344 Q 0.787,1.9 0,1.9 L 0,1.9 Q -0.787,1.9 -1.344,1.344 Q -1.9,0.787 -1.9,0 L -1.9,0 Q -1.9,-0.787 -1.344,-1.344 Q -0.787,-1.9 0,-1.9 L 0,-1.9 Q 0.787,-1.9 1.344,-1.344 Q 1.9,-0.787 1.9,0 L 1.9,0" fill="#130F26"/></g><g transform="translate(-7.565 -30.54)"><path d=" M 0,0"/><path d=" M 1.9,0 Q 1.9,0.787 1.344,1.344 Q 0.787,1.9 0,1.9 L 0,1.9 Q -0.787,1.9 -1.344,1.344 Q -1.9,0.787 -1.9,0 L -1.9,0 Q -1.9,-0.787 -1.344,-1.344 Q -0.787,-1.9 0,-1.9 L 0,-1.9 Q 0.787,-1.9 1.344,-1.344 Q 1.9,-0.787 1.9,0 L 1.9,0" fill="#130F26"/></g><g transform="translate(7.007 -30.859)"><path d=" M 0,0"/><path d=" M 1.9,0 Q 1.9,0.787 1.344,1.344 Q 0.787,1.9 0,1.9 L 0,1.9 Q -0.787,1.9 -1.344,1.344 Q -1.9,0.787 -1.9,0 L -1.9,0 Q -1.9,-0.787 -1.344,-1.344 Q -0.787,-1.9 0,-1.9 L 0,-1.9 Q 0.787,-1.9 1.344,-1.344 Q 1.9,-0.787 1.9,0 L 1.9,0" fill="#130F26"/></g><g transform="translate(20.817 -24.832)"><path d=" M 0,0"/><path d=" M 1.9,0 Q 1.9,0.787 1.344,1.344 Q 0.787,1.9 0,1.9 L 0,1.9 Q -0.787,1.9 -1.344,1.344 Q -1.9,0.787 -1.9,0 L -1.9,0 Q -1.9,-0.787 -1.344,-1.344 Q -0.787,-1.9 0,-1.9 L 0,-1.9 Q 0.787,-1.9 1.344,-1.344 Q 1.9,-0.787 1.9,0 L 1.9,0" fill="#130F26"/></g><g transform="translate(37.418 1.494)"><path d=" M 0,0"/><path d=" M 1.9,0 Q 1.9,0.787 1.344,1.344 Q 0.787,1.9 0,1.9 L 0,1.9 Q -0.787,1.9 -1.344,1.344 Q -1.9,0.787 -1.9,0 L -1.9,0 Q -1.9,-0.787 -1.344,-1.344 Q -0.787,-1.9 0,-1.9 L 0,-1.9 Q 0.787,-1.9 1.344,-1.344 Q 1.9,-0.787 1.9,0 L 1.9,0" fill="#130F26"/></g><g transform="translate(27.061 32.089)"><path d=" M 0,0"/><path d=" M 1.9,0 Q 1.9,0.787 1.344,1.344 Q 0.787,1.9 0,1.9 L 0,1.9 Q -0.787,1.9 -1.344,1.344 Q -1.9,0.787 -1.9,0 L -1.9,0 Q -1.9,-0.787 -1.344,-1.344 Q -0.787,-1.9 0,-1.9 L 0,-1.9 Q 0.787,-1.9 1.344,-1.344 Q 1.9,-0.787 1.9,0 L 1.9,0" fill="#130F26"/></g><g transform="translate(12.928 39.234)"><path d=" M 0,0"/><path d=" M 1.9,0 Q 1.9,0.787 1.344,1.344 Q 0.787,1.9 0,1.9 L 0,1.9 Q -0.787,1.9 -1.344,1.344 Q -1.9,0.787 -1.9,0 L -1.9,0 Q -1.9,-0.787 -1.344,-1.344 Q -0.787,-1.9 0,-1.9 L 0,-1.9 Q 0.787,-1.9 1.344,-1.344 Q 1.9,-0.787 1.9,0 L 1.9,0" fill="#130F26"/></g><g transform="translate(-2.634 38.37)"><path d=" M 0,0"/><path d=" M 1.9,0 Q 1.9,0.787 1.344,1.344 Q 0.787,1.9 0,1.9 L 0,1.9 Q -0.787,1.9 -1.344,1.344 Q -1.9,0.787 -1.9,0 L -1.9,0 Q -1.9,-0.787 -1.344,-1.344 Q -0.787,-1.9 0,-1.9 L 0,-1.9 Q 0.787,-1.9 1.344,-1.344 Q 1.9,-0.787 1.9,0 L 1.9,0" fill="#130F26"/></g><g transform="translate(-15.383 30.111)"><path d=" M 0,0"/><path d=" M 1.9,0 Q 1.9,0.787 1.344,1.344 Q 0.787,1.9 0,1.9 L 0,1.9 Q -0.787,1.9 -1.344,1.344 Q -1.9,0.787 -1.9,0 L -1.9,0 Q -1.9,-0.787 -1.344,-1.344 Q -0.787,-1.9 0,-1.9 L 0,-1.9 Q 0.787,-1.9 1.344,-1.344 Q 1.9,-0.787 1.9,0 L 1.9,0" fill="#130F26"/></g><g transform="translate(-23.924 18.06)"><path d=" M 0,0"/><path d=" M 1.9,0 Q 1.9,0.787 1.344,1.344 Q 0.787,1.9 0,1.9 L 0,1.9 Q -0.787,1.9 -1.344,1.344 Q -1.9,0.787 -1.9,0 L -1.9,0 Q -1.9,-0.787 -1.344,-1.344 Q -0.787,-1.9 0,-1.9 L 0,-1.9 Q 0.787,-1.9 1.344,-1.344 Q 1.9,-0.787 1.9,0 L 1.9,0" fill="#130F26"/></g><g transform="translate(-28.508 4.394)"><path d=" M 0,0"/><path d=" M 1.9,0 Q 1.9,0.787 1.344,1.344 Q 0.787,1.9 0,1.9 L 0,1.9 Q -0.787,1.9 -1.344,1.344 Q -1.9,0.787 -1.9,0 L -1.9,0 Q -1.9,-0.787 -1.344,-1.344 Q -0.787,-1.9 0,-1.9 L 0,-1.9 Q 0.787,-1.9 1.344,-1.344 Q 1.9,-0.787 1.9,0 L 1.9,0" fill="#130F26"/></g><g transform="translate(29.223 -12.325) rotate(57.71 0 0)"><path d=" M 0,0"/><path d=" M -1,-1.9 L -4.8,-1.9 L -4.8,1.9 L -1,1.9 L -1,-1.9 M 1,-1.9 L 4.8,-1.9 L 4.8,1.9 L 1,1.9 L 1,-1.9" fill="#130F26"/></g><g transform="translate(33.228 17.356) rotate(108.758 0 0)"><path d=" M 0,0"/><path d=" M -0.997,-1.9 L -4.797,-1.9 L -4.797,1.9 L -0.997,1.9 L -0.997,-1.9 M 0.997,-1.9 L 4.797,-1.9 L 4.797,1.9 L 0.997,1.9 L 0.997,-1.9" fill="#130F26"/></g><g transform="translate(-3.572 10.353)"><path d=" M 0,0"/><path d=" M 2.5,0 Q 2.5,1.036 1.768,1.768 Q 1.036,2.5 0,2.5 L 0,2.5 Q -1.036,2.5 -1.768,1.768 Q -2.5,1.036 -2.5,0 L -2.5,0 Q -2.5,-1.036 -1.768,-1.768 Q -1.036,-2.5 0,-2.5 L 0,-2.5 Q 1.036,-2.5 1.768,-1.768 Q 2.5,-1.036 2.5,0 L 2.5,0" fill="#130F26"/></g><g transform="translate(8.997 -6.07)"><path d=" M 0,0"/><path d=" M 2.5,0 Q 2.5,1.036 1.768,1.768 Q 1.036,2.5 0,2.5 L 0,2.5 Q -1.036,2.5 -1.768,1.768 Q -2.5,1.036 -2.5,0 L -2.5,0 Q -2.5,-1.036 -1.768,-1.768 Q -1.036,-2.5 0,-2.5 L 0,-2.5 Q 1.036,-2.5 1.768,-1.768 Q 2.5,-1.036 2.5,0 L 2.5,0" fill="#130F26"/></g><g transform="translate(21.293 -4.985)"><path d=" M 0,0"/><path d=" M 2.5,0 Q 2.5,1.036 1.768,1.768 Q 1.036,2.5 0,2.5 L 0,2.5 Q -1.036,2.5 -1.768,1.768 Q -2.5,1.036 -2.5,0 L -2.5,0 Q -2.5,-1.036 -1.768,-1.768 Q -1.036,-2.5 0,-2.5 L 0,-2.5 Q 1.036,-2.5 1.768,-1.768 Q 2.5,-1.036 2.5,0 L 2.5,0" fill="#130F26"/></g><g transform="translate(26.679 8.891)"><path d=" M 0,0"/><path d=" M 2.5,0 Q 2.5,1.036 1.768,1.768 Q 1.036,2.5 0,2.5 L 0,2.5 Q -1.036,2.5 -1.768,1.768 Q -2.5,1.036 -2.5,0 L -2.5,0 Q -2.5,-1.036 -1.768,-1.768 Q -1.036,-2.5 0,-2.5 L 0,-2.5 Q 1.036,-2.5 1.768,-1.768 Q 2.5,-1.036 2.5,0 L 2.5,0" fill="#130F26"/></g><g transform="translate(4.608 25.509)"><path d=" M 0,0"/><path d=" M 2.5,0 Q 2.5,1.036 1.768,1.768 Q 1.036,2.5 0,2.5 L 0,2.5 Q -1.036,2.5 -1.768,1.768 Q -2.5,1.036 -2.5,0 L -2.5,0 Q -2.5,-1.036 -1.768,-1.768 Q -1.036,-2.5 0,-2.5 L 0,-2.5 Q 1.036,-2.5 1.768,-1.768 Q 2.5,-1.036 2.5,0 L 2.5,0" fill="#130F26"/></g><g transform="translate(2.006 1.694) rotate(-52.609 0 0)"><path d=" M 0,0"/><path d=" M -0.996,-1.9 L -4.796,-1.9 L -4.796,1.9 L -0.996,1.9 L -0.996,-1.9 M 0.996,-1.9 L 4.796,-1.9 L 4.796,1.9 L 0.996,1.9 L 0.996,-1.9" fill="#130F26"/></g></g></g><g><path d=" M 0,0"/><path d=" M 75.686,0 L 75.686,1200 M 184.344,0 L 184.344,1200 M 293.001,0 L 293.001,1200 M 401.658,0 L 401.658,1200 M 510.316,0 L 510.316,1200 M 618.973,0 L 618.973,1200 M 727.631,0 L 727.631,1200 M 836.288,0 L 836.288,1200 M 944.945,0 L 944.945,1200 M 1053.603,0 L 1053.603,1200 M 1162.26,0 L 1162.26,1200 M 0,4.919 L 1188.067,4.919 M 0,113.576 L 1188.067,113.576 M 0,222.234 L 1188.067,222.234 M 0,330.891 L 1188.067,330.891 M 0,439.548 L 1188.067,439.548 M 0,548.206 L 1188.067,548.206 M 0,656.863 L 1188.067,656.863 M 0,765.521 L 1188.067,765.521 M 0,874.178 L 1188.067,874.178 M 0,982.835 L 1188.067,982.835 M 0,1091.493 L 1188.067,1091.493" stroke="#130F26" stroke-width="0.267"/></g><g><path d=" M 0,0"/></g><g><path d=" M 0,0"/><g transform="translate(1098.067 1110)"><path d=" M 0,0"/><path d=" M 80,0 Q 80,33.137 56.569,56.569 Q 33.137,80 0,80 L 0,80 Q -33.137,80 -56.569,56.569 Q -80,33.137 -80,0 L -80,0 Q -80,-33.137 -56.569,-56.569 Q -33.137,-80 0,-80 L 0,-80 Q 33.137,-80 56.569,-56.569 Q 80,-33.137 80,0 L 80,0" fill="#FF0000" fill-opacity="0"/><path d=" M 35.433,0 Q 35.433,14.677 25.055,25.055 Q 14.677,35.433 0,35.433 L 0,35.433 Q -14.677,35.433 -25.055,25.055 Q -35.433,14.677 -35.433,0 L -35.433,0 Q -35.433,-14.677 -25.055,-25.055 Q -14.677,-35.433 0,-35.433 L 0,-35.433 Q 14.677,-35.433 25.055,-25.055 Q 35.433,-14.677 35.433,0 L 35.433,0" stroke="#130F26" stroke-width="1.067"/><path d=" M 43.229,0 Q 43.229,17.906 30.567,30.567 Q 17.906,43.229 0,43.229 L 0,43.229 Q -17.906,43.229 -30.567,30.567 Q -43.229,17.906 -43.229,0 L -43.229,0 Q -43.229,-17.906 -30.567,-30.567 Q -17.906,-43.229 0,-43.229 L 0,-43.229 Q 17.906,-43.229 30.567,-30.567 Q 43.229,-17.906 43.229,0 L 43.229,0" stroke="#130F26" stroke-width="0.533"/><path d=" M 0,0 L 36.683,36.683 L 0,6.407 L 0,0 M 0,0 L -36.683,36.683 L -6.407,0 L 0,0 M 0,0 L -36.683,-36.683 L 0,-6.407 L 0,0 M 0,0 L 36.683,-36.683 L 6.407,0 L 0,0" fill="#130F26"/><path d=" M 0,0 L 0,6.407 L -36.683,36.683 L 0,0 M 0,0 L -6.407,0 L -36.683,-36.683 L 0,0 M 0,0 L 0,-6.407 L 36.683,-36.683 L 0,0 M 0,0 L 6.407,0 L 36.683,36.683 L 0,0" fill="#BFBFBF"/><path d=" M 6.407,0 L 36.683,36.683 L 0,6.407 L -36.683,36.683 L -6.407,0 L -36.683,-36.683 L 0,-6.407 L 36.683,-36.683 L 6.407,0" stroke="#130F26" stroke-width="0.533"/><path d=" M 0,0 L 80,0 L 6.987,6.987 L 0,0 M 0,0 L 0,80 L -6.987,6.987 L 0,0 M 0,0 L -80,0 L -6.987,-6.987 L 0,0 M 0,0 L 0,-80 L 6.987,-6.987 L 0,0" fill="#130F26"/><path d=" M 0,0 L 6.987,6.987 L 0,80 L 0,0 M 0,0 L -6.987,6.987 L -80,0 L 0,0 M 0,0 L -6.987,-6.987 L 0,-80 L 0,0 M 0,0 L 6.987,-6.987 L 80,0 L 0,0" fill="#BFBFBF"/><path d=" M 6.987,-6.987 L 80,0 L 6.987,6.987 L 0,80 L -6.987,6.987 L -80,0 L -6.987,-6.987 L 0,-80 L 6.987,-6.987" stroke="#130F26" stroke-width="0.533"/><g transform="translate(0 -80)"><path d=" M 0,0"/><text dominant-baseline="text-before-edge" style="font: 18px &#039;IM Fell Great Primer&#039;, serif" fill="#130F26" transform="translate(-7.633 -23)">N</text></g></g></g><g><path d=" M 0,0"/><g transform="translate(10 10)"><path d=" M 0,0"/><path d=" M 0,0 L 262,0 L 262,125 L 0,125 L 0,0" fill="#BFBFBF"/><g><path d=" M 0,0"/><path d=" M 0,0 L 262,0 L 262,125 L 0,125 L 0,0" stroke="#130F26" stroke-width="1.067" stroke-linejoin="miter" stroke-linecap="round"/><path d=" M 2.133,2.133 L 259.867,2.133 L 259.867,122.867 L 2.133,122.867 L 2.133,2.133" stroke="#130F26" stroke-width="0.533" stroke-linejoin="miter" stroke-linecap="round"/></g><g transform="translate(10 10)"><path d=" M 0,0"/><g transform="translate(22.556 10)"><path d=" M 0,0"/><text dominant-baseline="text-before-edge" style="font: 32px &#039;IM Fell Great Primer&#039;, serif" fill="#130F26" transform="translate(2 2)">Highfield Fort</text></g><g transform="translate(10 64)"><path d=" M 0,0"/><g transform="translate(0 31)"><path d=" M 0,0"/><path d=" M 0,-12 L 218,-12 L 218,0 L 0,0 L 0,-12" fill="#FF0000" fill-opacity="0"/><path d=" M 0,-12 L 0,0 L 217.315,0 L 217.315,-12 M 54.329,0 L 54.329,-6 M 108.657,0 L 108.657,-12 M 162.986,0 L 162.986,-6" stroke="#130F26" stroke-width="0.533" stroke-linejoin="miter" stroke-linecap="butt"/><text dominant-baseline="text-before-edge" style="font: 14px &#039;IM Fell Great Primer&#039;, serif" fill="#130F26" transform="translate(0 -32)">0</text><text dominant-baseline="text-before-edge" style="font: 14px &#039;IM Fell Great Primer&#039;, serif" fill="#130F26" transform="translate(101.329 -32)">50</text><text dominant-baseline="text-before-edge" style="font: 14px &#039;IM Fell Great Primer&#039;, serif" fill="#130F26" transform="translate(195.549 -32)">100</text><text dominant-baseline="text-before-edge" style="font: 14px &#039;IM Fell Great Primer&#039;, serif" fill="#130F26" transform="translate(12.148 -32)">m</text></g></g></g></g></g></g></svg>