<?xml version="1.0" encoding="UTF-8" standalone="no"?><svg width="1200" height="1014.372" xmlns="http://www.w3.org/2000/svg" stroke-linejoin="round" stroke-linecap="round" fill-rule="evenodd" fill="none"><rect x="0" y="0" width="1200" height="1014.372" fill="#CCCAC2"/><style><![CDATA[@import url("https://fonts.googleapis.com/css2?family=IM+Fell+Great+Primer&display=swap");]]></style><defs/><g><path d=" M 0,0"/><g transform="translate(567.65 376.276) scale(7.344 7.344)"><path d=" M 0,0"/><g><path d=" M 0,0"/><g><path d=" M 0,0"/><g><path d=" M 0,0"/><path d=" M 22.316,30.324 L 41.117,60.343 L 42.39,61.861 L 50.722,69.39 L 55.466,73.414 L 58.903,75.996 L 62.042,78.045 L 64.883,79.564 L 67.762,80.854 L 70.68,81.916 L 73.635,82.751 L 76.629,83.358 L 79.787,84.638 L 83.11,86.592 L 86.597,89.219 L 90.248,92.519 L 94.603,97.242 L 99.661,103.388 L 107.039,113.204 L 121.583,133.433" stroke="#130F26" stroke-width="2.145" stroke-linejoin="round" stroke-linecap="butt"/></g><g><path d=" M 0,0"/><path d=" M 36.978,-1.757 L 62.307,2.426 L 64.289,2.681 L 72.47,3.436 L 77.181,3.805 L 80.485,3.979 L 83.403,4.051 L 85.934,4.021 L 88.418,3.922 L 90.854,3.752 L 93.244,3.512 L 95.587,3.202 L 97.934,2.773 L 100.287,2.225 L 102.644,1.558 L 105.006,0.771 L 107.373,-0.135 L 109.744,-1.16 L 112.121,-2.304 L 114.502,-3.567 L 116.897,-4.957 L 119.306,-6.475 L 121.729,-8.119 L 124.166,-9.89 L 126.616,-11.788 L 129.081,-13.813 L 131.559,-15.965 L 134.052,-18.244 L 136.449,-20.135 L 138.751,-21.638 L 140.958,-22.753 L 143.069,-23.48 L 145.302,-23.716 L 147.656,-23.461 L 150.781,-22.405 L 156.623,-19.621" stroke="#130F26" stroke-width="2.145" stroke-linejoin="round" stroke-linecap="butt"/></g></g><g><path d=" M 0,0"/><g><path d=" M 0,0"/><path d=" M 9.472,1.831 L 12.492,8.477 L 13.275,10.317 L 16.381,18.139 L 17.193,19.965 L 21.872,29.427 L 22.846,31.171 L 41.117,60.343 L 42.39,61.861 L 50.722,69.39 L 55.466,73.414 L 58.903,75.996 L 62.042,78.045 L 64.883,79.564 L 67.762,80.854 L 70.68,81.916 L 73.635,82.751 L 76.629,83.358 L 79.787,84.638 L 83.11,86.592 L 86.597,89.219 L 90.248,92.519 L 94.603,97.242 L 99.661,103.388 L 107.039,113.204 L 121.583,133.433" stroke="#CCCAC2" stroke-width="2"/></g><g><path d=" M 0,0"/><path d=" M 12.906,9.387 L 24.549,3.555 L 26.365,2.718 L 36.056,-1.369 L 37.964,-1.594 L 62.307,2.426 L 64.289,2.681 L 72.47,3.436 L 77.181,3.805 L 80.485,3.979 L 83.403,4.051 L 85.934,4.021 L 88.418,3.922 L 90.854,3.752 L 93.244,3.512 L 95.587,3.202 L 97.934,2.773 L 100.287,2.225 L 102.644,1.558 L 105.006,0.771 L 107.373,-0.135 L 109.744,-1.16 L 112.121,-2.304 L 114.502,-3.567 L 116.897,-4.957 L 119.306,-6.475 L 121.729,-8.119 L 124.166,-9.89 L 126.616,-11.788 L 129.081,-13.813 L 131.559,-15.965 L 134.052,-18.244 L 136.449,-20.135 L 138.751,-21.638 L 140.958,-22.753 L 143.069,-23.48 L 145.302,-23.716 L 147.656,-23.461 L 150.781,-22.405 L 156.623,-19.621" stroke="#CCCAC2" stroke-width="2"/></g></g></g><g><path d=" M 0,0"/><path d=" M 0.322,-1.741 L -0.465,-3.179 L 1.026,-3.996 L 1.813,-2.558 L 0.322,-1.741" fill="#130F26"/></g><g><path d=" M 0,0"/><path d=" M -7.614,-8.566 L -10.318,-10.81 L -5.626,-16.465 L -2.922,-14.221 L -0.639,-16.973 L 1.585,-15.128 L -7.936,-3.654 L -10.16,-5.499 L -7.614,-8.566" fill="#130F26"/></g><g><path d=" M 0,0"/></g><g><path d=" M 0,0"/><path d=" M -19.332,5.959 L -19.332,6.559 L -19.512,6.197 L -19.512,5.597 L -19.332,5.959" fill="#130F26" stroke="#130F26" stroke-width="0.073"/><path d=" M -19.435,5.281 L -19.435,5.881 L -19.567,5.613 L -19.567,5.013 L -19.435,5.281" fill="#130F26" stroke="#130F26" stroke-width="0.073"/><path d=" M -14.63,6.351 L -14.63,6.951 L -20.024,9.401 L -20.024,8.801 L -14.63,6.351" fill="#130F26" stroke="#130F26" stroke-width="0.073"/><path d=" M -15.978,3.383 L -15.978,3.983 L -19.522,5.593 L -19.522,4.993 L -15.978,3.383" fill="#130F26" stroke="#130F26" stroke-width="0.073"/><path d=" M -19.483,4.834 L -19.483,5.434 L -20.781,2.81 L -20.781,2.21 L -19.483,4.834" fill="#130F26" stroke="#130F26" stroke-width="0.073"/><path d=" M -8.85,-0.827 L -8.85,-0.227 L -11.451,0.954 L -13.713,-2.033 L -13.713,-2.633 L -11.451,0.354 L -8.85,-0.827" fill="#130F26" stroke="#130F26" stroke-width="0.073"/><path d=" M -14.357,6.951 L -14.357,7.551 L -16.344,3.177 L -16.344,2.577 L -14.357,6.951" fill="#130F26" stroke="#130F26" stroke-width="0.073"/><path d=" M -10.23,5.077 L -10.23,5.677 L -14.357,7.551 L -14.357,6.951 L -10.23,5.077" fill="#130F26" stroke="#130F26" stroke-width="0.073"/><path d=" M -6.442,3.356 L -6.442,3.956 L -10.23,5.677 L -12.217,1.302 L -12.217,0.702 L -10.23,5.077 L -6.442,3.356" fill="#130F26" stroke="#130F26" stroke-width="0.073"/><path d=" M -15.213,-7.138 L -15.213,-6.538 L -17.736,-2.746 L -20.111,-4.326 L -20.111,-4.926 L -17.736,-3.346 L -15.213,-7.138" fill="#130F26" stroke="#130F26" stroke-width="0.073"/><path d=" M -11.425,-5.502 L -11.425,-4.902 L -14.737,-0.75 L -17.736,-2.746 L -17.736,-3.346 L -14.737,-1.35 L -11.425,-5.502" fill="#130F26" stroke="#130F26" stroke-width="0.073"/><path d=" M -21.107,2.371 L -21.107,2.971 L -21.152,2.88 L -23.503,1.849 L -23.503,1.249 L -21.152,2.28 L -21.107,2.371" fill="#130F26" stroke="#130F26" stroke-width="0.073"/><path d=" M -17.895,0.782 L -17.895,1.382 L -21.107,2.971 L -21.107,2.371 L -17.895,0.782" fill="#130F26" stroke="#130F26" stroke-width="0.073"/><path d=" M -23.503,1.249 L -23.503,1.849 L -24.911,1.232 L -26.631,1.735 L -29.33,-1.969 L -29.33,-2.569 L -26.631,1.135 L -24.911,0.632 L -23.503,1.249" fill="#130F26" stroke="#130F26" stroke-width="0.073"/><path d=" M -22.182,-1.155 L -22.182,-0.555 L -23.503,1.849 L -23.503,1.249 L -22.182,-1.155" fill="#130F26" stroke="#130F26" stroke-width="0.073"/><path d=" M -29.33,-2.569 L -29.33,-1.969 L -32.163,-5.858 L -32.163,-6.458 L -29.33,-2.569" fill="#130F26" stroke="#130F26" stroke-width="0.073"/><path d=" M -31.817,-7.42 L -31.817,-6.82 L -31.988,-7.287 L -31.988,-7.887 L -31.817,-7.42" fill="#130F26" stroke="#130F26" stroke-width="0.073"/><path d=" M -26.867,-5.006 L -26.867,-4.406 L -29.33,-1.969 L -29.33,-2.569 L -26.867,-5.006" fill="#130F26" stroke="#130F26" stroke-width="0.073"/><path d=" M -24.786,-7.066 L -24.786,-6.466 L -26.867,-4.406 L -30.845,-8.425 L -30.845,-9.025 L -26.867,-5.006 L -24.786,-7.066" fill="#130F26" stroke="#130F26" stroke-width="0.073"/><path d=" M -17.571,-9.549 L -17.571,-8.949 L -18.927,-6.481 L -23.982,-9.257 L -23.982,-9.857 L -18.927,-7.081 L -17.571,-9.549" fill="#130F26" stroke="#130F26" stroke-width="0.073"/><path d=" M -22.615,-11.972 L -22.615,-11.372 L -25.459,-6.974 L -28.763,-9.468 L -28.763,-10.068 L -25.459,-7.574 L -22.615,-11.972" fill="#130F26" stroke="#130F26" stroke-width="0.073"/><path d=" M -14.63,6.351 L -20.024,8.801 L -19.332,5.959 L -19.512,5.597 L -19.435,5.281 L -19.567,5.013 L -15.978,3.383 L -14.63,6.351" fill="#989599" stroke="#130F26" stroke-width="0.073"/><path d=" M -19.483,4.834 L -20.781,2.21 L -17.294,0.485 L -15.978,3.383 L -19.522,4.993 L -19.483,4.834" fill="#A09CA1" stroke="#130F26" stroke-width="0.073"/><path d=" M -9.73,-3.389 L -8.85,-0.827 L -11.451,0.354 L -13.713,-2.633 L -11.796,-5.037 L -9.73,-3.389" fill="#A4A0A5" stroke="#130F26" stroke-width="0.073"/><path d=" M -10.23,5.077 L -14.357,6.951 L -16.344,2.577 L -12.217,0.702 L -10.23,5.077" fill="#949195" stroke="#130F26" stroke-width="0.073"/><path d=" M -12.217,0.702 L -8.01,-1.209 L -6.442,3.356 L -10.23,5.077 L -12.217,0.702" fill="#B5B1B6" stroke="#130F26" stroke-width="0.073"/><path d=" M -20.111,-4.926 L -18.042,-8.692 L -15.213,-7.138 L -17.736,-3.346 L -20.111,-4.926" fill="#8D8A8E" stroke="#130F26" stroke-width="0.073"/><path d=" M -14.669,-7.955 L -14.129,-7.658 L -11.425,-5.502 L -14.737,-1.35 L -17.736,-3.346 L -14.669,-7.955" fill="#A3A0A4" stroke="#130F26" stroke-width="0.073"/><path d=" M -17.895,0.782 L -21.107,2.371 L -21.152,2.28 L -23.503,1.249 L -21.372,-2.629 L -17.895,0.782" fill="#99969A" stroke="#130F26" stroke-width="0.073"/><path d=" M -22.182,-1.155 L -23.503,1.249 L -24.911,0.632 L -26.631,1.135 L -29.33,-2.569 L -27.034,-4.841 L -22.182,-1.155" fill="#99969A" stroke="#130F26" stroke-width="0.073"/><path d=" M -26.867,-5.006 L -29.33,-2.569 L -32.163,-6.458 L -31.817,-7.42 L -31.988,-7.887 L -30.845,-9.025 L -26.867,-5.006" fill="#99969A" stroke="#130F26" stroke-width="0.073"/><path d=" M -30.845,-9.025 L -29.351,-10.512 L -24.786,-7.066 L -26.867,-5.006 L -30.845,-9.025" fill="#979498" stroke="#130F26" stroke-width="0.073"/><path d=" M -23.982,-9.857 L -22.449,-12.228 L -17.571,-9.549 L -18.927,-7.081 L -23.982,-9.857" fill="#979498" stroke="#130F26" stroke-width="0.073"/><path d=" M -24.067,-12.769 L -22.615,-11.972 L -25.459,-7.574 L -28.763,-10.068 L -27.315,-11.51 L -26.555,-11.304 L -24.257,-12.365 L -24.067,-12.769" fill="#ADA9AE" stroke="#130F26" stroke-width="0.073"/><path d=" M -14.326,13.193 L -14.326,13.793 L -18.987,15.91 L -20.846,11.817 L -20.846,11.217 L -18.987,15.31 L -14.326,13.193" fill="#130F26" stroke="#130F26" stroke-width="0.073"/><path d=" M -12.451,17.486 L -12.451,18.086 L -15.878,19.583 L -16.282,18.774 L -18.032,18.012 L -18.987,15.91 L -18.987,15.31 L -18.032,17.412 L -16.282,18.174 L -15.878,18.983 L -12.451,17.486" fill="#130F26" stroke="#130F26" stroke-width="0.073"/><path d=" M -10.513,11.431 L -10.513,12.031 L -14.361,13.712 L -15.789,10.444 L -15.789,9.844 L -14.361,13.112 L -10.513,11.431" fill="#130F26" stroke="#130F26" stroke-width="0.073"/><path d=" M -5.148,8.869 L -5.148,9.469 L -10.593,11.847 L -11.958,8.723 L -11.958,8.123 L -10.593,11.247 L -5.148,8.869" fill="#130F26" stroke="#130F26" stroke-width="0.073"/><path d=" M -0.118,12.099 L -0.118,12.699 L -3.157,14.026 L -6.515,6.339 L -6.515,5.739 L -3.157,13.426 L -0.118,12.099" fill="#130F26" stroke="#130F26" stroke-width="0.073"/><path d=" M -4.872,25.266 L -4.872,25.866 L -6.47,26.443 L -6.476,26.408 L -8.407,24.771 L -10.55,24.76 L -11.967,23.601 L -11.967,23.001 L -10.55,24.16 L -8.407,24.171 L -6.476,25.808 L -6.47,25.843 L -4.872,25.266" fill="#130F26" stroke="#130F26" stroke-width="0.073"/><path d=" M -12.43,23.315 L -12.43,23.915 L -15.283,21.581 L -15.283,20.981 L -12.43,23.315" fill="#130F26" stroke="#130F26" stroke-width="0.073"/><path d=" M -15.152,20.439 L -15.152,21.039 L -15.878,19.583 L -15.878,18.983 L -15.152,20.439" fill="#130F26" stroke="#130F26" stroke-width="0.073"/><path d=" M -10.182,21.795 L -10.182,22.395 L -12.43,23.915 L -12.43,23.315 L -10.182,21.795" fill="#130F26" stroke="#130F26" stroke-width="0.073"/><path d=" M -4.994,24.929 L -4.994,25.529 L -7.001,19.962 L -7.001,19.362 L -4.994,24.929" fill="#130F26" stroke="#130F26" stroke-width="0.073"/><path d=" M -0.312,23.24 L -0.312,23.84 L -4.994,25.529 L -4.994,24.929 L -0.312,23.24" fill="#130F26" stroke="#130F26" stroke-width="0.073"/><path d=" M 3.3,21.576 L 3.3,22.176 L -0.428,23.521 L -2.32,18.274 L -2.32,17.674 L -0.428,22.921 L 3.3,21.576" fill="#130F26" stroke="#130F26" stroke-width="0.073"/><path d=" M 2.934,10.654 L 2.934,11.254 L -0.228,12.395 L -1.874,7.831 L -1.874,7.231 L -0.228,11.795 L 2.934,10.654" fill="#130F26" stroke="#130F26" stroke-width="0.073"/><path d=" M 6.425,9.395 L 6.425,9.995 L 2.934,11.254 L 1.128,6.247 L 1.128,5.647 L 2.934,10.654 L 6.425,9.395" fill="#130F26" stroke="#130F26" stroke-width="0.073"/><path d=" M 9.639,6.563 L 9.639,7.163 L 5.891,8.515 L 4.716,5.258 L 4.716,4.658 L 5.891,7.915 L 9.639,6.563" fill="#130F26" stroke="#130F26" stroke-width="0.073"/><path d=" M 12.656,10.868 L 12.656,11.468 L 9.7,12.534 L 7.979,7.762 L 7.979,7.162 L 9.7,11.934 L 12.656,10.868" fill="#130F26" stroke="#130F26" stroke-width="0.073"/><path d=" M 8.523,20.798 L 8.523,21.398 L 3.653,23.154 L 2.302,19.409 L 2.302,18.809 L 3.653,22.554 L 8.523,20.798" fill="#130F26" stroke="#130F26" stroke-width="0.073"/><path d=" M 13.278,14.232 L 13.278,14.832 L 10.891,15.693 L 9.745,12.518 L 9.745,11.918 L 10.891,15.093 L 13.278,14.232" fill="#130F26" stroke="#130F26" stroke-width="0.073"/><path d=" M 8.3,20.179 L 8.3,20.779 L 6.975,17.106 L 6.975,16.506 L 8.3,20.179" fill="#130F26" stroke="#130F26" stroke-width="0.073"/><path d=" M 11.349,19.08 L 11.349,19.68 L 8.3,20.779 L 8.3,20.179 L 11.349,19.08" fill="#130F26" stroke="#130F26" stroke-width="0.073"/><path d=" M 11.381,19.168 L 11.381,19.768 L 10.024,16.006 L 10.024,15.406 L 11.381,19.168" fill="#130F26" stroke="#130F26" stroke-width="0.073"/><path d=" M 14.424,18.07 L 14.424,18.67 L 11.381,19.768 L 11.381,19.168 L 14.424,18.07" fill="#130F26" stroke="#130F26" stroke-width="0.073"/><path d=" M -18.987,15.31 L -20.846,11.217 L -16.126,9.073 L -14.326,13.193 L -18.987,15.31" fill="#A3A0A4" stroke="#130F26" stroke-width="0.073"/><path d=" M -14.326,13.193 L -12.451,17.486 L -15.878,18.983 L -16.282,18.174 L -18.032,17.412 L -18.987,15.31 L -14.326,13.193" fill="#9A979B" stroke="#130F26" stroke-width="0.073"/><path d=" M -15.789,9.844 L -11.965,8.107 L -10.513,11.431 L -14.361,13.112 L -15.789,9.844" fill="#949195" stroke="#130F26" stroke-width="0.073"/><path d=" M -11.958,8.123 L -6.547,5.665 L -5.148,8.869 L -10.593,11.247 L -11.958,8.123" fill="#A29FA4" stroke="#130F26" stroke-width="0.073"/><path d=" M -4.597,8.957 L -1.673,7.787 L -0.118,12.099 L -3.157,13.426 L -6.515,5.739 L -5.812,5.42 L -4.597,8.957" fill="#A3A0A4" stroke="#130F26" stroke-width="0.073"/><path d=" M -10.55,24.16 L -11.967,23.001 L -6.92,19.589 L -4.872,25.266 L -6.47,25.843 L -6.476,25.808 L -8.407,24.171 L -10.55,24.16" fill="#9A979B" stroke="#130F26" stroke-width="0.073"/><path d=" M -10.182,21.795 L -12.43,23.315 L -15.283,20.981 L -15.152,20.439 L -15.878,18.983 L -12.531,17.521 L -10.182,21.795" fill="#928F93" stroke="#130F26" stroke-width="0.073"/><path d=" M -0.312,23.24 L -4.994,24.929 L -7.001,19.362 L -2.32,17.674 L -0.312,23.24" fill="#908D91" stroke="#130F26" stroke-width="0.073"/><path d=" M 1.408,16.329 L 3.3,21.576 L -0.428,22.921 L -2.32,17.674 L 1.408,16.329" fill="#908D91" stroke="#130F26" stroke-width="0.073"/><path d=" M -0.228,11.795 L -1.874,7.231 L 1.249,5.982 L 2.934,10.654 L -0.228,11.795" fill="#A6A3A7" stroke="#130F26" stroke-width="0.073"/><path d=" M 1.128,5.647 L 4.575,4.267 L 6.425,9.395 L 2.934,10.654 L 1.128,5.647" fill="#A8A5A9" stroke="#130F26" stroke-width="0.073"/><path d=" M 8.149,3.284 L 9.639,6.563 L 5.891,7.915 L 4.716,4.658 L 8.149,3.284" fill="#9B989C" stroke="#130F26" stroke-width="0.073"/><path d=" M 7.979,7.162 L 10.634,6.204 L 11.985,9.179 L 12.656,10.868 L 9.7,11.934 L 7.979,7.162" fill="#939094" stroke="#130F26" stroke-width="0.073"/><path d=" M 7.172,17.052 L 8.523,20.798 L 3.653,22.554 L 2.302,18.809 L 7.172,17.052" fill="#9F9CA0" stroke="#130F26" stroke-width="0.073"/><path d=" M 12.032,11.093 L 13.278,14.232 L 10.891,15.093 L 9.745,11.918 L 12.032,11.093" fill="#989599" stroke="#130F26" stroke-width="0.073"/><path d=" M 11.349,19.08 L 8.3,20.179 L 6.975,16.506 L 10.024,15.406 L 11.349,19.08" fill="#928F93" stroke="#130F26" stroke-width="0.073"/><path d=" M 14.424,18.07 L 11.381,19.168 L 10.024,15.406 L 12.948,14.351 L 14.424,18.07" fill="#979498" stroke="#130F26" stroke-width="0.073"/></g><g><path d=" M 0,0"/><path d=" M 22.332,2.947 L 22.332,3.547 L 17.896,5.769 L 16.497,2.975 L 16.497,2.375 L 17.896,5.169 L 22.332,2.947" fill="#130F26" stroke="#130F26" stroke-width="0.073"/><path d=" M 20.933,0.153 L 20.933,0.753 L 16.497,2.975 L 15.35,0.686 L 15.35,0.086 L 16.497,2.375 L 20.933,0.153" fill="#130F26" stroke="#130F26" stroke-width="0.073"/><path d=" M 17.896,5.169 L 17.896,5.769 L 13.387,8.028 L 12.12,5.241 L 12.12,4.641 L 13.387,7.428 L 17.896,5.169" fill="#130F26" stroke="#130F26" stroke-width="0.073"/><path d=" M 16.526,2.434 L 16.526,3.034 L 12.12,5.241 L 11.033,2.848 L 11.033,2.248 L 12.12,4.641 L 16.526,2.434" fill="#130F26" stroke="#130F26" stroke-width="0.073"/><path d=" M 11.033,2.248 L 11.033,2.848 L 10.424,1.508 L 9.64,-1.886 L 9.64,-2.486 L 10.424,0.908 L 11.033,2.248" fill="#130F26" stroke="#130F26" stroke-width="0.073"/><path d=" M 12.967,1.28 L 12.967,1.88 L 11.033,2.848 L 11.033,2.248 L 12.967,1.28" fill="#130F26" stroke="#130F26" stroke-width="0.073"/><path d=" M 19.786,-2.136 L 19.786,-1.536 L 15.837,0.442 L 14.123,-3.525 L 14.123,-4.125 L 15.837,-0.158 L 19.786,-2.136" fill="#130F26" stroke="#130F26" stroke-width="0.073"/><path d=" M 9.919,-2.588 L 9.919,-1.988 L 9.028,-5.844 L 9.028,-6.444 L 9.919,-2.588" fill="#130F26" stroke="#130F26" stroke-width="0.073"/><path d=" M 14.015,-4.086 L 14.015,-3.486 L 9.919,-1.988 L 9.919,-2.588 L 14.015,-4.086" fill="#130F26" stroke="#130F26" stroke-width="0.073"/><path d=" M 12.748,-7.551 L 12.748,-6.951 L 8.744,-5.76 L 8.012,-8.925 L 8.012,-9.525 L 8.744,-6.36 L 12.748,-7.551" fill="#130F26" stroke="#130F26" stroke-width="0.073"/><path d=" M 16.892,-7.914 L 16.892,-7.314 L 13.198,-5.72 L 11.649,-9.956 L 11.649,-10.556 L 13.198,-6.32 L 16.892,-7.914" fill="#130F26" stroke="#130F26" stroke-width="0.073"/><path d=" M 17.425,-5.333 L 17.425,-4.733 L 14.015,-3.486 L 13.198,-5.72 L 13.198,-6.32 L 14.015,-4.086 L 17.425,-5.333" fill="#130F26" stroke="#130F26" stroke-width="0.073"/><path d=" M 20.933,0.153 L 22.332,2.947 L 17.896,5.169 L 16.497,2.375 L 20.933,0.153" fill="#9C999D" stroke="#130F26" stroke-width="0.073"/><path d=" M 16.497,2.375 L 15.35,0.086 L 19.786,-2.136 L 20.933,0.153 L 16.497,2.375" fill="#99969A" stroke="#130F26" stroke-width="0.073"/><path d=" M 16.526,2.434 L 17.896,5.169 L 13.387,7.428 L 12.12,4.641 L 16.526,2.434" fill="#8F8C90" stroke="#130F26" stroke-width="0.073"/><path d=" M 12.12,4.641 L 11.033,2.248 L 15.35,0.086 L 16.526,2.434 L 12.12,4.641" fill="#9A979B" stroke="#130F26" stroke-width="0.073"/><path d=" M 12.967,1.28 L 11.033,2.248 L 10.424,0.908 L 9.64,-2.486 L 11.109,-3.023 L 12.967,1.28" fill="#A4A1A5" stroke="#130F26" stroke-width="0.073"/><path d=" M 14.123,-4.125 L 18.067,-5.567 L 19.786,-2.136 L 15.837,-0.158 L 14.123,-4.125" fill="#928F93" stroke="#130F26" stroke-width="0.073"/><path d=" M 14.015,-4.086 L 9.919,-2.588 L 9.028,-6.444 L 12.748,-7.551 L 14.015,-4.086" fill="#959296" stroke="#130F26" stroke-width="0.073"/><path d=" M 8.744,-6.36 L 8.012,-9.525 L 11.649,-10.556 L 12.748,-7.551 L 8.744,-6.36" fill="#99969A" stroke="#130F26" stroke-width="0.073"/><path d=" M 13.198,-6.32 L 11.649,-10.556 L 13.566,-11.099 L 15.012,-11.667 L 16.892,-7.914 L 13.198,-6.32" fill="#969397" stroke="#130F26" stroke-width="0.073"/><path d=" M 16.267,-7.644 L 17.425,-5.333 L 14.015,-4.086 L 13.198,-6.32 L 16.267,-7.644" fill="#9D9A9E" stroke="#130F26" stroke-width="0.073"/><path d=" M 31.35,-15.326 L 31.35,-14.726 L 28.922,-13.945 L 27.275,-16.511 L 27.275,-17.111 L 28.922,-14.545 L 31.35,-15.326" fill="#130F26" stroke="#130F26" stroke-width="0.073"/><path d=" M 32.621,-14.174 L 32.621,-13.574 L 30.225,-11.914 L 28.922,-13.945 L 28.922,-14.545 L 30.225,-12.514 L 32.621,-14.174" fill="#130F26" stroke="#130F26" stroke-width="0.073"/><path d=" M 30.225,-12.514 L 30.225,-11.914 L 27.981,-10.36 L 24.971,-15.051 L 24.971,-15.651 L 27.981,-10.96 L 30.225,-12.514" fill="#130F26" stroke="#130F26" stroke-width="0.073"/><path d=" M 26.204,-13.728 L 26.204,-13.128 L 22.61,-10.979 L 21.004,-13.665 L 21.004,-14.265 L 22.61,-11.579 L 26.204,-13.728" fill="#130F26" stroke="#130F26" stroke-width="0.073"/><path d=" M 20.164,-10.04 L 20.164,-9.44 L 18.42,-8.566 L 17.086,-11.229 L 17.086,-11.829 L 18.42,-9.166 L 20.164,-10.04" fill="#130F26" stroke="#130F26" stroke-width="0.073"/><path d=" M 22.754,-11.337 L 22.754,-10.737 L 20.164,-9.44 L 18.904,-11.956 L 18.904,-12.556 L 20.164,-10.04 L 22.754,-11.337" fill="#130F26" stroke="#130F26" stroke-width="0.073"/><path d=" M 20.255,-5.61 L 20.255,-5.01 L 18.463,-8.588 L 18.463,-9.188 L 20.255,-5.61" fill="#130F26" stroke="#130F26" stroke-width="0.073"/><path d=" M 24.444,-8.511 L 24.444,-7.911 L 20.255,-5.01 L 20.255,-5.61 L 24.444,-8.511" fill="#130F26" stroke="#130F26" stroke-width="0.073"/><path d=" M 33.199,-7.879 L 33.199,-7.279 L 32.683,-7.113 L 30.278,-11.951 L 30.278,-12.551 L 32.683,-7.713 L 33.199,-7.879" fill="#130F26" stroke="#130F26" stroke-width="0.073"/><path d=" M 30.82,-1.638 L 30.82,-1.038 L 26.323,0.858 L 25.018,-1.602 L 25.018,-2.202 L 26.323,0.258 L 30.82,-1.638" fill="#130F26" stroke="#130F26" stroke-width="0.073"/><path d=" M 26.426,0.453 L 26.426,1.053 L 25.136,1.597 L 23.517,2.408 L 22.245,-0.132 L 22.245,-0.732 L 23.517,1.808 L 25.136,0.997 L 26.426,0.453" fill="#130F26" stroke="#130F26" stroke-width="0.073"/><path d=" M 25.289,-2.346 L 25.289,-1.746 L 22.477,-0.255 L 20.136,-4.928 L 20.136,-5.528 L 22.477,-0.855 L 25.289,-2.346" fill="#130F26" stroke="#130F26" stroke-width="0.073"/><path d=" M 31.347,-16.529 L 31.35,-15.326 L 28.922,-14.545 L 27.275,-17.111 L 28.476,-17.881 L 29.74,-18.782 L 31.347,-16.529" fill="#89868A" stroke="#130F26" stroke-width="0.073"/><path d=" M 31.803,-15.472 L 31.804,-15.143 L 32.621,-14.174 L 30.225,-12.514 L 28.922,-14.545 L 31.803,-15.472" fill="#878488" stroke="#130F26" stroke-width="0.073"/><path d=" M 24.971,-15.651 L 27.266,-17.124 L 30.225,-12.514 L 27.981,-10.96 L 24.971,-15.651" fill="#8B888B" stroke="#130F26" stroke-width="0.073"/><path d=" M 22.61,-11.579 L 21.004,-14.265 L 24.08,-15.837 L 24.626,-16.188 L 26.204,-13.728 L 22.61,-11.579" fill="#A5A2A6" stroke="#130F26" stroke-width="0.073"/><path d=" M 17.086,-11.829 L 18.909,-12.545 L 20.164,-10.04 L 18.42,-9.166 L 17.086,-11.829" fill="#8D8A8E" stroke="#130F26" stroke-width="0.073"/><path d=" M 19.562,-12.815 L 21.331,-13.718 L 22.754,-11.337 L 20.164,-10.04 L 18.904,-12.556 L 19.562,-12.815" fill="#9A979B" stroke="#130F26" stroke-width="0.073"/><path d=" M 24.444,-8.511 L 20.255,-5.61 L 18.463,-9.188 L 22.754,-11.337 L 24.444,-8.511" fill="#8E8B8F" stroke="#130F26" stroke-width="0.073"/><path d=" M 32.602,-12.819 L 33.199,-7.879 L 32.683,-7.713 L 30.278,-12.551 L 31.852,-13.641 L 32.537,-12.83 L 32.602,-12.819" fill="#99969A" stroke="#130F26" stroke-width="0.073"/><path d=" M 29.314,-4.479 L 30.82,-1.638 L 26.323,0.258 L 25.018,-2.202 L 29.314,-4.479" fill="#908E91" stroke="#130F26" stroke-width="0.073"/><path d=" M 23.517,1.808 L 22.245,-0.732 L 25.018,-2.202 L 26.426,0.453 L 25.136,0.997 L 23.517,1.808" fill="#8D8A8E" stroke="#130F26" stroke-width="0.073"/><path d=" M 22.477,-0.855 L 20.136,-5.528 L 22.4,-7.096 L 25.289,-2.346 L 22.477,-0.855" fill="#9A979B" stroke="#130F26" stroke-width="0.073"/><path d=" M 22.035,-27.015 L 22.035,-26.415 L 18.954,-22.384 L 17.136,-24.28 L 17.136,-24.88 L 18.954,-22.984 L 22.035,-27.015" fill="#130F26" stroke="#130F26" stroke-width="0.073"/><path d=" M 24.156,-24.699 L 24.156,-24.099 L 19.998,-21.295 L 18.954,-22.384 L 18.954,-22.984 L 19.998,-21.895 L 24.156,-24.699" fill="#130F26" stroke="#130F26" stroke-width="0.073"/><path d=" M 28.014,-22.898 L 28.014,-22.298 L 25.114,-20.342 L 23.073,-23.368 L 23.073,-23.968 L 25.114,-20.942 L 28.014,-22.898" fill="#130F26" stroke="#130F26" stroke-width="0.073"/><path d=" M 29.493,-20.825 L 29.493,-20.225 L 28.254,-19.341 L 26.533,-18.237 L 25.114,-20.342 L 25.114,-20.942 L 26.533,-18.837 L 28.254,-19.941 L 29.493,-20.825" fill="#130F26" stroke="#130F26" stroke-width="0.073"/><path d=" M 24.302,-17.405 L 24.302,-16.805 L 19.998,-21.295 L 19.998,-21.895 L 24.302,-17.405" fill="#130F26" stroke="#130F26" stroke-width="0.073"/><path d=" M 26.533,-18.837 L 26.533,-18.237 L 24.302,-16.805 L 24.302,-17.405 L 26.533,-18.837" fill="#130F26" stroke="#130F26" stroke-width="0.073"/><path d=" M 20.127,-16.044 L 20.127,-15.444 L 19.726,-16.003 L 19.726,-16.603 L 20.127,-16.044" fill="#130F26" stroke="#130F26" stroke-width="0.073"/><path d=" M 23.724,-18.008 L 23.724,-17.408 L 22.76,-16.789 L 20.127,-15.444 L 20.127,-16.044 L 22.76,-17.389 L 23.724,-18.008" fill="#130F26" stroke="#130F26" stroke-width="0.073"/><path d=" M 15.34,-13.978 L 15.34,-13.378 L 14.5,-14.436 L 14.5,-15.036 L 15.34,-13.978" fill="#130F26" stroke="#130F26" stroke-width="0.073"/><path d=" M 20.134,-16.034 L 20.134,-15.434 L 18.678,-14.69 L 15.34,-13.378 L 15.34,-13.978 L 18.678,-15.29 L 20.134,-16.034" fill="#130F26" stroke="#130F26" stroke-width="0.073"/><path d=" M 15.525,-20.49 L 15.525,-19.89 L 12.467,-16.997 L 12.077,-17.489 L 12.077,-18.089 L 12.467,-17.597 L 15.525,-20.49" fill="#130F26" stroke="#130F26" stroke-width="0.073"/><path d=" M 18.912,-23.027 L 18.912,-22.427 L 15.909,-19.548 L 14.188,-21.08 L 14.188,-21.68 L 15.909,-20.148 L 18.912,-23.027" fill="#130F26" stroke="#130F26" stroke-width="0.073"/><path d=" M 15.881,-13.298 L 15.881,-12.698 L 13.182,-11.638 L 12.345,-11.4 L 11.056,-13.161 L 11.056,-13.761 L 12.345,-12 L 13.182,-12.238 L 15.881,-13.298" fill="#130F26" stroke="#130F26" stroke-width="0.073"/><path d=" M 13.79,-15.932 L 13.79,-15.332 L 11.056,-13.161 L 9.83,-14.835 L 9.83,-15.435 L 11.056,-13.761 L 13.79,-15.932" fill="#130F26" stroke="#130F26" stroke-width="0.073"/><path d=" M 12.128,-12.296 L 12.128,-11.696 L 8.55,-10.682 L 8.183,-12.272 L 7.826,-12.189 L 7.826,-12.789 L 8.183,-12.872 L 8.55,-11.282 L 12.128,-12.296" fill="#130F26" stroke="#130F26" stroke-width="0.073"/><path d=" M 19.697,-28.265 L 22.035,-27.015 L 18.954,-22.984 L 17.136,-24.88 L 19.697,-28.265" fill="#A19EA2" stroke="#130F26" stroke-width="0.073"/><path d=" M 23.391,-26.456 L 24.156,-24.699 L 19.998,-21.895 L 18.954,-22.984 L 22.125,-27.133 L 23.391,-26.456" fill="#989599" stroke="#130F26" stroke-width="0.073"/><path d=" M 25.114,-20.942 L 23.073,-23.968 L 24.64,-25.024 L 24.641,-25.021 L 26.907,-23.893 L 27.246,-23.975 L 28.014,-22.898 L 25.114,-20.942" fill="#8A878B" stroke="#130F26" stroke-width="0.073"/><path d=" M 28.014,-22.898 L 29.493,-20.825 L 28.254,-19.941 L 26.533,-18.837 L 25.114,-20.942 L 28.014,-22.898" fill="#8B888B" stroke="#130F26" stroke-width="0.073"/><path d=" M 26.533,-18.837 L 24.302,-17.405 L 19.998,-21.895 L 23.073,-23.968 L 26.533,-18.837" fill="#A19EA2" stroke="#130F26" stroke-width="0.073"/><path d=" M 22.76,-17.389 L 20.127,-16.044 L 19.726,-16.603 L 22.702,-19.075 L 23.724,-18.008 L 22.76,-17.389" fill="#A4A0A5" stroke="#130F26" stroke-width="0.073"/><path d=" M 18.678,-15.29 L 15.34,-13.978 L 14.5,-15.036 L 18.264,-18.645 L 20.134,-16.034 L 18.678,-15.29" fill="#8C898D" stroke="#130F26" stroke-width="0.073"/><path d=" M 12.077,-18.089 L 14.55,-21.358 L 15.525,-20.49 L 12.467,-17.597 L 12.077,-18.089" fill="#A6A2A7" stroke="#130F26" stroke-width="0.073"/><path d=" M 15.909,-20.148 L 14.188,-21.68 L 16.841,-25.188 L 18.912,-23.027 L 15.909,-20.148" fill="#9E9B9F" stroke="#130F26" stroke-width="0.073"/><path d=" M 13.79,-15.932 L 15.881,-13.298 L 13.182,-12.238 L 12.345,-12 L 11.056,-13.761 L 13.79,-15.932" fill="#A3A0A4" stroke="#130F26" stroke-width="0.073"/><path d=" M 9.83,-15.435 L 11.954,-18.243 L 13.79,-15.932 L 11.056,-13.761 L 9.83,-15.435" fill="#8D8A8E" stroke="#130F26" stroke-width="0.073"/><path d=" M 7.826,-12.789 L 9.829,-15.437 L 12.128,-12.296 L 8.55,-11.282 L 8.183,-12.872 L 7.826,-12.789" fill="#99969A" stroke="#130F26" stroke-width="0.073"/><path d=" M 2.13,-26.015 L 2.13,-25.415 L 0.419,-30.259 L 0.419,-30.859 L 2.13,-26.015" fill="#130F26" stroke="#130F26" stroke-width="0.073"/><path d=" M 3.82,-26.789 L 3.82,-26.189 L 2.13,-25.415 L 2.13,-26.015 L 3.82,-26.789" fill="#130F26" stroke="#130F26" stroke-width="0.073"/><path d=" M 7.03,-28.26 L 7.03,-27.66 L 3.82,-26.189 L 3.224,-29.953 L 3.224,-30.553 L 3.82,-26.789 L 7.03,-28.26" fill="#130F26" stroke="#130F26" stroke-width="0.073"/><path d=" M 8.846,-17.896 L 8.846,-17.296 L 7.629,-18.216 L 7.629,-18.816 L 8.846,-17.896" fill="#130F26" stroke="#130F26" stroke-width="0.073"/><path d=" M 11.326,-21.174 L 11.326,-20.574 L 8.846,-17.296 L 8.846,-17.896 L 11.326,-21.174" fill="#130F26" stroke="#130F26" stroke-width="0.073"/><path d=" M 13.548,-22.824 L 13.548,-22.224 L 11.946,-20.106 L 7.012,-23.837 L 7.012,-24.437 L 11.946,-20.706 L 13.548,-22.824" fill="#130F26" stroke="#130F26" stroke-width="0.073"/><path d=" M 10.421,-31.102 L 10.421,-30.502 L 10.361,-28.943 L 7.302,-27.186 L 5.453,-30.406 L 5.453,-31.006 L 7.302,-27.786 L 10.361,-29.543 L 10.421,-31.102" fill="#130F26" stroke="#130F26" stroke-width="0.073"/><path d=" M 13.391,-29.683 L 13.391,-29.083 L 9.795,-25.064 L 7.542,-26.768 L 7.302,-27.186 L 7.302,-27.786 L 7.542,-27.368 L 9.795,-25.664 L 13.391,-29.683" fill="#130F26" stroke="#130F26" stroke-width="0.073"/><path d=" M 16.07,-26.157 L 16.07,-25.557 L 13.548,-22.224 L 11.732,-23.598 L 11.732,-24.198 L 13.548,-22.824 L 16.07,-26.157" fill="#130F26" stroke="#130F26" stroke-width="0.073"/><path d=" M 18.756,-29.708 L 18.756,-29.108 L 16.07,-25.557 L 12.591,-28.189 L 12.591,-28.789 L 16.07,-26.157 L 18.756,-29.708" fill="#130F26" stroke="#130F26" stroke-width="0.073"/><path d=" M 9.084,-17.716 L 9.084,-17.116 L 8.206,-15.955 L 0.663,-21.661 L 0.663,-22.261 L 8.206,-16.555 L 9.084,-17.716" fill="#130F26" stroke="#130F26" stroke-width="0.073"/><path d=" M 1.291,-28.39 L 1.291,-27.79 L -3.707,-26.024 L -4.579,-28.493 L -4.579,-29.093 L -3.707,-26.624 L 1.291,-28.39" fill="#130F26" stroke="#130F26" stroke-width="0.073"/><path d=" M 1.284,-21.791 L 1.284,-21.191 L -0.518,-19.22 L -2.811,-21.737 L -4.336,-19.899 L -5.683,-20.817 L -5.683,-21.417 L -4.336,-20.499 L -2.811,-22.337 L -0.518,-19.82 L 1.284,-21.791" fill="#130F26" stroke="#130F26" stroke-width="0.073"/><path d=" M -5.399,-23.488 L -5.399,-22.888 L -7.208,-26.275 L -7.208,-26.875 L -5.399,-23.488" fill="#130F26" stroke="#130F26" stroke-width="0.073"/><path d=" M -2.967,-25.007 L -2.967,-24.407 L -5.683,-20.817 L -6.304,-21.24 L -6.304,-21.84 L -5.683,-21.417 L -2.967,-25.007" fill="#130F26" stroke="#130F26" stroke-width="0.073"/><path d=" M 8.235,-16.533 L 8.235,-15.933 L 5.819,-12.74 L 3.994,-14.744 L 3.994,-15.344 L 5.819,-13.34 L 8.235,-16.533" fill="#130F26" stroke="#130F26" stroke-width="0.073"/><path d=" M 6.366,-17.947 L 6.366,-17.347 L 3.776,-14.505 L 1.808,-16.665 L 1.808,-17.265 L 3.776,-15.105 L 6.366,-17.947" fill="#130F26" stroke="#130F26" stroke-width="0.073"/><path d=" M 4.036,-19.71 L 4.036,-19.11 L 1.808,-16.665 L -0.518,-19.22 L -0.518,-19.82 L 1.808,-17.265 L 4.036,-19.71" fill="#130F26" stroke="#130F26" stroke-width="0.073"/><path d=" M 3.82,-26.789 L 2.13,-26.015 L 0.419,-30.859 L 1.113,-31.104 L 1.283,-30.901 L 3.224,-30.553 L 3.82,-26.789" fill="#9A979B" stroke="#130F26" stroke-width="0.073"/><path d=" M 3.224,-30.553 L 3.774,-30.455 L 5.275,-31.317 L 7.03,-28.26 L 3.82,-26.789 L 3.224,-30.553" fill="#918F92" stroke="#130F26" stroke-width="0.073"/><path d=" M 11.326,-21.174 L 8.846,-17.896 L 7.629,-18.816 L 10.109,-22.095 L 11.326,-21.174" fill="#8D8A8E" stroke="#130F26" stroke-width="0.073"/><path d=" M 7.012,-24.437 L 8.615,-26.556 L 13.548,-22.824 L 11.946,-20.706 L 7.012,-24.437" fill="#949195" stroke="#130F26" stroke-width="0.073"/><path d=" M 5.762,-31.28 L 10.421,-31.102 L 10.361,-29.543 L 7.302,-27.786 L 5.453,-31.006 L 5.717,-31.157 L 5.762,-31.28" fill="#9A979B" stroke="#130F26" stroke-width="0.073"/><path d=" M 12.314,-30.821 L 13.391,-29.683 L 9.795,-25.664 L 7.542,-27.368 L 7.302,-27.786 L 10.361,-29.543 L 10.413,-30.894 L 12.314,-30.821" fill="#8E8C8F" stroke="#130F26" stroke-width="0.073"/><path d=" M 14.254,-27.531 L 16.07,-26.157 L 13.548,-22.824 L 11.732,-24.198 L 14.254,-27.531" fill="#9B989C" stroke="#130F26" stroke-width="0.073"/><path d=" M 12.591,-28.789 L 14.148,-30.529 L 14.367,-30.297 L 16.882,-30.006 L 17.471,-30.395 L 18.756,-29.708 L 16.07,-26.157 L 12.591,-28.789" fill="#A29FA3" stroke="#130F26" stroke-width="0.073"/><path d=" M 3.595,-21.868 L 9.084,-17.716 L 8.206,-16.555 L 0.663,-22.261 L 2.909,-23.811 L 3.595,-21.868" fill="#A4A1A5" stroke="#130F26" stroke-width="0.073"/><path d=" M -3.707,-26.624 L -4.579,-29.093 L 0.419,-30.859 L 1.291,-28.39 L -3.707,-26.624" fill="#9C999D" stroke="#130F26" stroke-width="0.073"/><path d=" M -2.967,-25.007 L 1.284,-21.791 L -0.518,-19.82 L -2.811,-22.337 L -4.336,-20.499 L -5.683,-21.417 L -2.967,-25.007" fill="#B4B0B5" stroke="#130F26" stroke-width="0.073"/><path d=" M -5.683,-21.417 L -6.304,-21.84 L -5.399,-23.488 L -7.208,-26.875 L -6.512,-27.246 L -5.967,-28.603 L -4.579,-29.093 L -3.197,-25.181 L -2.967,-25.007 L -5.683,-21.417" fill="#989599" stroke="#130F26" stroke-width="0.073"/><path d=" M 5.819,-13.34 L 3.994,-15.344 L 6.366,-17.947 L 8.235,-16.533 L 5.819,-13.34" fill="#A7A3A8" stroke="#130F26" stroke-width="0.073"/><path d=" M 4.036,-19.71 L 6.366,-17.947 L 3.776,-15.105 L 1.808,-17.265 L 4.036,-19.71" fill="#A7A4A8" stroke="#130F26" stroke-width="0.073"/><path d=" M 1.808,-17.265 L -0.518,-19.82 L 1.284,-21.791 L 4.036,-19.71 L 1.808,-17.265" fill="#888589" stroke="#130F26" stroke-width="0.073"/><path d=" M -19.157,-12.7 L -19.157,-12.1 L -20.703,-12.949 L -20.703,-13.549 L -19.157,-12.7" fill="#130F26" stroke="#130F26" stroke-width="0.073"/><path d=" M -17.074,-15.62 L -17.074,-15.02 L -19.157,-12.1 L -19.157,-12.7 L -17.074,-15.62" fill="#130F26" stroke="#130F26" stroke-width="0.073"/><path d=" M -23.607,-15.717 L -23.607,-15.117 L -23.691,-15.322 L -23.691,-15.922 L -23.607,-15.717" fill="#130F26" stroke="#130F26" stroke-width="0.073"/><path d=" M -18.394,-16.8 L -18.394,-16.2 L -21.168,-12.294 L -24.014,-13.857 L -24.014,-14.457 L -21.168,-12.894 L -18.394,-16.8" fill="#130F26" stroke="#130F26" stroke-width="0.073"/><path d=" M -14.969,-18.571 L -14.969,-17.971 L -17.074,-15.02 L -20.547,-18.126 L -20.547,-18.726 L -17.074,-15.62 L -14.969,-18.571" fill="#130F26" stroke="#130F26" stroke-width="0.073"/><path d=" M -15.046,-14.994 L -15.046,-14.394 L -17.024,-10.794 L -19.226,-12.004 L -19.226,-12.604 L -17.024,-11.394 L -15.046,-14.994" fill="#130F26" stroke="#130F26" stroke-width="0.073"/><path d=" M -12.36,-13.307 L -12.36,-12.707 L -14.576,-8.673 L -17.351,-10.198 L -17.351,-10.798 L -14.576,-9.273 L -12.36,-13.307" fill="#130F26" stroke="#130F26" stroke-width="0.073"/><path d=" M -11.636,-15.525 L -11.636,-14.925 L -12.727,-12.938 L -16.755,-15.467 L -16.755,-16.067 L -12.727,-13.538 L -11.636,-15.525" fill="#130F26" stroke="#130F26" stroke-width="0.073"/><path d=" M -8.269,-21.288 L -8.269,-20.688 L -9.49,-18.466 L -12.132,-20.318 L -12.132,-20.918 L -9.49,-19.066 L -8.269,-21.288" fill="#130F26" stroke="#130F26" stroke-width="0.073"/><path d=" M -11.307,-15.224 L -11.307,-14.624 L -14.532,-17.571 L -14.532,-18.171 L -11.307,-15.224" fill="#130F26" stroke="#130F26" stroke-width="0.073"/><path d=" M -9.278,-18.918 L -9.278,-18.318 L -11.307,-14.624 L -11.307,-15.224 L -9.278,-18.918" fill="#130F26" stroke="#130F26" stroke-width="0.073"/><path d=" M -12.91,-20.028 L -12.91,-19.428 L -14.532,-17.571 L -16.42,-19.297 L -16.42,-19.897 L -14.532,-18.171 L -12.91,-20.028" fill="#130F26" stroke="#130F26" stroke-width="0.073"/><path d=" M -10.276,-23.042 L -10.276,-22.442 L -12.91,-19.428 L -15.188,-21.954 L -15.188,-22.554 L -12.91,-20.028 L -10.276,-23.042" fill="#130F26" stroke="#130F26" stroke-width="0.073"/><path d=" M -8.195,-21.223 L -8.195,-20.623 L -12.217,-24.137 L -12.217,-24.737 L -8.195,-21.223" fill="#130F26" stroke="#130F26" stroke-width="0.073"/><path d=" M -7.315,-22.825 L -7.315,-22.225 L -8.195,-20.623 L -8.195,-21.223 L -7.315,-22.825" fill="#130F26" stroke="#130F26" stroke-width="0.073"/><path d=" M -17.074,-15.62 L -19.157,-12.7 L -20.703,-13.549 L -18.394,-16.8 L -17.074,-15.62" fill="#8D8A8E" stroke="#130F26" stroke-width="0.073"/><path d=" M -21.168,-12.894 L -24.014,-14.457 L -23.607,-15.717 L -23.691,-15.922 L -20.547,-18.726 L -18.394,-16.8 L -21.168,-12.894" fill="#979498" stroke="#130F26" stroke-width="0.073"/><path d=" M -20.547,-18.726 L -20.118,-19.108 L -18.746,-18.912 L -16.721,-20.172 L -14.969,-18.571 L -17.074,-15.62 L -20.547,-18.726" fill="#959296" stroke="#130F26" stroke-width="0.073"/><path d=" M -17.024,-11.394 L -19.226,-12.604 L -16.755,-16.067 L -15.046,-14.994 L -17.024,-11.394" fill="#A7A4A8" stroke="#130F26" stroke-width="0.073"/><path d=" M -15.046,-14.994 L -12.36,-13.307 L -14.576,-9.273 L -17.351,-10.798 L -15.046,-14.994" fill="#9A979B" stroke="#130F26" stroke-width="0.073"/><path d=" M -14.969,-18.571 L -11.636,-15.525 L -12.727,-13.538 L -16.755,-16.067 L -14.969,-18.571" fill="#99969A" stroke="#130F26" stroke-width="0.073"/><path d=" M -10.276,-23.042 L -8.269,-21.288 L -9.49,-19.066 L -12.132,-20.918 L -10.276,-23.042" fill="#8A888B" stroke="#130F26" stroke-width="0.073"/><path d=" M -9.278,-18.918 L -11.307,-15.224 L -14.532,-18.171 L -12.132,-20.918 L -9.278,-18.918" fill="#A4A1A5" stroke="#130F26" stroke-width="0.073"/><path d=" M -14.532,-18.171 L -16.42,-19.897 L -15.766,-21.896 L -15.049,-22.399 L -12.91,-20.028 L -14.532,-18.171" fill="#918E92" stroke="#130F26" stroke-width="0.073"/><path d=" M -15.188,-22.554 L -12.154,-24.682 L -10.276,-23.042 L -12.91,-20.028 L -15.188,-22.554" fill="#ACA8AD" stroke="#130F26" stroke-width="0.073"/><path d=" M -7.315,-22.825 L -8.195,-21.223 L -12.217,-24.737 L -10.834,-25.708 L -9.297,-25.384 L -8.818,-25.639 L -7.315,-22.825" fill="#9F9CA0" stroke="#130F26" stroke-width="0.073"/></g><g><path d=" M 0,0"/></g><g><path d=" M 0,0"/></g><g><path d=" M 0,0"/></g><g><path d=" M 0,0"/><path d=" M 35.631,4.418 L 35.631,5.018 L 30.257,5.667 L 29.002,2.691 L 29.002,2.091 L 30.257,5.067 L 35.631,4.418" fill="#130F26" stroke="#130F26" stroke-width="0.073"/><path d=" M 32.474,7.607 L 32.474,8.207 L 32.035,8.26 L 30.671,9.261 L 27.704,4.014 L 27.704,3.414 L 30.671,8.661 L 32.035,7.66 L 32.474,7.607" fill="#130F26" stroke="#130F26" stroke-width="0.073"/><path d=" M 35.269,7.269 L 35.269,7.869 L 32.474,8.207 L 32.139,5.44 L 32.139,4.84 L 32.474,7.607 L 35.269,7.269" fill="#130F26" stroke="#130F26" stroke-width="0.073"/><path d=" M 30.671,8.661 L 30.671,9.261 L 28.344,10.97 L 26.208,8.062 L 26.208,7.462 L 28.344,10.37 L 30.671,8.661" fill="#130F26" stroke="#130F26" stroke-width="0.073"/><path d=" M 28.98,5.671 L 28.98,6.271 L 26.584,7.82 L 25.416,6.23 L 24.944,5.289 L 24.944,4.689 L 25.416,5.63 L 26.584,7.22 L 28.98,5.671" fill="#130F26" stroke="#130F26" stroke-width="0.073"/><path d=" M 28.844,11.051 L 28.844,11.651 L 28.344,10.97 L 28.344,10.37 L 28.844,11.051" fill="#130F26" stroke="#130F26" stroke-width="0.073"/><path d=" M 33.768,10.13 L 33.768,10.73 L 31.773,13.651 L 28.844,11.651 L 28.844,11.051 L 31.773,13.051 L 33.768,10.13" fill="#130F26" stroke="#130F26" stroke-width="0.073"/><path d=" M 33.768,10.13 L 33.768,10.73 L 33.449,8.089 L 33.449,7.489 L 33.768,10.13" fill="#130F26" stroke="#130F26" stroke-width="0.073"/><path d=" M 35.643,8.503 L 35.643,9.103 L 34.52,10.799 L 34.52,10.199 L 35.643,8.503" fill="#130F26" stroke="#130F26" stroke-width="0.073"/><path d=" M 34.938,12.838 L 34.938,13.438 L 34.198,15.05 L 31.893,13.476 L 31.893,12.876 L 34.198,14.45 L 34.938,12.838" fill="#130F26" stroke="#130F26" stroke-width="0.073"/><path d=" M 29.002,2.091 L 32.244,0.724 L 33.097,2.219 L 35.472,3.097 L 35.631,4.418 L 30.257,5.067 L 29.002,2.091" fill="#A9A6AA" stroke="#130F26" stroke-width="0.073"/><path d=" M 30.671,8.661 L 27.704,3.414 L 29.28,2.75 L 30.257,5.067 L 32.139,4.84 L 32.474,7.607 L 32.035,7.66 L 30.671,8.661" fill="#AFACB1" stroke="#130F26" stroke-width="0.073"/><path d=" M 34.934,4.502 L 35.269,7.269 L 32.474,7.607 L 32.139,4.84 L 34.934,4.502" fill="#A7A4A9" stroke="#130F26" stroke-width="0.073"/><path d=" M 28.98,5.671 L 30.671,8.661 L 28.344,10.37 L 26.208,7.462 L 28.98,5.671" fill="#9E9B9F" stroke="#130F26" stroke-width="0.073"/><path d=" M 26.703,3.808 L 27.691,3.391 L 28.98,5.671 L 26.584,7.22 L 25.416,5.63 L 24.944,4.689 L 26.703,3.808" fill="#9E9A9F" stroke="#130F26" stroke-width="0.073"/><path d=" M 31.773,13.051 L 28.844,11.051 L 28.344,10.37 L 32.035,7.66 L 33.449,7.489 L 33.768,10.13 L 31.773,13.051" fill="#A19EA2" stroke="#130F26" stroke-width="0.073"/><path d=" M 34.198,14.45 L 31.893,12.876 L 33.768,10.13 L 33.449,7.489 L 35.49,7.242 L 35.643,8.503 L 34.52,10.199 L 34.807,12.714 L 34.938,12.838 L 34.198,14.45" fill="#9D9A9E" stroke="#130F26" stroke-width="0.073"/><path d=" M 27.073,11.663 L 27.073,12.263 L 25.52,13.907 L 22.904,10.574 L 22.904,9.974 L 25.52,13.307 L 27.073,11.663" fill="#130F26" stroke="#130F26" stroke-width="0.073"/><path d=" M 20.179,17.288 L 20.179,17.888 L 18.476,18.73 L 18.4,18.576 L 16.655,14.182 L 16.655,13.582 L 18.4,17.976 L 18.476,18.13 L 20.179,17.288" fill="#130F26" stroke="#130F26" stroke-width="0.073"/><path d=" M 34.25,16.197 L 34.25,16.797 L 32.832,19.887 L 28.531,17.451 L 28.531,16.851 L 32.832,19.287 L 34.25,16.197" fill="#130F26" stroke="#130F26" stroke-width="0.073"/><path d=" M 30.055,20.514 L 30.055,21.114 L 27.289,19.27 L 27.289,18.67 L 30.055,20.514" fill="#130F26" stroke="#130F26" stroke-width="0.073"/><path d=" M 32.109,18.878 L 32.109,19.478 L 31.787,20.179 L 30.408,20.583 L 30.055,21.114 L 30.055,20.514 L 30.408,19.983 L 31.787,19.579 L 32.109,18.878" fill="#130F26" stroke="#130F26" stroke-width="0.073"/><path d=" M 30.306,14.252 L 30.306,14.852 L 28.74,17.145 L 25.173,14.274 L 25.173,13.674 L 28.74,16.545 L 30.306,14.252" fill="#130F26" stroke="#130F26" stroke-width="0.073"/><path d=" M 16.029,13.943 L 16.029,14.543 L 14.174,9.87 L 14.174,9.27 L 16.029,13.943" fill="#130F26" stroke="#130F26" stroke-width="0.073"/><path d=" M 19.387,12.005 L 19.387,12.605 L 16.029,14.543 L 16.029,13.943 L 19.387,12.005" fill="#130F26" stroke="#130F26" stroke-width="0.073"/><path d=" M 21.317,10.891 L 21.317,11.491 L 19.387,12.605 L 16.993,8.458 L 16.993,7.858 L 19.387,12.005 L 21.317,10.891" fill="#130F26" stroke="#130F26" stroke-width="0.073"/><path d=" M 21.317,10.891 L 21.317,11.491 L 18.989,7.458 L 18.989,6.858 L 21.317,10.891" fill="#130F26" stroke="#130F26" stroke-width="0.073"/><path d=" M 23.483,9.64 L 23.483,10.24 L 21.317,11.491 L 21.317,10.891 L 23.483,9.64" fill="#130F26" stroke="#130F26" stroke-width="0.073"/><path d=" M 24.99,8.771 L 24.99,9.371 L 23.483,10.24 L 21.686,7.126 L 21.686,6.526 L 23.483,9.64 L 24.99,8.771" fill="#130F26" stroke="#130F26" stroke-width="0.073"/><path d=" M 25.574,24.538 L 25.574,25.138 L 24.085,22.127 L 24.085,21.527 L 25.574,24.538" fill="#130F26" stroke="#130F26" stroke-width="0.073"/><path d=" M 27.769,23.345 L 27.769,23.945 L 25.619,25.185 L 25.574,25.138 L 25.574,24.538 L 25.619,24.585 L 27.769,23.345" fill="#130F26" stroke="#130F26" stroke-width="0.073"/><path d=" M 30.745,20.974 L 30.745,21.574 L 29.726,23.102 L 29.726,22.502 L 30.745,20.974" fill="#130F26" stroke="#130F26" stroke-width="0.073"/><path d=" M 29.774,22.941 L 29.774,23.541 L 28.145,24.48 L 25.597,20.848 L 25.597,20.248 L 28.145,23.88 L 29.774,22.941" fill="#130F26" stroke="#130F26" stroke-width="0.073"/><path d=" M 23.959,21.272 L 23.959,21.872 L 20.177,23.742 L 18.692,20.74 L 18.692,20.14 L 20.177,23.142 L 23.959,21.272" fill="#130F26" stroke="#130F26" stroke-width="0.073"/><path d=" M 22.474,18.27 L 22.474,18.87 L 19.221,20.478 L 18.38,18.777 L 18.38,18.177 L 19.221,19.878 L 22.474,18.27" fill="#130F26" stroke="#130F26" stroke-width="0.073"/><path d=" M 25.891,25.18 L 25.891,25.78 L 25.815,25.824 L 24.975,24.945 L 20.896,24.494 L 20.634,24.668 L 20.177,23.742 L 20.177,23.142 L 20.634,24.068 L 20.896,23.894 L 24.975,24.345 L 25.815,25.224 L 25.891,25.18" fill="#130F26" stroke="#130F26" stroke-width="0.073"/><path d=" M 24.961,8.787 L 27.073,11.663 L 25.52,13.307 L 22.904,9.974 L 24.961,8.787" fill="#9C999D" stroke="#130F26" stroke-width="0.073"/><path d=" M 18.4,17.976 L 16.655,13.582 L 17.693,12.983 L 20.179,17.288 L 18.476,18.13 L 18.4,17.976" fill="#AAA7AB" stroke="#130F26" stroke-width="0.073"/><path d=" M 28.531,16.851 L 30.655,13.741 L 34.25,16.197 L 32.832,19.287 L 28.531,16.851" fill="#8E8B8F" stroke="#130F26" stroke-width="0.073"/><path d=" M 30.408,19.983 L 30.055,20.514 L 27.289,18.67 L 28.531,16.851 L 32.109,18.878 L 31.787,19.579 L 30.408,19.983" fill="#A8A4A9" stroke="#130F26" stroke-width="0.073"/><path d=" M 27.352,12.234 L 30.306,14.252 L 28.74,16.545 L 25.173,13.674 L 26.994,11.747 L 27.352,12.234" fill="#A8A5A9" stroke="#130F26" stroke-width="0.073"/><path d=" M 19.387,12.005 L 16.029,13.943 L 14.174,9.27 L 16.993,7.858 L 19.387,12.005" fill="#99969A" stroke="#130F26" stroke-width="0.073"/><path d=" M 16.993,7.858 L 18.989,6.858 L 21.317,10.891 L 19.387,12.005 L 16.993,7.858" fill="#8A878B" stroke="#130F26" stroke-width="0.073"/><path d=" M 23.483,9.64 L 21.317,10.891 L 18.989,6.858 L 21.23,5.736 L 23.483,9.64" fill="#908D91" stroke="#130F26" stroke-width="0.073"/><path d=" M 23.589,6.864 L 24.99,8.771 L 23.483,9.64 L 21.686,6.526 L 23.072,5.832 L 23.589,6.864" fill="#89878A" stroke="#130F26" stroke-width="0.073"/><path d=" M 25.619,24.585 L 25.574,24.538 L 24.085,21.527 L 25.597,20.248 L 27.769,23.345 L 25.619,24.585" fill="#AEAAAF" stroke="#130F26" stroke-width="0.073"/><path d=" M 25.597,20.248 L 27.386,18.735 L 30.745,20.974 L 29.726,22.502 L 29.774,22.941 L 28.145,23.88 L 25.597,20.248" fill="#99969A" stroke="#130F26" stroke-width="0.073"/><path d=" M 22.474,18.27 L 23.959,21.272 L 20.177,23.142 L 18.692,20.14 L 22.474,18.27" fill="#AEAAAF" stroke="#130F26" stroke-width="0.073"/><path d=" M 19.221,19.878 L 18.38,18.177 L 21.633,16.569 L 22.474,18.27 L 19.221,19.878" fill="#A4A0A5" stroke="#130F26" stroke-width="0.073"/><path d=" M 23.959,21.272 L 25.891,25.18 L 25.815,25.224 L 24.975,24.345 L 20.896,23.894 L 20.634,24.068 L 20.177,23.142 L 23.959,21.272" fill="#9E9B9F" stroke="#130F26" stroke-width="0.073"/></g><g><path d=" M 0,0"/><path d=" M 13.203,25.066 L 13.203,25.666 L 11.403,26.435 L 10.056,22.698 L 10.056,22.098 L 11.403,25.835 L 13.203,25.066" fill="#130F26" stroke="#130F26" stroke-width="0.073"/><path d=" M 8.827,26.935 L 8.827,27.535 L 7.241,23.136 L 7.241,22.536 L 8.827,26.935" fill="#130F26" stroke="#130F26" stroke-width="0.073"/><path d=" M 11.403,25.835 L 11.403,26.435 L 8.827,27.535 L 8.827,26.935 L 11.403,25.835" fill="#130F26" stroke="#130F26" stroke-width="0.073"/><path d=" M 15.135,24.241 L 15.135,24.841 L 13.203,25.666 L 11.689,22.121 L 11.689,21.521 L 13.203,25.066 L 15.135,24.241" fill="#130F26" stroke="#130F26" stroke-width="0.073"/><path d=" M 17.273,23.328 L 17.273,23.928 L 15.135,24.841 L 13.651,21.366 L 13.651,20.766 L 15.135,24.241 L 17.273,23.328" fill="#130F26" stroke="#130F26" stroke-width="0.073"/><path d=" M 18.806,24.883 L 18.806,25.483 L 18.747,25.5 L 16.482,28.922 L 16.482,28.322 L 18.747,24.9 L 18.806,24.883" fill="#130F26" stroke="#130F26" stroke-width="0.073"/><path d=" M 16.726,30.465 L 16.726,31.065 L 16.58,31.149 L 13.729,25.441 L 13.729,24.841 L 16.58,30.549 L 16.726,30.465" fill="#130F26" stroke="#130F26" stroke-width="0.073"/><path d=" M 15.19,27.767 L 15.19,28.367 L 10.678,30.298 L 9.567,27.219 L 9.567,26.619 L 10.678,29.698 L 15.19,27.767" fill="#130F26" stroke="#130F26" stroke-width="0.073"/><path d=" M 16.58,30.549 L 16.58,31.149 L 12.605,33.441 L 11.548,32.977 L 10.863,33.178 L 9.938,30.615 L 9.938,30.015 L 10.863,32.578 L 11.548,32.377 L 12.605,32.841 L 16.58,30.549" fill="#130F26" stroke="#130F26" stroke-width="0.073"/><path d=" M 10.056,22.098 L 11.685,21.511 L 13.203,25.066 L 11.403,25.835 L 10.056,22.098" fill="#969397" stroke="#130F26" stroke-width="0.073"/><path d=" M 11.403,25.835 L 8.827,26.935 L 7.241,22.536 L 9.871,21.587 L 11.403,25.835" fill="#B5B2B7" stroke="#130F26" stroke-width="0.073"/><path d=" M 13.203,25.066 L 11.689,21.521 L 13.668,20.807 L 15.135,24.241 L 13.203,25.066" fill="#A29EA3" stroke="#130F26" stroke-width="0.073"/><path d=" M 15.65,20.045 L 17.273,23.328 L 15.135,24.241 L 13.651,20.766 L 15.65,20.045" fill="#8F8C90" stroke="#130F26" stroke-width="0.073"/><path d=" M 13.729,24.841 L 17.904,23.058 L 18.806,24.883 L 18.747,24.9 L 16.482,28.322 L 16.726,30.465 L 16.58,30.549 L 13.729,24.841" fill="#9D9A9E" stroke="#130F26" stroke-width="0.073"/><path d=" M 10.678,29.698 L 9.567,26.619 L 13.729,24.841 L 15.19,27.767 L 10.678,29.698" fill="#A3A0A4" stroke="#130F26" stroke-width="0.073"/><path d=" M 15.19,27.767 L 16.58,30.549 L 12.605,32.841 L 11.548,32.377 L 10.863,32.578 L 9.938,30.015 L 15.19,27.767" fill="#949195" stroke="#130F26" stroke-width="0.073"/><path d=" M 7.537,26.894 L 7.537,27.494 L 2.75,29.22 L 1.325,25.269 L 1.325,24.669 L 2.75,28.62 L 7.537,26.894" fill="#130F26" stroke="#130F26" stroke-width="0.073"/><path d=" M 2.484,27.882 L 2.484,28.482 L -2.891,29.159 L -2.891,28.559 L 2.484,27.882" fill="#130F26" stroke="#130F26" stroke-width="0.073"/><path d=" M 3.06,31.619 L 3.06,32.219 L 1.616,30.708 L -0.9,30.429 L -1.312,30.704 L -2.932,29.706 L -2.932,29.106 L -1.312,30.104 L -0.9,29.829 L 1.616,30.108 L 3.06,31.619" fill="#130F26" stroke="#130F26" stroke-width="0.073"/><path d=" M -6.348,27.813 L -6.348,28.413 L -6.477,28.084 L -6.477,27.484 L -6.348,27.813" fill="#130F26" stroke="#130F26" stroke-width="0.073"/><path d=" M -2.708,26.124 L -2.708,26.724 L -2.99,30.483 L -6.348,28.413 L -6.348,27.813 L -2.99,29.883 L -2.708,26.124" fill="#130F26" stroke="#130F26" stroke-width="0.073"/><path d=" M 9.709,32.916 L 9.709,33.516 L 9.119,33.688 L 8.889,34.034 L 3.106,32.96 L 2.988,31.053 L 2.988,30.453 L 3.106,32.36 L 8.889,33.434 L 9.119,33.088 L 9.709,32.916" fill="#130F26" stroke="#130F26" stroke-width="0.073"/><path d=" M 7.741,29.457 L 7.741,30.057 L 2.988,31.053 L 2.873,29.176 L 2.873,28.576 L 2.988,30.453 L 7.741,29.457" fill="#130F26" stroke="#130F26" stroke-width="0.073"/><path d=" M 1.325,24.669 L 6.112,22.943 L 7.537,26.894 L 2.75,28.62 L 1.325,24.669" fill="#949195" stroke="#130F26" stroke-width="0.073"/><path d=" M -2.751,26.702 L 1.505,25.167 L 2.484,27.882 L -2.891,28.559 L -2.751,26.702" fill="#848185" stroke="#130F26" stroke-width="0.073"/><path d=" M 2.873,28.576 L 3.06,31.619 L 1.616,30.108 L -0.9,29.829 L -1.312,30.104 L -2.932,29.106 L -2.891,28.559 L 2.484,27.882 L 2.75,28.62 L 2.873,28.576" fill="#959296" stroke="#130F26" stroke-width="0.073"/><path d=" M -2.99,29.883 L -6.348,27.813 L -6.477,27.484 L -2.708,26.124 L -2.99,29.883" fill="#A09DA1" stroke="#130F26" stroke-width="0.073"/><path d=" M 8.41,29.316 L 9.709,32.916 L 9.119,33.088 L 8.889,33.434 L 3.106,32.36 L 2.988,30.453 L 8.41,29.316" fill="#9D9A9E" stroke="#130F26" stroke-width="0.073"/><path d=" M 2.873,28.576 L 6.899,27.124 L 7.741,29.457 L 2.988,30.453 L 2.873,28.576" fill="#949195" stroke="#130F26" stroke-width="0.073"/></g><g><path d=" M 0,0"/></g><g><path d=" M 0,0"/><path d=" M -33.438,18.785 L -36.914,21.507 L -48.847,6.267 L -45.371,3.545 L -42.502,7.208 L -36.66,2.633 L -33.474,6.702 L -36.519,9.086 L -27.805,20.215 L -30.602,22.406 L -33.438,18.785" fill="#130F26"/></g><g><path d=" M 0,0"/></g><g><path d=" M 0,0"/></g><g><path d=" M 0,0"/><path d=" M 41.927,10.46 L 41.927,11.06 L 41.554,9.976 L 40.484,9.332 L 40.095,6.109 L 40.095,5.509 L 40.484,8.732 L 41.554,9.376 L 41.927,10.46" fill="#130F26" stroke="#130F26" stroke-width="0.073"/><path d=" M 45.203,9.823 L 45.203,10.423 L 41.927,11.06 L 41.927,10.46 L 45.203,9.823" fill="#130F26" stroke="#130F26" stroke-width="0.073"/><path d=" M 40.807,5.459 L 40.807,6.059 L 40.569,4.091 L 40.569,3.491 L 40.807,5.459" fill="#130F26" stroke="#130F26" stroke-width="0.073"/><path d=" M 45.349,3.314 L 45.349,3.914 L 45.266,5.746 L 40.807,6.059 L 40.807,5.459 L 45.266,5.146 L 45.349,3.314" fill="#130F26" stroke="#130F26" stroke-width="0.073"/><path d=" M 45.496,0.063 L 45.496,0.663 L 45.349,3.914 L 39.854,4.117 L 39.763,3.371 L 39.763,2.771 L 39.854,3.517 L 45.349,3.314 L 45.496,0.063" fill="#130F26" stroke="#130F26" stroke-width="0.073"/><path d=" M 49.479,4.85 L 49.479,5.45 L 45.266,5.746 L 45.266,5.146 L 49.479,4.85" fill="#130F26" stroke="#130F26" stroke-width="0.073"/><path d=" M 56.637,7.598 L 56.637,8.198 L 53.324,8.843 L 52.924,5.056 L 52.924,4.456 L 53.324,8.243 L 56.637,7.598" fill="#130F26" stroke="#130F26" stroke-width="0.073"/><path d=" M 45.203,9.823 L 41.927,10.46 L 41.554,9.376 L 40.484,8.732 L 40.095,5.509 L 44.593,5.193 L 45.203,9.823" fill="#9A979B" stroke="#130F26" stroke-width="0.073"/><path d=" M 45.266,5.146 L 40.807,5.459 L 40.569,3.491 L 45.349,3.314 L 45.266,5.146" fill="#918F92" stroke="#130F26" stroke-width="0.073"/><path d=" M 39.854,3.517 L 39.763,2.771 L 40.295,2.642 L 42.557,-0.422 L 45.496,0.063 L 45.349,3.314 L 39.854,3.517" fill="#8B888C" stroke="#130F26" stroke-width="0.073"/><path d=" M 45.467,0.71 L 49.409,1.361 L 49.479,4.85 L 45.266,5.146 L 45.467,0.71" fill="#A29FA3" stroke="#130F26" stroke-width="0.073"/><path d=" M 52.924,4.456 L 56.61,4.382 L 56.637,7.598 L 53.324,8.243 L 52.924,4.456" fill="#B3B0B5" stroke="#130F26" stroke-width="0.073"/></g><g><path d=" M 0,0"/><path d=" M 48.56,-1.458 L 48.56,-0.858 L 44.559,-1.519 L 44.559,-2.119 L 48.56,-1.458" fill="#130F26" stroke="#130F26" stroke-width="0.073"/><path d=" M 49.107,-4.766 L 49.107,-4.166 L 48.56,-0.858 L 48.56,-1.458 L 49.107,-4.766" fill="#130F26" stroke="#130F26" stroke-width="0.073"/><path d=" M 49.107,-4.766 L 48.56,-1.458 L 44.559,-2.119 L 44.583,-5.158 L 49.107,-4.766" fill="#9A979B" stroke="#130F26" stroke-width="0.073"/></g><g><path d=" M 0,0"/><path d=" M 15.947,44.526 L 15.947,45.126 L 14.756,41.546 L 14.756,40.946 L 15.947,44.526" fill="#130F26" stroke="#130F26" stroke-width="0.073"/><path d=" M 17.838,43.897 L 17.838,44.497 L 15.947,45.126 L 15.947,44.526 L 17.838,43.897" fill="#130F26" stroke="#130F26" stroke-width="0.073"/><path d=" M 20.317,42.783 L 20.317,43.383 L 17.751,44.237 L 16.68,41.017 L 16.68,40.417 L 17.751,43.637 L 20.317,42.783" fill="#130F26" stroke="#130F26" stroke-width="0.073"/><path d=" M 24.749,35.493 L 24.749,36.093 L 18.535,39.409 L 16.959,35.895 L 16.959,35.295 L 18.535,38.809 L 24.749,35.493" fill="#130F26" stroke="#130F26" stroke-width="0.073"/><path d=" M 24.092,41.784 L 24.092,42.384 L 23.071,40.011 L 23.071,39.411 L 24.092,41.784" fill="#130F26" stroke="#130F26" stroke-width="0.073"/><path d=" M 27.257,40.731 L 27.257,41.331 L 24.092,42.384 L 24.092,41.784 L 27.257,40.731" fill="#130F26" stroke="#130F26" stroke-width="0.073"/><path d=" M 26.181,37.779 L 26.181,38.379 L 23.071,40.011 L 22.014,37.553 L 22.014,36.953 L 23.071,39.411 L 26.181,37.779" fill="#130F26" stroke="#130F26" stroke-width="0.073"/><path d=" M 17.838,43.897 L 15.947,44.526 L 14.756,40.946 L 16.68,40.417 L 17.838,43.897" fill="#9C999D" stroke="#130F26" stroke-width="0.073"/><path d=" M 18.973,39.786 L 20.317,42.783 L 17.751,43.637 L 16.68,40.417 L 18.973,39.786" fill="#939194" stroke="#130F26" stroke-width="0.073"/><path d=" M 18.535,38.809 L 16.959,35.295 L 18.553,34.375 L 18.579,34.418 L 22.47,35.722 L 24.413,34.957 L 24.749,35.493 L 18.535,38.809" fill="#979498" stroke="#130F26" stroke-width="0.073"/><path d=" M 27.257,40.731 L 24.092,41.784 L 23.071,39.411 L 25.599,38.085 L 27.257,40.731" fill="#9D9A9E" stroke="#130F26" stroke-width="0.073"/><path d=" M 23.071,39.411 L 22.014,36.953 L 24.749,35.493 L 26.181,37.779 L 23.071,39.411" fill="#A09DA1" stroke="#130F26" stroke-width="0.073"/><path d=" M 22.948,63.767 L 22.948,64.367 L 19.538,65.18 L 18.332,60.126 L 18.332,59.526 L 19.538,64.58 L 22.948,63.767" fill="#130F26" stroke="#130F26" stroke-width="0.073"/><path d=" M 22.155,46.895 L 22.155,47.495 L 18.711,48.317 L 18.341,46.822 L 18.341,46.222 L 18.711,47.717 L 22.155,46.895" fill="#130F26" stroke="#130F26" stroke-width="0.073"/><path d=" M 26.82,46.076 L 26.82,46.676 L 22.222,47.773 L 21.512,44.8 L 21.512,44.2 L 22.222,47.173 L 26.82,46.076" fill="#130F26" stroke="#130F26" stroke-width="0.073"/><path d=" M 31.452,46.195 L 31.452,46.795 L 27.263,48.529 L 26.016,43.302 L 26.016,42.702 L 27.263,47.929 L 31.452,46.195" fill="#130F26" stroke="#130F26" stroke-width="0.073"/><path d=" M 32.582,50.161 L 32.582,50.761 L 28.225,52.564 L 27.263,48.529 L 27.263,47.929 L 28.225,51.964 L 32.582,50.161" fill="#130F26" stroke="#130F26" stroke-width="0.073"/><path d=" M 30.619,61.999 L 30.619,62.599 L 29.851,59.378 L 29.851,58.778 L 30.619,61.999" fill="#130F26" stroke="#130F26" stroke-width="0.073"/><path d=" M 32.411,61.572 L 32.411,62.172 L 30.619,62.599 L 30.619,61.999 L 32.411,61.572" fill="#130F26" stroke="#130F26" stroke-width="0.073"/><path d=" M 21.794,58.929 L 22.948,63.767 L 19.538,64.58 L 18.332,59.526 L 21.794,58.929" fill="#AFACB0" stroke="#130F26" stroke-width="0.073"/><path d=" M 18.341,46.222 L 21.726,45.095 L 22.155,46.895 L 18.711,47.717 L 18.341,46.222" fill="#A29FA3" stroke="#130F26" stroke-width="0.073"/><path d=" M 22.222,47.173 L 21.512,44.2 L 26.016,42.702 L 26.82,46.076 L 22.222,47.173" fill="#908D91" stroke="#130F26" stroke-width="0.073"/><path d=" M 27.263,47.929 L 26.016,42.702 L 28.704,41.808 L 31.452,46.195 L 27.263,47.929" fill="#9D9A9E" stroke="#130F26" stroke-width="0.073"/><path d=" M 30.377,46.64 L 32.582,50.161 L 28.225,51.964 L 27.263,47.929 L 30.377,46.64" fill="#9A979B" stroke="#130F26" stroke-width="0.073"/><path d=" M 32.411,61.572 L 30.619,61.999 L 29.851,58.778 L 31.643,58.351 L 32.411,61.572" fill="#A8A4A9" stroke="#130F26" stroke-width="0.073"/></g><g><path d=" M 0,0"/><path d=" M 31.184,32.564 L 31.184,33.164 L 27.054,35.751 L 26.575,34.986 L 26.575,34.386 L 27.054,35.151 L 31.184,32.564" fill="#130F26" stroke="#130F26" stroke-width="0.073"/><path d=" M 28.735,29.844 L 28.735,30.444 L 28.508,29.909 L 28.508,29.309 L 28.735,29.844" fill="#130F26" stroke="#130F26" stroke-width="0.073"/><path d=" M 32.67,34.938 L 32.67,35.538 L 28.426,38.196 L 26.94,35.822 L 26.94,35.222 L 28.426,37.596 L 32.67,34.938" fill="#130F26" stroke="#130F26" stroke-width="0.073"/><path d=" M 30.722,31.827 L 30.722,32.427 L 28.666,29.144 L 28.666,28.544 L 30.722,31.827" fill="#130F26" stroke="#130F26" stroke-width="0.073"/><path d=" M 33.577,30.039 L 33.577,30.639 L 30.722,32.427 L 30.722,31.827 L 33.577,30.039" fill="#130F26" stroke="#130F26" stroke-width="0.073"/><path d=" M 35.213,37.79 L 35.213,38.39 L 30.693,41.222 L 28.693,38.029 L 28.693,37.429 L 30.693,40.622 L 35.213,37.79" fill="#130F26" stroke="#130F26" stroke-width="0.073"/><path d=" M 37.342,43.035 L 37.342,43.635 L 34.399,45.478 L 32.575,42.566 L 32.575,41.966 L 34.399,44.878 L 37.342,43.035" fill="#130F26" stroke="#130F26" stroke-width="0.073"/><path d=" M 28.508,29.309 L 28.976,29.039 L 31.184,32.564 L 27.054,35.151 L 26.575,34.386 L 27.531,33.767 L 28.735,29.844 L 28.508,29.309" fill="#99969A" stroke="#130F26" stroke-width="0.073"/><path d=" M 31.184,32.564 L 32.67,34.938 L 28.426,37.596 L 26.94,35.222 L 31.184,32.564" fill="#8C898D" stroke="#130F26" stroke-width="0.073"/><path d=" M 33.577,30.039 L 30.722,31.827 L 28.666,28.544 L 31.586,26.86 L 33.577,30.039" fill="#AEABAF" stroke="#130F26" stroke-width="0.073"/><path d=" M 30.693,40.622 L 28.693,37.429 L 33.214,34.597 L 35.213,37.79 L 30.693,40.622" fill="#908D91" stroke="#130F26" stroke-width="0.073"/><path d=" M 34.399,44.878 L 32.575,41.966 L 35.518,40.123 L 37.342,43.035 L 34.399,44.878" fill="#99969A" stroke="#130F26" stroke-width="0.073"/></g><g><path d=" M 0,0"/></g><g><path d=" M 0,0"/></g><g><path d=" M 0,0"/></g><g><path d=" M 0,0"/></g><g><path d=" M 0,0"/><path d=" M -35.517,-6.809 L -27.305,-14.98 M -27.305,-14.98 L -19.507,-21.933 M -19.507,-21.933 L -9.266,-29.117 M -9.266,-29.117 L 3.14,-33.5 M 3.14,-33.5 L 16.024,-33.006 M 16.024,-33.006 L 27.323,-26.97 M 27.323,-26.97 L 35.277,-15.818 M 35.277,-15.818 L 36.629,-4.636 M 37.326,1.122 L 38.678,12.303 M 38.678,12.303 L 33.321,23.978 M 33.321,23.978 L 24.828,28.875 M 19.803,31.772 L 11.31,36.67 M 11.31,36.67 L -0.654,34.449 M -0.654,34.449 L -9.97,28.705 M -9.97,28.705 L -18.829,21.457" stroke="#130F26" stroke-width="1.9"/><path d=" M -35.517,-6.809 L -27.004,4.875 M -24.097,9.86 L -18.829,21.457 M -18.829,21.457 L -35.136,30.103 M -35.136,30.103 L -57.298,1.801 M -57.298,1.801 L -35.517,-6.809" stroke="#130F26" stroke-width="1.9"/><g transform="translate(-27.305 -14.98)"><path d=" M 0,0"/><path d=" M 1.9,0 Q 1.9,0.787 1.344,1.344 Q 0.787,1.9 0,1.9 L 0,1.9 Q -0.787,1.9 -1.344,1.344 Q -1.9,0.787 -1.9,0 L -1.9,0 Q -1.9,-0.787 -1.344,-1.344 Q -0.787,-1.9 0,-1.9 L 0,-1.9 Q 0.787,-1.9 1.344,-1.344 Q 1.9,-0.787 1.9,0 L 1.9,0" fill="#130F26"/></g><g transform="translate(-19.507 -21.933)"><path d=" M 0,0"/><path d=" M 1.9,0 Q 1.9,0.787 1.344,1.344 Q 0.787,1.9 0,1.9 L 0,1.9 Q -0.787,1.9 -1.344,1.344 Q -1.9,0.787 -1.9,0 L -1.9,0 Q -1.9,-0.787 -1.344,-1.344 Q -0.787,-1.9 0,-1.9 L 0,-1.9 Q 0.787,-1.9 1.344,-1.344 Q 1.9,-0.787 1.9,0 L 1.9,0" fill="#130F26"/></g><g transform="translate(-9.266 -29.117)"><path d=" M 0,0"/><path d=" M 1.9,0 Q 1.9,0.787 1.344,1.344 Q 0.787,1.9 0,1.9 L 0,1.9 Q -0.787,1.9 -1.344,1.344 Q -1.9,0.787 -1.9,0 L -1.9,0 Q -1.9,-0.787 -1.344,-1.344 Q -0.787,-1.9 0,-1.9 L 0,-1.9 Q 0.787,-1.9 1.344,-1.344 Q 1.9,-0.787 1.9,0 L 1.9,0" fill="#130F26"/></g><g transform="translate(3.14 -33.5)"><path d=" M 0,0"/><path d=" M 1.9,0 Q 1.9,0.787 1.344,1.344 Q 0.787,1.9 0,1.9 L 0,1.9 Q -0.787,1.9 -1.344,1.344 Q -1.9,0.787 -1.9,0 L -1.9,0 Q -1.9,-0.787 -1.344,-1.344 Q -0.787,-1.9 0,-1.9 L 0,-1.9 Q 0.787,-1.9 1.344,-1.344 Q 1.9,-0.787 1.9,0 L 1.9,0" fill="#130F26"/></g><g transform="translate(16.024 -33.006)"><path d=" M 0,0"/><path d=" M 1.9,0 Q 1.9,0.787 1.344,1.344 Q 0.787,1.9 0,1.9 L 0,1.9 Q -0.787,1.9 -1.344,1.344 Q -1.9,0.787 -1.9,0 L -1.9,0 Q -1.9,-0.787 -1.344,-1.344 Q -0.787,-1.9 0,-1.9 L 0,-1.9 Q 0.787,-1.9 1.344,-1.344 Q 1.9,-0.787 1.9,0 L 1.9,0" fill="#130F26"/></g><g transform="translate(27.323 -26.97)"><path d=" M 0,0"/><path d=" M 1.9,0 Q 1.9,0.787 1.344,1.344 Q 0.787,1.9 0,1.9 L 0,1.9 Q -0.787,1.9 -1.344,1.344 Q -1.9,0.787 -1.9,0 L -1.9,0 Q -1.9,-0.787 -1.344,-1.344 Q -0.787,-1.9 0,-1.9 L 0,-1.9 Q 0.787,-1.9 1.344,-1.344 Q 1.9,-0.787 1.9,0 L 1.9,0" fill="#130F26"/></g><g transform="translate(35.277 -15.818)"><path d=" M 0,0"/><path d=" M 1.9,0 Q 1.9,0.787 1.344,1.344 Q 0.787,1.9 0,1.9 L 0,1.9 Q -0.787,1.9 -1.344,1.344 Q -1.9,0.787 -1.9,0 L -1.9,0 Q -1.9,-0.787 -1.344,-1.344 Q -0.787,-1.9 0,-1.9 L 0,-1.9 Q 0.787,-1.9 1.344,-1.344 Q 1.9,-0.787 1.9,0 L 1.9,0" fill="#130F26"/></g><g transform="translate(38.678 12.303)"><path d=" M 0,0"/><path d=" M 1.9,0 Q 1.9,0.787 1.344,1.344 Q 0.787,1.9 0,1.9 L 0,1.9 Q -0.787,1.9 -1.344,1.344 Q -1.9,0.787 -1.9,0 L -1.9,0 Q -1.9,-0.787 -1.344,-1.344 Q -0.787,-1.9 0,-1.9 L 0,-1.9 Q 0.787,-1.9 1.344,-1.344 Q 1.9,-0.787 1.9,0 L 1.9,0" fill="#130F26"/></g><g transform="translate(33.321 23.978)"><path d=" M 0,0"/><path d=" M 1.9,0 Q 1.9,0.787 1.344,1.344 Q 0.787,1.9 0,1.9 L 0,1.9 Q -0.787,1.9 -1.344,1.344 Q -1.9,0.787 -1.9,0 L -1.9,0 Q -1.9,-0.787 -1.344,-1.344 Q -0.787,-1.9 0,-1.9 L 0,-1.9 Q 0.787,-1.9 1.344,-1.344 Q 1.9,-0.787 1.9,0 L 1.9,0" fill="#130F26"/></g><g transform="translate(11.31 36.67)"><path d=" M 0,0"/><path d=" M 1.9,0 Q 1.9,0.787 1.344,1.344 Q 0.787,1.9 0,1.9 L 0,1.9 Q -0.787,1.9 -1.344,1.344 Q -1.9,0.787 -1.9,0 L -1.9,0 Q -1.9,-0.787 -1.344,-1.344 Q -0.787,-1.9 0,-1.9 L 0,-1.9 Q 0.787,-1.9 1.344,-1.344 Q 1.9,-0.787 1.9,0 L 1.9,0" fill="#130F26"/></g><g transform="translate(-0.654 34.449)"><path d=" M 0,0"/><path d=" M 1.9,0 Q 1.9,0.787 1.344,1.344 Q 0.787,1.9 0,1.9 L 0,1.9 Q -0.787,1.9 -1.344,1.344 Q -1.9,0.787 -1.9,0 L -1.9,0 Q -1.9,-0.787 -1.344,-1.344 Q -0.787,-1.9 0,-1.9 L 0,-1.9 Q 0.787,-1.9 1.344,-1.344 Q 1.9,-0.787 1.9,0 L 1.9,0" fill="#130F26"/></g><g transform="translate(-9.97 28.705)"><path d=" M 0,0"/><path d=" M 1.9,0 Q 1.9,0.787 1.344,1.344 Q 0.787,1.9 0,1.9 L 0,1.9 Q -0.787,1.9 -1.344,1.344 Q -1.9,0.787 -1.9,0 L -1.9,0 Q -1.9,-0.787 -1.344,-1.344 Q -0.787,-1.9 0,-1.9 L 0,-1.9 Q 0.787,-1.9 1.344,-1.344 Q 1.9,-0.787 1.9,0 L 1.9,0" fill="#130F26"/></g><g transform="translate(36.978 -1.757) rotate(83.104 0 0)"><path d=" M 0,0"/><path d=" M -1,-1.9 L -4.8,-1.9 L -4.8,1.9 L -1,1.9 L -1,-1.9 M 1,-1.9 L 4.8,-1.9 L 4.8,1.9 L 1,1.9 L 1,-1.9" fill="#130F26"/></g><g transform="translate(22.316 30.324) rotate(150.031 0 0)"><path d=" M 0,0"/><path d=" M -1,-1.9 L -4.8,-1.9 L -4.8,1.9 L -1,1.9 L -1,-1.9 M 1,-1.9 L 4.8,-1.9 L 4.8,1.9 L 1,1.9 L 1,-1.9" fill="#130F26"/></g><g transform="translate(-35.517 -6.809)"><path d=" M 0,0"/><path d=" M 2.5,0 Q 2.5,1.036 1.768,1.768 Q 1.036,2.5 0,2.5 L 0,2.5 Q -1.036,2.5 -1.768,1.768 Q -2.5,1.036 -2.5,0 L -2.5,0 Q -2.5,-1.036 -1.768,-1.768 Q -1.036,-2.5 0,-2.5 L 0,-2.5 Q 1.036,-2.5 1.768,-1.768 Q 2.5,-1.036 2.5,0 L 2.5,0" fill="#130F26"/></g><g transform="translate(-18.829 21.457)"><path d=" M 0,0"/><path d=" M 2.5,0 Q 2.5,1.036 1.768,1.768 Q 1.036,2.5 0,2.5 L 0,2.5 Q -1.036,2.5 -1.768,1.768 Q -2.5,1.036 -2.5,0 L -2.5,0 Q -2.5,-1.036 -1.768,-1.768 Q -1.036,-2.5 0,-2.5 L 0,-2.5 Q 1.036,-2.5 1.768,-1.768 Q 2.5,-1.036 2.5,0 L 2.5,0" fill="#130F26"/></g><g transform="translate(-35.136 30.103)"><path d=" M 0,0"/><path d=" M 2.5,0 Q 2.5,1.036 1.768,1.768 Q 1.036,2.5 0,2.5 L 0,2.5 Q -1.036,2.5 -1.768,1.768 Q -2.5,1.036 -2.5,0 L -2.5,0 Q -2.5,-1.036 -1.768,-1.768 Q -1.036,-2.5 0,-2.5 L 0,-2.5 Q 1.036,-2.5 1.768,-1.768 Q 2.5,-1.036 2.5,0 L 2.5,0" fill="#130F26"/></g><g transform="translate(-57.298 1.801)"><path d=" M 0,0"/><path d=" M 2.5,0 Q 2.5,1.036 1.768,1.768 Q 1.036,2.5 0,2.5 L 0,2.5 Q -1.036,2.5 -1.768,1.768 Q -2.5,1.036 -2.5,0 L -2.5,0 Q -2.5,-1.036 -1.768,-1.768 Q -1.036,-2.5 0,-2.5 L 0,-2.5 Q 1.036,-2.5 1.768,-1.768 Q 2.5,-1.036 2.5,0 L 2.5,0" fill="#130F26"/></g><g transform="translate(-25.384 7.271) rotate(59.748 0 0)"><path d=" M 0,0"/><path d=" M -0.995,-1.9 L -4.795,-1.9 L -4.795,1.9 L -0.995,1.9 L -0.995,-1.9 M 0.995,-1.9 L 4.795,-1.9 L 4.795,1.9 L 0.995,1.9 L 0.995,-1.9" fill="#130F26"/></g></g></g><g><path d=" M 0,0"/><path d=" M 16.878,0 L 16.878,1014.372 M 200.469,0 L 200.469,1014.372 M 384.06,0 L 384.06,1014.372 M 567.65,0 L 567.65,1014.372 M 751.241,0 L 751.241,1014.372 M 934.832,0 L 934.832,1014.372 M 1118.423,0 L 1118.423,1014.372 M 0,9.094 L 1200,9.094 M 0,192.685 L 1200,192.685 M 0,376.276 L 1200,376.276 M 0,559.867 L 1200,559.867 M 0,743.457 L 1200,743.457 M 0,927.048 L 1200,927.048" stroke="#130F26" stroke-width="0.267"/></g><g><path d=" M 0,0"/></g><g><path d=" M 0,0"/><g transform="translate(1110 924.372)"><path d=" M 0,0"/><path d=" M 80,0 Q 80,33.137 56.569,56.569 Q 33.137,80 0,80 L 0,80 Q -33.137,80 -56.569,56.569 Q -80,33.137 -80,0 L -80,0 Q -80,-33.137 -56.569,-56.569 Q -33.137,-80 0,-80 L 0,-80 Q 33.137,-80 56.569,-56.569 Q 80,-33.137 80,0 L 80,0" fill="#FF0000" fill-opacity="0"/><path d=" M 35.433,0 Q 35.433,14.677 25.055,25.055 Q 14.677,35.433 0,35.433 L 0,35.433 Q -14.677,35.433 -25.055,25.055 Q -35.433,14.677 -35.433,0 L -35.433,0 Q -35.433,-14.677 -25.055,-25.055 Q -14.677,-35.433 0,-35.433 L 0,-35.433 Q 14.677,-35.433 25.055,-25.055 Q 35.433,-14.677 35.433,0 L 35.433,0" stroke="#130F26" stroke-width="1.067"/><path d=" M 43.229,0 Q 43.229,17.906 30.567,30.567 Q 17.906,43.229 0,43.229 L 0,43.229 Q -17.906,43.229 -30.567,30.567 Q -43.229,17.906 -43.229,0 L -43.229,0 Q -43.229,-17.906 -30.567,-30.567 Q -17.906,-43.229 0,-43.229 L 0,-43.229 Q 17.906,-43.229 30.567,-30.567 Q 43.229,-17.906 43.229,0 L 43.229,0" stroke="#130F26" stroke-width="0.533"/><path d=" M 0,0 L 36.683,36.683 L 0,6.407 L 0,0 M 0,0 L -36.683,36.683 L -6.407,0 L 0,0 M 0,0 L -36.683,-36.683 L 0,-6.407 L 0,0 M 0,0 L 36.683,-36.683 L 6.407,0 L 0,0" fill="#130F26"/><path d=" M 0,0 L 0,6.407 L -36.683,36.683 L 0,0 M 0,0 L -6.407,0 L -36.683,-36.683 L 0,0 M 0,0 L 0,-6.407 L 36.683,-36.683 L 0,0 M 0,0 L 6.407,0 L 36.683,36.683 L 0,0" fill="#BFBFBF"/><path d=" M 6.407,0 L 36.683,36.683 L 0,6.407 L -36.683,36.683 L -6.407,0 L -36.683,-36.683 L 0,-6.407 L 36.683,-36.683 L 6.407,0" stroke="#130F26" stroke-width="0.533"/><path d=" M 0,0 L 80,0 L 6.987,6.987 L 0,0 M 0,0 L 0,80 L -6.987,6.987 L 0,0 M 0,0 L -80,0 L -6.987,-6.987 L 0,0 M 0,0 L 0,-80 L 6.987,-6.987 L 0,0" fill="#130F26"/><path d=" M 0,0 L 6.987,6.987 L 0,80 L 0,0 M 0,0 L -6.987,6.987 L -80,0 L 0,0 M 0,0 L -6.987,-6.987 L 0,-80 L 0,0 M 0,0 L 6.987,-6.987 L 80,0 L 0,0" fill="#BFBFBF"/><path d=" M 6.987,-6.987 L 80,0 L 6.987,6.987 L 0,80 L -6.987,6.987 L -80,0 L -6.987,-6.987 L 0,-80 L 6.987,-6.987" stroke="#130F26" stroke-width="0.533"/><g transform="translate(0 -80)"><path d=" M 0,0"/><text dominant-baseline="text-before-edge" style="font: 18px &#039;IM Fell Great Primer&#039;, serif" fill="#130F26" transform="translate(-7.633 -23)">N</text></g></g></g><g><path d=" M 0,0"/><g transform="translate(10 10)"><path d=" M 0,0"/><path d=" M 0,0 L 228,0 L 228,125 L 0,125 L 0,0" fill="#BFBFBF"/><g><path d=" M 0,0"/><path d=" M 0,0 L 228,0 L 228,125 L 0,125 L 0,0" stroke="#130F26" stroke-width="1.067" stroke-linejoin="miter" stroke-linecap="round"/><path d=" M 2.133,2.133 L 225.867,2.133 L 225.867,122.867 L 2.133,122.867 L 2.133,2.133" stroke="#130F26" stroke-width="0.533" stroke-linejoin="miter" stroke-linecap="round"/></g><g transform="translate(10 10)"><path d=" M 0,0"/><g transform="translate(31.147 10)"><path d=" M 0,0"/><text dominant-baseline="text-before-edge" style="font: 32px &#039;IM Fell Great Primer&#039;, serif" fill="#130F26" transform="translate(2 2)">King's Fall</text></g><g transform="translate(10 64)"><path d=" M 0,0"/><g transform="translate(0 31)"><path d=" M 0,0"/><path d=" M 0,-12 L 184,-12 L 184,0 L 0,0 L 0,-12" fill="#FF0000" fill-opacity="0"/><path d=" M 0,-12 L 0,0 L 183.591,0 L 183.591,-12 M 45.898,0 L 45.898,-6 M 91.795,0 L 91.795,-12 M 137.693,0 L 137.693,-6" stroke="#130F26" stroke-width="0.533" stroke-linejoin="miter" stroke-linecap="butt"/><text dominant-baseline="text-before-edge" style="font: 14px &#039;IM Fell Great Primer&#039;, serif" fill="#130F26" transform="translate(0 -32)">0</text><text dominant-baseline="text-before-edge" style="font: 14px &#039;IM Fell Great Primer&#039;, serif" fill="#130F26" transform="translate(84.467 -32)">50</text><text dominant-baseline="text-before-edge" style="font: 14px &#039;IM Fell Great Primer&#039;, serif" fill="#130F26" transform="translate(161.825 -32)">100</text><text dominant-baseline="text-before-edge" style="font: 14px &#039;IM Fell Great Primer&#039;, serif" fill="#130F26" transform="translate(12.148 -32)">m</text></g></g></g></g></g></g></svg>