<?xml version="1.0" encoding="UTF-8" standalone="no"?><svg width="1046.765" height="1200" xmlns="http://www.w3.org/2000/svg" stroke-linejoin="round" stroke-linecap="round" fill-rule="evenodd" fill="none"><rect x="0" y="0" width="1046.765" height="1200" fill="#CCCAC2"/><style><![CDATA[@import url("https://fonts.googleapis.com/css2?family=IM+Fell+Great+Primer&display=swap");]]></style><defs/><g><path d=" M 0,0"/><g transform="translate(277.219 557.812) scale(5.174 5.174)"><path d=" M 0,0"/><g><path d=" M 0,0"/><g><path d=" M 0,0"/><g><path d=" M 0,0"/><path d=" M 83.115,55.036 L 98.609,63.098 L 100.471,63.779 L 114.242,66.879 L 115.59,68.027 L 134.795,115.986" stroke="#130F26" stroke-width="2.206" stroke-linejoin="round" stroke-linecap="butt"/></g></g><g><path d=" M 0,0"/><g><path d=" M 0,0"/><path d=" M 8.024,-8.019 L 10.995,4.351 L 11.887,6.076 L 18.569,13.717 L 20.098,14.962 L 44.429,28.711 L 46.138,29.748 L 65.248,42.162 L 66.896,43.294 L 82.305,54.45 L 84.002,55.498 L 98.609,63.098 L 100.471,63.779 L 114.242,66.879 L 115.59,68.027 L 134.795,115.986" stroke="#CCCAC2" stroke-width="2"/></g></g></g><g><path d=" M 0,0"/><path d=" M -5.72,-7.053 L -5.689,-7.035 L -5.658,-7.018 L -5.627,-7 L -5.591,-6.987 L -5.549,-6.977 L -5.502,-6.971 L -5.449,-6.969 L -5.39,-6.971 L -5.326,-6.977 L -5.257,-6.987 L -5.182,-7.001 L -5.106,-7.015 L -5.031,-7.029 L -4.956,-7.042 L -4.881,-7.056 L -4.806,-7.07 L -4.731,-7.084 L -4.655,-7.097 L -4.58,-7.111 L -4.451,-7.116 L -4.267,-7.113 L -4.029,-7.102 L -3.737,-7.082 L -3.39,-7.053 L -2.989,-7.016 L -2.534,-6.971 L -2.024,-6.917 L -1.514,-6.863 L -1.005,-6.81 L -0.495,-6.756 L 0.015,-6.702 L 0.524,-6.648 L 1.034,-6.594 L 1.544,-6.541 L 2.053,-6.487 L 2.506,-6.426 L 2.903,-6.357 L 3.243,-6.282 L 3.527,-6.198 L 3.754,-6.108 L 3.925,-6.01 L 4.039,-5.905 L 4.096,-5.793 L 4.154,-5.68 L 4.212,-5.568 L 4.269,-5.455 L 4.327,-5.343 L 4.385,-5.231 L 4.442,-5.118 L 4.5,-5.006 L 4.557,-4.893 L 4.632,-4.785 L 4.722,-4.681 L 4.829,-4.581 L 4.952,-4.484 L 5.092,-4.392 L 5.248,-4.305 L 5.421,-4.221 L 5.61,-4.141 L 5.799,-4.061 L 5.988,-3.982 L 6.178,-3.902 L 6.367,-3.822 L 6.556,-3.743 L 6.745,-3.663 L 6.934,-3.583 L 7.123,-3.504 L 7.291,-3.435 L 7.438,-3.376 L 7.564,-3.329 L 7.669,-3.292 L 7.753,-3.267 L 7.817,-3.252 L 7.859,-3.247 L 7.88,-3.254 L 7.901,-3.26 L 7.922,-3.267 L 7.943,-3.273 L 7.964,-3.28 L 7.985,-3.286 L 8.006,-3.293 L 8.027,-3.299 L 8.048,-3.306 L 8.081,-3.25 L 8.127,-3.132 L 8.184,-2.952 L 8.254,-2.709 L 8.335,-2.404 L 8.429,-2.037 L 8.535,-1.607 L 8.653,-1.115 L 8.772,-0.624 L 8.89,-0.132 L 9.008,0.36 L 9.126,0.852 L 9.244,1.344 L 9.362,1.835 L 9.48,2.327 L 9.598,2.819 L 9.526,3.224 L 9.263,3.541 L 8.81,3.772 L 8.167,3.916 L 7.333,3.972 L 6.308,3.942 L 5.093,3.824 L 3.688,3.619 L 2.283,3.415 L 0.878,3.21 L -0.528,3.005 L -1.933,2.801 L -3.338,2.596 L -4.744,2.391 L -6.149,2.187 L -7.554,1.982 L -8.733,1.736 L -9.686,1.45 L -10.413,1.124 L -10.914,0.756 L -11.188,0.348 L -11.237,-0.101 L -11.059,-0.59 L -10.655,-1.121 L -10.252,-1.651 L -9.848,-2.181 L -9.444,-2.712 L -9.04,-3.242 L -8.636,-3.772 L -8.232,-4.302 L -7.829,-4.833 L -7.425,-5.363 L -7.068,-5.825 L -6.757,-6.218 L -6.493,-6.543 L -6.276,-6.799 L -6.105,-6.987 L -5.981,-7.107 L -5.904,-7.158 L -5.873,-7.14 L -5.842,-7.123 L -5.812,-7.105 L -5.781,-7.088 L -5.75,-7.07 L -5.72,-7.053" fill="#A5A2A2"/></g><g><path d=" M 0,0"/><path d=" M 17.89,10.038 L 17.798,10.044 L 17.706,10.05 L 17.614,10.056 L 17.531,10.064 L 17.457,10.073 L 17.392,10.084 L 17.336,10.097 L 17.289,10.111 L 17.251,10.126 L 17.223,10.144 L 17.203,10.162 L 17.183,10.181 L 17.164,10.2 L 17.144,10.219 L 17.125,10.237 L 17.105,10.256 L 17.086,10.275 L 17.066,10.294 L 17.046,10.313 L 16.991,10.286 L 16.901,10.214 L 16.776,10.096 L 16.615,9.932 L 16.419,9.724 L 16.187,9.469 L 15.92,9.169 L 15.618,8.824 L 15.316,8.478 L 15.014,8.133 L 14.712,7.787 L 14.41,7.442 L 14.107,7.096 L 13.805,6.751 L 13.503,6.405 L 13.201,6.06 L 12.92,5.689 L 12.66,5.292 L 12.422,4.87 L 12.205,4.422 L 12.009,3.948 L 11.834,3.449 L 11.681,2.924 L 11.548,2.373 L 11.416,1.823 L 11.284,1.272 L 11.152,0.722 L 11.019,0.171 L 10.887,-0.38 L 10.755,-0.93 L 10.623,-1.481 L 10.49,-2.031 L 10.388,-2.521 L 10.316,-2.951 L 10.275,-3.32 L 10.263,-3.628 L 10.281,-3.876 L 10.33,-4.063 L 10.409,-4.19 L 10.517,-4.256 L 10.626,-4.322 L 10.735,-4.388 L 10.844,-4.454 L 10.953,-4.521 L 11.062,-4.587 L 11.171,-4.653 L 11.279,-4.719 L 11.388,-4.785 L 11.487,-4.853 L 11.575,-4.922 L 11.653,-4.992 L 11.72,-5.063 L 11.777,-5.136 L 11.824,-5.211 L 11.861,-5.286 L 11.887,-5.363 L 11.913,-5.44 L 11.939,-5.517 L 11.965,-5.594 L 11.991,-5.671 L 12.017,-5.748 L 12.043,-5.825 L 12.069,-5.902 L 12.095,-5.979 L 12.172,-6.051 L 12.3,-6.119 L 12.48,-6.183 L 12.71,-6.241 L 12.991,-6.296 L 13.323,-6.345 L 13.706,-6.391 L 14.141,-6.431 L 14.575,-6.472 L 15.009,-6.512 L 15.444,-6.553 L 15.878,-6.594 L 16.312,-6.634 L 16.746,-6.675 L 17.181,-6.715 L 17.615,-6.756 L 17.996,-6.791 L 18.324,-6.82 L 18.599,-6.843 L 18.821,-6.861 L 18.989,-6.873 L 19.105,-6.879 L 19.167,-6.88 L 19.176,-6.875 L 19.185,-6.87 L 19.194,-6.865 L 19.204,-6.859 L 19.213,-6.854 L 19.222,-6.849 L 19.231,-6.844 L 19.24,-6.839 L 19.249,-6.834 L 19.253,-6.698 L 19.252,-6.432 L 19.246,-6.035 L 19.234,-5.507 L 19.217,-4.849 L 19.195,-4.061 L 19.168,-3.142 L 19.136,-2.092 L 19.104,-1.042 L 19.072,0.008 L 19.039,1.057 L 19.007,2.107 L 18.975,3.157 L 18.943,4.207 L 18.91,5.256 L 18.878,6.306 L 18.838,7.225 L 18.791,8.014 L 18.737,8.673 L 18.674,9.2 L 18.605,9.598 L 18.528,9.865 L 18.443,10.001 L 18.351,10.008 L 18.259,10.014 L 18.166,10.02 L 18.074,10.026 L 17.982,10.032 L 17.89,10.038" fill="#A5A2A2"/></g><g><path d=" M 0,0"/><path d=" M -3.033,3.253 L -3.033,3.853 L -3.985,10.389 L -8.229,11.403 L -8.545,3.05 L -8.545,2.45 L -8.229,10.803 L -3.985,9.789 L -3.033,3.253" fill="#130F26" stroke="#130F26" stroke-width="0.103"/><path d=" M -8.229,10.803 L -8.229,11.403 L -10.089,11.847 L -12.258,2.768 L -12.258,2.168 L -10.089,11.247 L -8.229,10.803" fill="#130F26" stroke="#130F26" stroke-width="0.103"/><path d=" M -4.046,12.051 L -4.046,12.651 L -8.898,14.392 L -9.71,12.127 L -9.794,11.777 L -9.794,11.177 L -9.71,11.527 L -8.898,13.792 L -4.046,12.051" fill="#130F26" stroke="#130F26" stroke-width="0.103"/><path d=" M -3.033,15.45 L -3.033,16.05 L -8.349,17.957 L -9.545,14.624 L -9.545,14.024 L -8.349,17.357 L -3.033,15.45" fill="#130F26" stroke="#130F26" stroke-width="0.103"/><path d=" M 2.96,4.126 L 2.96,4.726 L 2.414,8.473 L -3.579,7.6 L -3.579,7 L 2.414,7.873 L 2.96,4.126" fill="#130F26" stroke="#130F26" stroke-width="0.103"/><path d=" M 11.47,6.519 L 11.47,7.119 L 8.483,9.732 L 6.377,7.324 L 2.66,6.783 L 2.66,6.183 L 6.377,6.724 L 8.483,9.132 L 11.47,6.519" fill="#130F26" stroke="#130F26" stroke-width="0.103"/><path d=" M 10.695,21.566 L 10.695,22.166 L 8.594,23.214 L 8.002,24.576 L 7.145,24.859 L 5.747,21.468 L 5.747,20.868 L 7.145,24.259 L 8.002,23.976 L 8.594,22.614 L 10.695,21.566" fill="#130F26" stroke="#130F26" stroke-width="0.103"/><path d=" M 2.383,25.195 L 2.383,25.795 L 1.785,24.128 L 1.785,23.528 L 2.383,25.195" fill="#130F26" stroke="#130F26" stroke-width="0.103"/><path d=" M 6.915,23.701 L 6.915,24.301 L 2.383,25.795 L 2.383,25.195 L 6.915,23.701" fill="#130F26" stroke="#130F26" stroke-width="0.103"/><path d=" M 14.759,10.279 L 14.759,10.879 L 12.026,12.968 L 8.887,9.378 L 8.887,8.778 L 12.026,12.368 L 14.759,10.279" fill="#130F26" stroke="#130F26" stroke-width="0.103"/><path d=" M 11.183,21.562 L 11.183,22.162 L 10.858,22.084 L 10.695,22.166 L 7.994,18.082 L 7.994,17.482 L 10.695,21.566 L 10.858,21.484 L 11.183,21.562" fill="#130F26" stroke="#130F26" stroke-width="0.103"/><path d=" M 13.842,17.785 L 13.842,18.385 L 11.183,22.162 L 11.183,21.562 L 13.842,17.785" fill="#130F26" stroke="#130F26" stroke-width="0.103"/><path d=" M 2.586,25.762 L 2.586,26.362 L -1.456,27.695 L -2.108,27.137 L -4.403,27.115 L -5.569,24.668 L -5.569,24.068 L -4.403,26.515 L -2.108,26.537 L -1.456,27.095 L 2.586,25.762" fill="#130F26" stroke="#130F26" stroke-width="0.103"/><path d=" M -2.452,22.77 L -2.452,23.37 L -4.782,24.34 L -6.428,20.886 L -7.579,17.681 L -7.579,17.081 L -6.428,20.286 L -4.782,23.74 L -2.452,22.77" fill="#130F26" stroke="#130F26" stroke-width="0.103"/><path d=" M -8.545,2.45 L -3.033,3.253 L -3.985,9.789 L -8.229,10.803 L -8.545,2.45" fill="#929093" stroke="#130F26" stroke-width="0.103"/><path d=" M -12.258,2.168 L -8.536,2.71 L -8.229,10.803 L -10.089,11.247 L -12.258,2.168" fill="#8A888B" stroke="#130F26" stroke-width="0.103"/><path d=" M -9.71,11.527 L -9.794,11.177 L -4.671,9.953 L -4.046,12.051 L -8.898,13.792 L -9.71,11.527" fill="#A9A6AA" stroke="#130F26" stroke-width="0.103"/><path d=" M -4.046,12.051 L -3.033,15.45 L -8.349,17.357 L -9.545,14.024 L -4.046,12.051" fill="#979498" stroke="#130F26" stroke-width="0.103"/><path d=" M -3.579,7 L -3.033,3.253 L 2.96,4.126 L 2.414,7.873 L -3.579,7" fill="#9B989C" stroke="#130F26" stroke-width="0.103"/><path d=" M 2.66,6.183 L 2.96,4.126 L 10.314,5.197 L 11.47,6.519 L 8.483,9.132 L 6.377,6.724 L 2.66,6.183" fill="#9E9A9F" stroke="#130F26" stroke-width="0.103"/><path d=" M 9.07,19.109 L 10.695,21.566 L 8.594,22.614 L 8.002,23.976 L 7.145,24.259 L 5.747,20.868 L 9.07,19.109" fill="#A9A6AA" stroke="#130F26" stroke-width="0.103"/><path d=" M 6.915,23.701 L 2.383,25.195 L 1.785,23.528 L 6.109,21.746 L 6.915,23.701" fill="#A6A2A7" stroke="#130F26" stroke-width="0.103"/><path d=" M 8.887,8.778 L 11.47,6.519 L 14.759,10.279 L 12.026,12.368 L 8.887,8.778" fill="#8C8A8D" stroke="#130F26" stroke-width="0.103"/><path d=" M 13.842,17.785 L 11.183,21.562 L 10.858,21.484 L 10.695,21.566 L 7.994,17.482 L 10.788,15.634 L 13.842,17.785" fill="#A09DA1" stroke="#130F26" stroke-width="0.103"/><path d=" M 0.998,21.334 L 2.586,25.762 L -1.456,27.095 L -2.108,26.537 L -4.403,26.515 L -5.569,24.068 L 0.998,21.334" fill="#A3A0A4" stroke="#130F26" stroke-width="0.103"/><path d=" M -6.428,20.286 L -7.579,17.081 L -4.845,16.1 L -2.452,22.77 L -4.782,23.74 L -6.428,20.286" fill="#939094" stroke="#130F26" stroke-width="0.103"/></g><g><path d=" M 0,0"/></g><g><path d=" M 0,0"/><path d=" M -0.04,-12.791 L -3.76,-19.44 L 8.155,-26.106 L 11.875,-19.458 L 8.823,-17.75 L 6.589,-21.743 L 3.672,-20.111 L 5.906,-16.118 L -0.04,-12.791" fill="#130F26"/></g><g><path d=" M 0,0"/><path d=" M -4.487,-26.566 L -4.487,-25.966 L -7.26,-32.09 L -7.26,-32.69 L -4.487,-26.566" fill="#130F26" stroke="#130F26" stroke-width="0.103"/><path d=" M -2.227,-27.83 L -2.227,-27.23 L -4.487,-25.966 L -4.487,-26.566 L -2.227,-27.83" fill="#130F26" stroke="#130F26" stroke-width="0.103"/><path d=" M 1.061,-30.897 L 1.061,-30.297 L -2.75,-28.165 L -5.414,-32.926 L -5.414,-33.526 L -2.75,-28.765 L 1.061,-30.897" fill="#130F26" stroke="#130F26" stroke-width="0.103"/><path d=" M -4.587,-26.786 L -4.587,-26.186 L -6.431,-25.154 L -6.934,-25.495 L -8.846,-25.296 L -11.074,-29.785 L -11.291,-30.265 L -11.291,-30.865 L -11.074,-30.385 L -8.846,-25.896 L -6.934,-26.095 L -6.431,-25.754 L -4.587,-26.786" fill="#130F26" stroke="#130F26" stroke-width="0.103"/><path d=" M 5.663,-37.95 L 5.663,-37.35 L 0.955,-34.407 L -1.137,-39.489 L -1.137,-40.089 L 0.955,-35.007 L 5.663,-37.95" fill="#130F26" stroke="#130F26" stroke-width="0.103"/><path d=" M 9.501,-35.938 L 9.501,-35.338 L 8.148,-34.377 L 7.738,-32.806 L 2.761,-30.021 L 0.955,-34.407 L 0.955,-35.007 L 2.761,-30.621 L 7.738,-33.406 L 8.148,-34.977 L 9.501,-35.938" fill="#130F26" stroke="#130F26" stroke-width="0.103"/><path d=" M 0.075,-37.146 L 0.075,-36.546 L -5.468,-34.154 L -7.383,-38.59 L -7.383,-39.19 L -5.468,-34.754 L 0.075,-37.146" fill="#130F26" stroke="#130F26" stroke-width="0.103"/><path d=" M -7.274,-32.683 L -7.274,-32.083 L -11.008,-30.393 L -12.664,-34.05 L -12.664,-34.65 L -11.008,-30.993 L -7.274,-32.683" fill="#130F26" stroke="#130F26" stroke-width="0.103"/><path d=" M -11.166,-36.677 L -11.166,-36.077 L -11.181,-36.309 L -11.181,-36.909 L -11.166,-36.677" fill="#130F26" stroke="#130F26" stroke-width="0.103"/><path d=" M -5.016,-33.706 L -5.016,-33.106 L -7.274,-32.083 L -9.593,-37.205 L -9.593,-37.805 L -7.274,-32.683 L -5.016,-33.706" fill="#130F26" stroke="#130F26" stroke-width="0.103"/><path d=" M -2.227,-27.83 L -4.487,-26.566 L -7.26,-32.69 L -5.414,-33.526 L -2.227,-27.83" fill="#A8A5A9" stroke="#130F26" stroke-width="0.103"/><path d=" M -1.421,-35.333 L 1.061,-30.897 L -2.75,-28.765 L -5.414,-33.526 L -1.421,-35.333" fill="#9D9A9E" stroke="#130F26" stroke-width="0.103"/><path d=" M -11.074,-30.385 L -11.291,-30.865 L -7.26,-32.69 L -4.587,-26.786 L -6.431,-25.754 L -6.934,-26.095 L -8.846,-25.896 L -11.074,-30.385" fill="#9D9A9E" stroke="#130F26" stroke-width="0.103"/><path d=" M 5.049,-38.625 L 5.663,-37.95 L 0.955,-35.007 L -1.137,-40.089 L -0.632,-40.231 L -0.361,-40.629 L 5.007,-39.693 L 5.049,-38.625" fill="#A29FA3" stroke="#130F26" stroke-width="0.103"/><path d=" M 6.295,-38.346 L 8.341,-36.096 L 9.501,-35.938 L 8.148,-34.977 L 7.738,-33.406 L 2.761,-30.621 L 0.955,-35.007 L 6.295,-38.346" fill="#ACA9AD" stroke="#130F26" stroke-width="0.103"/><path d=" M -5.468,-34.754 L -7.383,-39.19 L -3.928,-40.681 L -2.537,-40.053 L -1.269,-40.41 L 0.075,-37.146 L -5.468,-34.754" fill="#969397" stroke="#130F26" stroke-width="0.103"/><path d=" M -11.181,-36.909 L -9.513,-37.628 L -7.274,-32.683 L -11.008,-30.993 L -12.664,-34.65 L -11.166,-36.677 L -11.181,-36.909" fill="#99969A" stroke="#130F26" stroke-width="0.103"/><path d=" M -9.593,-37.805 L -7.226,-38.826 L -5.016,-33.706 L -7.274,-32.683 L -9.593,-37.805" fill="#9B989C" stroke="#130F26" stroke-width="0.103"/></g><g><path d=" M 0,0"/></g><g><path d=" M 0,0"/></g><g><path d=" M 0,0"/><path d=" M -16.307,18.208 L -16.307,18.808 L -19.653,19.833 L -22.263,23.26 L -25.009,21.168 L -25.009,20.568 L -22.263,22.66 L -19.653,19.233 L -16.307,18.208" fill="#130F26" stroke="#130F26" stroke-width="0.103"/><path d=" M -20.563,16.315 L -20.563,16.915 L -22.137,17.397 L -22.243,17.536 L -24.895,15.517 L -25.863,12.356 L -25.863,11.756 L -24.895,14.917 L -22.243,16.936 L -22.137,16.797 L -20.563,16.315" fill="#130F26" stroke="#130F26" stroke-width="0.103"/><path d=" M -17.202,15.285 L -17.202,15.885 L -20.563,16.915 L -22.527,10.5 L -22.527,9.9 L -20.563,16.315 L -17.202,15.285" fill="#130F26" stroke="#130F26" stroke-width="0.103"/><path d=" M -22.243,16.936 L -22.243,17.536 L -24.764,20.846 L -26.262,19.705 L -26.262,19.105 L -24.764,20.246 L -22.243,16.936" fill="#130F26" stroke="#130F26" stroke-width="0.103"/><path d=" M -26.154,18.635 L -26.154,19.235 L -27.308,16.982 L -28.785,16.358 L -30,13.136 L -30,12.536 L -28.785,15.758 L -27.308,16.382 L -26.154,18.635" fill="#130F26" stroke="#130F26" stroke-width="0.103"/><path d=" M -15.788,26.133 L -15.788,26.733 L -15.836,26.509 L -17.828,24.948 L -19.952,25.02 L -22.263,23.26 L -22.263,22.66 L -19.952,24.42 L -17.828,24.348 L -15.836,25.909 L -15.788,26.133" fill="#130F26" stroke="#130F26" stroke-width="0.103"/><path d=" M -15.741,26.139 L -15.741,26.739 L -15.788,26.733 L -15.788,26.133 L -15.741,26.139" fill="#130F26" stroke="#130F26" stroke-width="0.103"/><path d=" M -10.154,26.526 L -10.154,27.126 L -15.791,26.353 L -16.112,23.894 L -16.112,23.294 L -15.791,25.753 L -10.154,26.526" fill="#130F26" stroke="#130F26" stroke-width="0.103"/><path d=" M -9.652,22.862 L -9.652,23.462 L -10.154,27.126 L -10.154,26.526 L -9.652,22.862" fill="#130F26" stroke="#130F26" stroke-width="0.103"/><path d=" M -9.652,22.862 L -9.652,23.462 L -11.173,19.223 L -11.173,18.623 L -9.652,22.862" fill="#130F26" stroke="#130F26" stroke-width="0.103"/><path d=" M -5.984,26.788 L -5.984,27.388 L -6.542,27.711 L -10.166,27.214 L -10.166,26.614 L -6.542,27.111 L -5.984,26.788" fill="#130F26" stroke="#130F26" stroke-width="0.103"/><path d=" M -12.069,12.089 L -12.069,12.689 L -17.657,14.401 L -18.986,10.063 L -18.986,9.463 L -17.657,13.801 L -12.069,12.089" fill="#130F26" stroke="#130F26" stroke-width="0.103"/><path d=" M -10.197,18.273 L -10.197,18.873 L -15.684,20.841 L -16.75,17.362 L -16.75,16.762 L -15.684,20.241 L -10.197,18.273" fill="#130F26" stroke="#130F26" stroke-width="0.103"/><path d=" M -11.118,14.741 L -11.118,15.341 L -16.75,17.362 L -17.657,14.401 L -17.657,13.801 L -16.75,16.762 L -11.118,14.741" fill="#130F26" stroke="#130F26" stroke-width="0.103"/><path d=" M -17.202,15.285 L -16.307,18.208 L -19.653,19.233 L -22.263,22.66 L -25.009,20.568 L -22.137,16.797 L -17.202,15.285" fill="#918F92" stroke="#130F26" stroke-width="0.103"/><path d=" M -24.895,14.917 L -25.863,11.756 L -22.294,10.663 L -20.563,16.315 L -22.137,16.797 L -22.243,16.936 L -24.895,14.917" fill="#9E9B9F" stroke="#130F26" stroke-width="0.103"/><path d=" M -22.527,9.9 L -19.167,8.871 L -17.202,15.285 L -20.563,16.315 L -22.527,9.9" fill="#9D9A9E" stroke="#130F26" stroke-width="0.103"/><path d=" M -30,12.536 L -25.999,11.311 L -24.895,14.917 L -22.243,16.936 L -24.764,20.246 L -26.262,19.105 L -26.154,18.635 L -27.308,16.382 L -28.785,15.758 L -30,12.536" fill="#8E8C8F" stroke="#130F26" stroke-width="0.103"/><path d=" M -15.741,26.139 L -15.788,26.133 L -15.836,25.909 L -17.828,24.348 L -19.952,24.42 L -22.263,22.66 L -19.653,19.233 L -16.757,18.346 L -15.741,26.139" fill="#9D9A9E" stroke="#130F26" stroke-width="0.103"/><path d=" M -9.652,22.862 L -10.154,26.526 L -15.791,25.753 L -16.112,23.294 L -10.022,21.83 L -9.652,22.862" fill="#A6A3A8" stroke="#130F26" stroke-width="0.103"/><path d=" M -6.542,27.111 L -10.166,26.614 L -9.652,22.862 L -11.173,18.623 L -9.775,18.121 L -8.74,21.006 L -5.984,26.788 L -6.542,27.111" fill="#A6A3A7" stroke="#130F26" stroke-width="0.103"/><path d=" M -13.125,7.668 L -12.069,12.089 L -17.657,13.801 L -18.986,9.463 L -13.125,7.668" fill="#A4A1A5" stroke="#130F26" stroke-width="0.103"/><path d=" M -11.425,14.851 L -10.197,18.273 L -15.684,20.241 L -16.75,16.762 L -11.425,14.851" fill="#959296" stroke="#130F26" stroke-width="0.103"/><path d=" M -17.657,13.801 L -12.069,12.089 L -11.118,14.741 L -16.75,16.762 L -17.657,13.801" fill="#9B989C" stroke="#130F26" stroke-width="0.103"/><path d=" M -8.494,-6.899 L -8.494,-6.299 L -13.249,-9.92 L -14.511,-14.616 L -14.511,-15.216 L -13.249,-10.52 L -8.494,-6.899" fill="#130F26" stroke="#130F26" stroke-width="0.103"/><path d=" M -8.454,-11.71 L -8.454,-11.11 L -9.14,-10.297 L -9.147,-7.766 L -9.147,-8.366 L -9.14,-10.897 L -8.454,-11.71" fill="#130F26" stroke="#130F26" stroke-width="0.103"/><path d=" M -8.221,-7.257 L -8.221,-6.657 L -8.494,-6.299 L -8.494,-6.899 L -8.221,-7.257" fill="#130F26" stroke="#130F26" stroke-width="0.103"/><path d=" M -8.321,-6.767 L -8.321,-6.167 L -10.203,-3.695 L -13.613,-6.292 L -13.613,-6.892 L -10.203,-4.295 L -8.321,-6.767" fill="#130F26" stroke="#130F26" stroke-width="0.103"/><path d=" M -11.73,-9.364 L -11.73,-8.764 L -13.613,-6.292 L -14.706,-7.124 L -20.619,-5.535 L -22.396,-12.152 L -22.396,-12.752 L -20.619,-6.135 L -14.706,-7.724 L -13.613,-6.892 L -11.73,-9.364" fill="#130F26" stroke="#130F26" stroke-width="0.103"/><path d=" M -13.076,5.75 L -13.076,6.35 L -17.094,7.581 L -18.668,1.723 L -18.668,1.123 L -17.094,6.981 L -13.076,5.75" fill="#130F26" stroke="#130F26" stroke-width="0.103"/><path d=" M -14.215,0.973 L -14.215,1.573 L -14.217,1.575 L -14.217,0.975 L -14.215,0.973" fill="#130F26" stroke="#130F26" stroke-width="0.103"/><path d=" M -10.203,-4.295 L -10.203,-3.695 L -14.215,1.573 L -18.668,1.723 L -18.93,0.747 L -18.93,0.147 L -18.668,1.123 L -14.215,0.973 L -10.203,-4.295" fill="#130F26" stroke="#130F26" stroke-width="0.103"/><path d=" M -17.382,5.911 L -17.382,6.511 L -21.135,7.66 L -22.272,3.429 L -22.272,2.829 L -21.135,7.06 L -17.382,5.911" fill="#130F26" stroke="#130F26" stroke-width="0.103"/><path d=" M -23.975,8.2 L -23.975,8.8 L -25.206,4.217 L -25.206,3.617 L -23.975,8.2" fill="#130F26" stroke="#130F26" stroke-width="0.103"/><path d=" M -21.068,7.31 L -21.068,7.91 L -23.975,8.8 L -23.975,8.2 L -21.068,7.31" fill="#130F26" stroke="#130F26" stroke-width="0.103"/><path d=" M -23.883,8.541 L -23.883,9.141 L -28.264,10.483 L -29.779,4.844 L -29.779,4.244 L -28.264,9.883 L -23.883,8.541" fill="#130F26" stroke="#130F26" stroke-width="0.103"/><path d=" M -31.226,11.31 L -31.226,11.91 L -32.967,7.29 L -32.967,6.69 L -31.226,11.31" fill="#130F26" stroke="#130F26" stroke-width="0.103"/><path d=" M -32.266,5.119 L -32.266,5.719 L -32.321,5.527 L -32.321,4.927 L -32.266,5.119" fill="#130F26" stroke="#130F26" stroke-width="0.103"/><path d=" M -28.135,10.363 L -28.135,10.963 L -31.226,11.91 L -31.226,11.31 L -28.135,10.363" fill="#130F26" stroke="#130F26" stroke-width="0.103"/><path d=" M -25.357,3.055 L -25.357,3.655 L -31.697,5.359 L -32.386,2.944 L -33.001,2.528 L -33.001,1.928 L -32.386,2.344 L -31.697,4.759 L -25.357,3.055" fill="#130F26" stroke="#130F26" stroke-width="0.103"/><path d=" M -20.847,-6.985 L -20.847,-6.385 L -26.519,-4.861 L -28.004,-10.388 L -28.004,-10.988 L -26.519,-5.461 L -20.847,-6.985" fill="#130F26" stroke="#130F26" stroke-width="0.103"/><path d=" M -28.977,-0.008 L -28.977,0.592 L -32.193,0.314 L -32.193,-0.286 L -28.977,-0.008" fill="#130F26" stroke="#130F26" stroke-width="0.103"/><path d=" M -26.927,-6.981 L -26.927,-6.381 L -32.133,-5.892 L -32.133,-6.492 L -26.927,-6.981" fill="#130F26" stroke="#130F26" stroke-width="0.103"/><path d=" M -8.221,-7.257 L -8.494,-6.899 L -13.249,-10.52 L -14.511,-15.216 L -9.74,-16.498 L -8.454,-11.71 L -9.14,-10.897 L -9.147,-8.366 L -8.221,-7.257" fill="#8C898D" stroke="#130F26" stroke-width="0.103"/><path d=" M -11.73,-9.364 L -8.321,-6.767 L -10.203,-4.295 L -13.613,-6.892 L -11.73,-9.364" fill="#908E91" stroke="#130F26" stroke-width="0.103"/><path d=" M -20.619,-6.135 L -22.396,-12.752 L -14.424,-14.894 L -13.249,-10.52 L -11.73,-9.364 L -13.613,-6.892 L -14.706,-7.724 L -20.619,-6.135" fill="#9C999D" stroke="#130F26" stroke-width="0.103"/><path d=" M -14.215,0.973 L -14.217,0.975 L -13.076,5.75 L -17.094,6.981 L -18.668,1.123 L -14.215,0.973" fill="#A5A2A6" stroke="#130F26" stroke-width="0.103"/><path d=" M -18.668,1.123 L -18.93,0.147 L -15.571,-0.756 L -11.895,-5.583 L -10.203,-4.295 L -14.215,0.973 L -18.668,1.123" fill="#949195" stroke="#130F26" stroke-width="0.103"/><path d=" M -18.483,1.811 L -17.382,5.911 L -21.135,7.06 L -22.272,2.829 L -18.483,1.811" fill="#939094" stroke="#130F26" stroke-width="0.103"/><path d=" M -21.068,7.31 L -23.975,8.2 L -25.206,3.617 L -22.272,2.829 L -21.068,7.31" fill="#A29FA3" stroke="#130F26" stroke-width="0.103"/><path d=" M -25.357,3.055 L -23.883,8.541 L -28.264,9.883 L -29.779,4.244 L -25.357,3.055" fill="#B3B0B5" stroke="#130F26" stroke-width="0.103"/><path d=" M -28.135,10.363 L -31.226,11.31 L -32.967,6.69 L -32.266,5.119 L -32.321,4.927 L -29.779,4.244 L -28.135,10.363" fill="#A5A2A6" stroke="#130F26" stroke-width="0.103"/><path d=" M -33.001,1.928 L -32.806,-0.338 L -26.448,0.21 L -26.144,0.128 L -25.357,3.055 L -31.697,4.759 L -32.386,2.344 L -33.001,1.928" fill="#99969A" stroke="#130F26" stroke-width="0.103"/><path d=" M -28.004,-10.988 L -22.332,-12.512 L -20.847,-6.985 L -26.519,-5.461 L -28.004,-10.988" fill="#B2AFB3" stroke="#130F26" stroke-width="0.103"/><path d=" M -32.193,-0.286 L -31.654,-6.537 L -28.998,-6.786 L -28.977,-0.008 L -32.193,-0.286" fill="#ADA9AE" stroke="#130F26" stroke-width="0.103"/><path d=" M -30.427,-10.576 L -28.064,-11.211 L -26.927,-6.981 L -32.133,-6.492 L -31.958,-8.522 L -31.325,-8.795 L -30.427,-10.576" fill="#A8A5A9" stroke="#130F26" stroke-width="0.103"/><path d=" M -31.02,-12.253 L -31.02,-11.653 L -31.326,-12.948 L -31.326,-13.548 L -31.02,-12.253" fill="#130F26" stroke="#130F26" stroke-width="0.103"/><path d=" M -26.681,-13.419 L -26.681,-12.819 L -31.02,-11.653 L -31.02,-12.253 L -26.681,-13.419" fill="#130F26" stroke="#130F26" stroke-width="0.103"/><path d=" M -18.9,-15.51 L -18.9,-14.91 L -26.681,-12.819 L -27.52,-15.94 L -29.425,-16.865 L -29.425,-17.465 L -27.52,-16.54 L -26.681,-13.419 L -18.9,-15.51" fill="#130F26" stroke="#130F26" stroke-width="0.103"/><path d=" M -20.484,-21.406 L -20.484,-20.806 L -24.525,-19.72 L -27.369,-21.1 L -27.369,-21.7 L -24.525,-20.32 L -20.484,-21.406" fill="#130F26" stroke="#130F26" stroke-width="0.103"/><path d=" M -13.562,-16.944 L -13.562,-16.344 L -18.9,-14.91 L -19.77,-18.146 L -19.77,-18.746 L -18.9,-15.51 L -13.562,-16.944" fill="#130F26" stroke="#130F26" stroke-width="0.103"/><path d=" M -11.344,-24.875 L -11.344,-24.275 L -12.653,-22.895 L -12.805,-20.368 L -12.805,-20.968 L -12.653,-23.495 L -11.344,-24.875" fill="#130F26" stroke="#130F26" stroke-width="0.103"/><path d=" M -10.431,-18.1 L -10.431,-17.5 L -13.683,-16.626 L -16.694,-23.608 L -16.694,-24.208 L -13.683,-17.226 L -10.431,-18.1" fill="#130F26" stroke="#130F26" stroke-width="0.103"/><path d=" M -16.354,-24.406 L -16.354,-23.806 L -20.622,-21.317 L -20.725,-21.701 L -23.682,-24.251 L -23.682,-24.851 L -20.725,-22.301 L -20.622,-21.917 L -16.354,-24.406" fill="#130F26" stroke="#130F26" stroke-width="0.103"/><path d=" M -11.754,-25.801 L -11.754,-25.201 L -15.78,-23.203 L -18.791,-26.368 L -18.791,-26.968 L -15.78,-23.803 L -11.754,-25.801" fill="#130F26" stroke="#130F26" stroke-width="0.103"/><path d=" M -13.548,-30.463 L -13.548,-29.863 L -18.791,-26.368 L -21.17,-28.868 L -21.17,-29.468 L -18.791,-26.968 L -13.548,-30.463" fill="#130F26" stroke="#130F26" stroke-width="0.103"/><path d=" M -26.681,-13.419 L -31.02,-12.253 L -31.326,-13.548 L -29.425,-17.465 L -27.52,-16.54 L -26.681,-13.419" fill="#8D8A8E" stroke="#130F26" stroke-width="0.103"/><path d=" M -20.484,-21.406 L -18.9,-15.51 L -26.681,-13.419 L -27.52,-16.54 L -29.425,-17.465 L -27.369,-21.7 L -24.525,-20.32 L -20.484,-21.406" fill="#9E9B9F" stroke="#130F26" stroke-width="0.103"/><path d=" M -27.369,-21.7 L -26.368,-23.764 L -25.3,-23.937 L -24.158,-25.261 L -20.725,-22.301 L -20.484,-21.406 L -24.525,-20.32 L -27.369,-21.7" fill="#949195" stroke="#130F26" stroke-width="0.103"/><path d=" M -15.046,-20.387 L -13.562,-16.944 L -18.9,-15.51 L -19.77,-18.746 L -15.046,-20.387" fill="#928F93" stroke="#130F26" stroke-width="0.103"/><path d=" M -15.78,-23.803 L -11.794,-25.781 L -11.344,-24.875 L -12.653,-23.495 L -12.805,-20.968 L -11.298,-18.935 L -10.611,-18.771 L -10.431,-18.1 L -13.683,-17.226 L -16.694,-24.208 L -16.354,-24.406 L -15.78,-23.803" fill="#8C898D" stroke="#130F26" stroke-width="0.103"/><path d=" M -20.725,-22.301 L -23.682,-24.851 L -23.293,-25.302 L -23.271,-26.959 L -20.916,-29.2 L -16.354,-24.406 L -20.622,-21.917 L -20.725,-22.301" fill="#AAA7AC" stroke="#130F26" stroke-width="0.103"/><path d=" M -13.225,-28.765 L -11.754,-25.801 L -15.78,-23.803 L -18.791,-26.968 L -13.89,-30.235 L -13.225,-28.765" fill="#9F9CA0" stroke="#130F26" stroke-width="0.103"/><path d=" M -15.122,-33.938 L -13.548,-30.463 L -18.791,-26.968 L -21.17,-29.468 L -16.615,-33.803 L -15.122,-33.938" fill="#989599" stroke="#130F26" stroke-width="0.103"/></g><g><path d=" M 0,0"/></g><g><path d=" M 0,0"/></g><g><path d=" M 0,0"/></g><g><path d=" M 0,0"/><path d=" M 31.014,19.382 L 31.014,19.982 L 26.881,17.646 L 26.881,17.046 L 31.014,19.382" fill="#130F26" stroke="#130F26" stroke-width="0.103"/><path d=" M 33.363,15.226 L 33.363,15.826 L 31.014,19.982 L 31.014,19.382 L 33.363,15.226" fill="#130F26" stroke="#130F26" stroke-width="0.103"/><path d=" M 26.881,17.046 L 26.881,17.646 L 24.645,16.383 L 24.645,15.783 L 26.881,17.046" fill="#130F26" stroke="#130F26" stroke-width="0.103"/><path d=" M 25.127,14.967 L 25.127,15.567 L 24.826,13.765 L 24.826,13.165 L 25.127,14.967" fill="#130F26" stroke="#130F26" stroke-width="0.103"/><path d=" M 28.6,14.004 L 28.6,14.604 L 26.881,17.646 L 26.881,17.046 L 28.6,14.004" fill="#130F26" stroke="#130F26" stroke-width="0.103"/><path d=" M 28.269,9.96 L 28.269,10.56 L 26.852,14.215 L 25.93,14.01 L 25.466,11.225 L 25.143,10.949 L 25.143,10.349 L 25.466,10.625 L 25.93,13.41 L 26.852,13.615 L 28.269,9.96" fill="#130F26" stroke="#130F26" stroke-width="0.103"/><path d=" M 37.61,21.979 L 37.61,22.579 L 35.328,21.29 L 35.328,20.69 L 37.61,21.979" fill="#130F26" stroke="#130F26" stroke-width="0.103"/><path d=" M 40.497,16.87 L 40.497,17.47 L 37.61,22.579 L 37.61,21.979 L 40.497,16.87" fill="#130F26" stroke="#130F26" stroke-width="0.103"/><path d=" M 34.844,21.546 L 34.844,22.146 L 31.014,19.982 L 31.014,19.382 L 34.844,21.546" fill="#130F26" stroke="#130F26" stroke-width="0.103"/><path d=" M 36.169,19.203 L 36.169,19.803 L 34.844,22.146 L 34.844,21.546 L 36.169,19.203" fill="#130F26" stroke="#130F26" stroke-width="0.103"/><path d=" M 31.464,6.126 L 31.464,6.726 L 28.743,10.828 L 25.651,9.081 L 25.651,8.481 L 28.743,10.228 L 31.464,6.126" fill="#130F26" stroke="#130F26" stroke-width="0.103"/><path d=" M 32.889,5.113 L 32.889,5.713 L 32.72,6.289 L 32.72,5.689 L 32.889,5.113" fill="#130F26" stroke="#130F26" stroke-width="0.103"/><path d=" M 35.202,6.759 L 35.202,7.359 L 34.473,9.051 L 30.268,5.801 L 30.268,5.201 L 34.473,8.451 L 35.202,6.759" fill="#130F26" stroke="#130F26" stroke-width="0.103"/><path d=" M 30.861,2.232 L 30.861,2.832 L 30.031,1.085 L 30.031,0.485 L 30.861,2.232" fill="#130F26" stroke="#130F26" stroke-width="0.103"/><path d=" M 34.029,1.223 L 34.029,1.823 L 32.889,5.713 L 30.307,4.957 L 30.307,4.357 L 32.889,5.113 L 34.029,1.223" fill="#130F26" stroke="#130F26" stroke-width="0.103"/><path d=" M 45.858,-7.339 L 45.858,-6.739 L 42.886,-4.171 L 41.687,-5.56 L 41.687,-6.16 L 42.886,-4.771 L 45.858,-7.339" fill="#130F26" stroke="#130F26" stroke-width="0.103"/><path d=" M 35.122,-9.711 L 35.122,-9.111 L 34.79,-11.62 L 34.555,-11.836 L 34.525,-12.063 L 34.525,-12.663 L 34.555,-12.436 L 34.79,-12.22 L 35.122,-9.711" fill="#130F26" stroke="#130F26" stroke-width="0.103"/><path d=" M 39.607,-9.163 L 39.607,-8.563 L 37.296,-6.566 L 34.842,-8.673 L 34.842,-9.273 L 37.296,-7.166 L 39.607,-9.163" fill="#130F26" stroke="#130F26" stroke-width="0.103"/><path d=" M 36.735,-5.619 L 36.735,-5.019 L 35.918,-2.23 L 31.853,-3.42 L 31.853,-4.02 L 35.918,-2.83 L 36.735,-5.619" fill="#130F26" stroke="#130F26" stroke-width="0.103"/><path d=" M 37.296,-7.166 L 37.296,-6.566 L 37.152,-6.442 L 36.735,-5.019 L 32.82,-6.166 L 32.82,-6.766 L 36.735,-5.619 L 37.152,-7.042 L 37.296,-7.166" fill="#130F26" stroke="#130F26" stroke-width="0.103"/><path d=" M 34.153,-3.346 L 34.153,-2.746 L 32.911,1.496 L 30.681,0.843 L 30.681,0.243 L 32.911,0.896 L 34.153,-3.346" fill="#130F26" stroke="#130F26" stroke-width="0.103"/><path d=" M 45.531,22.27 L 45.531,22.87 L 43.443,25.983 L 40.256,24.182 L 40.256,23.582 L 43.443,25.383 L 45.531,22.27" fill="#130F26" stroke="#130F26" stroke-width="0.103"/><path d=" M 42.499,20.236 L 42.499,20.836 L 39.758,24.923 L 37.126,23.436 L 37.126,22.836 L 39.758,24.323 L 42.499,20.236" fill="#130F26" stroke="#130F26" stroke-width="0.103"/><path d=" M 49.619,17.506 L 49.619,18.106 L 47.373,20.549 L 45.188,18.755 L 45.188,18.155 L 47.373,19.949 L 49.619,17.506" fill="#130F26" stroke="#130F26" stroke-width="0.103"/><path d=" M 45.443,22.21 L 45.443,22.81 L 43.282,21.361 L 43.282,20.761 L 45.443,22.21" fill="#130F26" stroke="#130F26" stroke-width="0.103"/><path d=" M 47.255,19.852 L 47.255,20.452 L 46.402,21.38 L 45.443,22.81 L 45.443,22.21 L 46.402,20.78 L 47.255,19.852" fill="#130F26" stroke="#130F26" stroke-width="0.103"/><path d=" M 49.67,17.543 L 49.67,18.143 L 46.708,15.977 L 46.708,15.377 L 49.67,17.543" fill="#130F26" stroke="#130F26" stroke-width="0.103"/><path d=" M 51.498,15.964 L 51.498,16.564 L 50.076,17.701 L 49.67,18.143 L 49.67,17.543 L 50.076,17.101 L 51.498,15.964" fill="#130F26" stroke="#130F26" stroke-width="0.103"/><path d=" M 33.363,15.226 L 31.014,19.382 L 26.881,17.046 L 29.229,12.89 L 33.363,15.226" fill="#ABA8AC" stroke="#130F26" stroke-width="0.103"/><path d=" M 28.6,14.004 L 26.881,17.046 L 24.645,15.783 L 25.127,14.967 L 24.826,13.165 L 28.6,14.004" fill="#8E8B8E" stroke="#130F26" stroke-width="0.103"/><path d=" M 25.143,10.349 L 26.229,8.807 L 28.269,9.96 L 26.852,13.615 L 25.93,13.41 L 25.466,10.625 L 25.143,10.349" fill="#A09DA1" stroke="#130F26" stroke-width="0.103"/><path d=" M 40.497,16.87 L 37.61,21.979 L 35.328,20.69 L 38.215,15.581 L 40.497,16.87" fill="#959296" stroke="#130F26" stroke-width="0.103"/><path d=" M 36.169,19.203 L 34.844,21.546 L 31.014,19.382 L 32.339,17.039 L 36.169,19.203" fill="#9F9CA1" stroke="#130F26" stroke-width="0.103"/><path d=" M 28.743,10.228 L 25.651,8.481 L 27.341,6.081 L 28.159,6.147 L 29.896,4.913 L 31.464,6.126 L 28.743,10.228" fill="#99969A" stroke="#130F26" stroke-width="0.103"/><path d=" M 34.473,8.451 L 30.268,5.201 L 30.97,4.702 L 31.007,4.562 L 32.889,5.113 L 32.72,5.689 L 35.202,6.759 L 34.473,8.451" fill="#A9A5AA" stroke="#130F26" stroke-width="0.103"/><path d=" M 30.307,4.357 L 30.861,2.232 L 30.031,0.485 L 30.148,0.086 L 34.029,1.223 L 32.889,5.113 L 30.307,4.357" fill="#9B989C" stroke="#130F26" stroke-width="0.103"/><path d=" M 42.886,-4.771 L 41.687,-6.16 L 44.659,-8.727 L 45.858,-7.339 L 42.886,-4.771" fill="#878588" stroke="#130F26" stroke-width="0.103"/><path d=" M 37.296,-7.166 L 34.842,-9.273 L 35.122,-9.711 L 34.79,-12.22 L 34.555,-12.436 L 34.525,-12.663 L 36.631,-13.676 L 39.607,-9.163 L 37.296,-7.166" fill="#928F93" stroke="#130F26" stroke-width="0.103"/><path d=" M 35.918,-2.83 L 31.853,-4.02 L 32.67,-6.809 L 36.735,-5.619 L 35.918,-2.83" fill="#989599" stroke="#130F26" stroke-width="0.103"/><path d=" M 33.919,-7.541 L 34.958,-9.173 L 37.296,-7.166 L 37.152,-7.042 L 36.735,-5.619 L 32.82,-6.766 L 32.958,-7.237 L 33.919,-7.541" fill="#9A979B" stroke="#130F26" stroke-width="0.103"/><path d=" M 30.681,0.243 L 31.924,-4 L 34.153,-3.346 L 32.911,0.896 L 30.681,0.243" fill="#928F93" stroke="#130F26" stroke-width="0.103"/><path d=" M 43.443,25.383 L 40.256,23.582 L 42.499,20.236 L 45.531,22.27 L 43.443,25.383" fill="#AEABAF" stroke="#130F26" stroke-width="0.103"/><path d=" M 39.758,24.323 L 37.126,22.836 L 39.668,18.337 L 42.499,20.236 L 39.758,24.323" fill="#959296" stroke="#130F26" stroke-width="0.103"/><path d=" M 47.042,15.621 L 49.619,17.506 L 47.373,19.949 L 45.188,18.155 L 47.042,15.621" fill="#989599" stroke="#130F26" stroke-width="0.103"/><path d=" M 46.402,20.78 L 45.443,22.21 L 43.282,20.761 L 45.188,18.155 L 47.255,19.852 L 46.402,20.78" fill="#8B888C" stroke="#130F26" stroke-width="0.103"/><path d=" M 50.076,17.101 L 49.67,17.543 L 46.708,15.377 L 48.975,13.132 L 51.498,15.964 L 50.076,17.101" fill="#8B888C" stroke="#130F26" stroke-width="0.103"/><path d=" M 49.422,26.466 L 49.422,27.066 L 47.818,29.137 L 46.385,28.205 L 45.031,27.44 L 45.031,26.84 L 46.385,27.605 L 47.818,28.537 L 49.422,26.466" fill="#130F26" stroke="#130F26" stroke-width="0.103"/><path d=" M 51.903,23.265 L 51.903,23.865 L 49.422,27.066 L 46.998,25.187 L 46.998,24.587 L 49.422,26.466 L 51.903,23.265" fill="#130F26" stroke="#130F26" stroke-width="0.103"/><path d=" M 50.438,30.749 L 50.438,31.349 L 47.555,29.476 L 47.555,28.876 L 50.438,30.749" fill="#130F26" stroke="#130F26" stroke-width="0.103"/><path d=" M 52.82,27.674 L 52.82,28.274 L 50.438,31.349 L 50.438,30.749 L 52.82,27.674" fill="#130F26" stroke="#130F26" stroke-width="0.103"/><path d=" M 53.82,32.946 L 53.82,33.546 L 50.438,31.349 L 50.438,30.749 L 53.82,32.946" fill="#130F26" stroke="#130F26" stroke-width="0.103"/><path d=" M 55.356,30.582 L 55.356,31.182 L 53.82,33.546 L 53.82,32.946 L 55.356,30.582" fill="#130F26" stroke="#130F26" stroke-width="0.103"/><path d=" M 54.933,19.822 L 54.933,20.422 L 51.576,23.565 L 49.115,21.301 L 49.115,20.701 L 51.576,22.965 L 54.933,19.822" fill="#130F26" stroke="#130F26" stroke-width="0.103"/><path d=" M 58.696,17.592 L 58.696,18.192 L 55.113,20.646 L 52.791,17.765 L 52.791,17.165 L 55.113,20.046 L 58.696,17.592" fill="#130F26" stroke="#130F26" stroke-width="0.103"/><path d=" M 66.998,30.273 L 66.998,30.873 L 64.467,29.228 L 64.467,28.628 L 66.998,30.273" fill="#130F26" stroke="#130F26" stroke-width="0.103"/><path d=" M 68.881,27.374 L 68.881,27.974 L 66.998,30.873 L 66.998,30.273 L 68.881,27.374" fill="#130F26" stroke="#130F26" stroke-width="0.103"/><path d=" M 62.623,38.665 L 62.623,39.265 L 58.73,36.736 L 58.73,36.136 L 62.623,38.665" fill="#130F26" stroke="#130F26" stroke-width="0.103"/><path d=" M 63.556,37.228 L 63.556,37.828 L 62.623,39.265 L 62.623,38.665 L 63.556,37.228" fill="#130F26" stroke="#130F26" stroke-width="0.103"/><path d=" M 64.627,34.413 L 64.627,35.013 L 63.023,37.482 L 59.663,35.299 L 59.663,34.699 L 63.023,36.882 L 64.627,34.413" fill="#130F26" stroke="#130F26" stroke-width="0.103"/><path d=" M 65.16,34.759 L 65.16,35.359 L 61.267,32.83 L 61.267,32.23 L 65.16,34.759" fill="#130F26" stroke="#130F26" stroke-width="0.103"/><path d=" M 66.268,33.053 L 66.268,33.653 L 65.16,35.359 L 65.16,34.759 L 66.268,33.053" fill="#130F26" stroke="#130F26" stroke-width="0.103"/><path d=" M 66.9,30.209 L 66.9,30.809 L 65.413,33.098 L 62.376,31.125 L 62.376,30.525 L 65.413,32.498 L 66.9,30.209" fill="#130F26" stroke="#130F26" stroke-width="0.103"/><path d=" M 57.888,31.506 L 57.888,32.106 L 56.022,34.977 L 53.82,33.546 L 53.82,32.946 L 56.022,34.377 L 57.888,31.506" fill="#130F26" stroke="#130F26" stroke-width="0.103"/><path d=" M 59.057,35.632 L 59.057,36.232 L 56.349,34.473 L 56.349,33.873 L 59.057,35.632" fill="#130F26" stroke="#130F26" stroke-width="0.103"/><path d=" M 60.595,33.265 L 60.595,33.865 L 59.057,36.232 L 59.057,35.632 L 60.595,33.265" fill="#130F26" stroke="#130F26" stroke-width="0.103"/><path d=" M 45.031,26.84 L 46.697,24.355 L 49.422,26.466 L 47.818,28.537 L 46.385,27.605 L 45.031,26.84" fill="#8E8B8F" stroke="#130F26" stroke-width="0.103"/><path d=" M 48.431,22.45 L 49.616,21.162 L 51.903,23.265 L 49.422,26.466 L 46.998,24.587 L 48.431,22.45" fill="#9B989C" stroke="#130F26" stroke-width="0.103"/><path d=" M 52.82,27.674 L 50.438,30.749 L 47.555,28.876 L 50.112,25.576 L 52.82,27.674" fill="#9A979B" stroke="#130F26" stroke-width="0.103"/><path d=" M 55.356,30.582 L 53.82,32.946 L 50.438,30.749 L 52.363,28.263 L 55.356,30.582" fill="#ABA8AC" stroke="#130F26" stroke-width="0.103"/><path d=" M 51.576,22.965 L 49.115,20.701 L 51.187,18.448 L 52.791,17.165 L 54.933,19.822 L 51.576,22.965" fill="#8E8B8F" stroke="#130F26" stroke-width="0.103"/><path d=" M 55.113,20.046 L 52.791,17.165 L 55.442,15.045 L 56.787,14.272 L 58.696,17.592 L 55.113,20.046" fill="#8F8D90" stroke="#130F26" stroke-width="0.103"/><path d=" M 68.881,27.374 L 66.998,30.273 L 64.467,28.628 L 66.35,25.729 L 68.881,27.374" fill="#989599" stroke="#130F26" stroke-width="0.103"/><path d=" M 63.556,37.228 L 62.623,38.665 L 58.73,36.136 L 59.663,34.699 L 63.556,37.228" fill="#8F8C90" stroke="#130F26" stroke-width="0.103"/><path d=" M 61.267,32.23 L 64.627,34.413 L 63.023,36.882 L 59.663,34.699 L 61.267,32.23" fill="#979498" stroke="#130F26" stroke-width="0.103"/><path d=" M 66.268,33.053 L 65.16,34.759 L 61.267,32.23 L 62.376,30.525 L 66.268,33.053" fill="#9E9B9F" stroke="#130F26" stroke-width="0.103"/><path d=" M 63.863,28.236 L 66.9,30.209 L 65.413,32.498 L 62.376,30.525 L 63.863,28.236" fill="#89868A" stroke="#130F26" stroke-width="0.103"/><path d=" M 56.022,34.377 L 53.82,32.946 L 55.685,30.075 L 57.888,31.506 L 56.022,34.377" fill="#9B989C" stroke="#130F26" stroke-width="0.103"/><path d=" M 60.595,33.265 L 59.057,35.632 L 56.349,33.873 L 57.888,31.506 L 60.595,33.265" fill="#928F93" stroke="#130F26" stroke-width="0.103"/><path d=" M 69.478,40.213 L 69.478,40.813 L 68.622,41.995 L 67.196,40.962 L 64.211,39.023 L 64.211,38.423 L 67.196,40.362 L 68.622,41.395 L 69.478,40.213" fill="#130F26" stroke="#130F26" stroke-width="0.103"/><path d=" M 71.222,37.805 L 71.222,38.405 L 69.478,40.813 L 65.105,37.647 L 65.105,37.047 L 69.478,40.213 L 71.222,37.805" fill="#130F26" stroke="#130F26" stroke-width="0.103"/><path d=" M 73.977,39.8 L 73.977,40.4 L 71.379,43.989 L 68.623,41.994 L 68.623,41.394 L 71.379,43.389 L 73.977,39.8" fill="#130F26" stroke="#130F26" stroke-width="0.103"/><path d=" M 76.971,41.968 L 76.971,42.568 L 73.748,47.02 L 70.754,44.852 L 70.754,44.252 L 73.748,46.42 L 76.971,41.968" fill="#130F26" stroke="#130F26" stroke-width="0.103"/><path d=" M 80.008,37.773 L 80.008,38.373 L 78.522,40.426 L 74.975,37.857 L 74.975,37.257 L 78.522,39.826 L 80.008,37.773" fill="#130F26" stroke="#130F26" stroke-width="0.103"/><path d=" M 79.747,37.584 L 79.747,38.184 L 76.133,35.567 L 76.133,34.967 L 79.747,37.584" fill="#130F26" stroke="#130F26" stroke-width="0.103"/><path d=" M 81.687,34.905 L 81.687,35.505 L 79.747,38.184 L 79.747,37.584 L 81.687,34.905" fill="#130F26" stroke="#130F26" stroke-width="0.103"/><path d=" M 70.911,37.58 L 70.911,38.18 L 66.727,35.15 L 66.727,34.55 L 70.911,37.58" fill="#130F26" stroke="#130F26" stroke-width="0.103"/><path d=" M 73.185,34.44 L 73.185,35.04 L 70.911,38.18 L 70.911,37.58 L 73.185,34.44" fill="#130F26" stroke="#130F26" stroke-width="0.103"/><path d=" M 67.196,40.362 L 64.211,38.423 L 65.105,37.047 L 69.478,40.213 L 68.622,41.395 L 67.196,40.362" fill="#9E9B9F" stroke="#130F26" stroke-width="0.103"/><path d=" M 65.105,37.047 L 66.727,34.55 L 71.222,37.805 L 69.478,40.213 L 65.105,37.047" fill="#A7A3A8" stroke="#130F26" stroke-width="0.103"/><path d=" M 71.379,43.389 L 68.623,41.394 L 71.222,37.805 L 73.977,39.8 L 71.379,43.389" fill="#9B989C" stroke="#130F26" stroke-width="0.103"/><path d=" M 73.977,39.8 L 76.971,41.968 L 73.748,46.42 L 70.754,44.252 L 73.977,39.8" fill="#8A878B" stroke="#130F26" stroke-width="0.103"/><path d=" M 74.975,37.257 L 76.461,35.205 L 80.008,37.773 L 78.522,39.826 L 74.975,37.257" fill="#928F93" stroke="#130F26" stroke-width="0.103"/><path d=" M 81.687,34.905 L 79.747,37.584 L 76.133,34.967 L 78.073,32.289 L 81.687,34.905" fill="#A5A2A6" stroke="#130F26" stroke-width="0.103"/><path d=" M 73.185,34.44 L 70.911,37.58 L 66.727,34.55 L 68.841,31.296 L 73.185,34.44" fill="#949195" stroke="#130F26" stroke-width="0.103"/><path d=" M 106.13,62.861 L 106.13,63.461 L 102.977,62.751 L 102.977,62.151 L 106.13,62.861" fill="#130F26" stroke="#130F26" stroke-width="0.103"/><path d=" M 107.445,59.334 L 107.445,59.934 L 106.13,63.461 L 106.13,62.861 L 107.445,59.334" fill="#130F26" stroke="#130F26" stroke-width="0.103"/><path d=" M 98.919,56.622 L 98.919,57.222 L 97.338,60.261 L 94.459,58.762 L 94.459,58.162 L 97.338,59.661 L 98.919,56.622" fill="#130F26" stroke="#130F26" stroke-width="0.103"/><path d=" M 101.385,57.905 L 101.385,58.505 L 99.374,62.369 L 96.909,61.086 L 96.909,60.486 L 99.374,61.769 L 101.385,57.905" fill="#130F26" stroke="#130F26" stroke-width="0.103"/><path d=" M 87.839,52.106 L 87.839,52.706 L 86.34,55.587 L 83.844,54.288 L 83.844,53.688 L 86.34,54.987 L 87.839,52.106" fill="#130F26" stroke="#130F26" stroke-width="0.103"/><path d=" M 90.694,53.592 L 90.694,54.192 L 89.195,57.073 L 86.34,55.587 L 86.34,54.987 L 89.195,56.473 L 90.694,53.592" fill="#130F26" stroke="#130F26" stroke-width="0.103"/><path d=" M 93.27,53.244 L 93.27,53.844 L 91.374,57.488 L 89.489,56.507 L 89.489,55.907 L 91.374,56.888 L 93.27,53.244" fill="#130F26" stroke="#130F26" stroke-width="0.103"/><path d=" M 96.219,54.779 L 96.219,55.379 L 94.029,59.588 L 91.08,58.053 L 91.08,57.453 L 94.029,58.988 L 96.219,54.779" fill="#130F26" stroke="#130F26" stroke-width="0.103"/><path d=" M 84.052,42.142 L 84.052,42.742 L 82.159,45.356 L 78.403,42.637 L 78.403,42.037 L 82.159,44.756 L 84.052,42.142" fill="#130F26" stroke="#130F26" stroke-width="0.103"/><path d=" M 80.156,47.523 L 80.156,48.123 L 78.871,49.898 L 75.622,47.546 L 75.622,46.946 L 78.871,49.298 L 80.156,47.523" fill="#130F26" stroke="#130F26" stroke-width="0.103"/><path d=" M 84.411,47.367 L 84.411,47.967 L 81.194,52.411 L 78.476,50.443 L 78.476,49.843 L 81.194,51.811 L 84.411,47.367" fill="#130F26" stroke="#130F26" stroke-width="0.103"/><path d=" M 84.09,53.215 L 84.09,53.815 L 81.523,51.956 L 81.523,51.356 L 84.09,53.215" fill="#130F26" stroke="#130F26" stroke-width="0.103"/><path d=" M 86.471,48.64 L 86.471,49.24 L 84.09,53.815 L 84.09,53.215 L 86.471,48.64" fill="#130F26" stroke="#130F26" stroke-width="0.103"/><path d=" M 107.445,59.334 L 106.13,62.861 L 102.977,62.151 L 104.368,57.965 L 107.445,59.334" fill="#918E92" stroke="#130F26" stroke-width="0.103"/><path d=" M 97.338,59.661 L 94.459,58.162 L 96.04,55.124 L 98.919,56.622 L 97.338,59.661" fill="#928F93" stroke="#130F26" stroke-width="0.103"/><path d=" M 98.919,56.622 L 101.385,57.905 L 99.374,61.769 L 96.909,60.486 L 98.919,56.622" fill="#918E92" stroke="#130F26" stroke-width="0.103"/><path d=" M 86.34,54.987 L 83.844,53.688 L 85.343,50.807 L 87.839,52.106 L 86.34,54.987" fill="#929093" stroke="#130F26" stroke-width="0.103"/><path d=" M 87.839,52.106 L 90.694,53.592 L 89.195,56.473 L 86.34,54.987 L 87.839,52.106" fill="#928F93" stroke="#130F26" stroke-width="0.103"/><path d=" M 91.374,56.888 L 89.489,55.907 L 91.385,52.264 L 93.27,53.244 L 91.374,56.888" fill="#A29FA3" stroke="#130F26" stroke-width="0.103"/><path d=" M 93.27,53.244 L 96.219,54.779 L 94.029,58.988 L 91.08,57.453 L 93.27,53.244" fill="#939093" stroke="#130F26" stroke-width="0.103"/><path d=" M 78.403,42.037 L 80.103,39.688 L 84.052,42.142 L 82.159,44.756 L 78.403,42.037" fill="#ABA8AD" stroke="#130F26" stroke-width="0.103"/><path d=" M 75.622,46.946 L 76.907,45.171 L 80.156,47.523 L 78.871,49.298 L 75.622,46.946" fill="#8C898C" stroke="#130F26" stroke-width="0.103"/><path d=" M 81.194,51.811 L 78.476,49.843 L 81.55,45.598 L 84.411,47.367 L 81.194,51.811" fill="#A3A0A4" stroke="#130F26" stroke-width="0.103"/><path d=" M 86.471,48.64 L 84.09,53.215 L 81.523,51.356 L 84.411,47.367 L 86.471,48.64" fill="#A19EA2" stroke="#130F26" stroke-width="0.103"/></g><g><path d=" M 0,0"/><path d=" M 90.32,75.437 L 90.32,76.037 L 88.784,78.506 L 85.35,75.965 L 85.35,75.365 L 88.784,77.906 L 90.32,75.437" fill="#130F26" stroke="#130F26" stroke-width="0.103"/><path d=" M 76.326,65.082 L 76.326,65.682 L 74.487,68.168 L 71.64,65.672 L 71.64,65.072 L 74.487,67.568 L 76.326,65.082" fill="#130F26" stroke="#130F26" stroke-width="0.103"/><path d=" M 74.203,67.951 L 74.203,68.551 L 72.498,67.289 L 70.799,69.337 L 69.042,67.879 L 69.042,67.279 L 70.799,68.737 L 72.498,66.689 L 74.203,67.951" fill="#130F26" stroke="#130F26" stroke-width="0.103"/><path d=" M 74.487,67.568 L 74.487,68.168 L 74.203,68.551 L 74.203,67.951 L 74.487,67.568" fill="#130F26" stroke="#130F26" stroke-width="0.103"/><path d=" M 79.739,63.565 L 79.739,64.165 L 77.948,66.882 L 73.662,63.71 L 73.662,63.11 L 77.948,66.282 L 79.739,63.565" fill="#130F26" stroke="#130F26" stroke-width="0.103"/><path d=" M 79.533,58.355 L 79.533,58.955 L 77.201,62.492 L 75.053,61.076 L 75.053,60.476 L 77.201,61.892 L 79.533,58.355" fill="#130F26" stroke="#130F26" stroke-width="0.103"/><path d=" M 81.804,55.336 L 81.804,55.936 L 79.728,59.084 L 77.878,57.864 L 77.878,57.264 L 79.728,58.484 L 81.804,55.336" fill="#130F26" stroke="#130F26" stroke-width="0.103"/><path d=" M 84.292,56.176 L 84.292,56.776 L 82.039,60.608 L 79.728,59.084 L 79.728,58.484 L 82.039,60.008 L 84.292,56.176" fill="#130F26" stroke="#130F26" stroke-width="0.103"/><path d=" M 87.35,58.982 L 87.35,59.582 L 86.398,61.201 L 82.9,59.144 L 82.9,58.544 L 86.398,60.601 L 87.35,58.982" fill="#130F26" stroke="#130F26" stroke-width="0.103"/><path d=" M 90.1,59.198 L 90.1,59.798 L 87.286,64.067 L 85.432,62.845 L 85.432,62.245 L 87.286,63.467 L 90.1,59.198" fill="#130F26" stroke="#130F26" stroke-width="0.103"/><path d=" M 87.074,73.035 L 90.32,75.437 L 88.784,77.906 L 85.35,75.365 L 87.074,73.035" fill="#989599" stroke="#130F26" stroke-width="0.103"/><path d=" M 71.64,65.072 L 73.479,62.975 L 76.326,65.082 L 74.487,67.568 L 71.64,65.072" fill="#7F7C7F" stroke="#130F26" stroke-width="0.103"/><path d=" M 74.487,67.568 L 74.203,67.951 L 72.498,66.689 L 70.799,68.737 L 69.042,67.279 L 70.947,65.263 L 71.342,64.811 L 74.487,67.568" fill="#B4B0B5" stroke="#130F26" stroke-width="0.103"/><path d=" M 77.948,66.282 L 73.662,63.11 L 73.841,62.905 L 75.55,60.804 L 79.739,63.565 L 77.948,66.282" fill="#B6B2B7" stroke="#130F26" stroke-width="0.103"/><path d=" M 77.201,61.892 L 75.053,60.476 L 76.763,58.373 L 77.69,57.141 L 79.533,58.355 L 77.201,61.892" fill="#ABA8AC" stroke="#130F26" stroke-width="0.103"/><path d=" M 80.181,54.161 L 81.804,55.336 L 79.728,58.484 L 77.878,57.264 L 79.353,55.304 L 80.181,54.161" fill="#A6A2A7" stroke="#130F26" stroke-width="0.103"/><path d=" M 82.078,54.92 L 82.588,55.289 L 84.292,56.176 L 82.039,60.008 L 79.728,58.484 L 82.078,54.92" fill="#9A979B" stroke="#130F26" stroke-width="0.103"/><path d=" M 83.745,57.106 L 87.35,58.982 L 86.398,60.601 L 82.9,58.544 L 83.745,57.106" fill="#B0ACB1" stroke="#130F26" stroke-width="0.103"/><path d=" M 87.897,58.052 L 90.1,59.198 L 87.286,63.467 L 85.432,62.245 L 87.897,58.052" fill="#99969A" stroke="#130F26" stroke-width="0.103"/><path d=" M 57.33,52.964 L 57.33,53.564 L 54.535,56.13 L 53.043,54.505 L 53.043,53.905 L 54.535,55.53 L 57.33,52.964" fill="#130F26" stroke="#130F26" stroke-width="0.103"/><path d=" M 69.793,64.737 L 69.793,65.337 L 67.783,67.465 L 64.689,64.094 L 64.689,63.494 L 67.783,66.865 L 69.793,64.737" fill="#130F26" stroke="#130F26" stroke-width="0.103"/><path d=" M 74.823,50.988 L 74.823,51.588 L 73.137,53.592 L 70.158,51.084 L 70.158,50.484 L 73.137,52.992 L 74.823,50.988" fill="#130F26" stroke="#130F26" stroke-width="0.103"/><path d=" M 76.304,56.058 L 76.304,56.658 L 72.939,53.826 L 72.939,53.226 L 76.304,56.058" fill="#130F26" stroke="#130F26" stroke-width="0.103"/><path d=" M 78.285,53.384 L 78.285,53.984 L 77.463,55.118 L 76.304,56.658 L 76.304,56.058 L 77.463,54.518 L 78.285,53.384" fill="#130F26" stroke="#130F26" stroke-width="0.103"/><path d=" M 76.732,56.419 L 76.732,57.019 L 75.817,58.234 L 74.582,59.754 L 72.694,58.165 L 72.694,57.565 L 74.582,59.154 L 75.817,57.634 L 76.732,56.419" fill="#130F26" stroke="#130F26" stroke-width="0.103"/><path d=" M 74.582,59.154 L 74.582,59.754 L 73.002,61.698 L 72.234,62.574 L 68.903,59.77 L 68.903,59.17 L 72.234,61.974 L 73.002,61.098 L 74.582,59.154" fill="#130F26" stroke="#130F26" stroke-width="0.103"/><path d=" M 61.017,51.206 L 61.017,51.806 L 58.56,54.725 L 55.622,51.95 L 55.622,51.35 L 58.56,54.125 L 61.017,51.206" fill="#130F26" stroke="#130F26" stroke-width="0.103"/><path d=" M 63.014,48.832 L 63.014,49.432 L 61.017,51.806 L 57.902,49.185 L 57.902,48.585 L 61.017,51.206 L 63.014,48.832" fill="#130F26" stroke="#130F26" stroke-width="0.103"/><path d=" M 62.842,48.688 L 62.842,49.288 L 59.323,46.326 L 59.323,45.726 L 62.842,48.688" fill="#130F26" stroke="#130F26" stroke-width="0.103"/><path d=" M 65.208,45.877 L 65.208,46.477 L 62.842,49.288 L 62.842,48.688 L 65.208,45.877" fill="#130F26" stroke="#130F26" stroke-width="0.103"/><path d=" M 66.27,44.616 L 66.27,45.216 L 65.208,46.477 L 61.696,43.522 L 61.696,42.922 L 65.208,45.877 L 66.27,44.616" fill="#130F26" stroke="#130F26" stroke-width="0.103"/><path d=" M 69.324,46.416 L 69.324,47.016 L 65.517,51.539 L 62.842,49.288 L 62.842,48.688 L 65.517,50.939 L 69.324,46.416" fill="#130F26" stroke="#130F26" stroke-width="0.103"/><path d=" M 71.844,48.481 L 71.844,49.081 L 70.393,50.805 L 67.901,48.707 L 67.901,48.107 L 70.393,50.205 L 71.844,48.481" fill="#130F26" stroke="#130F26" stroke-width="0.103"/><path d=" M 53.043,53.905 L 55.597,51.327 L 57.33,52.964 L 54.535,55.53 L 53.043,53.905" fill="#9A979B" stroke="#130F26" stroke-width="0.103"/><path d=" M 64.689,63.494 L 66.611,61.73 L 69.793,64.737 L 67.783,66.865 L 64.689,63.494" fill="#99969A" stroke="#130F26" stroke-width="0.103"/><path d=" M 71.661,48.699 L 74.823,50.988 L 73.137,52.992 L 70.158,50.484 L 71.661,48.699" fill="#B0ADB2" stroke="#130F26" stroke-width="0.103"/><path d=" M 77.463,54.518 L 76.304,56.058 L 72.939,53.226 L 74.881,50.919 L 78.285,53.384 L 77.463,54.518" fill="#A3A0A4" stroke="#130F26" stroke-width="0.103"/><path d=" M 74.933,54.905 L 76.732,56.419 L 75.817,57.634 L 74.582,59.154 L 72.694,57.565 L 74.933,54.905" fill="#A9A6AA" stroke="#130F26" stroke-width="0.103"/><path d=" M 68.903,59.17 L 71.265,56.363 L 74.582,59.154 L 73.002,61.098 L 72.234,61.974 L 68.903,59.17" fill="#908D91" stroke="#130F26" stroke-width="0.103"/><path d=" M 58.56,54.125 L 55.622,51.35 L 57.929,48.607 L 61.017,51.206 L 58.56,54.125" fill="#9B989C" stroke="#130F26" stroke-width="0.103"/><path d=" M 58.653,47.692 L 59.777,46.108 L 63.014,48.832 L 61.017,51.206 L 57.902,48.585 L 58.653,47.692" fill="#9F9CA0" stroke="#130F26" stroke-width="0.103"/><path d=" M 65.208,45.877 L 62.842,48.688 L 59.323,45.726 L 61.456,42.719 L 65.208,45.877" fill="#9A979B" stroke="#130F26" stroke-width="0.103"/><path d=" M 65.254,43.881 L 66.27,44.616 L 65.208,45.877 L 61.696,42.922 L 62.314,41.971 L 65.254,43.881" fill="#8D8A8E" stroke="#130F26" stroke-width="0.103"/><path d=" M 62.842,48.688 L 66.485,44.36 L 69.324,46.416 L 65.517,50.939 L 62.842,48.688" fill="#939094" stroke="#130F26" stroke-width="0.103"/><path d=" M 69.198,46.566 L 71.844,48.481 L 70.393,50.205 L 67.901,48.107 L 69.198,46.566" fill="#8D8B8E" stroke="#130F26" stroke-width="0.103"/><path d=" M 40.713,51.113 L 40.713,51.713 L 37.993,46.454 L 37.993,45.854 L 40.713,51.113" fill="#130F26" stroke="#130F26" stroke-width="0.103"/><path d=" M 43.641,49.287 L 43.641,49.887 L 40.713,51.713 L 40.713,51.113 L 43.641,49.287" fill="#130F26" stroke="#130F26" stroke-width="0.103"/><path d=" M 46.556,47.468 L 46.556,48.068 L 43.641,49.887 L 40.724,45.21 L 40.724,44.61 L 43.641,49.287 L 46.556,47.468" fill="#130F26" stroke="#130F26" stroke-width="0.103"/><path d=" M 51.314,42.417 L 51.314,43.017 L 47.922,39.772 L 47.922,39.172 L 51.314,42.417" fill="#130F26" stroke="#130F26" stroke-width="0.103"/><path d=" M 54.093,38.914 L 54.093,39.514 L 51.314,43.017 L 51.314,42.417 L 54.093,38.914" fill="#130F26" stroke="#130F26" stroke-width="0.103"/><path d=" M 55.875,36.666 L 55.875,37.266 L 54.093,39.514 L 50.552,36.706 L 50.552,36.106 L 54.093,38.914 L 55.875,36.666" fill="#130F26" stroke="#130F26" stroke-width="0.103"/><path d=" M 61.574,40.368 L 61.574,40.968 L 60.714,42.292 L 59.273,44.322 L 53.752,39.943 L 53.752,39.343 L 59.273,43.722 L 60.714,41.692 L 61.574,40.368" fill="#130F26" stroke="#130F26" stroke-width="0.103"/><path d=" M 59.273,43.722 L 59.273,44.322 L 57.795,46.406 L 56.485,47.964 L 54.329,45.902 L 54.329,45.302 L 56.485,47.364 L 57.795,45.806 L 59.273,43.722" fill="#130F26" stroke="#130F26" stroke-width="0.103"/><path d=" M 50.394,52.701 L 50.394,53.301 L 48.381,50.556 L 48.381,49.956 L 50.394,52.701" fill="#130F26" stroke="#130F26" stroke-width="0.103"/><path d=" M 52.908,50.164 L 52.908,50.764 L 50.394,53.301 L 50.394,52.701 L 52.908,50.164" fill="#130F26" stroke="#130F26" stroke-width="0.103"/><path d=" M 56.485,47.364 L 56.485,47.964 L 54.557,50.258 L 53.487,51.338 L 51.409,49.279 L 51.409,48.679 L 53.487,50.738 L 54.557,49.658 L 56.485,47.364" fill="#130F26" stroke="#130F26" stroke-width="0.103"/><path d=" M 46.348,47.184 L 46.348,47.784 L 43.271,43.589 L 43.271,42.989 L 46.348,47.184" fill="#130F26" stroke="#130F26" stroke-width="0.103"/><path d=" M 49.372,44.527 L 49.372,45.127 L 46.348,47.784 L 46.348,47.184 L 49.372,44.527" fill="#130F26" stroke="#130F26" stroke-width="0.103"/><path d=" M 51.534,42.628 L 51.534,43.228 L 49.372,45.127 L 46.113,41.417 L 46.113,40.817 L 49.372,44.527 L 51.534,42.628" fill="#130F26" stroke="#130F26" stroke-width="0.103"/><path d=" M 43.641,49.287 L 40.713,51.113 L 37.993,45.854 L 40.257,44.908 L 40.724,44.61 L 43.641,49.287" fill="#99969A" stroke="#130F26" stroke-width="0.103"/><path d=" M 40.724,44.61 L 43.271,42.989 L 46.556,47.468 L 43.641,49.287 L 40.724,44.61" fill="#9C999D" stroke="#130F26" stroke-width="0.103"/><path d=" M 54.093,38.914 L 51.314,42.417 L 47.922,39.172 L 48.753,38.415 L 50.552,36.106 L 54.093,38.914" fill="#9A979B" stroke="#130F26" stroke-width="0.103"/><path d=" M 50.552,36.106 L 52.051,34.182 L 55.875,36.666 L 54.093,38.914 L 50.552,36.106" fill="#9B989C" stroke="#130F26" stroke-width="0.103"/><path d=" M 53.752,39.343 L 55.875,36.666 L 61.574,40.368 L 60.714,41.692 L 59.273,43.722 L 53.752,39.343" fill="#A7A4A8" stroke="#130F26" stroke-width="0.103"/><path d=" M 57.008,41.925 L 59.273,43.722 L 57.795,45.806 L 56.485,47.364 L 54.329,45.302 L 57.008,41.925" fill="#A8A5A9" stroke="#130F26" stroke-width="0.103"/><path d=" M 52.908,50.164 L 50.394,52.701 L 48.381,49.956 L 50.689,47.965 L 52.908,50.164" fill="#939094" stroke="#130F26" stroke-width="0.103"/><path d=" M 54.548,45.511 L 56.485,47.364 L 54.557,49.658 L 53.487,50.738 L 51.409,48.679 L 54.548,45.511" fill="#979598" stroke="#130F26" stroke-width="0.103"/><path d=" M 49.372,44.527 L 46.348,47.184 L 43.271,42.989 L 44.784,42.026 L 46.113,40.817 L 49.372,44.527" fill="#A3A0A4" stroke="#130F26" stroke-width="0.103"/><path d=" M 46.113,40.817 L 47.922,39.172 L 51.534,42.628 L 49.372,44.527 L 46.113,40.817" fill="#878588" stroke="#130F26" stroke-width="0.103"/><path d=" M 0.301,44.205 L 0.301,44.805 L -0.14,41.659 L -0.14,41.059 L 0.301,44.205" fill="#130F26" stroke="#130F26" stroke-width="0.103"/><path d=" M 4.019,43.684 L 4.019,44.284 L 0.301,44.805 L 0.301,44.205 L 4.019,43.684" fill="#130F26" stroke="#130F26" stroke-width="0.103"/><path d=" M 2.795,33.528 L 2.795,34.128 L -2.145,35.275 L -2.331,33.948 L -2.331,33.348 L -2.145,34.675 L 2.795,33.528" fill="#130F26" stroke="#130F26" stroke-width="0.103"/><path d=" M 11.459,29.474 L 11.459,30.074 L 11.429,31.169 L 7.197,31.605 L 6.887,30.27 L 6.887,29.67 L 7.197,31.005 L 11.429,30.569 L 11.459,29.474" fill="#130F26" stroke="#130F26" stroke-width="0.103"/><path d=" M 15.683,32.909 L 15.683,33.509 L 11.344,34.315 L 11.344,33.715 L 15.683,32.909" fill="#130F26" stroke="#130F26" stroke-width="0.103"/><path d=" M 20.088,31.647 L 20.088,32.247 L 18.811,34.506 L 15.881,34.917 L 15.652,33.286 L 14.796,31.453 L 14.796,30.853 L 15.652,32.686 L 15.881,34.317 L 18.811,33.906 L 20.088,31.647" fill="#130F26" stroke="#130F26" stroke-width="0.103"/><path d=" M 20.13,40.342 L 20.13,40.942 L 16.791,41.41 L 16.299,37.902 L 16.299,37.302 L 16.791,40.81 L 20.13,40.342" fill="#130F26" stroke="#130F26" stroke-width="0.103"/><path d=" M 20.559,43.406 L 20.559,44.006 L 17.22,44.474 L 16.791,41.41 L 16.791,40.81 L 17.22,43.874 L 20.559,43.406" fill="#130F26" stroke="#130F26" stroke-width="0.103"/><path d=" M 23.638,25.889 L 23.638,26.489 L 21.657,29.995 L 19.592,28.828 L 19.592,28.228 L 21.657,29.395 L 23.638,25.889" fill="#130F26" stroke="#130F26" stroke-width="0.103"/><path d=" M 17.6,27.013 L 17.6,27.613 L 13.825,29.376 L 13.454,28.581 L 13.454,27.981 L 13.825,28.776 L 17.6,27.013" fill="#130F26" stroke="#130F26" stroke-width="0.103"/><path d=" M 14.965,25.48 L 14.965,26.08 L 14.611,24.762 L 14.611,24.162 L 14.965,25.48" fill="#130F26" stroke="#130F26" stroke-width="0.103"/><path d=" M 17.944,22.672 L 17.944,23.272 L 16.333,26.124 L 16.333,25.524 L 17.944,22.672" fill="#130F26" stroke="#130F26" stroke-width="0.103"/><path d=" M 17.931,26.427 L 17.931,27.027 L 17.6,27.613 L 17.6,27.013 L 17.931,26.427" fill="#130F26" stroke="#130F26" stroke-width="0.103"/><path d=" M 20.722,19.328 L 20.722,19.928 L 19.709,24.269 L 16.31,22.348 L 16.31,21.748 L 19.709,23.669 L 20.722,19.328" fill="#130F26" stroke="#130F26" stroke-width="0.103"/><path d=" M 23.523,25.824 L 23.523,26.424 L 19.709,24.269 L 19.709,23.669 L 23.523,25.824" fill="#130F26" stroke="#130F26" stroke-width="0.103"/><path d=" M 25.345,22.6 L 25.345,23.2 L 23.523,26.424 L 23.523,25.824 L 25.345,22.6" fill="#130F26" stroke="#130F26" stroke-width="0.103"/><path d=" M 27.227,19.539 L 27.227,20.139 L 25.469,23.249 L 20.411,21.26 L 20.411,20.66 L 25.469,22.649 L 27.227,19.539" fill="#130F26" stroke="#130F26" stroke-width="0.103"/><path d=" M 4.019,43.684 L 0.301,44.205 L -0.14,41.059 L 3.578,40.538 L 4.019,43.684" fill="#99969A" stroke="#130F26" stroke-width="0.103"/><path d=" M -2.145,34.675 L -2.331,33.348 L -0.735,32.561 L -0.128,31.185 L 2.082,30.456 L 2.795,33.528 L -2.145,34.675" fill="#9D9A9E" stroke="#130F26" stroke-width="0.103"/><path d=" M 9.378,28.918 L 11.459,29.474 L 11.429,30.569 L 7.197,31.005 L 6.887,29.67 L 9.338,28.862 L 9.378,28.918" fill="#AFACB1" stroke="#130F26" stroke-width="0.103"/><path d=" M 11.477,28.812 L 11.604,28.846 L 13.454,27.981 L 15.652,32.686 L 15.683,32.909 L 11.344,33.715 L 11.477,28.812" fill="#878488" stroke="#130F26" stroke-width="0.103"/><path d=" M 16.924,29.859 L 20.088,31.647 L 18.811,33.906 L 15.881,34.317 L 15.652,32.686 L 14.796,30.853 L 16.924,29.859" fill="#949195" stroke="#130F26" stroke-width="0.103"/><path d=" M 16.791,40.81 L 16.299,37.302 L 19.638,36.834 L 20.13,40.342 L 16.791,40.81" fill="#A5A1A6" stroke="#130F26" stroke-width="0.103"/><path d=" M 20.13,40.342 L 20.559,43.406 L 17.22,43.874 L 16.791,40.81 L 20.13,40.342" fill="#AAA7AB" stroke="#130F26" stroke-width="0.103"/><path d=" M 21.573,24.722 L 23.638,25.889 L 21.657,29.395 L 19.592,28.228 L 21.573,24.722" fill="#B1ADB2" stroke="#130F26" stroke-width="0.103"/><path d=" M 17.931,26.427 L 17.6,27.013 L 13.825,28.776 L 13.454,27.981 L 13.897,27.774 L 14.965,25.48 L 14.611,24.162 L 16.31,21.748 L 17.944,22.672 L 16.333,25.524 L 17.931,26.427" fill="#918E92" stroke="#130F26" stroke-width="0.103"/><path d=" M 19.709,23.669 L 16.31,21.748 L 17.846,19.568 L 18.232,19.787 L 20.722,19.328 L 19.709,23.669" fill="#959296" stroke="#130F26" stroke-width="0.103"/><path d=" M 25.345,22.6 L 23.523,25.824 L 19.709,23.669 L 20.411,20.66 L 25.345,22.6" fill="#918E92" stroke="#130F26" stroke-width="0.103"/><path d=" M 20.411,20.66 L 20.722,19.328 L 22.268,19.042 L 23.567,17.47 L 27.227,19.539 L 25.469,22.649 L 20.411,20.66" fill="#918E92" stroke="#130F26" stroke-width="0.103"/><path d=" M 46.275,31.029 L 50.944,34.063 L 48.158,37.641 L 44.34,41.113 L 43.724,41.505 L 42.053,38.88 L 41.772,37.961 L 46.275,31.029" fill="#130F26"/><path d=" M 28.024,27.684 L 28.024,28.284 L 25.589,32.593 L 22.541,30.871 L 22.541,30.271 L 25.589,31.993 L 28.024,27.684" fill="#130F26" stroke="#130F26" stroke-width="0.103"/><path d=" M 29.565,34.24 L 29.565,34.84 L 25.589,32.593 L 25.589,31.993 L 29.565,34.24" fill="#130F26" stroke="#130F26" stroke-width="0.103"/><path d=" M 30.639,32.34 L 30.639,32.94 L 29.565,34.84 L 29.565,34.24 L 30.639,32.34" fill="#130F26" stroke="#130F26" stroke-width="0.103"/><path d=" M 34.913,24.777 L 34.913,25.377 L 33.759,27.419 L 30.084,25.342 L 30.084,24.742 L 33.759,26.819 L 34.913,24.777" fill="#130F26" stroke="#130F26" stroke-width="0.103"/><path d=" M 31.621,22.022 L 31.621,22.622 L 30.047,25.407 L 26.698,23.515 L 26.698,22.915 L 30.047,24.807 L 31.621,22.022" fill="#130F26" stroke="#130F26" stroke-width="0.103"/><path d=" M 28.325,27.854 L 28.325,28.454 L 24.976,26.561 L 24.976,25.961 L 28.325,27.854" fill="#130F26" stroke="#130F26" stroke-width="0.103"/><path d=" M 30.047,24.807 L 30.047,25.407 L 28.325,28.454 L 28.325,27.854 L 30.047,24.807" fill="#130F26" stroke="#130F26" stroke-width="0.103"/><path d=" M 40.633,39.236 L 40.633,39.836 L 35.073,42.159 L 34.01,39.615 L 34.01,39.015 L 35.073,41.559 L 40.633,39.236" fill="#130F26" stroke="#130F26" stroke-width="0.103"/><path d=" M 39.307,42.75 L 39.307,43.35 L 39.275,43.371 L 36.148,44.678 L 35.192,42.391 L 35.192,41.791 L 36.148,44.078 L 39.275,42.771 L 39.307,42.75" fill="#130F26" stroke="#130F26" stroke-width="0.103"/><path d=" M 38.147,32.262 L 38.147,32.862 L 36.753,32.296 L 36.753,31.696 L 38.147,32.262" fill="#130F26" stroke="#130F26" stroke-width="0.103"/><path d=" M 39.373,27.337 L 39.373,27.937 L 38.147,32.862 L 38.147,32.262 L 39.373,27.337" fill="#130F26" stroke="#130F26" stroke-width="0.103"/><path d=" M 39.326,26.376 L 39.326,26.976 L 37.753,30.229 L 33.522,27.838 L 33.522,27.238 L 37.753,29.629 L 39.326,26.376" fill="#130F26" stroke="#130F26" stroke-width="0.103"/><path d=" M 39.724,37.269 L 39.724,37.869 L 35.671,39.108 L 34.617,35.658 L 34.617,35.058 L 35.671,38.508 L 39.724,37.269" fill="#130F26" stroke="#130F26" stroke-width="0.103"/><path d=" M 38.96,32.593 L 38.96,33.193 L 38.8,33.838 L 38.8,33.238 L 38.96,32.593" fill="#130F26" stroke="#130F26" stroke-width="0.103"/><path d=" M 38.951,33.733 L 38.951,34.333 L 34.617,35.658 L 34.311,34.658 L 34.311,34.058 L 34.617,35.058 L 38.951,33.733" fill="#130F26" stroke="#130F26" stroke-width="0.103"/><path d=" M 34.496,38.867 L 34.496,39.467 L 32.828,35.476 L 30.083,33.925 L 30.083,33.325 L 32.828,34.876 L 34.496,38.867" fill="#130F26" stroke="#130F26" stroke-width="0.103"/><path d=" M 34.51,33.569 L 34.51,34.169 L 34.311,34.658 L 34.311,34.058 L 34.51,33.569" fill="#130F26" stroke="#130F26" stroke-width="0.103"/><path d=" M 35.671,38.508 L 35.671,39.108 L 34.496,39.467 L 34.496,38.867 L 35.671,38.508" fill="#130F26" stroke="#130F26" stroke-width="0.103"/><path d=" M 25.589,31.993 L 22.541,30.271 L 24.976,25.961 L 28.024,27.684 L 25.589,31.993" fill="#A8A4A9" stroke="#130F26" stroke-width="0.103"/><path d=" M 30.639,32.34 L 29.565,34.24 L 25.589,31.993 L 26.662,30.093 L 30.639,32.34" fill="#979498" stroke="#130F26" stroke-width="0.103"/><path d=" M 31.238,22.7 L 34.913,24.777 L 33.759,26.819 L 30.084,24.742 L 31.238,22.7" fill="#A5A2A6" stroke="#130F26" stroke-width="0.103"/><path d=" M 26.698,22.915 L 28.272,20.129 L 31.621,22.022 L 30.047,24.807 L 26.698,22.915" fill="#949195" stroke="#130F26" stroke-width="0.103"/><path d=" M 30.047,24.807 L 28.325,27.854 L 24.976,25.961 L 26.698,22.915 L 30.047,24.807" fill="#A4A1A5" stroke="#130F26" stroke-width="0.103"/><path d=" M 34.01,39.015 L 39.889,37.218 L 40.37,38.79 L 40.613,39.173 L 40.633,39.236 L 35.073,41.559 L 34.01,39.015" fill="#A29EA3" stroke="#130F26" stroke-width="0.103"/><path d=" M 36.148,44.078 L 35.192,41.791 L 37.96,40.635 L 39.307,42.75 L 39.275,42.771 L 36.148,44.078" fill="#9B989C" stroke="#130F26" stroke-width="0.103"/><path d=" M 39.373,27.337 L 38.147,32.262 L 36.753,31.696 L 38.971,27.109 L 39.373,27.337" fill="#A19EA2" stroke="#130F26" stroke-width="0.103"/><path d=" M 33.522,27.238 L 35.296,24.099 L 39.326,26.376 L 37.753,29.629 L 33.522,27.238" fill="#918E92" stroke="#130F26" stroke-width="0.103"/><path d=" M 38.669,33.819 L 39.724,37.269 L 35.671,38.508 L 34.617,35.058 L 38.669,33.819" fill="#A6A2A7" stroke="#130F26" stroke-width="0.103"/><path d=" M 34.617,35.058 L 34.311,34.058 L 35.481,31.179 L 38.96,32.593 L 38.8,33.238 L 38.951,33.733 L 34.617,35.058" fill="#A29EA3" stroke="#130F26" stroke-width="0.103"/><path d=" M 35.671,38.508 L 34.496,38.867 L 32.828,34.876 L 30.083,33.325 L 30.923,31.837 L 34.51,33.569 L 34.311,34.058 L 35.671,38.508" fill="#A8A5A9" stroke="#130F26" stroke-width="0.103"/><path d=" M 27.778,34.609 L 27.778,35.209 L 27.742,35.699 L 20.635,35.897 L 20.449,34.572 L 20.449,33.972 L 20.635,35.297 L 27.742,35.099 L 27.778,34.609" fill="#130F26" stroke="#130F26" stroke-width="0.103"/><path d=" M 25.473,38.417 L 25.473,39.017 L 21.157,39.622 L 20.635,35.897 L 20.635,35.297 L 21.157,39.022 L 25.473,38.417" fill="#130F26" stroke="#130F26" stroke-width="0.103"/><path d=" M 31.572,38.35 L 31.572,38.95 L 27.433,39.98 L 27.433,39.38 L 31.572,38.35" fill="#130F26" stroke="#130F26" stroke-width="0.103"/><path d=" M 26.818,43.701 L 26.818,44.301 L 22.506,45.138 L 21.974,41.339 L 21.974,40.739 L 22.506,44.538 L 26.818,43.701" fill="#130F26" stroke="#130F26" stroke-width="0.103"/><path d=" M 32.66,41.261 L 32.66,41.861 L 30.366,42.596 L 29.642,39.43 L 29.642,38.83 L 30.366,41.996 L 32.66,41.261" fill="#130F26" stroke="#130F26" stroke-width="0.103"/><path d=" M 31.31,46.123 L 31.31,46.723 L 30.366,42.596 L 30.366,41.996 L 31.31,46.123" fill="#130F26" stroke="#130F26" stroke-width="0.103"/><path d=" M 34.794,45.227 L 34.794,45.827 L 34.267,46.047 L 31.31,46.723 L 31.31,46.123 L 34.267,45.447 L 34.794,45.227" fill="#130F26" stroke="#130F26" stroke-width="0.103"/><path d=" M 20.635,35.297 L 20.449,33.972 L 21.95,31.316 L 27.778,34.609 L 27.742,35.099 L 20.635,35.297" fill="#9D9A9E" stroke="#130F26" stroke-width="0.103"/><path d=" M 21.157,39.022 L 20.635,35.297 L 25.026,35.175 L 25.473,38.417 L 21.157,39.022" fill="#ABA8AD" stroke="#130F26" stroke-width="0.103"/><path d=" M 31.242,37.56 L 31.572,38.35 L 27.433,39.38 L 27.709,35.563 L 31.242,37.56" fill="#A6A3A7" stroke="#130F26" stroke-width="0.103"/><path d=" M 22.506,44.538 L 21.974,40.739 L 26.046,39.725 L 26.818,43.701 L 22.506,44.538" fill="#8E8C8F" stroke="#130F26" stroke-width="0.103"/><path d=" M 29.642,38.83 L 31.455,38.379 L 32.66,41.261 L 30.366,41.996 L 29.642,38.83" fill="#979498" stroke="#130F26" stroke-width="0.103"/><path d=" M 34.267,45.447 L 31.31,46.123 L 30.366,41.996 L 33.081,41.127 L 34.794,45.227 L 34.267,45.447" fill="#8C898D" stroke="#130F26" stroke-width="0.103"/></g><g><path d=" M 0,0"/></g><g><path d=" M 0,0"/></g><g><path d=" M 0,0"/></g><g><path d=" M 0,0"/><path d=" M -55.529,-37.289 L -61.05,-22.856 M -54.084,-37.433 L -60.065,-21.799 M -52.872,-36.969 L -58.847,-21.35 M -51.66,-36.505 L -57.629,-20.901 M -50.447,-36.042 L -56.411,-20.451 M -49.235,-35.578 L -55.194,-20.002 M -48.023,-35.114 L -53.976,-19.553 M -46.811,-34.651 L -52.758,-19.104 M -45.598,-34.187 L -51.54,-18.655 M -44.386,-33.723 L -50.322,-18.205 M -43.174,-33.259 L -49.105,-17.756 M -41.962,-32.796 L -47.887,-17.307 M -40.749,-32.332 L -46.669,-16.858 M -39.537,-31.868 L -45.451,-16.409 M -38.325,-31.404 L -44.233,-15.96 M -37.113,-30.941 L -43.015,-15.51 M -35.9,-30.477 L -41.798,-15.061 M -34.688,-30.013 L -40.58,-14.612 M -33.476,-29.549 L -39.362,-14.163 M -32.264,-29.086 L -37.889,-14.38 M -31.305,-27.959 L -33.727,-21.627 M -32.775,-31.422 L -32.261,-32.765 M -33.986,-31.886 L -33.13,-34.123 M -35.198,-32.349 L -34,-35.481 M -36.409,-32.813 L -34.869,-36.839 M -37.621,-33.276 L -35.738,-38.197 M -38.832,-33.74 L -36.608,-39.555 M -40.044,-34.203 L -37.477,-40.913 M -41.255,-34.667 L -38.346,-42.272 M -42.467,-35.13 L -39.215,-43.63 M -43.678,-35.594 L -40.085,-44.988 M -44.89,-36.057 L -40.954,-46.346 M -46.101,-36.521 L -41.823,-47.704 M -47.313,-36.984 L -42.692,-49.062 M -48.525,-37.448 L -43.562,-50.421 M -49.736,-37.911 L -44.431,-51.779 M -50.948,-38.374 L -45.3,-53.137 M -52.159,-38.838 L -46.17,-54.495 M -53.371,-39.301 L -47.039,-55.853 M -54.349,-40.373 L -48.085,-56.75 M -31.659,-28.855 L -31.013,-27.221 L -37.087,-14.703 L -38.875,-13.983 L -60.672,-22.023 L -61.427,-23.687 L -56.367,-36.914 L -54.688,-37.664 L -31.659,-28.855 M -53.974,-39.532 L -54.724,-41.211 L -48.807,-56.676 L -47.642,-56.796 L -31.658,-31.822 L -32.171,-31.192 L -53.974,-39.532" stroke="#A5A2A2" stroke-width="0.103" stroke-linejoin="round" stroke-linecap="butt"/></g><g><path d=" M 0,0"/><path d=" M -29.105,-71.982 L -31.294,-74.443 M -24.537,-65.02 L -32.693,-74.191 M -20.664,-58.84 L -33.562,-73.342 M -20.875,-57.251 L -34.431,-72.494 M -21.724,-56.38 L -35.301,-71.646 M -22.63,-55.574 L -36.17,-70.798 M -23.537,-54.768 L -37.039,-69.95 M -24.904,-54.48 L -37.448,-68.584 M -39.883,-66.343 L -46.392,-60.554 M -38.521,-65.869 L -46.521,-58.754 M -37.685,-64.928 L -45.834,-57.681 M -36.848,-63.988 L -45.147,-56.607 M -36.012,-63.047 L -44.46,-55.534 M -35.175,-62.106 L -43.773,-54.46 M -34.339,-61.166 L -43.086,-53.387 M -33.502,-60.225 L -42.398,-52.313 M -32.665,-59.284 L -41.711,-51.239 M -31.829,-58.344 L -41.024,-50.166 M -30.992,-57.403 L -40.337,-49.092 M -30.156,-56.462 L -39.65,-48.019 M -29.319,-55.522 L -38.963,-46.945 M -28.483,-54.581 L -38.276,-45.872 M -27.646,-53.64 L -37.589,-44.798 M -27.311,-52.254 L -36.406,-44.165 M -12.272,-46.326 L -18.883,-55.311 M -11.688,-43.374 L -20.252,-55.012 M -12.804,-42.731 L -21.213,-54.158 M -14.01,-42.21 L -22.173,-53.304 M -15.216,-41.69 L -23.134,-52.45 M -16.422,-41.169 L -24.094,-51.596 M -17.532,-40.519 L -25.055,-50.741 M -18.601,-39.812 L -26.015,-49.887 M -19.576,-38.977 L -26.976,-49.033 M -20.511,-38.088 L -27.936,-48.179 M -21.446,-37.199 L -28.897,-47.325 M -22.38,-36.309 L -29.857,-46.47 M -23.315,-35.42 L -30.818,-45.616 M -24.25,-34.53 L -31.778,-44.762 M -25.184,-33.641 L -32.739,-43.908 M -26.119,-32.752 L -33.699,-43.054 M -27.053,-31.862 L -34.538,-42.034 M -28.399,-31.532 L -33.763,-38.822 M -37.479,-67.707 L -37.413,-69.586 L -32.319,-74.555 L -30.676,-74.376 L -20.634,-59.071 L -20.892,-57.12 L -23.925,-54.422 L -25.761,-54.53 L -37.479,-67.707 M -27.255,-53.201 L -27.363,-51.365 L -35.587,-44.052 L -37.259,-44.283 L -46.587,-58.857 L -46.357,-60.859 L -40.707,-66.372 L -38.912,-66.308 L -27.255,-53.201 M -19.783,-55.43 L -18.098,-55.207 L -11.264,-44.79 L -11.744,-43.188 L -16.786,-41.012 L -18.922,-39.6 L -27.514,-31.424 L -29.156,-31.623 L -34.765,-40.387 L -34.495,-42.346 L -19.783,-55.43" stroke="#A5A2A2" stroke-width="0.103" stroke-linejoin="round" stroke-linecap="butt"/><path d=" M -36.053,-63.453 L -36.053,-63.093 L -38.045,-61.321 L -40.904,-64.537 L -40.904,-64.897 L -38.045,-61.681 L -36.053,-63.453" fill="#130F26" stroke="#130F26" stroke-width="0.103"/><path d=" M -40.904,-64.897 L -38.912,-66.668 L -36.053,-63.453 L -38.045,-61.681 L -40.904,-64.897" fill="#9A979B" stroke="#130F26" stroke-width="0.103"/></g><g><path d=" M 0,0"/><path d=" M 9.89,-58.796 L 9.89,-58.196 L 9.424,-53.047 L 4.552,-53.489 L 4.552,-54.089 L 9.424,-53.647 L 9.89,-58.796" fill="#130F26" stroke="#130F26" stroke-width="0.103"/><path d=" M 12.549,-49.81 L 12.549,-49.21 L 12.153,-46.354 L 10.311,-46.75 L 9.503,-46.323 L 8.945,-49.536 L 8.945,-50.136 L 9.503,-46.923 L 10.311,-47.35 L 12.153,-46.954 L 12.549,-49.81" fill="#130F26" stroke="#130F26" stroke-width="0.103"/><path d=" M 6.518,-45.028 L 6.518,-44.428 L 3.774,-44.906 L 3.774,-45.506 L 6.518,-45.028" fill="#130F26" stroke="#130F26" stroke-width="0.103"/><path d=" M 9.485,-47.024 L 9.485,-46.424 L 7.427,-45.336 L 7.369,-45.195 L 6.683,-44.832 L 6.518,-44.428 L 6.518,-45.028 L 6.683,-45.432 L 7.369,-45.795 L 7.427,-45.936 L 9.485,-47.024" fill="#130F26" stroke="#130F26" stroke-width="0.103"/><path d=" M 0.01,-52.269 L 0.01,-51.669 L -1.978,-51.604 L -2.859,-57.097 L -2.859,-57.697 L -1.978,-52.204 L 0.01,-52.269" fill="#130F26" stroke="#130F26" stroke-width="0.103"/><path d=" M 4.977,-58.784 L 4.977,-58.184 L 4.4,-51.811 L 0.01,-51.669 L -0.189,-57.826 L -0.189,-58.426 L 0.01,-52.269 L 4.4,-52.411 L 4.977,-58.784" fill="#130F26" stroke="#130F26" stroke-width="0.103"/><path d=" M 26.649,-48.183 L 26.649,-47.583 L 25.322,-42.922 L 18.575,-44.637 L 18.575,-45.237 L 25.322,-43.522 L 26.649,-48.183" fill="#130F26" stroke="#130F26" stroke-width="0.103"/><path d=" M 9.424,-53.647 L 4.552,-54.089 L 4.977,-58.784 L 8.45,-58.881 L 9.89,-58.796 L 9.424,-53.647" fill="#8F8D90" stroke="#130F26" stroke-width="0.103"/><path d=" M 8.945,-50.136 L 12.549,-49.81 L 12.153,-46.954 L 10.311,-47.35 L 9.503,-46.923 L 8.945,-50.136" fill="#A09DA1" stroke="#130F26" stroke-width="0.103"/><path d=" M 6.683,-45.432 L 6.518,-45.028 L 3.774,-45.506 L 4.232,-50.563 L 8.945,-50.136 L 9.485,-47.024 L 7.427,-45.936 L 7.369,-45.795 L 6.683,-45.432" fill="#99969A" stroke="#130F26" stroke-width="0.103"/><path d=" M -2.859,-57.697 L -0.176,-58.008 L 0.01,-52.269 L -1.978,-52.204 L -2.859,-57.697" fill="#928F92" stroke="#130F26" stroke-width="0.103"/><path d=" M -0.189,-58.426 L 2.237,-58.707 L 4.977,-58.784 L 4.4,-52.411 L 0.01,-52.269 L -0.189,-58.426" fill="#9F9CA0" stroke="#130F26" stroke-width="0.103"/><path d=" M 18.575,-45.237 L 19.672,-49.551 L 26.649,-48.183 L 25.322,-43.522 L 18.575,-45.237" fill="#8E8C8F" stroke="#130F26" stroke-width="0.103"/><path d=" M 2.538,-60.289 L 2.538,-59.689 L -0.368,-59.352 L -1.132,-64.116 L -1.132,-64.716 L -0.368,-59.952 L 2.538,-60.289" fill="#130F26" stroke="#130F26" stroke-width="0.103"/><path d=" M -0.374,-59.993 L -0.374,-59.393 L -3.332,-59.051 L -4.069,-63.645 L -4.069,-64.245 L -3.332,-59.651 L -0.374,-59.993" fill="#130F26" stroke="#130F26" stroke-width="0.103"/><path d=" M 2.521,-60.466 L 2.521,-59.866 L 2.211,-63.152 L 2.211,-63.752 L 2.521,-60.466" fill="#130F26" stroke="#130F26" stroke-width="0.103"/><path d=" M 9.069,-63.876 L 9.069,-63.276 L 8.878,-60.042 L 8.84,-60.044 L 2.522,-59.866 L 2.521,-59.866 L 2.521,-60.466 L 2.522,-60.466 L 8.84,-60.644 L 8.878,-60.642 L 9.069,-63.876" fill="#130F26" stroke="#130F26" stroke-width="0.103"/><path d=" M 15.802,-59.557 L 15.802,-58.957 L 14.778,-59.108 L 8.843,-59.46 L 8.843,-60.06 L 14.778,-59.708 L 15.802,-59.557" fill="#130F26" stroke="#130F26" stroke-width="0.103"/><path d=" M 16.716,-65.75 L 16.716,-65.15 L 15.802,-58.957 L 15.802,-59.557 L 16.716,-65.75" fill="#130F26" stroke="#130F26" stroke-width="0.103"/><path d=" M 18.735,-64.375 L 18.735,-63.775 L 18.038,-59.053 L 15.864,-59.374 L 15.864,-59.974 L 18.038,-59.653 L 18.735,-64.375" fill="#130F26" stroke="#130F26" stroke-width="0.103"/><path d=" M 22.567,-63.81 L 22.567,-63.21 L 21.352,-58.109 L 21.031,-58.185 L 17.977,-58.636 L 17.977,-59.236 L 21.031,-58.785 L 21.352,-58.709 L 22.567,-63.81" fill="#130F26" stroke="#130F26" stroke-width="0.103"/><path d=" M 2.071,-65.23 L 2.538,-60.289 L -0.368,-59.952 L -1.132,-64.716 L 2.071,-65.23" fill="#8C898D" stroke="#130F26" stroke-width="0.103"/><path d=" M -3.332,-59.651 L -4.069,-64.245 L -1.132,-64.716 L -0.374,-59.993 L -3.332,-59.651" fill="#A09DA1" stroke="#130F26" stroke-width="0.103"/><path d=" M 2.522,-60.466 L 2.521,-60.466 L 2.211,-63.752 L 9.069,-63.876 L 8.878,-60.642 L 8.84,-60.644 L 2.522,-60.466" fill="#A4A1A5" stroke="#130F26" stroke-width="0.103"/><path d=" M 16.716,-65.75 L 15.802,-59.557 L 14.778,-59.708 L 8.843,-60.06 L 9.246,-66.853 L 16.716,-65.75" fill="#9F9CA0" stroke="#130F26" stroke-width="0.103"/><path d=" M 18.038,-59.653 L 15.864,-59.974 L 16.56,-64.696 L 18.735,-64.375 L 18.038,-59.653" fill="#858286" stroke="#130F26" stroke-width="0.103"/><path d=" M 18.735,-64.375 L 22.567,-63.81 L 21.352,-58.709 L 21.031,-58.785 L 17.977,-59.236 L 18.735,-64.375" fill="#959296" stroke="#130F26" stroke-width="0.103"/></g><g><path d=" M 0,0"/></g><g><path d=" M 0,0"/></g><g><path d=" M 0,0"/></g><g><path d=" M 0,0"/><path d=" M -72.664,-36.113 L -60.537,-33.412 M -73.026,-37.511 L -59.438,-34.485 M -72.746,-38.766 L -58.974,-35.699 M -72.467,-40.021 L -58.509,-36.912 M -72.187,-41.276 L -58.045,-38.126 M -71.907,-42.531 L -57.581,-39.34 M -71.628,-43.786 L -57.116,-40.554 M -71.348,-45.041 L -56.652,-41.768 M -71.069,-46.296 L -56.188,-42.981 M -70.789,-47.551 L -55.723,-44.195 M -70.51,-48.806 L -55.259,-45.409 M -70.23,-50.061 L -54.795,-46.623 M -69.951,-51.316 L -54.33,-47.837 M -69.671,-52.571 L -53.866,-49.05 M -69.392,-53.826 L -53.402,-50.264 M -69.112,-55.081 L -52.937,-51.478 M -68.833,-56.336 L -52.473,-52.692 M -68.553,-57.59 L -52.009,-53.906 M -68.274,-58.845 L -51.544,-55.119 M -67.994,-60.1 L -51.08,-56.333 M -67.715,-61.355 L -50.616,-57.547 M -66.694,-62.445 L -50.789,-58.903 M -67.601,-61.864 L -66.048,-62.858 L -51.19,-59.643 L -50.384,-58.153 L -59.67,-33.878 L -61.403,-32.947 L -72.176,-35.346 L -73.162,-36.898 L -67.601,-61.864" stroke="#A5A2A2" stroke-width="0.103" stroke-linejoin="round" stroke-linecap="butt"/></g><g><path d=" M 0,0"/><path d=" M -53.967,-62.29 L -52.999,-66.763 M -55.195,-62.556 L -53.582,-70.01 M -56.423,-62.821 L -54.164,-73.258 M -57.651,-63.087 L -54.747,-76.506 M -58.878,-63.353 L -55.329,-79.753 M -60.106,-63.619 L -56.23,-81.529 M -61.334,-63.884 L -57.325,-82.409 M -62.562,-64.15 L -58.553,-82.675 M -63.79,-64.416 L -59.781,-82.94 M -65.017,-64.681 L -61.009,-83.206 M -66.245,-64.947 L -62.236,-83.472 M -67.473,-65.213 L -63.464,-83.737 M -68.701,-65.479 L -64.692,-84.003 M -69.929,-65.744 L -65.92,-84.269 M -71.157,-66.01 L -67.148,-84.535 M -72.242,-66.932 L -68.518,-84.144 M -69.264,-83.663 L -67.719,-84.658 L -57.015,-82.342 L -55.515,-80.787 L -52.355,-63.171 L -53.396,-62.166 L -71.728,-66.134 L -72.723,-67.679 L -69.264,-83.663" stroke="#A5A2A2" stroke-width="0.103" stroke-linejoin="round" stroke-linecap="butt"/></g><g><path d=" M 0,0"/></g><g><path d=" M 0,0"/></g><g><path d=" M 0,0"/><path d=" M -35.956,5.457 L -34.511,-11.308 M -34.511,-11.308 L -27.107,-26.566 M -27.107,-26.566 L -15.852,-37.276 M -15.852,-37.276 L -2.26,-43.143 M -2.26,-43.143 L 8.276,-41.305 M 13.899,-39.937 L 24.175,-36.705 M 24.175,-36.705 L 30.708,-25.194 M 30.708,-25.194 L 31.212,-10.594 M 31.212,-10.594 L 27.177,3.18 M 27.177,3.18 L 20.897,12.099 M 17.558,16.841 L 11.279,25.76 M 11.279,25.76 L -3.406,30.602 M -3.406,30.602 L -18.976,28.466 M -18.976,28.466 L -30.628,19.591 M -30.628,19.591 L -35.956,5.457" stroke="#130F26" stroke-width="1.9"/><path d=" M 5.14,-8.323 L -5.102,-9.404 M -5.102,-9.404 L -8.314,-21.361 M -8.314,-21.361 L 11.193,-32.275 M 11.193,-32.275 L 19.953,-9.134 M 19.953,-9.134 L 10.911,-8.289" stroke="#130F26" stroke-width="1.9"/><g transform="translate(-35.956 5.457)"><path d=" M 0,0"/><path d=" M 1.9,0 Q 1.9,0.787 1.344,1.344 Q 0.787,1.9 0,1.9 L 0,1.9 Q -0.787,1.9 -1.344,1.344 Q -1.9,0.787 -1.9,0 L -1.9,0 Q -1.9,-0.787 -1.344,-1.344 Q -0.787,-1.9 0,-1.9 L 0,-1.9 Q 0.787,-1.9 1.344,-1.344 Q 1.9,-0.787 1.9,0 L 1.9,0" fill="#130F26"/></g><g transform="translate(-34.511 -11.308)"><path d=" M 0,0"/><path d=" M 1.9,0 Q 1.9,0.787 1.344,1.344 Q 0.787,1.9 0,1.9 L 0,1.9 Q -0.787,1.9 -1.344,1.344 Q -1.9,0.787 -1.9,0 L -1.9,0 Q -1.9,-0.787 -1.344,-1.344 Q -0.787,-1.9 0,-1.9 L 0,-1.9 Q 0.787,-1.9 1.344,-1.344 Q 1.9,-0.787 1.9,0 L 1.9,0" fill="#130F26"/></g><g transform="translate(-27.107 -26.566)"><path d=" M 0,0"/><path d=" M 1.9,0 Q 1.9,0.787 1.344,1.344 Q 0.787,1.9 0,1.9 L 0,1.9 Q -0.787,1.9 -1.344,1.344 Q -1.9,0.787 -1.9,0 L -1.9,0 Q -1.9,-0.787 -1.344,-1.344 Q -0.787,-1.9 0,-1.9 L 0,-1.9 Q 0.787,-1.9 1.344,-1.344 Q 1.9,-0.787 1.9,0 L 1.9,0" fill="#130F26"/></g><g transform="translate(-15.852 -37.276)"><path d=" M 0,0"/><path d=" M 1.9,0 Q 1.9,0.787 1.344,1.344 Q 0.787,1.9 0,1.9 L 0,1.9 Q -0.787,1.9 -1.344,1.344 Q -1.9,0.787 -1.9,0 L -1.9,0 Q -1.9,-0.787 -1.344,-1.344 Q -0.787,-1.9 0,-1.9 L 0,-1.9 Q 0.787,-1.9 1.344,-1.344 Q 1.9,-0.787 1.9,0 L 1.9,0" fill="#130F26"/></g><g transform="translate(-2.26 -43.143)"><path d=" M 0,0"/><path d=" M 1.9,0 Q 1.9,0.787 1.344,1.344 Q 0.787,1.9 0,1.9 L 0,1.9 Q -0.787,1.9 -1.344,1.344 Q -1.9,0.787 -1.9,0 L -1.9,0 Q -1.9,-0.787 -1.344,-1.344 Q -0.787,-1.9 0,-1.9 L 0,-1.9 Q 0.787,-1.9 1.344,-1.344 Q 1.9,-0.787 1.9,0 L 1.9,0" fill="#130F26"/></g><g transform="translate(24.175 -36.705)"><path d=" M 0,0"/><path d=" M 1.9,0 Q 1.9,0.787 1.344,1.344 Q 0.787,1.9 0,1.9 L 0,1.9 Q -0.787,1.9 -1.344,1.344 Q -1.9,0.787 -1.9,0 L -1.9,0 Q -1.9,-0.787 -1.344,-1.344 Q -0.787,-1.9 0,-1.9 L 0,-1.9 Q 0.787,-1.9 1.344,-1.344 Q 1.9,-0.787 1.9,0 L 1.9,0" fill="#130F26"/></g><g transform="translate(30.708 -25.194)"><path d=" M 0,0"/><path d=" M 1.9,0 Q 1.9,0.787 1.344,1.344 Q 0.787,1.9 0,1.9 L 0,1.9 Q -0.787,1.9 -1.344,1.344 Q -1.9,0.787 -1.9,0 L -1.9,0 Q -1.9,-0.787 -1.344,-1.344 Q -0.787,-1.9 0,-1.9 L 0,-1.9 Q 0.787,-1.9 1.344,-1.344 Q 1.9,-0.787 1.9,0 L 1.9,0" fill="#130F26"/></g><g transform="translate(31.212 -10.594)"><path d=" M 0,0"/><path d=" M 1.9,0 Q 1.9,0.787 1.344,1.344 Q 0.787,1.9 0,1.9 L 0,1.9 Q -0.787,1.9 -1.344,1.344 Q -1.9,0.787 -1.9,0 L -1.9,0 Q -1.9,-0.787 -1.344,-1.344 Q -0.787,-1.9 0,-1.9 L 0,-1.9 Q 0.787,-1.9 1.344,-1.344 Q 1.9,-0.787 1.9,0 L 1.9,0" fill="#130F26"/></g><g transform="translate(27.177 3.18)"><path d=" M 0,0"/><path d=" M 1.9,0 Q 1.9,0.787 1.344,1.344 Q 0.787,1.9 0,1.9 L 0,1.9 Q -0.787,1.9 -1.344,1.344 Q -1.9,0.787 -1.9,0 L -1.9,0 Q -1.9,-0.787 -1.344,-1.344 Q -0.787,-1.9 0,-1.9 L 0,-1.9 Q 0.787,-1.9 1.344,-1.344 Q 1.9,-0.787 1.9,0 L 1.9,0" fill="#130F26"/></g><g transform="translate(11.279 25.76)"><path d=" M 0,0"/><path d=" M 1.9,0 Q 1.9,0.787 1.344,1.344 Q 0.787,1.9 0,1.9 L 0,1.9 Q -0.787,1.9 -1.344,1.344 Q -1.9,0.787 -1.9,0 L -1.9,0 Q -1.9,-0.787 -1.344,-1.344 Q -0.787,-1.9 0,-1.9 L 0,-1.9 Q 0.787,-1.9 1.344,-1.344 Q 1.9,-0.787 1.9,0 L 1.9,0" fill="#130F26"/></g><g transform="translate(-3.406 30.602)"><path d=" M 0,0"/><path d=" M 1.9,0 Q 1.9,0.787 1.344,1.344 Q 0.787,1.9 0,1.9 L 0,1.9 Q -0.787,1.9 -1.344,1.344 Q -1.9,0.787 -1.9,0 L -1.9,0 Q -1.9,-0.787 -1.344,-1.344 Q -0.787,-1.9 0,-1.9 L 0,-1.9 Q 0.787,-1.9 1.344,-1.344 Q 1.9,-0.787 1.9,0 L 1.9,0" fill="#130F26"/></g><g transform="translate(-18.976 28.466)"><path d=" M 0,0"/><path d=" M 1.9,0 Q 1.9,0.787 1.344,1.344 Q 0.787,1.9 0,1.9 L 0,1.9 Q -0.787,1.9 -1.344,1.344 Q -1.9,0.787 -1.9,0 L -1.9,0 Q -1.9,-0.787 -1.344,-1.344 Q -0.787,-1.9 0,-1.9 L 0,-1.9 Q 0.787,-1.9 1.344,-1.344 Q 1.9,-0.787 1.9,0 L 1.9,0" fill="#130F26"/></g><g transform="translate(-30.628 19.591)"><path d=" M 0,0"/><path d=" M 1.9,0 Q 1.9,0.787 1.344,1.344 Q 0.787,1.9 0,1.9 L 0,1.9 Q -0.787,1.9 -1.344,1.344 Q -1.9,0.787 -1.9,0 L -1.9,0 Q -1.9,-0.787 -1.344,-1.344 Q -0.787,-1.9 0,-1.9 L 0,-1.9 Q 0.787,-1.9 1.344,-1.344 Q 1.9,-0.787 1.9,0 L 1.9,0" fill="#130F26"/></g><g transform="translate(19.228 14.47) rotate(125.149 0 0)"><path d=" M 0,0"/><path d=" M -1,-1.9 L -4.8,-1.9 L -4.8,1.9 L -1,1.9 L -1,-1.9 M 1,-1.9 L 4.8,-1.9 L 4.8,1.9 L 1,1.9 L 1,-1.9" fill="#130F26"/></g><g transform="translate(11.117 -40.743) rotate(13.675 0 0)"><path d=" M 0,0"/><path d=" M -0.998,-1.9 L -4.798,-1.9 L -4.798,1.9 L -0.998,1.9 L -0.998,-1.9 M 0.998,-1.9 L 4.798,-1.9 L 4.798,1.9 L 0.998,1.9 L 0.998,-1.9" fill="#130F26"/></g><g transform="translate(-5.102 -9.404)"><path d=" M 0,0"/><path d=" M 2.5,0 Q 2.5,1.036 1.768,1.768 Q 1.036,2.5 0,2.5 L 0,2.5 Q -1.036,2.5 -1.768,1.768 Q -2.5,1.036 -2.5,0 L -2.5,0 Q -2.5,-1.036 -1.768,-1.768 Q -1.036,-2.5 0,-2.5 L 0,-2.5 Q 1.036,-2.5 1.768,-1.768 Q 2.5,-1.036 2.5,0 L 2.5,0" fill="#130F26"/></g><g transform="translate(-8.314 -21.361)"><path d=" M 0,0"/><path d=" M 2.5,0 Q 2.5,1.036 1.768,1.768 Q 1.036,2.5 0,2.5 L 0,2.5 Q -1.036,2.5 -1.768,1.768 Q -2.5,1.036 -2.5,0 L -2.5,0 Q -2.5,-1.036 -1.768,-1.768 Q -1.036,-2.5 0,-2.5 L 0,-2.5 Q 1.036,-2.5 1.768,-1.768 Q 2.5,-1.036 2.5,0 L 2.5,0" fill="#130F26"/></g><g transform="translate(11.193 -32.275)"><path d=" M 0,0"/><path d=" M 2.5,0 Q 2.5,1.036 1.768,1.768 Q 1.036,2.5 0,2.5 L 0,2.5 Q -1.036,2.5 -1.768,1.768 Q -2.5,1.036 -2.5,0 L -2.5,0 Q -2.5,-1.036 -1.768,-1.768 Q -1.036,-2.5 0,-2.5 L 0,-2.5 Q 1.036,-2.5 1.768,-1.768 Q 2.5,-1.036 2.5,0 L 2.5,0" fill="#130F26"/></g><g transform="translate(19.953 -9.134)"><path d=" M 0,0"/><path d=" M 2.5,0 Q 2.5,1.036 1.768,1.768 Q 1.036,2.5 0,2.5 L 0,2.5 Q -1.036,2.5 -1.768,1.768 Q -2.5,1.036 -2.5,0 L -2.5,0 Q -2.5,-1.036 -1.768,-1.768 Q -1.036,-2.5 0,-2.5 L 0,-2.5 Q 1.036,-2.5 1.768,-1.768 Q 2.5,-1.036 2.5,0 L 2.5,0" fill="#130F26"/></g><g transform="translate(8.024 -8.118) rotate(-179.658 0 0)"><path d=" M 0,0"/><path d=" M -0.995,-1.9 L -4.795,-1.9 L -4.795,1.9 L -0.995,1.9 L -0.995,-1.9 M 0.995,-1.9 L 4.795,-1.9 L 4.795,1.9 L 0.995,1.9 L 0.995,-1.9" fill="#130F26"/></g></g></g><g><path d=" M 0,0"/><path d=" M 18.5,0 L 18.5,1200 M 147.859,0 L 147.859,1200 M 277.219,0 L 277.219,1200 M 406.579,0 L 406.579,1200 M 535.939,0 L 535.939,1200 M 665.298,0 L 665.298,1200 M 794.658,0 L 794.658,1200 M 924.018,0 L 924.018,1200 M 0,40.373 L 1046.765,40.373 M 0,169.733 L 1046.765,169.733 M 0,299.093 L 1046.765,299.093 M 0,428.452 L 1046.765,428.452 M 0,557.812 L 1046.765,557.812 M 0,687.172 L 1046.765,687.172 M 0,816.532 L 1046.765,816.532 M 0,945.891 L 1046.765,945.891 M 0,1075.251 L 1046.765,1075.251" stroke="#130F26" stroke-width="0.267"/></g><g><path d=" M 0,0"/></g><g><path d=" M 0,0"/><g transform="translate(956.765 1110)"><path d=" M 0,0"/><path d=" M 80,0 Q 80,33.137 56.569,56.569 Q 33.137,80 0,80 L 0,80 Q -33.137,80 -56.569,56.569 Q -80,33.137 -80,0 L -80,0 Q -80,-33.137 -56.569,-56.569 Q -33.137,-80 0,-80 L 0,-80 Q 33.137,-80 56.569,-56.569 Q 80,-33.137 80,0 L 80,0" fill="#FF0000" fill-opacity="0"/><path d=" M 35.433,0 Q 35.433,14.677 25.055,25.055 Q 14.677,35.433 0,35.433 L 0,35.433 Q -14.677,35.433 -25.055,25.055 Q -35.433,14.677 -35.433,0 L -35.433,0 Q -35.433,-14.677 -25.055,-25.055 Q -14.677,-35.433 0,-35.433 L 0,-35.433 Q 14.677,-35.433 25.055,-25.055 Q 35.433,-14.677 35.433,0 L 35.433,0" stroke="#130F26" stroke-width="1.067"/><path d=" M 43.229,0 Q 43.229,17.906 30.567,30.567 Q 17.906,43.229 0,43.229 L 0,43.229 Q -17.906,43.229 -30.567,30.567 Q -43.229,17.906 -43.229,0 L -43.229,0 Q -43.229,-17.906 -30.567,-30.567 Q -17.906,-43.229 0,-43.229 L 0,-43.229 Q 17.906,-43.229 30.567,-30.567 Q 43.229,-17.906 43.229,0 L 43.229,0" stroke="#130F26" stroke-width="0.533"/><path d=" M 0,0 L 36.683,36.683 L 0,6.407 L 0,0 M 0,0 L -36.683,36.683 L -6.407,0 L 0,0 M 0,0 L -36.683,-36.683 L 0,-6.407 L 0,0 M 0,0 L 36.683,-36.683 L 6.407,0 L 0,0" fill="#130F26"/><path d=" M 0,0 L 0,6.407 L -36.683,36.683 L 0,0 M 0,0 L -6.407,0 L -36.683,-36.683 L 0,0 M 0,0 L 0,-6.407 L 36.683,-36.683 L 0,0 M 0,0 L 6.407,0 L 36.683,36.683 L 0,0" fill="#BFBFBF"/><path d=" M 6.407,0 L 36.683,36.683 L 0,6.407 L -36.683,36.683 L -6.407,0 L -36.683,-36.683 L 0,-6.407 L 36.683,-36.683 L 6.407,0" stroke="#130F26" stroke-width="0.533"/><path d=" M 0,0 L 80,0 L 6.987,6.987 L 0,0 M 0,0 L 0,80 L -6.987,6.987 L 0,0 M 0,0 L -80,0 L -6.987,-6.987 L 0,0 M 0,0 L 0,-80 L 6.987,-6.987 L 0,0" fill="#130F26"/><path d=" M 0,0 L 6.987,6.987 L 0,80 L 0,0 M 0,0 L -6.987,6.987 L -80,0 L 0,0 M 0,0 L -6.987,-6.987 L 0,-80 L 0,0 M 0,0 L 6.987,-6.987 L 80,0 L 0,0" fill="#BFBFBF"/><path d=" M 6.987,-6.987 L 80,0 L 6.987,6.987 L 0,80 L -6.987,6.987 L -80,0 L -6.987,-6.987 L 0,-80 L 6.987,-6.987" stroke="#130F26" stroke-width="0.533"/><g transform="translate(0 -80)"><path d=" M 0,0"/><text dominant-baseline="text-before-edge" style="font: 18px &#039;IM Fell Great Primer&#039;, serif" fill="#130F26" transform="translate(-7.633 -23)">N</text></g></g></g><g><path d=" M 0,0"/><g transform="translate(10 1065)"><path d=" M 0,0"/><path d=" M 0,0 L 303,0 L 303,125 L 0,125 L 0,0" fill="#BFBFBF"/><g><path d=" M 0,0"/><path d=" M 0,0 L 303,0 L 303,125 L 0,125 L 0,0" stroke="#130F26" stroke-width="1.067" stroke-linejoin="miter" stroke-linecap="round"/><path d=" M 2.133,2.133 L 300.867,2.133 L 300.867,122.867 L 2.133,122.867 L 2.133,2.133" stroke="#130F26" stroke-width="0.533" stroke-linejoin="miter" stroke-linecap="round"/></g><g transform="translate(10 10)"><path d=" M 0,0"/><g transform="translate(63.633 10)"><path d=" M 0,0"/><text dominant-baseline="text-before-edge" style="font: 32px &#039;IM Fell Great Primer&#039;, serif" fill="#130F26" transform="translate(2 2)">Offa's Hold</text></g><g transform="translate(10 64)"><path d=" M 0,0"/><g transform="translate(0 31)"><path d=" M 0,0"/><path d=" M 0,-12 L 259,-12 L 259,0 L 0,0 L 0,-12" fill="#FF0000" fill-opacity="0"/><path d=" M 0,-12 L 0,0 L 258.719,0 L 258.719,-12 M 64.68,0 L 64.68,-6 M 129.36,0 L 129.36,-12 M 194.04,0 L 194.04,-6" stroke="#130F26" stroke-width="0.533" stroke-linejoin="miter" stroke-linecap="butt"/><text dominant-baseline="text-before-edge" style="font: 14px &#039;IM Fell Great Primer&#039;, serif" fill="#130F26" transform="translate(0 -32)">0</text><text dominant-baseline="text-before-edge" style="font: 14px &#039;IM Fell Great Primer&#039;, serif" fill="#130F26" transform="translate(118.477 -32)">100</text><text dominant-baseline="text-before-edge" style="font: 14px &#039;IM Fell Great Primer&#039;, serif" fill="#130F26" transform="translate(235.518 -32)">200</text><text dominant-baseline="text-before-edge" style="font: 14px &#039;IM Fell Great Primer&#039;, serif" fill="#130F26" transform="translate(12.148 -32)">m</text></g></g></g></g></g></g></svg>