<?xml version="1.0" encoding="UTF-8" standalone="no"?><svg width="1200" height="714.663" xmlns="http://www.w3.org/2000/svg" stroke-linejoin="round" stroke-linecap="round" fill-rule="evenodd" fill="none"><rect x="0" y="0" width="1200" height="714.663" fill="#CCCAC2"/><style><![CDATA[@import url("https://fonts.googleapis.com/css2?family=IM+Fell+Great+Primer&display=swap");]]></style><defs/><g><path d=" M 0,0"/><g transform="translate(432.022 342.445) scale(5.696 5.696)"><path d=" M 0,0"/><g><path d=" M 0,0"/><g><path d=" M 0,0"/><g><path d=" M 0,0"/><path d=" M 0.736,5.26 L 5.427,24.308 L 6.376,24.575 L 8.939,22.034 L 8.939,22.034 L 6.376,24.575 L 5.157,26.14 L 1.676,32.035 L 1.586,33.805 L 5.25,41.746 L 6.443,43.287 L 11.556,47.468 L 14.627,50.047 L 16.845,51.997 L 18.863,53.851 L 20.681,55.611 L 22.518,57.454 L 24.374,59.38 L 26.248,61.389 L 28.141,63.482 L 29.99,65.611 L 31.797,67.776 L 33.561,69.977 L 35.282,72.215 L 36.959,74.488 L 38.594,76.798 L 40.186,79.144 L 41.735,81.526 L 43.273,83.845 L 44.799,86.101 L 46.313,88.295 L 47.817,90.427 L 49.309,92.495 L 50.79,94.501 L 52.259,96.444 L 53.717,98.324 L 55.241,100.448 L 56.831,102.816 L 58.488,105.428 L 60.21,108.284 L 62.247,111.862 L 64.598,116.162 L 68.009,122.622 L 74.714,135.55" stroke="#130F26" stroke-width="2.187" stroke-linejoin="round" stroke-linecap="butt"/></g><g><path d=" M 0,0"/><path d=" M -17.931,-17.943 L -31.045,-24.152 L -32.864,-24.983 L -50.18,-32.615 L -52.018,-33.405 L -62.615,-37.845 L -68.547,-40.45 L -72.73,-42.443 L -76.444,-44.359 L -79.69,-46.2 L -82.894,-48.142 L -86.056,-50.188 L -89.176,-52.336 L -92.255,-54.586 L -95.153,-56.959 L -97.871,-59.454 L -100.41,-62.072 L -102.768,-64.812 L -104.947,-67.675 L -106.946,-70.66 L -108.765,-73.767 L -110.404,-76.997 L -112.217,-80.161 L -114.204,-83.258 L -116.365,-86.289 L -118.7,-89.253 L -121.588,-92.489 L -125.029,-95.995 L -130.16,-100.785 L -140.391,-109.894" stroke="#130F26" stroke-width="2.187" stroke-linejoin="round" stroke-linecap="butt"/></g></g><g><path d=" M 0,0"/><g><path d=" M 0,0"/><path d=" M 0.736,5.26 L 5.427,24.308 L 6.376,24.575 L 8.939,22.034 L 8.939,22.034 L 6.376,24.575 L 5.157,26.14 L 1.676,32.035 L 1.586,33.805 L 5.25,41.746 L 6.443,43.287 L 11.556,47.468 L 14.627,50.047 L 16.845,51.997 L 18.863,53.851 L 20.681,55.611 L 22.518,57.454 L 24.374,59.38 L 26.248,61.389 L 28.141,63.482 L 29.99,65.611 L 31.797,67.776 L 33.561,69.977 L 35.282,72.215 L 36.959,74.488 L 38.594,76.798 L 40.186,79.144 L 41.735,81.526 L 43.273,83.845 L 44.799,86.101 L 46.313,88.295 L 47.817,90.427 L 49.309,92.495 L 50.79,94.501 L 52.259,96.444 L 53.717,98.324 L 55.241,100.448 L 56.831,102.816 L 58.488,105.428 L 60.21,108.284 L 62.247,111.862 L 64.598,116.162 L 68.009,122.622 L 74.714,135.55" stroke="#CCCAC2" stroke-width="2"/></g><g><path d=" M 0,0"/><path d=" M -3.032,-12.462 L -16.993,-17.598 L -18.835,-18.371 L -31.045,-24.152 L -32.864,-24.983 L -50.18,-32.615 L -52.018,-33.405 L -62.615,-37.845 L -68.547,-40.45 L -72.73,-42.443 L -76.444,-44.359 L -79.69,-46.2 L -82.894,-48.142 L -86.056,-50.188 L -89.176,-52.336 L -92.255,-54.586 L -95.153,-56.959 L -97.871,-59.454 L -100.41,-62.072 L -102.768,-64.812 L -104.947,-67.675 L -106.946,-70.66 L -108.765,-73.767 L -110.404,-76.997 L -112.217,-80.161 L -114.204,-83.258 L -116.365,-86.289 L -118.7,-89.253 L -121.588,-92.489 L -125.029,-95.995 L -130.16,-100.785 L -140.391,-109.894" stroke="#CCCAC2" stroke-width="2"/></g></g></g><g><path d=" M 0,0"/><path d=" M 154.757,-14.403 L 138.963,-11.35 L 130.944,-9.974 L 125.436,-9.256 L 120.683,-8.857 L 116.686,-8.778 L 112.86,-8.905 L 109.204,-9.238 L 105.719,-9.777 L 102.405,-10.522 L 99.243,-11.186 L 96.234,-11.768 L 93.377,-12.268 L 90.673,-12.686 L 88.122,-13.023 L 85.722,-13.278 L 83.476,-13.451 L 81.382,-13.542 L 79.368,-13.505 L 77.434,-13.339 L 75.579,-13.044 L 73.805,-12.62 L 72.11,-12.067 L 70.496,-11.386 L 68.961,-10.575 L 67.506,-9.636 L 66.057,-8.714 L 64.612,-7.807 L 63.173,-6.917 L 61.738,-6.043 L 60.309,-5.185 L 58.886,-4.344 L 57.467,-3.519 L 56.053,-2.71 L 54.641,-1.94 L 53.231,-1.21 L 51.822,-0.518 L 50.414,0.134 L 49.008,0.747 L 47.603,1.321 L 46.2,1.856 L 44.799,2.352 L 43.405,2.755 L 42.019,3.064 L 40.641,3.28 L 39.27,3.403 L 37.908,3.433 L 36.553,3.369 L 35.205,3.212 L 33.866,2.961 L 32.538,2.653 L 31.222,2.287 L 29.918,1.863 L 28.625,1.381 L 27.344,0.842 L 26.074,0.245 L 24.817,-0.41 L 23.57,-1.123 L 22.339,-1.717 L 21.121,-2.191 L 19.917,-2.547 L 18.728,-2.784 L 17.553,-2.902 L 16.392,-2.902 L 15.245,-2.782 L 14.113,-2.543 L 12.975,-2.225 L 11.831,-1.828 L 10.682,-1.353 L 9.527,-0.798 L 8.22,-0.055 L 6.76,0.876 L 4.707,2.321 L 0.736,5.26 L -3.351,5.808 L -5.454,6.075 L -6.935,6.245 L -8.249,6.378 L -9.395,6.474 L -10.661,6.557 L -12.045,6.628 L -13.954,6.696 L -17.605,6.796 L -21.867,7.066 L -24.126,7.116 L -25.804,7.036 L -27.374,6.856 L -28.836,6.577 L -30.348,6.208 L -31.91,5.749 L -33.522,5.2 L -35.183,4.561 L -36.891,3.911 L -38.646,3.25 L -40.447,2.578 L -42.295,1.895 L -44.189,1.2 L -46.13,0.495 L -48.117,-0.222 L -50.151,-0.951 L -52.33,-1.6 L -54.655,-2.17 L -57.125,-2.66 L -59.74,-3.072 L -62.5,-3.405 L -65.406,-3.658 L -68.457,-3.832 L -71.653,-3.927 L -74.931,-4.042 L -78.289,-4.177 L -81.727,-4.332 L -85.247,-4.506 L -88.848,-4.7 L -92.529,-4.914 L -96.291,-5.148 L -100.134,-5.402 L -103.913,-5.635 L -107.627,-5.847 L -111.276,-6.038 L -114.862,-6.208 L -118.382,-6.358 L -121.838,-6.487 L -125.23,-6.595 L -128.557,-6.682 L -131.902,-6.547 L -135.265,-6.189 L -138.645,-5.608 L -142.043,-4.804 L -145.891,-3.566 L -150.191,-1.893 L -156.243,0.851 L -167.948,6.571" stroke="#130F26" stroke-width="5.875" stroke-linejoin="round" stroke-linecap="butt"/><path d=" M 154.757,-14.403 L 138.963,-11.35 L 130.944,-9.974 L 125.436,-9.256 L 120.683,-8.857 L 116.686,-8.778 L 112.86,-8.905 L 109.204,-9.238 L 105.719,-9.777 L 102.405,-10.522 L 99.243,-11.186 L 96.234,-11.768 L 93.377,-12.268 L 90.673,-12.686 L 88.122,-13.023 L 85.722,-13.278 L 83.476,-13.451 L 81.382,-13.542 L 79.368,-13.505 L 77.434,-13.339 L 75.579,-13.044 L 73.805,-12.62 L 72.11,-12.067 L 70.496,-11.386 L 68.961,-10.575 L 67.506,-9.636 L 66.057,-8.714 L 64.612,-7.807 L 63.173,-6.917 L 61.738,-6.043 L 60.309,-5.185 L 58.886,-4.344 L 57.467,-3.519 L 56.053,-2.71 L 54.641,-1.94 L 53.231,-1.21 L 51.822,-0.518 L 50.414,0.134 L 49.008,0.747 L 47.603,1.321 L 46.2,1.856 L 44.799,2.352 L 43.405,2.755 L 42.019,3.064 L 40.641,3.28 L 39.27,3.403 L 37.908,3.433 L 36.553,3.369 L 35.205,3.212 L 33.866,2.961 L 32.538,2.653 L 31.222,2.287 L 29.918,1.863 L 28.625,1.381 L 27.344,0.842 L 26.074,0.245 L 24.817,-0.41 L 23.57,-1.123 L 22.339,-1.717 L 21.121,-2.191 L 19.917,-2.547 L 18.728,-2.784 L 17.553,-2.902 L 16.392,-2.902 L 15.245,-2.782 L 14.113,-2.543 L 12.975,-2.225 L 11.831,-1.828 L 10.682,-1.353 L 9.527,-0.798 L 8.22,-0.055 L 6.76,0.876 L 4.707,2.321 L 0.736,5.26 L -3.351,5.808 L -5.454,6.075 L -6.935,6.245 L -8.249,6.378 L -9.395,6.474 L -10.661,6.557 L -12.045,6.628 L -13.954,6.696 L -17.605,6.796 L -21.867,7.066 L -24.126,7.116 L -25.804,7.036 L -27.374,6.856 L -28.836,6.577 L -30.348,6.208 L -31.91,5.749 L -33.522,5.2 L -35.183,4.561 L -36.891,3.911 L -38.646,3.25 L -40.447,2.578 L -42.295,1.895 L -44.189,1.2 L -46.13,0.495 L -48.117,-0.222 L -50.151,-0.951 L -52.33,-1.6 L -54.655,-2.17 L -57.125,-2.66 L -59.74,-3.072 L -62.5,-3.405 L -65.406,-3.658 L -68.457,-3.832 L -71.653,-3.927 L -74.931,-4.042 L -78.289,-4.177 L -81.727,-4.332 L -85.247,-4.506 L -88.848,-4.7 L -92.529,-4.914 L -96.291,-5.148 L -100.134,-5.402 L -103.913,-5.635 L -107.627,-5.847 L -111.276,-6.038 L -114.862,-6.208 L -118.382,-6.358 L -121.838,-6.487 L -125.23,-6.595 L -128.557,-6.682 L -131.902,-6.547 L -135.265,-6.189 L -138.645,-5.608 L -142.043,-4.804 L -145.891,-3.566 L -150.191,-1.893 L -156.243,0.851 L -167.948,6.571" stroke="#6C6974" stroke-width="5.688"/><path d=" M 1.582,8.695 L -0.669,2.013" stroke="#130F26" stroke-width="2.094" stroke-linejoin="round" stroke-linecap="butt"/><path d=" M 1.582,8.695 L -0.669,2.013" stroke="#CCCAC2" stroke-width="1.906"/><path d=" M -17.44,10.33 L -17.77,3.263" stroke="#130F26" stroke-width="1.294" stroke-linejoin="round" stroke-linecap="butt"/><path d=" M -17.44,10.33 L -17.77,3.263" stroke="#CCCAC2" stroke-width="1.106"/></g><g><path d=" M 0,0"/><path d=" M -1.377,-2.503 L -2.976,-3.001 L -2.398,-4.859 L -0.799,-4.361 L -1.377,-2.503" fill="#130F26"/></g><g><path d=" M 0,0"/><path d=" M -8.708,2.413 L -17.061,2.523 L -17.272,-13.452 L -8.919,-13.562 L -8.708,2.413" fill="#130F26"/></g><g><path d=" M 0,0"/><path d=" M 16.122,6.372 L 16.122,6.972 L 14.443,8.401 L 10.194,3.407 L 10.194,2.807 L 14.443,7.801 L 16.122,6.372" fill="#130F26" stroke="#130F26" stroke-width="0.094"/><path d=" M 19.69,9.992 L 19.69,10.592 L 15.035,15.179 L 11.441,10.955 L 11.441,10.355 L 15.035,14.579 L 19.69,9.992" fill="#130F26" stroke="#130F26" stroke-width="0.094"/><path d=" M 9.939,19.602 L 9.939,20.202 L 9.655,19.916 L 6.215,23.326 L 4.116,14.804 L 4.116,14.204 L 6.215,22.726 L 9.655,19.316 L 9.939,19.602" fill="#130F26" stroke="#130F26" stroke-width="0.094"/><path d=" M 11.311,18.249 L 11.311,18.849 L 9.939,20.202 L 9.939,19.602 L 11.311,18.249" fill="#130F26" stroke="#130F26" stroke-width="0.094"/><path d=" M 14.84,14.349 L 14.84,14.949 L 11.131,18.604 L 7.147,13.202 L 7.147,12.602 L 11.131,18.004 L 14.84,14.349" fill="#130F26" stroke="#130F26" stroke-width="0.094"/><path d=" M 11.427,10.339 L 11.427,10.939 L 4.116,14.804 L 2.679,8.969 L 2.679,8.369 L 4.116,14.204 L 11.427,10.339" fill="#130F26" stroke="#130F26" stroke-width="0.094"/><path d=" M 19.855,1.863 L 19.855,2.463 L 16.258,7.11 L 15.65,6.493 L 14.73,2.128 L 14.73,1.528 L 15.65,5.893 L 16.258,6.51 L 19.855,1.863" fill="#130F26" stroke="#130F26" stroke-width="0.094"/><path d=" M 19.388,9.686 L 19.388,10.286 L 16.258,7.11 L 16.258,6.51 L 19.388,9.686" fill="#130F26" stroke="#130F26" stroke-width="0.094"/><path d=" M 23.015,6.112 L 23.015,6.712 L 19.388,10.286 L 19.388,9.686 L 23.015,6.112" fill="#130F26" stroke="#130F26" stroke-width="0.094"/><path d=" M 10.194,2.807 L 11.885,1.555 L 14.614,0.98 L 15.65,5.893 L 16.122,6.372 L 14.443,7.801 L 10.194,2.807" fill="#A4A1A5" stroke="#130F26" stroke-width="0.094"/><path d=" M 16.122,6.372 L 19.69,9.992 L 15.035,14.579 L 11.441,10.355 L 16.122,6.372" fill="#A29FA3" stroke="#130F26" stroke-width="0.094"/><path d=" M 11.311,18.249 L 9.939,19.602 L 9.655,19.316 L 6.215,22.726 L 4.116,14.204 L 7.147,12.602 L 11.311,18.249" fill="#918E92" stroke="#130F26" stroke-width="0.094"/><path d=" M 11.427,10.339 L 14.84,14.349 L 11.131,18.004 L 7.147,12.602 L 11.427,10.339" fill="#AFACB0" stroke="#130F26" stroke-width="0.094"/><path d=" M 4.116,14.204 L 2.679,8.369 L 7.018,5.157 L 11.427,10.339 L 4.116,14.204" fill="#949195" stroke="#130F26" stroke-width="0.094"/><path d=" M 15.65,5.893 L 14.73,1.528 L 18.047,0.829 L 19.855,1.863 L 16.258,6.51 L 15.65,5.893" fill="#989599" stroke="#130F26" stroke-width="0.094"/><path d=" M 23.015,6.112 L 19.388,9.686 L 16.258,6.51 L 19.192,2.719 L 23.015,6.112" fill="#9C999D" stroke="#130F26" stroke-width="0.094"/></g><g><path d=" M 0,0"/><path d=" M -0.278,-17.009 L -0.278,-16.409 L -2.598,-13.899 L -2.821,-14.081 L -4.875,-14.836 L -4.875,-15.436 L -2.821,-14.681 L -2.598,-14.499 L -0.278,-17.009" fill="#130F26" stroke="#130F26" stroke-width="0.094"/><path d=" M -2.572,-19.131 L -2.572,-18.531 L -4.947,-14.72 L -8.174,-15.907 L -8.174,-16.507 L -4.947,-15.32 L -2.572,-19.131" fill="#130F26" stroke="#130F26" stroke-width="0.094"/><path d=" M -8.125,-16.643 L -8.125,-16.043 L -12.736,-17.739 L -12.736,-18.339 L -8.125,-16.643" fill="#130F26" stroke="#130F26" stroke-width="0.094"/><path d=" M -6.682,-20.562 L -6.682,-19.962 L -8.125,-16.043 L -8.125,-16.643 L -6.682,-20.562" fill="#130F26" stroke="#130F26" stroke-width="0.094"/><path d=" M -2.821,-14.681 L -4.875,-15.436 L -2.572,-19.131 L -0.278,-17.009 L -2.598,-14.499 L -2.821,-14.681" fill="#8F8C90" stroke="#130F26" stroke-width="0.094"/><path d=" M -4.947,-15.32 L -8.174,-16.507 L -6.377,-21.393 L -5.716,-22.037 L -2.572,-19.131 L -4.947,-15.32" fill="#949195" stroke="#130F26" stroke-width="0.094"/><path d=" M -6.682,-20.562 L -8.125,-16.643 L -12.736,-18.339 L -11.294,-22.259 L -6.682,-20.562" fill="#939194" stroke="#130F26" stroke-width="0.094"/><path d=" M 12.213,-7.208 L 12.213,-6.608 L 11.555,-9.729 L 8.475,-12.577 L 8.475,-13.177 L 11.555,-10.329 L 12.213,-7.208" fill="#130F26" stroke="#130F26" stroke-width="0.094"/><path d=" M 16.851,-8.186 L 16.851,-7.586 L 12.213,-6.608 L 12.213,-7.208 L 16.851,-8.186" fill="#130F26" stroke="#130F26" stroke-width="0.094"/><path d=" M 12.261,-6.981 L 12.261,-6.381 L 7.287,-5.333 L 6.854,-5.686 L 6.854,-6.286 L 7.287,-5.933 L 12.261,-6.981" fill="#130F26" stroke="#130F26" stroke-width="0.094"/><path d=" M 11.035,-10.81 L 11.035,-10.21 L 6.854,-5.686 L 4.147,-7.895 L 4.147,-8.495 L 6.854,-6.286 L 11.035,-10.81" fill="#130F26" stroke="#130F26" stroke-width="0.094"/><path d=" M 7.364,-11.976 L 7.364,-11.376 L 2.142,-16.204 L 2.142,-16.804 L 7.364,-11.976" fill="#130F26" stroke="#130F26" stroke-width="0.094"/><path d=" M 9.247,-14.012 L 9.247,-13.412 L 7.364,-11.376 L 7.364,-11.976 L 9.247,-14.012" fill="#130F26" stroke="#130F26" stroke-width="0.094"/><path d=" M 9.705,-19.799 L 9.705,-19.199 L 6.609,-15.851 L 4.024,-18.24 L 4.024,-18.84 L 6.609,-16.451 L 9.705,-19.799" fill="#130F26" stroke="#130F26" stroke-width="0.094"/><path d=" M 7.364,-11.976 L 7.364,-11.376 L 4.497,-8.274 L -0.692,-12.508 L -0.692,-13.108 L 4.497,-8.874 L 7.364,-11.976" fill="#130F26" stroke="#130F26" stroke-width="0.094"/><path d=" M 21.745,-7.533 L 21.745,-6.933 L 19.896,-7.991 L 16.899,-7.359 L 15.873,-12.227 L 15.873,-12.827 L 16.899,-7.959 L 19.896,-8.591 L 21.745,-7.533" fill="#130F26" stroke="#130F26" stroke-width="0.094"/><path d=" M 22.828,-9.426 L 22.828,-8.826 L 21.745,-6.933 L 21.745,-7.533 L 22.828,-9.426" fill="#130F26" stroke="#130F26" stroke-width="0.094"/><path d=" M 27.486,-10.153 L 27.486,-9.553 L 25.226,-5.602 L 22.03,-7.43 L 22.03,-8.03 L 25.226,-6.202 L 27.486,-10.153" fill="#130F26" stroke="#130F26" stroke-width="0.094"/><path d=" M 47.733,-3.675 L 47.733,-3.075 L 41.263,-0.785 L 39.924,-3.141 L 39.924,-3.741 L 41.263,-1.385 L 47.733,-3.675" fill="#130F26" stroke="#130F26" stroke-width="0.094"/><path d=" M 40.793,-2.213 L 40.793,-1.613 L 38.686,-0.868 L 36.043,-1.362 L 36.043,-1.962 L 38.686,-1.468 L 40.793,-2.213" fill="#130F26" stroke="#130F26" stroke-width="0.094"/><path d=" M 41.983,-10.17 L 41.983,-9.57 L 40.084,-8.025 L 36.982,-11.839 L 36.982,-12.439 L 40.084,-8.625 L 41.983,-10.17" fill="#130F26" stroke="#130F26" stroke-width="0.094"/><path d=" M 31.828,-9.774 L 31.828,-9.174 L 28.377,-3.14 L 24.942,-5.105 L 24.942,-5.705 L 28.377,-3.74 L 31.828,-9.774" fill="#130F26" stroke="#130F26" stroke-width="0.094"/><path d=" M 16.851,-8.186 L 12.213,-7.208 L 11.555,-10.329 L 8.475,-13.177 L 10.016,-14.844 L 13.229,-11.874 L 15.953,-12.448 L 16.851,-8.186" fill="#AFACB1" stroke="#130F26" stroke-width="0.094"/><path d=" M 11.035,-10.81 L 11.555,-10.329 L 12.261,-6.981 L 7.287,-5.933 L 6.854,-6.286 L 11.035,-10.81" fill="#A09DA1" stroke="#130F26" stroke-width="0.094"/><path d=" M 6.854,-6.286 L 4.147,-8.495 L 8.475,-13.177 L 11.035,-10.81 L 6.854,-6.286" fill="#9C999D" stroke="#130F26" stroke-width="0.094"/><path d=" M 9.247,-14.012 L 7.364,-11.976 L 2.142,-16.804 L 4.024,-18.84 L 9.247,-14.012" fill="#ABA8AC" stroke="#130F26" stroke-width="0.094"/><path d=" M 6.609,-16.451 L 4.024,-18.84 L 7.12,-22.189 L 9.705,-19.799 L 6.609,-16.451" fill="#89878A" stroke="#130F26" stroke-width="0.094"/><path d=" M -0.692,-13.108 L 2.456,-16.514 L 7.364,-11.976 L 4.497,-8.874 L -0.692,-13.108" fill="#8D8A8E" stroke="#130F26" stroke-width="0.094"/><path d=" M 22.828,-9.426 L 21.745,-7.533 L 19.896,-8.591 L 16.899,-7.959 L 15.873,-12.827 L 17.893,-14.061 L 22.828,-9.426" fill="#8D8A8E" stroke="#130F26" stroke-width="0.094"/><path d=" M 25.226,-6.202 L 22.03,-8.03 L 24.29,-11.981 L 27.486,-10.153 L 25.226,-6.202" fill="#979598" stroke="#130F26" stroke-width="0.094"/><path d=" M 44.905,-7.151 L 47.733,-3.675 L 41.263,-1.385 L 39.924,-3.741 L 44.905,-7.151" fill="#9B989D" stroke="#130F26" stroke-width="0.094"/><path d=" M 38.686,-1.468 L 36.043,-1.962 L 36.788,-5.944 L 38.077,-6.993 L 40.793,-2.213 L 38.686,-1.468" fill="#A19EA2" stroke="#130F26" stroke-width="0.094"/><path d=" M 38.881,-13.983 L 41.983,-10.17 L 40.084,-8.625 L 36.982,-12.439 L 38.881,-13.983" fill="#929093" stroke="#130F26" stroke-width="0.094"/><path d=" M 28.377,-3.74 L 24.942,-5.705 L 28.393,-11.739 L 31.828,-9.774 L 28.377,-3.74" fill="#A29FA4" stroke="#130F26" stroke-width="0.094"/></g><g><path d=" M 0,0"/><path d=" M 2.184,17.111 L 2.184,17.711 L -0.265,18.48 L -1.948,13.123 L -1.948,12.523 L -0.265,17.88 L 2.184,17.111" fill="#130F26" stroke="#130F26" stroke-width="0.094"/><path d=" M 0.838,11.648 L 2.184,17.111 L -0.265,17.88 L -1.948,12.523 L 0.838,11.648" fill="#9A979B" stroke="#130F26" stroke-width="0.094"/></g><g><path d=" M 0,0"/><path d=" M -19.316,15.795 L -19.316,16.395 L -21.993,16.614 L -22.359,12.129 L -22.359,11.529 L -21.993,16.014 L -19.316,15.795" fill="#130F26" stroke="#130F26" stroke-width="0.094"/><path d=" M -15.044,15.445 L -15.044,16.045 L -19.316,16.395 L -19.684,11.889 L -19.684,11.289 L -19.316,15.795 L -15.044,15.445" fill="#130F26" stroke="#130F26" stroke-width="0.094"/><path d=" M -10.885,13.552 L -10.885,14.152 L -15.17,14.503 L -15.467,10.877 L -15.467,10.277 L -15.17,13.903 L -10.885,13.552" fill="#130F26" stroke="#130F26" stroke-width="0.094"/><path d=" M -7.619,12.961 L -7.619,13.561 L -10.857,14.372 L -11.253,11.272 L -11.253,10.672 L -10.857,13.772 L -7.619,12.961" fill="#130F26" stroke="#130F26" stroke-width="0.094"/><path d=" M -5.643,16.241 L -5.643,16.841 L -10.402,17.93 L -10.857,14.372 L -10.857,13.772 L -10.402,17.33 L -5.643,16.241" fill="#130F26" stroke="#130F26" stroke-width="0.094"/><path d=" M -5.243,19.015 L -5.243,19.615 L -11.281,21.935 L -12.37,18.381 L -12.37,17.781 L -11.281,21.335 L -5.243,19.015" fill="#130F26" stroke="#130F26" stroke-width="0.094"/><path d=" M -22.359,11.529 L -19.678,11.36 L -19.316,15.795 L -21.993,16.014 L -22.359,11.529" fill="#8B888C" stroke="#130F26" stroke-width="0.094"/><path d=" M -17.791,11.169 L -15.399,11.103 L -15.044,15.445 L -19.316,15.795 L -19.684,11.289 L -17.791,11.169" fill="#8C898D" stroke="#130F26" stroke-width="0.094"/><path d=" M -15.17,13.903 L -15.467,10.277 L -11.319,10.163 L -10.885,13.552 L -15.17,13.903" fill="#B8B5BA" stroke="#130F26" stroke-width="0.094"/><path d=" M -8.527,10.598 L -7.619,12.961 L -10.857,13.772 L -11.253,10.672 L -8.527,10.598" fill="#939094" stroke="#130F26" stroke-width="0.094"/><path d=" M -6.966,12.798 L -5.643,16.241 L -10.402,17.33 L -10.857,13.772 L -6.966,12.798" fill="#9B989C" stroke="#130F26" stroke-width="0.094"/><path d=" M -12.37,17.781 L -6.255,16.381 L -5.243,19.015 L -11.281,21.335 L -12.37,17.781" fill="#959296" stroke="#130F26" stroke-width="0.094"/></g><g><path d=" M 0,0"/><path d=" M -18.259,2.092 L -18.259,2.692 L -21.927,2.924 L -22.295,-2.89 L -22.295,-3.49 L -21.927,2.324 L -18.259,2.092" fill="#130F26" stroke="#130F26" stroke-width="0.094"/><path d=" M -18.714,-9.009 L -18.714,-8.409 L -20.804,-8.382 L -22.728,-12.719 L -22.728,-13.319 L -20.804,-8.982 L -18.714,-9.009" fill="#130F26" stroke="#130F26" stroke-width="0.094"/><path d=" M -21.977,-8.966 L -21.977,-8.366 L -24.015,-6.575 L -26.606,-9.523 L -26.606,-10.123 L -24.015,-7.175 L -21.977,-8.966" fill="#130F26" stroke="#130F26" stroke-width="0.094"/><path d=" M -20.804,-8.982 L -20.804,-8.382 L -21.977,-8.366 L -21.977,-8.966 L -20.804,-8.982" fill="#130F26" stroke="#130F26" stroke-width="0.094"/><path d=" M -24.181,-7.364 L -24.181,-6.764 L -30.067,-1.592 L -32.13,-3.94 L -32.13,-4.54 L -30.067,-2.192 L -24.181,-7.364" fill="#130F26" stroke="#130F26" stroke-width="0.094"/><path d=" M -21.966,1.703 L -21.966,2.303 L -26.989,2.62 L -28.368,2.09 L -28.368,1.49 L -26.989,2.02 L -21.966,1.703" fill="#130F26" stroke="#130F26" stroke-width="0.094"/><path d=" M -18.334,-3.543 L -18.259,2.092 L -21.927,2.324 L -22.295,-3.49 L -18.334,-3.543" fill="#A19EA2" stroke="#130F26" stroke-width="0.094"/><path d=" M -18.817,-16.755 L -18.714,-9.009 L -20.804,-8.982 L -22.728,-13.319 L -18.817,-16.755" fill="#8F8C90" stroke="#130F26" stroke-width="0.094"/><path d=" M -20.804,-8.982 L -21.977,-8.966 L -24.015,-7.175 L -26.606,-10.123 L -22.795,-13.471 L -20.804,-8.982" fill="#A5A2A6" stroke="#130F26" stroke-width="0.094"/><path d=" M -32.13,-4.54 L -26.245,-9.712 L -24.181,-7.364 L -30.067,-2.192 L -32.13,-4.54" fill="#838084" stroke="#130F26" stroke-width="0.094"/><path d=" M -22.166,-1.45 L -21.966,1.703 L -26.989,2.02 L -28.368,1.49 L -27.947,-1.085 L -22.166,-1.45" fill="#A5A2A6" stroke="#130F26" stroke-width="0.094"/></g><g><path d=" M 0,0"/></g><g><path d=" M 0,0"/></g><g><path d=" M 0,0"/></g><g><path d=" M 0,0"/><path d=" M 80.528,-9.551 L 80.528,-8.951 L 80.336,-4.564 L 78.538,-4.796 L 78.538,-5.396 L 80.336,-5.164 L 80.528,-9.551" fill="#130F26" stroke="#130F26" stroke-width="0.094"/><path d=" M 64.931,3.189 L 64.931,3.789 L 62.336,5.498 L 59.768,1.417 L 59.335,0.661 L 59.335,0.061 L 59.768,0.817 L 62.336,4.898 L 64.931,3.189" fill="#130F26" stroke="#130F26" stroke-width="0.094"/><path d=" M 67.561,1.457 L 67.561,2.057 L 64.931,3.789 L 61.971,-0.705 L 61.971,-1.305 L 64.931,3.189 L 67.561,1.457" fill="#130F26" stroke="#130F26" stroke-width="0.094"/><path d=" M 78.538,-5.396 L 78.723,-9.629 L 80.528,-9.551 L 80.336,-5.164 L 78.538,-5.396" fill="#A7A4A8" stroke="#130F26" stroke-width="0.094"/><path d=" M 59.335,0.061 L 61.903,-1.408 L 64.931,3.189 L 62.336,4.898 L 59.768,0.817 L 59.335,0.061" fill="#9F9CA0" stroke="#130F26" stroke-width="0.094"/><path d=" M 61.971,-1.305 L 64.71,-2.872 L 67.561,1.457 L 64.931,3.189 L 61.971,-1.305" fill="#9E9B9F" stroke="#130F26" stroke-width="0.094"/><path d=" M 32.992,6.407 L 32.992,7.007 L 31.814,13.308 L 28.196,12.632 L 28.196,12.032 L 31.814,12.708 L 32.992,6.407" fill="#130F26" stroke="#130F26" stroke-width="0.094"/><path d=" M 29.274,6.267 L 29.274,6.867 L 28.196,12.632 L 27.616,12.523 L 23.826,8.677 L 23.826,8.077 L 27.616,11.923 L 28.196,12.032 L 29.274,6.267" fill="#130F26" stroke="#130F26" stroke-width="0.094"/><path d=" M 25.791,10.072 L 25.791,10.672 L 22.049,14.359 L 20.533,12.821 L 20.533,12.221 L 22.049,13.759 L 25.791,10.072" fill="#130F26" stroke="#130F26" stroke-width="0.094"/><path d=" M 29.374,5.73 L 32.992,6.407 L 31.814,12.708 L 28.196,12.032 L 29.374,5.73" fill="#9F9CA1" stroke="#130F26" stroke-width="0.094"/><path d=" M 27.616,11.923 L 23.826,8.077 L 26.239,5.699 L 29.274,6.267 L 28.196,12.032 L 27.616,11.923" fill="#9B989C" stroke="#130F26" stroke-width="0.094"/><path d=" M 20.533,12.221 L 24.275,8.533 L 25.791,10.072 L 22.049,13.759 L 20.533,12.221" fill="#A29EA3" stroke="#130F26" stroke-width="0.094"/><path d=" M 66.353,14.514 L 66.353,15.114 L 62.895,18.205 L 61.325,16.12 L 61.325,15.52 L 62.895,17.605 L 66.353,14.514" fill="#130F26" stroke="#130F26" stroke-width="0.094"/><path d=" M 65.568,12.324 L 65.568,12.924 L 61.325,16.12 L 58.417,12.259 L 58.417,11.659 L 61.325,15.52 L 65.568,12.324" fill="#130F26" stroke="#130F26" stroke-width="0.094"/><path d=" M 56.377,7.991 L 56.377,8.591 L 53.522,10.111 L 51.162,5.676 L 51.162,5.076 L 53.522,9.511 L 56.377,7.991" fill="#130F26" stroke="#130F26" stroke-width="0.094"/><path d=" M 60.269,5.919 L 60.269,6.519 L 56.377,8.591 L 53.962,4.053 L 53.962,3.453 L 56.377,7.991 L 60.269,5.919" fill="#130F26" stroke="#130F26" stroke-width="0.094"/><path d=" M 46.736,11.807 L 46.736,12.407 L 44.206,13.303 L 43.23,8.085 L 43.23,7.485 L 44.206,12.703 L 46.736,11.807" fill="#130F26" stroke="#130F26" stroke-width="0.094"/><path d=" M 49.98,10.658 L 49.98,11.258 L 46.736,12.407 L 44.738,6.763 L 44.738,6.163 L 46.736,11.807 L 49.98,10.658" fill="#130F26" stroke="#130F26" stroke-width="0.094"/><path d=" M 65.798,13.894 L 66.353,14.514 L 62.895,17.605 L 61.325,15.52 L 64.961,12.782 L 65.798,13.894" fill="#99969A" stroke="#130F26" stroke-width="0.094"/><path d=" M 61.325,15.52 L 58.417,11.659 L 62.66,8.463 L 65.568,12.324 L 61.325,15.52" fill="#979498" stroke="#130F26" stroke-width="0.094"/><path d=" M 53.522,9.511 L 51.162,5.076 L 52.965,4.438 L 54.131,3.771 L 56.377,7.991 L 53.522,9.511" fill="#8C898C" stroke="#130F26" stroke-width="0.094"/><path d=" M 57.937,2.212 L 60.269,5.919 L 56.377,7.991 L 53.962,3.453 L 57.491,1.434 L 57.937,2.212" fill="#9A979B" stroke="#130F26" stroke-width="0.094"/><path d=" M 44.206,12.703 L 43.23,7.485 L 44.986,6.864 L 46.736,11.807 L 44.206,12.703" fill="#9F9CA0" stroke="#130F26" stroke-width="0.094"/><path d=" M 44.738,6.163 L 47.982,5.015 L 49.98,10.658 L 46.736,11.807 L 44.738,6.163" fill="#8C898D" stroke="#130F26" stroke-width="0.094"/></g><g><path d=" M 0,0"/></g><g><path d=" M 0,0"/></g><g><path d=" M 0,0"/><path d=" M -24.737,-13.879 L -24.737,-13.279 L -25.37,-13.802 L -25.37,-14.402 L -24.737,-13.879" fill="#130F26" stroke="#130F26" stroke-width="0.094"/><path d=" M -19.937,-18.096 L -19.937,-17.496 L -24.737,-13.279 L -24.737,-13.879 L -19.937,-18.096" fill="#130F26" stroke="#130F26" stroke-width="0.094"/><path d=" M -22.177,-19.447 L -22.177,-18.847 L -25.37,-13.802 L -28.831,-16.661 L -28.831,-17.261 L -25.37,-14.402 L -22.177,-19.447" fill="#130F26" stroke="#130F26" stroke-width="0.094"/><path d=" M -26.636,-20.934 L -26.636,-20.334 L -28.346,-17.472 L -32.74,-19.552 L -32.74,-20.152 L -28.346,-18.072 L -26.636,-20.934" fill="#130F26" stroke="#130F26" stroke-width="0.094"/><path d=" M -28.022,-10.475 L -28.022,-9.875 L -31.215,-7.07 L -34.6,-10.176 L -34.6,-10.776 L -31.215,-7.67 L -28.022,-10.475" fill="#130F26" stroke="#130F26" stroke-width="0.094"/><path d=" M -38.091,-1.628 L -38.091,-1.028 L -41.014,-2.074 L -41.014,-2.674 L -38.091,-1.628" fill="#130F26" stroke="#130F26" stroke-width="0.094"/><path d=" M -35.918,-3.537 L -35.918,-2.937 L -38.091,-1.028 L -38.091,-1.628 L -35.918,-3.537" fill="#130F26" stroke="#130F26" stroke-width="0.094"/><path d=" M -40.702,-3.334 L -40.702,-2.734 L -43.934,-3.891 L -43.934,-4.491 L -40.702,-3.334" fill="#130F26" stroke="#130F26" stroke-width="0.094"/><path d=" M -38.478,-8.033 L -38.478,-7.433 L -40.702,-2.734 L -40.702,-3.334 L -38.478,-8.033" fill="#130F26" stroke="#130F26" stroke-width="0.094"/><path d=" M -36.502,-24.905 L -36.502,-24.305 L -37.947,-21.027 L -42.63,-22.81 L -42.63,-23.41 L -37.947,-21.627 L -36.502,-24.905" fill="#130F26" stroke="#130F26" stroke-width="0.094"/><path d=" M -19.937,-18.096 L -24.737,-13.879 L -25.37,-14.402 L -22.318,-19.224 L -19.937,-18.096" fill="#908D91" stroke="#130F26" stroke-width="0.094"/><path d=" M -25.37,-14.402 L -28.831,-17.261 L -26.345,-21.42 L -22.177,-19.447 L -25.37,-14.402" fill="#9C999D" stroke="#130F26" stroke-width="0.094"/><path d=" M -31.32,-23.151 L -26.636,-20.934 L -28.346,-18.072 L -32.74,-20.152 L -31.32,-23.151" fill="#979498" stroke="#130F26" stroke-width="0.094"/><path d=" M -34.6,-10.776 L -32.416,-13.727 L -28.022,-10.475 L -31.215,-7.67 L -34.6,-10.776" fill="#ABA7AC" stroke="#130F26" stroke-width="0.094"/><path d=" M -35.918,-3.537 L -38.091,-1.628 L -41.014,-2.674 L -39.389,-6.107 L -35.918,-3.537" fill="#949195" stroke="#130F26" stroke-width="0.094"/><path d=" M -38.478,-8.033 L -40.702,-3.334 L -43.934,-4.491 L -42.059,-9.728 L -38.478,-8.033" fill="#A09CA1" stroke="#130F26" stroke-width="0.094"/><path d=" M -41.443,-27.083 L -36.502,-24.905 L -37.947,-21.627 L -42.63,-23.41 L -41.443,-27.083" fill="#959296" stroke="#130F26" stroke-width="0.094"/></g><g><path d=" M 0,0"/></g><g><path d=" M 0,0"/><path d=" M 64.377,-22.911 L 64.377,-22.311 L 61.58,-20.026 L 58.77,-23.464 L 58.77,-24.064 L 61.58,-20.626 L 64.377,-22.911" fill="#130F26" stroke="#130F26" stroke-width="0.094"/><path d=" M 45.342,-15.881 L 45.342,-15.281 L 42.39,-12.88 L 39.457,-16.486 L 39.457,-17.086 L 42.39,-13.48 L 45.342,-15.881" fill="#130F26" stroke="#130F26" stroke-width="0.094"/><path d=" M 52.196,-6.722 L 52.196,-6.122 L 50.074,-9.211 L 50.074,-9.811 L 52.196,-6.722" fill="#130F26" stroke="#130F26" stroke-width="0.094"/><path d=" M 55.931,-8.859 L 55.931,-8.259 L 52.196,-6.122 L 52.196,-6.722 L 55.931,-8.859" fill="#130F26" stroke="#130F26" stroke-width="0.094"/><path d=" M 52.2,-6.716 L 52.2,-6.116 L 49.096,-4.339 L 47.101,-6.792 L 47.101,-7.392 L 49.096,-4.939 L 52.2,-6.716" fill="#130F26" stroke="#130F26" stroke-width="0.094"/><path d=" M 61.376,-26.154 L 64.377,-22.911 L 61.58,-20.626 L 58.77,-24.064 L 61.376,-26.154" fill="#959296" stroke="#130F26" stroke-width="0.094"/><path d=" M 42.39,-13.48 L 39.457,-17.086 L 42.409,-19.487 L 45.342,-15.881 L 42.39,-13.48" fill="#9A979B" stroke="#130F26" stroke-width="0.094"/><path d=" M 55.931,-8.859 L 52.196,-6.722 L 50.074,-9.811 L 53.599,-12.241 L 55.931,-8.859" fill="#9F9CA0" stroke="#130F26" stroke-width="0.094"/><path d=" M 49.096,-4.939 L 47.101,-7.392 L 50.074,-9.811 L 52.2,-6.716 L 49.096,-4.939" fill="#9E9A9F" stroke="#130F26" stroke-width="0.094"/></g><g><path d=" M 0,0"/></g><g><path d=" M 0,0"/></g><g><path d=" M 0,0"/><path d=" M -62.775,7.614 L -63.668,1.148 M -63.911,8.461 L -65.023,0.409 M -65.14,8.63 L -66.281,0.372 M -66.369,8.8 L -67.539,0.334 M -67.598,8.97 L -68.796,0.297 M -68.827,9.14 L -70.054,0.26 M -70.057,9.31 L -71.312,0.222 M -71.286,9.479 L -72.57,0.185 M -72.515,9.649 L -73.827,0.147 M -73.744,9.819 L -75.085,0.11 M -74.973,9.989 L -76.343,0.072 M -76.202,10.159 L -77.601,0.035 M -77.509,9.767 L -78.859,-0.003 M -79.367,5.386 L -80.016,0.69 M -62.471,10.816 L -76.764,12.866 M -61.536,11.911 L -77.148,14.15 M -61.363,13.116 L -76.847,15.337 M -61.19,14.321 L -76.547,16.524 M -61.017,15.526 L -76.247,17.71 M -60.844,16.731 L -75.946,18.897 M -60.671,17.936 L -75.646,20.084 M -60.499,19.141 L -75.345,21.27 M -60.326,20.346 L -75.045,22.457 M -60.153,21.551 L -74.744,23.644 M -59.98,22.756 L -74.444,24.83 M -59.807,23.961 L -74.144,26.017 M -59.634,25.165 L -73.843,27.203 M -59.462,26.37 L -73.543,28.39 M -59.973,27.674 L -72.561,29.479 M -76.805,10.242 L -78.411,9.159 L -80.426,1.201 L -79.446,-0.02 L -64.477,0.426 L -62.993,1.751 L -62.252,6.919 L -63.355,8.384 L -76.805,10.242 M -63.071,10.364 L -61.598,11.473 L -59.387,26.891 L -60.489,28.362 L -71.805,29.985 L -73.411,28.91 L -77.279,13.631 L -76.311,12.193 L -63.071,10.364" stroke="#A5A2A2" stroke-width="0.094" stroke-linejoin="round" stroke-linecap="butt"/></g><g><path d=" M 0,0"/><path d=" M -10.457,75.213 L -4.595,74.762 M -16.488,74.417 L -3.527,73.42 M -17.208,73.213 L -3.186,72.134 M -17.304,71.96 L -2.844,70.848 M -17.401,70.708 L -2.503,69.562 M -17.497,69.456 L -2.162,68.276 M -17.594,68.203 L -1.821,66.99 M -17.69,66.951 L -1.48,65.704 M -17.786,65.699 L -1.139,64.418 M -17.883,64.446 L -0.798,63.132 M -17.761,63.177 L -0.456,61.846 M -16.867,61.849 L -0.115,60.56 M -11.904,60.207 L 0.226,59.274 M -6.711,58.548 L 0.567,57.988 M -1.518,56.888 L 0.161,56.759 M -0.16,56.454 L 0.745,57.315 L -3.705,74.092 L -5.338,75.321 L -15.765,75.1 L -17.165,73.777 L -17.958,63.469 L -16.819,61.778 L -0.16,56.454" stroke="#A5A2A2" stroke-width="0.094" stroke-linejoin="round" stroke-linecap="butt"/></g><g><path d=" M 0,0"/></g><g><path d=" M 0,0"/><path d=" M -64.994,31.029 L -71.781,32.587 M -57.825,30.697 L -72.193,33.995 M -56.948,31.81 L -71.907,35.243 M -56.661,33.058 L -71.62,36.491 M -56.375,34.306 L -71.334,37.739 M -56.088,35.554 L -71.048,38.987 M -55.802,36.801 L -70.761,40.235 M -55.515,38.049 L -70.475,41.483 M -55.229,39.297 L -70.188,42.731 M -54.942,40.545 L -69.902,43.979 M -54.656,41.793 L -69.615,45.227 M -54.369,43.041 L -69.329,46.475 M -54.083,44.289 L -69.042,47.723 M -53.797,45.537 L -68.756,48.971 M -53.755,46.841 L -68.469,50.219 M -57.38,48.987 L -67.502,51.311 M -67.156,55.063 L -65.089,62.162 M -66.221,53.644 L -63.519,62.925 M -64.978,53.282 L -62.132,63.056 M -63.735,52.92 L -60.745,63.188 M -62.492,52.559 L -59.359,63.32 M -61.249,52.197 L -57.972,63.452 M -60.006,51.835 L -56.585,63.584 M -58.763,51.473 L -55.199,63.715 M -57.52,51.111 L -53.812,63.847 M -56.277,50.749 L -52.425,63.979 M -55.034,50.387 L -51.039,64.111 M -53.791,50.025 L -49.652,64.243 M -52.548,49.664 L -48.265,64.374 M -51.305,49.302 L -46.879,64.506 M -50.063,48.94 L -45.492,64.638 M -48.82,48.578 L -44.105,64.77 M -47.577,48.216 L -42.719,64.902 M -46.334,47.854 L -41.559,64.254 M -45.091,47.492 L -40.627,62.823 M -43.848,47.13 L -39.98,60.417 M -42.605,46.769 L -39.332,58.011 M -41.362,46.407 L -38.684,55.605 M -40.119,46.045 L -38.036,53.199 M -38.876,45.683 L -37.388,50.793 M -37.633,45.321 L -36.741,48.387 M -53.57,46.526 L -54.527,48.157 L -66.792,51.727 L -68.331,50.824 L -72.332,33.39 L -71.336,31.939 L -58.664,30.121 L -57.087,31.204 L -53.57,46.526 M -37.017,45.142 L -36.107,46.034 L -40.887,63.788 L -42.519,64.921 L -64.304,62.85 L -65.889,61.46 L -67.301,55.31 L -66.343,53.68 L -37.017,45.142" stroke="#A5A2A2" stroke-width="0.094" stroke-linejoin="round" stroke-linecap="butt"/><path d=" M -36.277,47.325 L -36.277,47.685 L -40.623,48.951 L -40.964,47.782 L -40.964,47.422 L -40.623,48.591 L -36.277,47.325" fill="#130F26" stroke="#130F26" stroke-width="0.094"/><path d=" M -39.527,47.004 L -39.527,47.364 L -39.928,45.989 L -39.928,45.629 L -39.527,47.004" fill="#130F26" stroke="#130F26" stroke-width="0.094"/><path d=" M -39.527,47.004 L -39.928,45.629 L -37.017,44.782 L -36.277,47.325 L -40.623,48.591 L -40.964,47.422 L -39.527,47.004" fill="#9A979B" stroke="#130F26" stroke-width="0.094"/></g><g><path d=" M 0,0"/></g><g><path d=" M 0,0"/><path d=" M -89.177,15.381 L -86.657,31.57 M -88.089,14.425 L -85.343,32.066 M -86.882,14.237 L -84.135,31.878 M -85.674,14.049 L -82.928,31.69 M -84.467,13.861 L -81.72,31.502 M -83.259,13.673 L -80.513,31.314 M -82.052,13.485 L -79.306,31.126 M -80.845,13.297 L -78.098,30.938 M -79.477,14.136 L -76.891,30.75 M -76.685,24.126 L -75.8,29.815 M -89.787,32.002 L -92.317,15.753 M -90.939,32.937 L -93.685,15.296 M -92.206,33.135 L -94.952,15.493 M -93.473,33.332 L -96.219,15.691 M -94.74,33.529 L -97.486,15.888 M -96.007,33.726 L -98.753,16.085 M -97.274,33.924 L -100.02,16.282 M -98.541,34.121 L -101.287,16.48 M -99.808,34.318 L -102.554,16.677 M -101.075,34.515 L -103.821,16.874 M -102.342,34.713 L -105.088,17.071 M -103.609,34.91 L -106.355,17.269 M -104.876,35.107 L -107.622,17.466 M -106.143,35.304 L -108.889,17.663 M -107.41,35.502 L -110.049,18.548 M -108.786,34.996 L -109.957,27.474 M -110.198,15.247 L -102.557,14.653 M -111.003,14.016 L -85.964,12.07 M -111.103,12.731 L -80.612,10.361 M -111.203,11.445 L -80.5,9.058 M -111.303,10.159 L -80.821,7.79 M -111.403,8.874 L -81.142,6.521 M -111.503,7.588 L -81.464,5.253 M -111.603,6.302 L -81.785,3.984 M -111.703,5.016 L -82.106,2.716 M -111.803,3.731 L -82.427,1.447 M -111.903,2.445 L -83.588,0.244 M -112.003,1.159 L -89.752,-0.57 M -112.103,-0.126 L -98.752,-1.164 M -111.448,-1.471 L -107.753,-1.758 M -89.615,15.978 L -88.524,14.493 L -80.765,13.285 L -79.162,14.345 L -75.399,29.208 L -76.364,30.668 L -85.869,32.148 L -87.347,31.063 L -89.615,15.978 M -89.323,31.37 L -90.415,32.856 L -108.026,35.598 L -109.411,34.501 L -110.597,19.241 L -109.414,17.745 L -93.069,15.2 L -91.592,16.286 L -89.323,31.37 M -109.569,15.745 L -110.954,14.649 L -112.152,-0.759 L -110.955,-1.969 L -84.119,-0.198 L -82.503,1.147 L -80.293,9.877 L -81.258,11.337 L -109.569,15.745" stroke="#A5A2A2" stroke-width="0.094" stroke-linejoin="round" stroke-linecap="butt"/></g><g><path d=" M 0,0"/><path d=" M -31.28,78.28 L -33.195,79.137 M -30.761,79.439 L -33.647,80.73 M -30.242,80.598 L -34.099,82.324 M -29.723,81.758 L -34.552,83.918 M -29.205,82.917 L -35.004,85.512 M -28.686,84.076 L -35.456,87.106 M -28.167,85.235 L -35.908,88.7 M -27.648,86.395 L -36.361,90.293 M -27.129,87.554 L -36.813,91.887 M -26.611,88.713 L -37.265,93.481 M -26.092,89.872 L -37.718,95.075 M -25.573,91.032 L -38.17,96.669 M -25.054,92.191 L -38.622,98.263 M -25.143,93.622 L -38.644,99.664 M -38.114,100.122 L -38.946,99.403 L -32.871,77.997 L -32.238,76.752 L -31.43,77.944 L -24.807,92.743 L -25.463,94.461 L -38.114,100.122" stroke="#A5A2A2" stroke-width="0.094" stroke-linejoin="round" stroke-linecap="butt"/><path d=" M -30.006,78.45 L -30.006,78.81 L -30.476,80.465 L -31.843,80.077 L -32.268,81.574 L -32.268,81.214 L -31.843,79.717 L -30.476,80.105 L -30.006,78.45" fill="#130F26" stroke="#130F26" stroke-width="0.094"/><path d=" M -30.901,81.602 L -30.901,81.962 L -31.286,83.318 L -34.15,82.505 L -34.15,82.145 L -31.286,82.958 L -30.901,81.602" fill="#130F26" stroke="#130F26" stroke-width="0.094"/><path d=" M -31.286,82.958 L -34.15,82.145 L -32.871,77.637 L -30.006,78.45 L -30.476,80.105 L -31.843,79.717 L -32.268,81.214 L -30.901,81.602 L -31.286,82.958" fill="#9A979B" stroke="#130F26" stroke-width="0.094"/></g><g><path d=" M 0,0"/><path d=" M -49.605,89.405 L -44.297,104.522 M -48.699,88.325 L -42.716,105.364 M -47.555,87.923 L -42.142,103.339 M -46.411,87.521 L -41.567,101.314 M -45.266,87.119 L -40.993,99.29 M -44.122,86.718 L -40.418,97.265 M -42.978,86.316 L -39.844,95.241 M -41.833,85.914 L -39.269,93.216 M -40.689,85.512 L -38.695,91.192 M -39.545,85.11 L -38.12,89.167 M -38.4,84.709 L -37.546,87.143 M -52.238,86.948 L -49.571,86.511 M -53.237,85.851 L -42.843,84.149 M -53.438,84.624 L -37.007,81.933 M -53.639,83.396 L -35.646,80.449 M -53.84,82.168 L -35.271,79.127 M -54.041,80.941 L -34.896,77.805 M -54.242,79.713 L -34.84,76.536 M -54.443,78.485 L -35.067,75.312 M -54.644,77.258 L -35.699,74.155 M -54.845,76.03 L -36.542,73.033 M -55.046,74.803 L -37.384,71.91 M -55.247,73.575 L -38.226,70.787 M -55.448,72.347 L -39.069,69.665 M -55.649,71.12 L -39.911,68.542 M -55.85,69.892 L -41.308,67.51 M -56.052,68.665 L -44.379,66.753 M -56.253,67.437 L -49.249,66.29 M -55.586,66.067 L -54.119,65.827 M -58.016,69.047 L -59.062,66.067 M -56.821,76.34 L -60.733,65.198 M -55.627,83.634 L -62.147,65.064 M -55.514,87.845 L -63.561,64.93 M -56.496,88.943 L -64.943,64.884 M -57.712,89.37 L -66.159,65.313 M -58.929,89.797 L -67.31,65.926 M -60.145,90.224 L -68.328,66.919 M -61.362,90.651 L -69.346,67.911 M -62.578,91.078 L -70.364,68.904 M -63.795,91.506 L -71.382,69.896 M -65.228,91.314 L -72.205,71.445 M -49.941,90.138 L -49.189,88.497 L -37.91,84.537 L -37.039,85.357 L -42.886,105.963 L -43.716,106.003 L -49.941,90.138 M -56.344,66.878 L -55.26,65.719 L -42.308,66.95 L -40.234,68.112 L -35.145,74.894 L -34.72,77.184 L -35.661,80.501 L -37.242,82.182 L -51.709,87.262 L -53.145,86.41 L -56.344,66.878 M -55.062,87.083 L -56.078,88.796 L -64.393,91.716 L -66.05,90.92 L -72.478,72.612 L -71.978,70.478 L -66.976,65.601 L -64.751,64.816 L -59.907,65.277 L -58.403,66.683 L -55.062,87.083" stroke="#A5A2A2" stroke-width="0.094" stroke-linejoin="round" stroke-linecap="butt"/></g><g><path d=" M 0,0"/><path d=" M -93.239,52.926 L -89.888,72.129 M -92.111,51.984 L -88.519,72.57 M -90.857,51.765 L -87.264,72.355 M -89.602,51.546 L -86.009,72.141 M -88.348,51.327 L -84.754,71.927 M -87.094,51.109 L -83.499,71.712 M -85.839,50.89 L -82.243,71.498 M -84.585,50.671 L -80.988,71.283 M -83.331,50.452 L -79.733,71.069 M -82.076,50.233 L -78.478,70.854 M -80.822,50.014 L -77.223,70.64 M -79.568,49.795 L -75.968,70.425 M -78.313,49.576 L -74.773,69.867 M -77.059,49.358 L -73.587,69.253 M -75.805,49.139 L -72.483,68.176 M -74.55,48.92 L -71.378,67.099 M -73.296,48.701 L -70.274,66.023 M -72.008,48.674 L -69.169,64.946 M -70.207,51.588 L -68.165,63.293 M -93.679,49.609 L -72.286,45.954 M -94.566,48.52 L -71.804,44.631 M -94.772,47.315 L -72.078,43.437 M -94.978,46.109 L -72.352,42.243 M -95.184,44.904 L -72.626,41.049 M -95.39,43.698 L -72.9,39.856 M -95.596,42.493 L -73.174,38.662 M -95.802,41.287 L -73.448,37.468 M -96.008,40.082 L -73.722,36.274 M -96.214,38.877 L -73.996,35.08 M -96.42,37.671 L -74.27,33.886 M -95.937,36.348 L -75.533,32.862 M -97.632,42.449 L -99.153,36.972 M -96.4,51.716 L -100.634,36.471 M -97.392,52.974 L -101.919,36.671 M -98.637,53.32 L -103.205,36.871 M -99.882,53.666 L -104.49,37.071 M -101.128,54.012 L -105.776,37.271 M -102.373,54.357 L -107.062,37.472 M -103.618,54.703 L -108.344,37.685 M -104.863,55.049 L -109.472,38.453 M -106.108,55.395 L -110.534,39.458 M -107.354,55.74 L -111.444,41.01 M -108.599,56.086 L -112.354,42.562 M -109.844,56.432 L -113.265,44.114 M -111.089,56.778 L -114.175,45.666 M -112.335,57.124 L -115.085,47.218 M -113.58,57.469 L -115.995,48.771 M -114.825,57.815 L -116.905,50.323 M -116.104,58.039 L -117.816,51.875 M -117.641,57.333 L -118.566,54.004 M -93.107,72.674 L -96.064,55.369 M -94.236,73.547 L -97.397,55.051 M -95.479,73.759 L -98.617,55.39 M -96.721,73.971 L -99.838,55.729 M -97.963,74.184 L -101.058,56.068 M -99.205,74.396 L -102.279,56.407 M -100.447,74.608 L -103.499,56.746 M -101.69,74.82 L -104.72,57.085 M -102.932,75.033 L -105.941,57.424 M -104.174,75.245 L -107.161,57.763 M -105.416,75.457 L -108.382,58.102 M -106.658,75.669 L -109.602,58.441 M -107.935,75.681 L -110.823,58.78 M -109.339,74.948 L -112.044,59.118 M -111.291,71.003 L -113.264,59.457 M -113.301,66.724 L -114.485,59.796 M -115.311,62.444 L -115.553,61.025 M -72.244,48.517 L -70.673,49.561 L -67.803,62.063 L -68.443,64.238 L -73.608,69.274 L -75.821,70.4 L -89.12,72.673 L -90.62,71.61 L -93.701,53.581 L -92.639,52.076 L -72.244,48.517 M -92.976,50.105 L -94.476,49.047 L -96.51,37.144 L -95.444,35.663 L -75.892,32.619 L -74.316,33.686 L -71.702,45.075 L -72.692,46.565 L -92.976,50.105 M -115.925,58.121 L -117.73,57.292 L -118.628,55.38 L -118.523,53.082 L -110.259,38.988 L -108.317,37.667 L -99.99,36.371 L -98.486,37.452 L -96.123,51.28 L -97.157,52.909 L -115.925,58.121 M -96.818,54.891 L -95.347,55.824 L -92.592,71.947 L -93.654,73.447 L -107.637,75.837 L -109.471,74.879 L -115.763,61.481 L -115.063,59.957 L -96.818,54.891" stroke="#A5A2A2" stroke-width="0.094" stroke-linejoin="round" stroke-linecap="butt"/></g><g><path d=" M 0,0"/><path d=" M -85.805,74.135 L -88.721,75.159 M -78.328,72.858 L -89.343,76.725 M -75.02,73.044 L -89.209,78.026 M -74.088,74.064 L -89.075,79.327 M -73.667,75.264 L -88.941,80.627 M -73.245,76.464 L -88.807,81.928 M -72.824,77.664 L -88.673,83.229 M -72.403,78.864 L -88.54,84.53 M -71.982,80.063 L -88.406,85.83 M -71.56,81.263 L -88.272,87.131 M -71.139,82.463 L -88.138,88.432 M -70.718,83.663 L -88.004,89.733 M -70.296,84.863 L -87.87,91.033 M -69.875,86.063 L -87.736,92.334 M -69.454,87.262 L -87.603,93.635 M -69.033,88.462 L -87.469,94.936 M -68.611,89.662 L -87.335,96.236 M -68.785,91.071 L -87.201,97.537 M -77.539,95.493 L -86.427,98.613 M -90.772,88.406 L -92.06,75.893 M -91.932,89.211 L -93.35,75.424 M -93.161,89.337 L -94.571,75.633 M -94.39,89.464 L -95.792,75.842 M -95.62,89.59 L -97.013,76.05 M -96.849,89.717 L -98.234,76.259 M -98.078,89.843 L -99.455,76.467 M -99.307,89.97 L -100.675,76.676 M -100.537,90.096 L -101.896,76.885 M -101.766,90.223 L -103.117,77.093 M -102.995,90.349 L -104.338,77.302 M -104.224,90.476 L -105.559,77.51 M -105.454,90.602 L -106.779,77.719 M -106.683,90.729 L -107.951,78.407 M -107.912,90.855 L -109.015,80.14 M -109.141,90.982 L -109.803,84.552 M -110.463,90.208 L -110.591,88.965 M -111.556,94.478 L -111.318,96.794 M -110.407,93.411 L -109.837,98.957 M -109.191,92.997 L -108.419,100.499 M -107.945,92.869 L -107.001,102.042 M -106.7,92.741 L -105.584,103.584 M -105.454,92.613 L -104.166,105.126 M -104.208,92.485 L -102.861,105.573 M -102.963,92.356 L -101.594,105.652 M -101.717,92.228 L -100.388,105.143 M -100.471,92.1 L -99.182,104.633 M -99.226,91.972 L -97.975,104.124 M -97.98,91.844 L -96.769,103.614 M -96.734,91.716 L -95.562,103.105 M -95.489,91.587 L -94.356,102.595 M -94.243,91.459 L -93.15,102.086 M -92.997,91.331 L -91.943,101.576 M -91.752,91.203 L -90.737,101.066 M -90.437,91.745 L -89.596,99.915 M -89.41,76.067 L -88.262,74.555 L -76.009,72.461 L -74.297,73.469 L -68.412,90.229 L -69.179,91.961 L -85.803,98.983 L -87.133,98.195 L -89.41,76.067 M -109.692,91.038 L -110.757,89.892 L -108.868,79.317 L -107.358,77.818 L -92.801,75.331 L -91.386,76.405 L -90.221,87.728 L -91.381,89.154 L -109.692,91.038 M -91.176,91.144 L -89.75,92.304 L -89.06,99.009 L -90.125,100.808 L -101.901,105.782 L -103.979,105.331 L -111.083,97.601 L -111.734,95.364 L -111.58,94.499 L -110.058,93.087 L -91.176,91.144" stroke="#A5A2A2" stroke-width="0.094" stroke-linejoin="round" stroke-linecap="butt"/></g><g><path d=" M 0,0"/><path d=" M -112.599,26.796 L -113.889,10.919 M -113.815,27.617 L -115.207,10.496 M -115.09,27.72 L -116.471,10.729 M -116.365,27.824 L -117.735,10.963 M -117.64,27.928 L -118.999,11.197 M -118.914,28.031 L -120.264,11.43 M -120.189,28.135 L -121.528,11.664 M -121.464,28.238 L -122.792,11.897 M -122.739,28.342 L -124.056,12.131 M -124.067,27.787 L -125.267,13.02 M -127.301,28.012 L -128.468,13.649 M -128.444,28.806 L -129.714,13.177 M -129.644,28.903 L -130.904,13.396 M -130.844,29.001 L -132.094,13.616 M -132.044,29.098 L -133.284,13.836 M -133.244,29.196 L -134.474,14.056 M -134.444,29.293 L -135.664,14.276 M -135.644,29.391 L -136.854,14.496 M -136.844,29.488 L -138.044,14.716 M -138.044,29.586 L -139.234,14.936 M -139.244,29.683 L -140.424,15.155 M -140.443,29.781 L -141.614,15.375 M -141.7,29.183 L -142.748,16.288 M -113.799,3.853 L -114.78,-1.455 M -114.348,7.861 L -116.211,-2.219 M -115.515,8.519 L -117.506,-2.253 M -116.762,8.749 L -118.801,-2.287 M -118.008,8.98 L -120.097,-2.321 M -119.255,9.21 L -121.392,-2.355 M -120.501,9.44 L -122.687,-2.389 M -121.748,9.671 L -123.983,-2.423 M -122.995,9.901 L -125.278,-2.457 M -124.241,10.131 L -126.573,-2.491 M -125.488,10.362 L -127.869,-2.525 M -126.734,10.592 L -129.164,-2.559 M -127.981,10.822 L -130.459,-2.593 M -129.227,11.053 L -131.755,-2.627 M -130.474,11.283 L -133.05,-2.662 M -131.72,11.513 L -134.346,-2.696 M -132.967,11.744 L -135.641,-2.73 M -134.213,11.974 L -136.936,-2.764 M -135.46,12.204 L -138.221,-2.743 M -136.706,12.435 L -139.461,-2.473 M -137.953,12.665 L -140.689,-2.145 M -139.199,12.895 L -141.872,-1.568 M -140.446,13.125 L -143.054,-0.99 M -141.692,13.356 L -144.11,0.271 M -143.073,12.861 L -144.068,7.474 M -146.465,2.667 L -151.347,3.063 M -146.362,3.942 L -154.499,4.603 M -146.258,5.218 L -157.65,6.143 M -146.154,6.493 L -160.801,7.683 M -146.051,7.768 L -163.289,9.169 M -145.947,9.044 L -163.745,10.49 M -145.843,10.319 L -163.222,11.732 M -145.74,11.595 L -162.623,12.967 M -145.636,12.87 L -162.024,14.202 M -145.532,14.146 L -161.425,15.437 M -145.429,15.421 L -160.826,16.673 M -145.325,16.697 L -160.227,17.908 M -145.222,17.972 L -159.628,19.143 M -145.118,19.248 L -159.029,20.378 M -145.014,20.523 L -158.43,21.613 M -144.911,21.799 L -157.831,22.849 M -144.807,23.074 L -157.233,24.084 M -144.703,24.349 L -156.634,25.319 M -144.6,25.625 L -156.035,26.554 M -144.496,26.9 L -155.436,27.789 M -144.392,28.176 L -154.837,29.025 M -144.947,29.505 L -153.626,30.21 M -135.275,31.954 L -143.522,32.038 M -134.55,33.221 L -152.104,33.398 M -134.537,34.494 L -152.098,34.672 M -134.524,35.768 L -151.483,35.94 M -134.511,37.042 L -150.869,37.208 M -134.498,38.316 L -150.254,38.475 M -134.485,39.589 L -149.639,39.743 M -134.472,40.863 L -149.025,41.011 M -134.46,42.137 L -148.41,42.278 M -134.447,43.411 L -147.795,43.546 M -134.434,44.684 L -147.181,44.813 M -134.421,45.958 L -146.566,46.081 M -134.408,47.232 L -145.951,47.349 M -134.395,48.506 L -145.336,48.616 M -134.382,49.779 L -144.352,49.88 M -135.112,51.061 L -139.963,51.11 M -126.293,52.526 L -121.188,52.475 M -131.696,51.342 L -119.751,51.221 M -132.379,50.11 L -119.02,49.975 M -132.391,48.871 L -118.289,48.729 M -132.404,47.633 L -117.558,47.482 M -132.416,46.394 L -116.827,46.236 M -132.429,45.155 L -116.097,44.99 M -132.441,43.916 L -115.366,43.743 M -132.454,42.678 L -114.635,42.497 M -132.466,41.439 L -113.904,41.251 M -132.479,40.2 L -113.173,40.005 M -132.492,38.961 L -112.442,38.758 M -132.504,37.723 L -111.828,37.513 M -132.517,36.484 L -111.542,36.271 M -132.529,35.245 L -111.376,35.031 M -132.542,34.006 L -111.472,33.793 M -132.554,32.768 L -111.568,32.555 M -131.711,31.52 L -111.665,31.317 M -120.516,30.168 L -112.494,30.087 M -125.847,13.777 L -124.674,12.245 L -114.589,10.382 L -113.21,11.442 L -112.065,26.17 L -113.26,27.572 L -123.355,28.392 L -124.756,27.202 L -125.847,13.777 M -126.75,27.364 L -127.94,28.765 L -140.948,29.822 L -142.349,28.631 L -143.294,17.001 L -142.121,15.469 L -129.208,13.083 L -127.824,14.142 L -126.75,27.364 M -142.284,13.465 L -143.667,12.406 L -144.586,1.106 L -143.523,-0.761 L -140.466,-2.255 L -137.998,-2.791 L -115.567,-2.202 L -114.167,-0.872 L -113.567,6.844 L -114.745,8.377 L -142.284,13.465 M -144.342,28.793 L -145.533,30.194 L -152.642,30.772 L -154.505,29.708 L -163.778,10.585 L -163.177,8.845 L -147.789,1.324 L -146.516,2.049 L -144.342,28.793 M -134.376,50.39 L -135.656,51.556 L -143.055,50.79 L -144.915,49.486 L -152.435,33.978 L -151.706,32.703 L -135.865,31.415 L -134.556,32.61 L -134.376,50.39 M -132.558,32.448 L -131.275,31.042 L -113.105,29.566 L -111.708,30.756 L -111.346,35.42 L -111.903,37.838 L -120.189,51.969 L -122.14,52.957 L -131.068,52.032 L -132.374,50.598 L -132.558,32.448" stroke="#A5A2A2" stroke-width="0.094" stroke-linejoin="round" stroke-linecap="butt"/><path d=" M -112.065,25.81 L -112.065,26.17 L -114.409,26.352 L -114.727,22.266 L -114.727,21.906 L -114.409,25.992 L -112.065,25.81" fill="#130F26" stroke="#130F26" stroke-width="0.094"/><path d=" M -126.75,27.004 L -126.75,27.364 L -128.763,27.527 L -129.152,22.739 L -129.152,22.379 L -128.763,27.167 L -126.75,27.004" fill="#130F26" stroke="#130F26" stroke-width="0.094"/><path d=" M -114.745,8.017 L -114.745,8.377 L -117.997,8.978 L -118.221,7.766 L -119.69,8.037 L -119.931,6.73 L -119.931,6.37 L -119.69,7.677 L -118.221,7.406 L -117.997,8.618 L -114.745,8.017" fill="#130F26" stroke="#130F26" stroke-width="0.094"/><path d=" M -113.379,23.971 L -112.215,23.88 L -112.065,25.81 L -114.409,25.992 L -114.727,21.906 L -113.546,21.814 L -113.379,23.971" fill="#A4A1A5" stroke="#130F26" stroke-width="0.094"/><path d=" M -129.152,22.379 L -127.139,22.215 L -126.75,27.004 L -128.763,27.167 L -129.152,22.379" fill="#928F93" stroke="#130F26" stroke-width="0.094"/><path d=" M -115.21,5.498 L -114.745,8.017 L -117.997,8.618 L -118.221,7.406 L -119.69,7.677 L -119.931,6.37 L -115.21,5.498" fill="#A29FA3" stroke="#130F26" stroke-width="0.094"/></g><g><path d=" M 0,0"/><path d=" M -135.852,104.804 L -133.942,103.562 M -141.727,107.081 L -133.972,102.04 M -147.253,109.131 L -134.677,100.955 M -148.839,108.619 L -135.382,99.871 M -149.658,107.609 L -136.087,98.786 M -150.363,106.525 L -136.792,97.702 M -151.068,105.44 L -137.497,96.618 M -151.773,104.356 L -138.201,95.533 M -152.478,103.272 L -138.906,94.449 M -153.183,102.187 L -139.611,93.365 M -153.888,101.103 L -140.316,92.28 M -154.593,100.019 L -141.021,91.196 M -155.298,98.934 L -141.726,90.112 M -156.003,97.85 L -142.431,89.027 M -156.708,96.766 L -143.136,87.943 M -157.412,95.681 L -143.841,86.858 M -158.117,94.597 L -144.546,85.774 M -158.822,93.512 L -145.251,84.69 M -159.527,92.428 L -145.956,83.605 M -160.232,91.344 L -146.661,82.521 M -160.937,90.259 L -147.365,81.437 M -161.094,88.819 L -148.618,80.708 M -145.848,78.918 L -130.745,102.152 M -145.125,77.666 L -129.167,102.214 M -144.044,76.964 L -127.939,101.738 M -142.963,76.261 L -126.71,101.262 M -141.882,75.558 L -125.482,100.786 M -140.802,74.856 L -124.254,100.31 M -139.721,74.153 L -123.466,99.158 M -138.64,73.45 L -124.759,94.803 M -137.559,72.748 L -127.644,87.999 M -136.478,72.045 L -130.529,81.196 M -134.971,71.998 L -133.415,74.393 M -120.18,98.265 L -114.324,95.782 M -121.475,97.424 L -113.532,94.056 M -121.975,96.246 L -113.264,92.552 M -122.474,95.068 L -112.995,91.048 M -122.974,93.89 L -112.726,89.544 M -123.473,92.712 L -112.458,88.041 M -123.973,91.534 L -112.189,86.537 M -124.472,90.356 L -111.92,85.033 M -124.972,89.178 L -111.652,83.529 M -125.472,88 L -111.383,82.025 M -125.971,86.822 L -111.115,80.522 M -126.471,85.644 L -110.846,79.018 M -126.97,84.466 L -110.893,77.648 M -127.076,83.121 L -111.066,76.331 M -124.762,80.75 L -111.554,75.148 M -116.501,75.856 L -112.796,74.285 M -115.679,66.366 L -118.661,61.331 M -114.111,71.501 L -120.097,61.396 M -114.933,72.603 L -121.161,62.088 M -116.024,73.249 L -122.225,62.78 M -117.115,73.896 L -123.29,63.472 M -118.207,74.542 L -124.354,64.164 M -119.298,75.189 L -125.419,64.855 M -120.389,75.835 L -126.483,65.547 M -121.481,76.481 L -127.547,66.239 M -122.572,77.128 L -128.612,66.931 M -123.663,77.774 L -129.676,67.623 M -124.755,78.421 L -130.741,68.315 M -125.846,79.067 L -131.805,69.007 M -126.937,79.714 L -132.444,70.418 M -128.417,79.705 L -130.432,76.302 M -151.716,59.252 L -156.092,62.097 M -150.405,59.905 L -165.403,69.655 M -149.717,60.962 L -170.365,74.385 M -149.03,62.02 L -170.304,75.85 M -148.342,63.078 L -169.617,76.908 M -147.655,64.135 L -168.929,77.966 M -146.967,65.193 L -168.241,79.023 M -146.279,66.251 L -167.554,80.081 M -145.592,67.309 L -166.866,81.139 M -144.904,68.366 L -166.179,82.196 M -144.217,69.424 L -165.491,83.254 M -143.529,70.482 L -164.804,84.312 M -142.841,71.539 L -164.116,85.369 M -142.715,72.962 L -162.867,86.062 M -120.016,57.723 L -121.429,55.55 M -120.513,59.281 L -123.402,54.837 M -121.573,59.97 L -125.019,54.669 M -122.634,60.66 L -126.637,54.501 M -123.694,61.349 L -128.255,54.334 M -124.755,62.039 L -129.873,54.166 M -125.815,62.728 L -131.49,53.998 M -126.876,63.417 L -133.108,53.831 M -127.937,64.107 L -134.726,53.663 M -128.997,64.796 L -136.344,53.496 M -130.058,65.486 L -137.961,53.328 M -131.118,66.175 L -139.579,53.16 M -132.179,66.865 L -141.197,52.993 M -133.239,67.554 L -142.815,52.825 M -134.3,68.244 L -144.156,53.083 M -135.361,68.933 L -145.42,53.46 M -136.421,69.623 L -146.418,54.245 M -137.482,70.312 L -147.406,55.047 M -138.542,71.002 L -148.393,55.848 M -139.967,71.131 L -149.019,57.207 M -133.623,102.576 L -134.127,104.136 L -147.125,109.172 L -149.045,108.552 L -161.286,89.723 L -160.905,87.924 L -149.513,80.519 L -147.714,80.9 L -133.623,102.576 M -146.037,79.81 L -145.656,78.012 L -135.947,71.7 L -134.35,72.188 L -123.189,98.504 L -123.894,100.171 L -129.797,102.458 L -131.718,101.838 L -146.037,79.81 M -113.489,74.072 L -111.818,74.586 L -111.093,76.13 L -110.769,78.586 L -113.707,95.032 L -115.147,96.781 L -119.604,98.508 L -121.324,97.781 L -127.279,83.738 L -126.668,81.879 L -113.489,74.072 M -127.456,80.021 L -129.082,79.486 L -132.647,71.081 L -132.064,69.176 L -119.59,61.066 L -117.947,61.535 L -113.777,70.414 L -114.343,72.254 L -127.456,80.021 M -142.519,72.036 L -142.9,73.834 L -161.995,86.247 L -163.793,85.866 L -170.539,75.489 L -170.238,73.58 L -152.446,59.137 L -150.728,59.408 L -142.519,72.036 M -149.166,58.141 L -148.865,56.231 L -145.468,53.474 L -143.166,52.789 L -122.268,54.954 L -120.422,56.265 L -119.911,57.354 L -120.448,59.239 L -139.043,71.327 L -140.842,70.946 L -149.166,58.141" stroke="#A5A2A2" stroke-width="0.094" stroke-linejoin="round" stroke-linecap="butt"/><path d=" M -113.366,92.766 L -113.366,93.126 L -113.707,95.032 L -116.021,94.618 L -116.021,94.258 L -113.707,94.672 L -113.366,92.766" fill="#130F26" stroke="#130F26" stroke-width="0.094"/><path d=" M -114.135,90.432 L -114.135,90.792 L -114.515,92.921 L -114.515,92.561 L -114.135,90.432" fill="#130F26" stroke="#130F26" stroke-width="0.094"/><path d=" M -123.323,77.212 L -123.323,77.572 L -127.456,80.021 L -128.486,78.283 L -128.486,77.923 L -127.456,79.661 L -123.323,77.212" fill="#130F26" stroke="#130F26" stroke-width="0.094"/><path d=" M -164.896,72.183 L -164.896,72.543 L -168.624,75.569 L -170.238,73.58 L -170.238,73.22 L -168.624,75.209 L -164.896,72.183" fill="#130F26" stroke="#130F26" stroke-width="0.094"/><path d=" M -114.515,92.561 L -113.366,92.766 L -113.707,94.672 L -116.021,94.258 L -115.301,90.223 L -114.135,90.432 L -114.515,92.561" fill="#9A979B" stroke="#130F26" stroke-width="0.094"/><path d=" M -124.352,75.474 L -123.323,77.212 L -127.456,79.661 L -128.486,77.923 L -124.352,75.474" fill="#A29FA3" stroke="#130F26" stroke-width="0.094"/><path d=" M -168.624,75.209 L -170.238,73.22 L -167.67,71.135 L -166.894,72.092 L -165.734,71.151 L -164.896,72.183 L -168.624,75.209" fill="#99969A" stroke="#130F26" stroke-width="0.094"/></g><g><path d=" M 0,0"/></g></g><g><path d=" M 0,0"/><path d=" M 4.811,0 L 4.811,714.663 M 147.214,0 L 147.214,714.663 M 289.618,0 L 289.618,714.663 M 432.022,0 L 432.022,714.663 M 574.426,0 L 574.426,714.663 M 716.829,0 L 716.829,714.663 M 859.233,0 L 859.233,714.663 M 1001.637,0 L 1001.637,714.663 M 1144.041,0 L 1144.041,714.663 M 0,57.637 L 1200,57.637 M 0,200.041 L 1200,200.041 M 0,342.445 L 1200,342.445 M 0,484.849 L 1200,484.849 M 0,627.252 L 1200,627.252" stroke="#130F26" stroke-width="0.267"/></g><g><path d=" M 0,0"/></g><g><path d=" M 0,0"/><g transform="translate(90 624.663)"><path d=" M 0,0"/><path d=" M 80,0 Q 80,33.137 56.569,56.569 Q 33.137,80 0,80 L 0,80 Q -33.137,80 -56.569,56.569 Q -80,33.137 -80,0 L -80,0 Q -80,-33.137 -56.569,-56.569 Q -33.137,-80 0,-80 L 0,-80 Q 33.137,-80 56.569,-56.569 Q 80,-33.137 80,0 L 80,0" fill="#FF0000" fill-opacity="0"/><path d=" M 35.433,0 Q 35.433,14.677 25.055,25.055 Q 14.677,35.433 0,35.433 L 0,35.433 Q -14.677,35.433 -25.055,25.055 Q -35.433,14.677 -35.433,0 L -35.433,0 Q -35.433,-14.677 -25.055,-25.055 Q -14.677,-35.433 0,-35.433 L 0,-35.433 Q 14.677,-35.433 25.055,-25.055 Q 35.433,-14.677 35.433,0 L 35.433,0" stroke="#130F26" stroke-width="1.067"/><path d=" M 43.229,0 Q 43.229,17.906 30.567,30.567 Q 17.906,43.229 0,43.229 L 0,43.229 Q -17.906,43.229 -30.567,30.567 Q -43.229,17.906 -43.229,0 L -43.229,0 Q -43.229,-17.906 -30.567,-30.567 Q -17.906,-43.229 0,-43.229 L 0,-43.229 Q 17.906,-43.229 30.567,-30.567 Q 43.229,-17.906 43.229,0 L 43.229,0" stroke="#130F26" stroke-width="0.533"/><path d=" M 0,0 L 36.683,36.683 L 0,6.407 L 0,0 M 0,0 L -36.683,36.683 L -6.407,0 L 0,0 M 0,0 L -36.683,-36.683 L 0,-6.407 L 0,0 M 0,0 L 36.683,-36.683 L 6.407,0 L 0,0" fill="#130F26"/><path d=" M 0,0 L 0,6.407 L -36.683,36.683 L 0,0 M 0,0 L -6.407,0 L -36.683,-36.683 L 0,0 M 0,0 L 0,-6.407 L 36.683,-36.683 L 0,0 M 0,0 L 6.407,0 L 36.683,36.683 L 0,0" fill="#BFBFBF"/><path d=" M 6.407,0 L 36.683,36.683 L 0,6.407 L -36.683,36.683 L -6.407,0 L -36.683,-36.683 L 0,-6.407 L 36.683,-36.683 L 6.407,0" stroke="#130F26" stroke-width="0.533"/><path d=" M 0,0 L 80,0 L 6.987,6.987 L 0,0 M 0,0 L 0,80 L -6.987,6.987 L 0,0 M 0,0 L -80,0 L -6.987,-6.987 L 0,0 M 0,0 L 0,-80 L 6.987,-6.987 L 0,0" fill="#130F26"/><path d=" M 0,0 L 6.987,6.987 L 0,80 L 0,0 M 0,0 L -6.987,6.987 L -80,0 L 0,0 M 0,0 L -6.987,-6.987 L 0,-80 L 0,0 M 0,0 L 6.987,-6.987 L 80,0 L 0,0" fill="#BFBFBF"/><path d=" M 6.987,-6.987 L 80,0 L 6.987,6.987 L 0,80 L -6.987,6.987 L -80,0 L -6.987,-6.987 L 0,-80 L 6.987,-6.987" stroke="#130F26" stroke-width="0.533"/><g transform="translate(0 -80)"><path d=" M 0,0"/><text dominant-baseline="text-before-edge" style="font: 18px &#039;IM Fell Great Primer&#039;, serif" fill="#130F26" transform="translate(-7.633 -23)">N</text></g></g></g><g><path d=" M 0,0"/><g transform="translate(861 579.663)"><path d=" M 0,0"/><path d=" M 0,0 L 329,0 L 329,125 L 0,125 L 0,0" fill="#BFBFBF"/><g><path d=" M 0,0"/><path d=" M 0,0 L 329,0 L 329,125 L 0,125 L 0,0" stroke="#130F26" stroke-width="1.067" stroke-linejoin="miter" stroke-linecap="round"/><path d=" M 2.133,2.133 L 326.867,2.133 L 326.867,122.867 L 2.133,122.867 L 2.133,2.133" stroke="#130F26" stroke-width="0.533" stroke-linejoin="miter" stroke-linecap="round"/></g><g transform="translate(10 10)"><path d=" M 0,0"/><g transform="translate(37.896 10)"><path d=" M 0,0"/><text dominant-baseline="text-before-edge" style="font: 32px &#039;IM Fell Great Primer&#039;, serif" fill="#130F26" transform="translate(2 2)">Stockton-on-tees</text></g><g transform="translate(10 64)"><path d=" M 0,0"/><g transform="translate(0 31)"><path d=" M 0,0"/><path d=" M 0,-12 L 285,-12 L 285,0 L 0,0 L 0,-12" fill="#FF0000" fill-opacity="0"/><path d=" M 0,-12 L 0,0 L 284.808,0 L 284.808,-12 M 71.202,0 L 71.202,-6 M 142.404,0 L 142.404,-12 M 213.606,0 L 213.606,-6" stroke="#130F26" stroke-width="0.533" stroke-linejoin="miter" stroke-linecap="butt"/><text dominant-baseline="text-before-edge" style="font: 14px &#039;IM Fell Great Primer&#039;, serif" fill="#130F26" transform="translate(0 -32)">0</text><text dominant-baseline="text-before-edge" style="font: 14px &#039;IM Fell Great Primer&#039;, serif" fill="#130F26" transform="translate(131.521 -32)">100</text><text dominant-baseline="text-before-edge" style="font: 14px &#039;IM Fell Great Primer&#039;, serif" fill="#130F26" transform="translate(261.606 -32)">200</text><text dominant-baseline="text-before-edge" style="font: 14px &#039;IM Fell Great Primer&#039;, serif" fill="#130F26" transform="translate(12.148 -32)">m</text></g></g></g></g></g></g></svg>